M48
; DRILL file {KiCad 8.0.5} date 2024-10-07T01:51:22+0900
; FORMAT={-:-/ absolute / inch / decimal}
; #@! TF.CreationDate,2024-10-07T01:51:22+09:00
; #@! TF.GenerationSoftware,Kicad,Pcbnew,8.0.5
; #@! TF.FileFunction,Plated,1,2,PTH
FMAT,2
INCH
; #@! TA.AperFunction,Plated,PTH,ViaDrill
T1C0.0118
; #@! TA.AperFunction,Plated,PTH,ComponentDrill
T2C0.0394
; #@! TA.AperFunction,Plated,PTH,ComponentDrill
T3C0.0433
; #@! TA.AperFunction,Plated,PTH,ComponentDrill
T4C0.0472
; #@! TA.AperFunction,Plated,PTH,ComponentDrill
T5C0.0531
; #@! TA.AperFunction,Plated,PTH,ComponentDrill
T6C0.0984
; #@! TA.AperFunction,Plated,PTH,ComponentDrill
T7C0.1181
%
G90
G05
T1
X3.5202Y-3.4409
X3.5202Y-3.6301
X4.1634Y-4.3622
X4.1929Y-3.7579
X4.3976Y-4.0669
X4.4469Y-4.1404
X4.4823Y-3.7579
X4.8248Y-3.6063
X5.0679Y-3.1811
X5.1004Y-3.1594
X5.122Y-4.0276
X5.1752Y-3.8228
X5.2598Y-3.4646
X5.2992Y-4.3976
X5.315Y-3.4646
X5.3425Y-3.4961
X5.3474Y-3.2608
X5.4567Y-3.2598
X5.4567Y-3.5276
X5.4724Y-3.1575
X5.4882Y-3.8701
X5.4961Y-2.9921
X5.5039Y-3.5276
X5.5591Y-3.8701
X5.5945Y-3.3346
X5.626Y-3.3228
X5.6299Y-3.6654
X5.6506Y-2.9695
X5.6535Y-3.1575
X5.6575Y-3.3701
X5.6732Y-3.685
X5.6969Y-3.1811
X5.6969Y-3.4961
X5.6988Y-3.2736
X5.7008Y-3.626
X5.7308Y-3.6944
X5.773Y-3.2966
X5.7785Y-2.9695
X5.7835Y-3.6811
X5.7874Y-3.6299
X5.8091Y-3.6083
X5.8543Y-3.1811
X5.8681Y-3.498
X5.9016Y-3.3307
X5.9459Y-4.5502
X5.9646Y-3.0079
X6.0226Y-3.1378
X6.0472Y-3.2844
X6.0472Y-3.3238
X6.0472Y-3.378
X6.0472Y-3.4213
X6.0689Y-3.4419
X6.0689Y-3.4872
X6.0689Y-3.5305
X6.0945Y-3.7943
X6.0984Y-3.2844
X6.1378Y-3.5305
X6.1535Y-3.2844
X6.1693Y-3.4449
X6.2087Y-3.2844
X6.2087Y-3.3455
X6.2087Y-3.4045
X6.2087Y-3.4715
X6.2087Y-3.5305
X6.2559Y-3.4449
X6.3031Y-2.9882
X6.3465Y-3.3937
X6.3622Y-3.2205
T2
X6.4488Y-3.5039
X6.4488Y-3.6039
X6.4488Y-3.7039
X6.4488Y-3.8039
X6.5488Y-3.5039
X6.5488Y-3.6039
X6.5488Y-3.7039
X6.5488Y-3.8039
T3
X4.811Y-2.9921
X4.811Y-3.0906
X4.811Y-3.189
T4
X4.1339Y-3.0591
X4.6063Y-1.9173
T5
X5.2295Y-4.1941
X5.2295Y-4.3335
X5.2992Y-4.2638
X5.3689Y-4.1941
X5.3689Y-4.3335
T6
X3.3661Y-3.0354
X3.3661Y-3.8898
T7
X3.3661Y-4.4724
X3.7717Y-1.9646
X4.9921Y-1.9528
X6.5157Y-3.0354
X6.5157Y-4.4724
M30
