%TF.GenerationSoftware,KiCad,Pcbnew,8.0.5*%
%TF.CreationDate,2024-10-07T01:51:17+09:00*%
%TF.ProjectId,fsk-energymeter,66736b2d-656e-4657-9267-796d65746572,v0.0.1*%
%TF.SameCoordinates,Original*%
%TF.FileFunction,Legend,Bot*%
%TF.FilePolarity,Positive*%
%FSLAX46Y46*%
G04 Gerber Fmt 4.6, Leading zero omitted, Abs format (unit mm)*
G04 Created by KiCad (PCBNEW 8.0.5) date 2024-10-07 01:51:17*
%MOMM*%
%LPD*%
G01*
G04 APERTURE LIST*
%ADD10C,0.100000*%
%ADD11C,0.254000*%
%ADD12C,0.200000*%
G04 APERTURE END LIST*
D10*
X137187068Y-108054942D02*
X137244211Y-108026371D01*
X137244211Y-108026371D02*
X137329925Y-108026371D01*
X137329925Y-108026371D02*
X137415639Y-108054942D01*
X137415639Y-108054942D02*
X137472782Y-108112085D01*
X137472782Y-108112085D02*
X137501353Y-108169228D01*
X137501353Y-108169228D02*
X137529925Y-108283514D01*
X137529925Y-108283514D02*
X137529925Y-108369228D01*
X137529925Y-108369228D02*
X137501353Y-108483514D01*
X137501353Y-108483514D02*
X137472782Y-108540657D01*
X137472782Y-108540657D02*
X137415639Y-108597800D01*
X137415639Y-108597800D02*
X137329925Y-108626371D01*
X137329925Y-108626371D02*
X137272782Y-108626371D01*
X137272782Y-108626371D02*
X137187068Y-108597800D01*
X137187068Y-108597800D02*
X137158496Y-108569228D01*
X137158496Y-108569228D02*
X137158496Y-108369228D01*
X137158496Y-108369228D02*
X137272782Y-108369228D01*
X136901353Y-108626371D02*
X136901353Y-108026371D01*
X136901353Y-108026371D02*
X136558496Y-108626371D01*
X136558496Y-108626371D02*
X136558496Y-108026371D01*
X136272782Y-108626371D02*
X136272782Y-108026371D01*
X136272782Y-108026371D02*
X136129925Y-108026371D01*
X136129925Y-108026371D02*
X136044211Y-108054942D01*
X136044211Y-108054942D02*
X135987068Y-108112085D01*
X135987068Y-108112085D02*
X135958497Y-108169228D01*
X135958497Y-108169228D02*
X135929925Y-108283514D01*
X135929925Y-108283514D02*
X135929925Y-108369228D01*
X135929925Y-108369228D02*
X135958497Y-108483514D01*
X135958497Y-108483514D02*
X135987068Y-108540657D01*
X135987068Y-108540657D02*
X136044211Y-108597800D01*
X136044211Y-108597800D02*
X136129925Y-108626371D01*
X136129925Y-108626371D02*
X136272782Y-108626371D01*
X133301353Y-105226371D02*
X133301353Y-104626371D01*
X133301353Y-104626371D02*
X133158496Y-104626371D01*
X133158496Y-104626371D02*
X133072782Y-104654942D01*
X133072782Y-104654942D02*
X133015639Y-104712085D01*
X133015639Y-104712085D02*
X132987068Y-104769228D01*
X132987068Y-104769228D02*
X132958496Y-104883514D01*
X132958496Y-104883514D02*
X132958496Y-104969228D01*
X132958496Y-104969228D02*
X132987068Y-105083514D01*
X132987068Y-105083514D02*
X133015639Y-105140657D01*
X133015639Y-105140657D02*
X133072782Y-105197800D01*
X133072782Y-105197800D02*
X133158496Y-105226371D01*
X133158496Y-105226371D02*
X133301353Y-105226371D01*
X132701353Y-105226371D02*
X132701353Y-104626371D01*
X132701353Y-104626371D02*
X132501353Y-105054942D01*
X132501353Y-105054942D02*
X132301353Y-104626371D01*
X132301353Y-104626371D02*
X132301353Y-105226371D01*
X133377068Y-111421371D02*
X133177068Y-112021371D01*
X133177068Y-112021371D02*
X132977068Y-111421371D01*
X132777067Y-112021371D02*
X132777067Y-111421371D01*
X132491353Y-112021371D02*
X132491353Y-111421371D01*
X132491353Y-111421371D02*
X132148496Y-112021371D01*
X132148496Y-112021371D02*
X132148496Y-111421371D01*
X136515639Y-111426371D02*
X136801353Y-111426371D01*
X136801353Y-111426371D02*
X136829925Y-111712085D01*
X136829925Y-111712085D02*
X136801353Y-111683514D01*
X136801353Y-111683514D02*
X136744211Y-111654942D01*
X136744211Y-111654942D02*
X136601353Y-111654942D01*
X136601353Y-111654942D02*
X136544211Y-111683514D01*
X136544211Y-111683514D02*
X136515639Y-111712085D01*
X136515639Y-111712085D02*
X136487068Y-111769228D01*
X136487068Y-111769228D02*
X136487068Y-111912085D01*
X136487068Y-111912085D02*
X136515639Y-111969228D01*
X136515639Y-111969228D02*
X136544211Y-111997800D01*
X136544211Y-111997800D02*
X136601353Y-112026371D01*
X136601353Y-112026371D02*
X136744211Y-112026371D01*
X136744211Y-112026371D02*
X136801353Y-111997800D01*
X136801353Y-111997800D02*
X136829925Y-111969228D01*
X136315639Y-111426371D02*
X136115639Y-112026371D01*
X136115639Y-112026371D02*
X135915639Y-111426371D01*
X136801353Y-105226371D02*
X136801353Y-104626371D01*
X136801353Y-104626371D02*
X136658496Y-104626371D01*
X136658496Y-104626371D02*
X136572782Y-104654942D01*
X136572782Y-104654942D02*
X136515639Y-104712085D01*
X136515639Y-104712085D02*
X136487068Y-104769228D01*
X136487068Y-104769228D02*
X136458496Y-104883514D01*
X136458496Y-104883514D02*
X136458496Y-104969228D01*
X136458496Y-104969228D02*
X136487068Y-105083514D01*
X136487068Y-105083514D02*
X136515639Y-105140657D01*
X136515639Y-105140657D02*
X136572782Y-105197800D01*
X136572782Y-105197800D02*
X136658496Y-105226371D01*
X136658496Y-105226371D02*
X136801353Y-105226371D01*
X136201353Y-105226371D02*
X136201353Y-104626371D01*
X136201353Y-104626371D02*
X135972782Y-104626371D01*
X135972782Y-104626371D02*
X135915639Y-104654942D01*
X135915639Y-104654942D02*
X135887068Y-104683514D01*
X135887068Y-104683514D02*
X135858496Y-104740657D01*
X135858496Y-104740657D02*
X135858496Y-104826371D01*
X135858496Y-104826371D02*
X135887068Y-104883514D01*
X135887068Y-104883514D02*
X135915639Y-104912085D01*
X135915639Y-104912085D02*
X135972782Y-104940657D01*
X135972782Y-104940657D02*
X136201353Y-104940657D01*
D11*
X154173332Y-105054318D02*
X154173332Y-105961461D01*
X154173332Y-105961461D02*
X154233809Y-106142889D01*
X154233809Y-106142889D02*
X154354761Y-106263842D01*
X154354761Y-106263842D02*
X154536190Y-106324318D01*
X154536190Y-106324318D02*
X154657142Y-106324318D01*
X153689523Y-105054318D02*
X152903332Y-105054318D01*
X152903332Y-105054318D02*
X153326666Y-105538127D01*
X153326666Y-105538127D02*
X153145237Y-105538127D01*
X153145237Y-105538127D02*
X153024285Y-105598603D01*
X153024285Y-105598603D02*
X152963809Y-105659080D01*
X152963809Y-105659080D02*
X152903332Y-105780032D01*
X152903332Y-105780032D02*
X152903332Y-106082413D01*
X152903332Y-106082413D02*
X152963809Y-106203365D01*
X152963809Y-106203365D02*
X153024285Y-106263842D01*
X153024285Y-106263842D02*
X153145237Y-106324318D01*
X153145237Y-106324318D02*
X153508094Y-106324318D01*
X153508094Y-106324318D02*
X153629047Y-106263842D01*
X153629047Y-106263842D02*
X153689523Y-106203365D01*
D12*
%TO.C,J3*%
X146375000Y-100300000D02*
X146375000Y-107100000D01*
X146375000Y-110100000D02*
X146375000Y-113000000D01*
X146375000Y-113000000D02*
X161125000Y-113000000D01*
X150800000Y-98500000D02*
X148000000Y-98500000D01*
D10*
X151500000Y-96700000D02*
X151500000Y-96700000D01*
X151500000Y-96800000D02*
X151500000Y-96800000D01*
D12*
X161125000Y-107100000D02*
X161125000Y-100100000D01*
X161125000Y-113000000D02*
X161125000Y-110100000D01*
D10*
X151500000Y-96700000D02*
G75*
G02*
X151500000Y-96800000I0J-50000D01*
G01*
X151500000Y-96800000D02*
G75*
G02*
X151500000Y-96700000I0J50000D01*
G01*
%TD*%
M02*
