%TF.GenerationSoftware,KiCad,Pcbnew,8.0.5*%
%TF.CreationDate,2024-10-07T01:51:23+09:00*%
%TF.ProjectId,fsk-energymeter,66736b2d-656e-4657-9267-796d65746572,v0.0.1*%
%TF.SameCoordinates,Original*%
%TF.FileFunction,Drillmap*%
%TF.FilePolarity,Positive*%
%FSLAX45Y45*%
G04 Gerber Fmt 4.5, Leading zero omitted, Abs format (unit mm)*
G04 Created by KiCad (PCBNEW 8.0.5) date 2024-10-07 01:51:23*
%MOMM*%
%LPD*%
G01*
G04 APERTURE LIST*
%ADD10C,0.050000*%
%ADD11C,0.200000*%
%ADD12C,0.100000*%
%ADD13C,0.110000*%
%ADD14C,0.120000*%
%ADD15C,0.135000*%
%ADD16C,0.250000*%
%ADD17C,0.300000*%
G04 APERTURE END LIST*
D10*
X17050000Y-7460000D02*
X17050000Y-11610000D01*
X12930000Y-4460000D02*
G75*
G02*
X13180000Y-4710000I0J-250000D01*
G01*
X16800000Y-11860000D02*
X8300000Y-11860000D01*
X8300000Y-7210000D02*
X8830000Y-7210000D01*
X17050000Y-11610000D02*
G75*
G02*
X16800000Y-11860000I-250000J0D01*
G01*
X16800000Y-7210000D02*
G75*
G02*
X17050000Y-7460000I0J-250000D01*
G01*
X13430000Y-7210000D02*
X16800000Y-7210000D01*
X9080000Y-6960000D02*
G75*
G02*
X8830000Y-7210000I-250000J0D01*
G01*
X8050000Y-11610000D02*
X8050000Y-7460000D01*
X8300000Y-11860000D02*
G75*
G02*
X8050000Y-11610000I0J250000D01*
G01*
X13430000Y-7210000D02*
G75*
G02*
X13180000Y-6960000I0J250000D01*
G01*
X13180000Y-4710000D02*
X13180000Y-6960000D01*
X8050000Y-7460000D02*
G75*
G02*
X8300000Y-7210000I250000J0D01*
G01*
X9080000Y-4710000D02*
G75*
G02*
X9330000Y-4460000I250000J0D01*
G01*
X9080000Y-6960000D02*
X9080000Y-4710000D01*
X9330000Y-4460000D02*
X12930000Y-4460000D01*
D11*
D12*
X8926200Y-8725000D02*
X8956200Y-8755000D01*
X8956200Y-8725000D02*
X8926200Y-8755000D01*
X8926200Y-9205500D02*
X8956200Y-9235500D01*
X8956200Y-9205500D02*
X8926200Y-9235500D01*
X10560000Y-11065000D02*
X10590000Y-11095000D01*
X10590000Y-11065000D02*
X10560000Y-11095000D01*
X10635000Y-9530000D02*
X10665000Y-9560000D01*
X10665000Y-9530000D02*
X10635000Y-9560000D01*
X11155000Y-10315000D02*
X11185000Y-10345000D01*
X11185000Y-10315000D02*
X11155000Y-10345000D01*
X11280000Y-10501500D02*
X11310000Y-10531500D01*
X11310000Y-10501500D02*
X11280000Y-10531500D01*
X11370000Y-9530000D02*
X11400000Y-9560000D01*
X11400000Y-9530000D02*
X11370000Y-9560000D01*
X12240000Y-9145000D02*
X12270000Y-9175000D01*
X12270000Y-9145000D02*
X12240000Y-9175000D01*
X12857500Y-8065000D02*
X12887500Y-8095000D01*
X12887500Y-8065000D02*
X12857500Y-8095000D01*
X12940000Y-8010000D02*
X12970000Y-8040000D01*
X12970000Y-8010000D02*
X12940000Y-8040000D01*
X12995000Y-10215000D02*
X13025000Y-10245000D01*
X13025000Y-10215000D02*
X12995000Y-10245000D01*
X13130000Y-9695000D02*
X13160000Y-9725000D01*
X13160000Y-9695000D02*
X13130000Y-9725000D01*
X13345000Y-8785000D02*
X13375000Y-8815000D01*
X13375000Y-8785000D02*
X13345000Y-8815000D01*
X13445000Y-11155000D02*
X13475000Y-11185000D01*
X13475000Y-11155000D02*
X13445000Y-11185000D01*
X13485000Y-8785000D02*
X13515000Y-8815000D01*
X13515000Y-8785000D02*
X13485000Y-8815000D01*
X13555000Y-8865000D02*
X13585000Y-8895000D01*
X13585000Y-8865000D02*
X13555000Y-8895000D01*
X13567500Y-8267500D02*
X13597500Y-8297500D01*
X13597500Y-8267500D02*
X13567500Y-8297500D01*
X13845000Y-8265000D02*
X13875000Y-8295000D01*
X13875000Y-8265000D02*
X13845000Y-8295000D01*
X13845000Y-8945000D02*
X13875000Y-8975000D01*
X13875000Y-8945000D02*
X13845000Y-8975000D01*
X13885000Y-8005000D02*
X13915000Y-8035000D01*
X13915000Y-8005000D02*
X13885000Y-8035000D01*
X13925000Y-9815000D02*
X13955000Y-9845000D01*
X13955000Y-9815000D02*
X13925000Y-9845000D01*
X13945000Y-7585000D02*
X13975000Y-7615000D01*
X13975000Y-7585000D02*
X13945000Y-7615000D01*
X13965000Y-8945000D02*
X13995000Y-8975000D01*
X13995000Y-8945000D02*
X13965000Y-8975000D01*
X14105000Y-9815000D02*
X14135000Y-9845000D01*
X14135000Y-9815000D02*
X14105000Y-9845000D01*
X14195000Y-8455000D02*
X14225000Y-8485000D01*
X14225000Y-8455000D02*
X14195000Y-8485000D01*
X14275000Y-8425000D02*
X14305000Y-8455000D01*
X14305000Y-8425000D02*
X14275000Y-8455000D01*
X14285000Y-9295000D02*
X14315000Y-9325000D01*
X14315000Y-9295000D02*
X14285000Y-9325000D01*
X14337500Y-7527500D02*
X14367500Y-7557500D01*
X14367500Y-7527500D02*
X14337500Y-7557500D01*
X14345000Y-8005000D02*
X14375000Y-8035000D01*
X14375000Y-8005000D02*
X14345000Y-8035000D01*
X14355000Y-8545000D02*
X14385000Y-8575000D01*
X14385000Y-8545000D02*
X14355000Y-8575000D01*
X14395000Y-9345000D02*
X14425000Y-9375000D01*
X14425000Y-9345000D02*
X14395000Y-9375000D01*
X14455000Y-8065000D02*
X14485000Y-8095000D01*
X14485000Y-8065000D02*
X14455000Y-8095000D01*
X14455000Y-8865000D02*
X14485000Y-8895000D01*
X14485000Y-8865000D02*
X14455000Y-8895000D01*
X14460000Y-8300000D02*
X14490000Y-8330000D01*
X14490000Y-8300000D02*
X14460000Y-8330000D01*
X14465000Y-9195000D02*
X14495000Y-9225000D01*
X14495000Y-9195000D02*
X14465000Y-9225000D01*
X14541109Y-9368891D02*
X14571109Y-9398891D01*
X14571109Y-9368891D02*
X14541109Y-9398891D01*
X14648431Y-8358431D02*
X14678431Y-8388431D01*
X14678431Y-8358431D02*
X14648431Y-8388431D01*
X14662500Y-7527500D02*
X14692500Y-7557500D01*
X14692500Y-7527500D02*
X14662500Y-7557500D01*
X14675000Y-9335000D02*
X14705000Y-9365000D01*
X14705000Y-9335000D02*
X14675000Y-9365000D01*
X14685000Y-9205000D02*
X14715000Y-9235000D01*
X14715000Y-9205000D02*
X14685000Y-9235000D01*
X14740000Y-9150000D02*
X14770000Y-9180000D01*
X14770000Y-9150000D02*
X14740000Y-9180000D01*
X14855000Y-8065000D02*
X14885000Y-8095000D01*
X14885000Y-8065000D02*
X14855000Y-8095000D01*
X14890000Y-8870000D02*
X14920000Y-8900000D01*
X14920000Y-8870000D02*
X14890000Y-8900000D01*
X14975000Y-8445000D02*
X15005000Y-8475000D01*
X15005000Y-8445000D02*
X14975000Y-8475000D01*
X15087500Y-11542500D02*
X15117500Y-11572500D01*
X15117500Y-11542500D02*
X15087500Y-11572500D01*
X15135000Y-7625000D02*
X15165000Y-7655000D01*
X15165000Y-7625000D02*
X15135000Y-7655000D01*
X15282500Y-7955000D02*
X15312500Y-7985000D01*
X15312500Y-7955000D02*
X15282500Y-7985000D01*
X15345000Y-8327500D02*
X15375000Y-8357500D01*
X15375000Y-8327500D02*
X15345000Y-8357500D01*
X15345000Y-8427500D02*
X15375000Y-8457500D01*
X15375000Y-8427500D02*
X15345000Y-8457500D01*
X15345000Y-8565000D02*
X15375000Y-8595000D01*
X15375000Y-8565000D02*
X15345000Y-8595000D01*
X15345000Y-8675000D02*
X15375000Y-8705000D01*
X15375000Y-8675000D02*
X15345000Y-8705000D01*
X15400000Y-8727500D02*
X15430000Y-8757500D01*
X15430000Y-8727500D02*
X15400000Y-8757500D01*
X15400000Y-8842500D02*
X15430000Y-8872500D01*
X15430000Y-8842500D02*
X15400000Y-8872500D01*
X15400000Y-8952500D02*
X15430000Y-8982500D01*
X15430000Y-8952500D02*
X15400000Y-8982500D01*
X15465000Y-9622500D02*
X15495000Y-9652500D01*
X15495000Y-9622500D02*
X15465000Y-9652500D01*
X15475000Y-8327500D02*
X15505000Y-8357500D01*
X15505000Y-8327500D02*
X15475000Y-8357500D01*
X15575000Y-8952500D02*
X15605000Y-8982500D01*
X15605000Y-8952500D02*
X15575000Y-8982500D01*
X15615000Y-8327500D02*
X15645000Y-8357500D01*
X15645000Y-8327500D02*
X15615000Y-8357500D01*
X15655000Y-8735000D02*
X15685000Y-8765000D01*
X15685000Y-8735000D02*
X15655000Y-8765000D01*
X15755000Y-8327500D02*
X15785000Y-8357500D01*
X15785000Y-8327500D02*
X15755000Y-8357500D01*
X15755000Y-8482500D02*
X15785000Y-8512500D01*
X15785000Y-8482500D02*
X15755000Y-8512500D01*
X15755000Y-8632500D02*
X15785000Y-8662500D01*
X15785000Y-8632500D02*
X15755000Y-8662500D01*
X15755000Y-8802500D02*
X15785000Y-8832500D01*
X15785000Y-8802500D02*
X15755000Y-8832500D01*
X15755000Y-8952500D02*
X15785000Y-8982500D01*
X15785000Y-8952500D02*
X15755000Y-8982500D01*
X15875000Y-8735000D02*
X15905000Y-8765000D01*
X15905000Y-8735000D02*
X15875000Y-8765000D01*
X15995000Y-7575000D02*
X16025000Y-7605000D01*
X16025000Y-7575000D02*
X15995000Y-7605000D01*
X16105000Y-8605000D02*
X16135000Y-8635000D01*
X16135000Y-8605000D02*
X16105000Y-8635000D01*
X16145000Y-8165000D02*
X16175000Y-8195000D01*
X16175000Y-8165000D02*
X16145000Y-8195000D01*
X16430000Y-8900000D02*
G75*
G02*
X16330000Y-8900000I-50000J0D01*
G01*
X16330000Y-8900000D02*
G75*
G02*
X16430000Y-8900000I50000J0D01*
G01*
X16430000Y-9154000D02*
G75*
G02*
X16330000Y-9154000I-50000J0D01*
G01*
X16330000Y-9154000D02*
G75*
G02*
X16430000Y-9154000I50000J0D01*
G01*
X16430000Y-9408000D02*
G75*
G02*
X16330000Y-9408000I-50000J0D01*
G01*
X16330000Y-9408000D02*
G75*
G02*
X16430000Y-9408000I50000J0D01*
G01*
X16430000Y-9662000D02*
G75*
G02*
X16330000Y-9662000I-50000J0D01*
G01*
X16330000Y-9662000D02*
G75*
G02*
X16430000Y-9662000I50000J0D01*
G01*
X16684000Y-8900000D02*
G75*
G02*
X16584000Y-8900000I-50000J0D01*
G01*
X16584000Y-8900000D02*
G75*
G02*
X16684000Y-8900000I50000J0D01*
G01*
X16684000Y-9154000D02*
G75*
G02*
X16584000Y-9154000I-50000J0D01*
G01*
X16584000Y-9154000D02*
G75*
G02*
X16684000Y-9154000I50000J0D01*
G01*
X16684000Y-9408000D02*
G75*
G02*
X16584000Y-9408000I-50000J0D01*
G01*
X16584000Y-9408000D02*
G75*
G02*
X16684000Y-9408000I50000J0D01*
G01*
X16684000Y-9662000D02*
G75*
G02*
X16584000Y-9662000I-50000J0D01*
G01*
X16584000Y-9662000D02*
G75*
G02*
X16684000Y-9662000I50000J0D01*
G01*
D13*
X12220000Y-7545000D02*
X12220000Y-7655000D01*
X12165000Y-7600000D02*
X12275000Y-7600000D01*
X12220000Y-7795000D02*
X12220000Y-7905000D01*
X12165000Y-7850000D02*
X12275000Y-7850000D01*
X12220000Y-8045000D02*
X12220000Y-8155000D01*
X12165000Y-8100000D02*
X12275000Y-8100000D01*
D14*
X10542427Y-7812427D02*
X10542427Y-7727573D01*
X10457573Y-7727573D01*
X10457573Y-7812427D01*
X10542427Y-7812427D01*
X11742427Y-4912427D02*
X11742427Y-4827573D01*
X11657573Y-4827573D01*
X11657573Y-4912427D01*
X11742427Y-4912427D01*
D15*
X13283000Y-10720500D02*
X13350500Y-10653000D01*
X13283000Y-10585500D01*
X13215500Y-10653000D01*
X13283000Y-10720500D01*
X13283000Y-11074500D02*
X13350500Y-11007000D01*
X13283000Y-10939500D01*
X13215500Y-11007000D01*
X13283000Y-11074500D01*
X13460000Y-10897500D02*
X13527500Y-10830000D01*
X13460000Y-10762500D01*
X13392500Y-10830000D01*
X13460000Y-10897500D01*
X13637000Y-10720500D02*
X13704500Y-10653000D01*
X13637000Y-10585500D01*
X13569500Y-10653000D01*
X13637000Y-10720500D01*
X13637000Y-11074500D02*
X13704500Y-11007000D01*
X13637000Y-10939500D01*
X13569500Y-11007000D01*
X13637000Y-11074500D01*
D16*
X8425000Y-7585000D02*
X8675000Y-7835000D01*
X8675000Y-7585000D02*
X8425000Y-7835000D01*
X8675000Y-7710000D02*
G75*
G02*
X8425000Y-7710000I-125000J0D01*
G01*
X8425000Y-7710000D02*
G75*
G02*
X8675000Y-7710000I125000J0D01*
G01*
X8425000Y-9755000D02*
X8675000Y-10005000D01*
X8675000Y-9755000D02*
X8425000Y-10005000D01*
X8675000Y-9880000D02*
G75*
G02*
X8425000Y-9880000I-125000J0D01*
G01*
X8425000Y-9880000D02*
G75*
G02*
X8675000Y-9880000I125000J0D01*
G01*
D17*
X8400000Y-11210000D02*
X8700000Y-11510000D01*
X8700000Y-11210000D02*
X8400000Y-11510000D01*
X8550000Y-11210000D02*
X8550000Y-11510000D01*
X8400000Y-11360000D02*
X8700000Y-11360000D01*
X9430000Y-4840000D02*
X9730000Y-5140000D01*
X9730000Y-4840000D02*
X9430000Y-5140000D01*
X9580000Y-4840000D02*
X9580000Y-5140000D01*
X9430000Y-4990000D02*
X9730000Y-4990000D01*
X12530000Y-4810000D02*
X12830000Y-5110000D01*
X12830000Y-4810000D02*
X12530000Y-5110000D01*
X12680000Y-4810000D02*
X12680000Y-5110000D01*
X12530000Y-4960000D02*
X12830000Y-4960000D01*
X16400000Y-7560000D02*
X16700000Y-7860000D01*
X16700000Y-7560000D02*
X16400000Y-7860000D01*
X16550000Y-7560000D02*
X16550000Y-7860000D01*
X16400000Y-7710000D02*
X16700000Y-7710000D01*
X16400000Y-11210000D02*
X16700000Y-11510000D01*
X16700000Y-11210000D02*
X16400000Y-11510000D01*
X16550000Y-11210000D02*
X16550000Y-11510000D01*
X16400000Y-11360000D02*
X16700000Y-11360000D01*
D11*
X8308277Y-12173984D02*
X8308277Y-11973984D01*
X8308277Y-11973984D02*
X8355896Y-11973984D01*
X8355896Y-11973984D02*
X8384467Y-11983508D01*
X8384467Y-11983508D02*
X8403515Y-12002555D01*
X8403515Y-12002555D02*
X8413039Y-12021603D01*
X8413039Y-12021603D02*
X8422563Y-12059698D01*
X8422563Y-12059698D02*
X8422563Y-12088269D01*
X8422563Y-12088269D02*
X8413039Y-12126365D01*
X8413039Y-12126365D02*
X8403515Y-12145412D01*
X8403515Y-12145412D02*
X8384467Y-12164460D01*
X8384467Y-12164460D02*
X8355896Y-12173984D01*
X8355896Y-12173984D02*
X8308277Y-12173984D01*
X8508277Y-12173984D02*
X8508277Y-12040650D01*
X8508277Y-12078746D02*
X8517801Y-12059698D01*
X8517801Y-12059698D02*
X8527324Y-12050174D01*
X8527324Y-12050174D02*
X8546372Y-12040650D01*
X8546372Y-12040650D02*
X8565420Y-12040650D01*
X8632086Y-12173984D02*
X8632086Y-12040650D01*
X8632086Y-11973984D02*
X8622563Y-11983508D01*
X8622563Y-11983508D02*
X8632086Y-11993031D01*
X8632086Y-11993031D02*
X8641610Y-11983508D01*
X8641610Y-11983508D02*
X8632086Y-11973984D01*
X8632086Y-11973984D02*
X8632086Y-11993031D01*
X8755896Y-12173984D02*
X8736848Y-12164460D01*
X8736848Y-12164460D02*
X8727324Y-12145412D01*
X8727324Y-12145412D02*
X8727324Y-11973984D01*
X8860658Y-12173984D02*
X8841610Y-12164460D01*
X8841610Y-12164460D02*
X8832086Y-12145412D01*
X8832086Y-12145412D02*
X8832086Y-11973984D01*
X9089229Y-12173984D02*
X9089229Y-11973984D01*
X9089229Y-11973984D02*
X9155896Y-12116841D01*
X9155896Y-12116841D02*
X9222563Y-11973984D01*
X9222563Y-11973984D02*
X9222563Y-12173984D01*
X9403515Y-12173984D02*
X9403515Y-12069222D01*
X9403515Y-12069222D02*
X9393991Y-12050174D01*
X9393991Y-12050174D02*
X9374944Y-12040650D01*
X9374944Y-12040650D02*
X9336848Y-12040650D01*
X9336848Y-12040650D02*
X9317801Y-12050174D01*
X9403515Y-12164460D02*
X9384467Y-12173984D01*
X9384467Y-12173984D02*
X9336848Y-12173984D01*
X9336848Y-12173984D02*
X9317801Y-12164460D01*
X9317801Y-12164460D02*
X9308277Y-12145412D01*
X9308277Y-12145412D02*
X9308277Y-12126365D01*
X9308277Y-12126365D02*
X9317801Y-12107317D01*
X9317801Y-12107317D02*
X9336848Y-12097793D01*
X9336848Y-12097793D02*
X9384467Y-12097793D01*
X9384467Y-12097793D02*
X9403515Y-12088269D01*
X9498753Y-12040650D02*
X9498753Y-12240650D01*
X9498753Y-12050174D02*
X9517801Y-12040650D01*
X9517801Y-12040650D02*
X9555896Y-12040650D01*
X9555896Y-12040650D02*
X9574944Y-12050174D01*
X9574944Y-12050174D02*
X9584467Y-12059698D01*
X9584467Y-12059698D02*
X9593991Y-12078746D01*
X9593991Y-12078746D02*
X9593991Y-12135888D01*
X9593991Y-12135888D02*
X9584467Y-12154936D01*
X9584467Y-12154936D02*
X9574944Y-12164460D01*
X9574944Y-12164460D02*
X9555896Y-12173984D01*
X9555896Y-12173984D02*
X9517801Y-12173984D01*
X9517801Y-12173984D02*
X9498753Y-12164460D01*
X9679705Y-12154936D02*
X9689229Y-12164460D01*
X9689229Y-12164460D02*
X9679705Y-12173984D01*
X9679705Y-12173984D02*
X9670182Y-12164460D01*
X9670182Y-12164460D02*
X9679705Y-12154936D01*
X9679705Y-12154936D02*
X9679705Y-12173984D01*
X9679705Y-12050174D02*
X9689229Y-12059698D01*
X9689229Y-12059698D02*
X9679705Y-12069222D01*
X9679705Y-12069222D02*
X9670182Y-12059698D01*
X9670182Y-12059698D02*
X9679705Y-12050174D01*
X9679705Y-12050174D02*
X9679705Y-12069222D01*
D12*
X8017500Y-12487500D02*
X8047500Y-12517500D01*
X8047500Y-12487500D02*
X8017500Y-12517500D01*
D11*
X8346372Y-12393984D02*
X8365420Y-12393984D01*
X8365420Y-12393984D02*
X8384467Y-12403508D01*
X8384467Y-12403508D02*
X8393991Y-12413031D01*
X8393991Y-12413031D02*
X8403515Y-12432079D01*
X8403515Y-12432079D02*
X8413039Y-12470174D01*
X8413039Y-12470174D02*
X8413039Y-12517793D01*
X8413039Y-12517793D02*
X8403515Y-12555888D01*
X8403515Y-12555888D02*
X8393991Y-12574936D01*
X8393991Y-12574936D02*
X8384467Y-12584460D01*
X8384467Y-12584460D02*
X8365420Y-12593984D01*
X8365420Y-12593984D02*
X8346372Y-12593984D01*
X8346372Y-12593984D02*
X8327324Y-12584460D01*
X8327324Y-12584460D02*
X8317801Y-12574936D01*
X8317801Y-12574936D02*
X8308277Y-12555888D01*
X8308277Y-12555888D02*
X8298753Y-12517793D01*
X8298753Y-12517793D02*
X8298753Y-12470174D01*
X8298753Y-12470174D02*
X8308277Y-12432079D01*
X8308277Y-12432079D02*
X8317801Y-12413031D01*
X8317801Y-12413031D02*
X8327324Y-12403508D01*
X8327324Y-12403508D02*
X8346372Y-12393984D01*
X8498753Y-12574936D02*
X8508277Y-12584460D01*
X8508277Y-12584460D02*
X8498753Y-12593984D01*
X8498753Y-12593984D02*
X8489229Y-12584460D01*
X8489229Y-12584460D02*
X8498753Y-12574936D01*
X8498753Y-12574936D02*
X8498753Y-12593984D01*
X8574944Y-12393984D02*
X8698753Y-12393984D01*
X8698753Y-12393984D02*
X8632086Y-12470174D01*
X8632086Y-12470174D02*
X8660658Y-12470174D01*
X8660658Y-12470174D02*
X8679705Y-12479698D01*
X8679705Y-12479698D02*
X8689229Y-12489222D01*
X8689229Y-12489222D02*
X8698753Y-12508269D01*
X8698753Y-12508269D02*
X8698753Y-12555888D01*
X8698753Y-12555888D02*
X8689229Y-12574936D01*
X8689229Y-12574936D02*
X8679705Y-12584460D01*
X8679705Y-12584460D02*
X8660658Y-12593984D01*
X8660658Y-12593984D02*
X8603515Y-12593984D01*
X8603515Y-12593984D02*
X8584467Y-12584460D01*
X8584467Y-12584460D02*
X8574944Y-12574936D01*
X8822563Y-12393984D02*
X8841610Y-12393984D01*
X8841610Y-12393984D02*
X8860658Y-12403508D01*
X8860658Y-12403508D02*
X8870182Y-12413031D01*
X8870182Y-12413031D02*
X8879705Y-12432079D01*
X8879705Y-12432079D02*
X8889229Y-12470174D01*
X8889229Y-12470174D02*
X8889229Y-12517793D01*
X8889229Y-12517793D02*
X8879705Y-12555888D01*
X8879705Y-12555888D02*
X8870182Y-12574936D01*
X8870182Y-12574936D02*
X8860658Y-12584460D01*
X8860658Y-12584460D02*
X8841610Y-12593984D01*
X8841610Y-12593984D02*
X8822563Y-12593984D01*
X8822563Y-12593984D02*
X8803515Y-12584460D01*
X8803515Y-12584460D02*
X8793991Y-12574936D01*
X8793991Y-12574936D02*
X8784467Y-12555888D01*
X8784467Y-12555888D02*
X8774944Y-12517793D01*
X8774944Y-12517793D02*
X8774944Y-12470174D01*
X8774944Y-12470174D02*
X8784467Y-12432079D01*
X8784467Y-12432079D02*
X8793991Y-12413031D01*
X8793991Y-12413031D02*
X8803515Y-12403508D01*
X8803515Y-12403508D02*
X8822563Y-12393984D01*
X9013039Y-12393984D02*
X9032086Y-12393984D01*
X9032086Y-12393984D02*
X9051134Y-12403508D01*
X9051134Y-12403508D02*
X9060658Y-12413031D01*
X9060658Y-12413031D02*
X9070182Y-12432079D01*
X9070182Y-12432079D02*
X9079705Y-12470174D01*
X9079705Y-12470174D02*
X9079705Y-12517793D01*
X9079705Y-12517793D02*
X9070182Y-12555888D01*
X9070182Y-12555888D02*
X9060658Y-12574936D01*
X9060658Y-12574936D02*
X9051134Y-12584460D01*
X9051134Y-12584460D02*
X9032086Y-12593984D01*
X9032086Y-12593984D02*
X9013039Y-12593984D01*
X9013039Y-12593984D02*
X8993991Y-12584460D01*
X8993991Y-12584460D02*
X8984467Y-12574936D01*
X8984467Y-12574936D02*
X8974944Y-12555888D01*
X8974944Y-12555888D02*
X8965420Y-12517793D01*
X8965420Y-12517793D02*
X8965420Y-12470174D01*
X8965420Y-12470174D02*
X8974944Y-12432079D01*
X8974944Y-12432079D02*
X8984467Y-12413031D01*
X8984467Y-12413031D02*
X8993991Y-12403508D01*
X8993991Y-12403508D02*
X9013039Y-12393984D01*
X9165420Y-12593984D02*
X9165420Y-12460650D01*
X9165420Y-12479698D02*
X9174944Y-12470174D01*
X9174944Y-12470174D02*
X9193991Y-12460650D01*
X9193991Y-12460650D02*
X9222563Y-12460650D01*
X9222563Y-12460650D02*
X9241610Y-12470174D01*
X9241610Y-12470174D02*
X9251134Y-12489222D01*
X9251134Y-12489222D02*
X9251134Y-12593984D01*
X9251134Y-12489222D02*
X9260658Y-12470174D01*
X9260658Y-12470174D02*
X9279705Y-12460650D01*
X9279705Y-12460650D02*
X9308277Y-12460650D01*
X9308277Y-12460650D02*
X9327325Y-12470174D01*
X9327325Y-12470174D02*
X9336848Y-12489222D01*
X9336848Y-12489222D02*
X9336848Y-12593984D01*
X9432086Y-12593984D02*
X9432086Y-12460650D01*
X9432086Y-12479698D02*
X9441610Y-12470174D01*
X9441610Y-12470174D02*
X9460658Y-12460650D01*
X9460658Y-12460650D02*
X9489229Y-12460650D01*
X9489229Y-12460650D02*
X9508277Y-12470174D01*
X9508277Y-12470174D02*
X9517801Y-12489222D01*
X9517801Y-12489222D02*
X9517801Y-12593984D01*
X9517801Y-12489222D02*
X9527325Y-12470174D01*
X9527325Y-12470174D02*
X9546372Y-12460650D01*
X9546372Y-12460650D02*
X9574944Y-12460650D01*
X9574944Y-12460650D02*
X9593991Y-12470174D01*
X9593991Y-12470174D02*
X9603515Y-12489222D01*
X9603515Y-12489222D02*
X9603515Y-12593984D01*
X9993991Y-12384460D02*
X9822563Y-12641603D01*
X10251134Y-12393984D02*
X10270182Y-12393984D01*
X10270182Y-12393984D02*
X10289229Y-12403508D01*
X10289229Y-12403508D02*
X10298753Y-12413031D01*
X10298753Y-12413031D02*
X10308277Y-12432079D01*
X10308277Y-12432079D02*
X10317801Y-12470174D01*
X10317801Y-12470174D02*
X10317801Y-12517793D01*
X10317801Y-12517793D02*
X10308277Y-12555888D01*
X10308277Y-12555888D02*
X10298753Y-12574936D01*
X10298753Y-12574936D02*
X10289229Y-12584460D01*
X10289229Y-12584460D02*
X10270182Y-12593984D01*
X10270182Y-12593984D02*
X10251134Y-12593984D01*
X10251134Y-12593984D02*
X10232087Y-12584460D01*
X10232087Y-12584460D02*
X10222563Y-12574936D01*
X10222563Y-12574936D02*
X10213039Y-12555888D01*
X10213039Y-12555888D02*
X10203515Y-12517793D01*
X10203515Y-12517793D02*
X10203515Y-12470174D01*
X10203515Y-12470174D02*
X10213039Y-12432079D01*
X10213039Y-12432079D02*
X10222563Y-12413031D01*
X10222563Y-12413031D02*
X10232087Y-12403508D01*
X10232087Y-12403508D02*
X10251134Y-12393984D01*
X10403515Y-12574936D02*
X10413039Y-12584460D01*
X10413039Y-12584460D02*
X10403515Y-12593984D01*
X10403515Y-12593984D02*
X10393991Y-12584460D01*
X10393991Y-12584460D02*
X10403515Y-12574936D01*
X10403515Y-12574936D02*
X10403515Y-12593984D01*
X10536848Y-12393984D02*
X10555896Y-12393984D01*
X10555896Y-12393984D02*
X10574944Y-12403508D01*
X10574944Y-12403508D02*
X10584468Y-12413031D01*
X10584468Y-12413031D02*
X10593991Y-12432079D01*
X10593991Y-12432079D02*
X10603515Y-12470174D01*
X10603515Y-12470174D02*
X10603515Y-12517793D01*
X10603515Y-12517793D02*
X10593991Y-12555888D01*
X10593991Y-12555888D02*
X10584468Y-12574936D01*
X10584468Y-12574936D02*
X10574944Y-12584460D01*
X10574944Y-12584460D02*
X10555896Y-12593984D01*
X10555896Y-12593984D02*
X10536848Y-12593984D01*
X10536848Y-12593984D02*
X10517801Y-12584460D01*
X10517801Y-12584460D02*
X10508277Y-12574936D01*
X10508277Y-12574936D02*
X10498753Y-12555888D01*
X10498753Y-12555888D02*
X10489229Y-12517793D01*
X10489229Y-12517793D02*
X10489229Y-12470174D01*
X10489229Y-12470174D02*
X10498753Y-12432079D01*
X10498753Y-12432079D02*
X10508277Y-12413031D01*
X10508277Y-12413031D02*
X10517801Y-12403508D01*
X10517801Y-12403508D02*
X10536848Y-12393984D01*
X10793991Y-12593984D02*
X10679706Y-12593984D01*
X10736848Y-12593984D02*
X10736848Y-12393984D01*
X10736848Y-12393984D02*
X10717801Y-12422555D01*
X10717801Y-12422555D02*
X10698753Y-12441603D01*
X10698753Y-12441603D02*
X10679706Y-12451127D01*
X10984468Y-12593984D02*
X10870182Y-12593984D01*
X10927325Y-12593984D02*
X10927325Y-12393984D01*
X10927325Y-12393984D02*
X10908277Y-12422555D01*
X10908277Y-12422555D02*
X10889229Y-12441603D01*
X10889229Y-12441603D02*
X10870182Y-12451127D01*
X11098753Y-12479698D02*
X11079706Y-12470174D01*
X11079706Y-12470174D02*
X11070182Y-12460650D01*
X11070182Y-12460650D02*
X11060658Y-12441603D01*
X11060658Y-12441603D02*
X11060658Y-12432079D01*
X11060658Y-12432079D02*
X11070182Y-12413031D01*
X11070182Y-12413031D02*
X11079706Y-12403508D01*
X11079706Y-12403508D02*
X11098753Y-12393984D01*
X11098753Y-12393984D02*
X11136849Y-12393984D01*
X11136849Y-12393984D02*
X11155896Y-12403508D01*
X11155896Y-12403508D02*
X11165420Y-12413031D01*
X11165420Y-12413031D02*
X11174944Y-12432079D01*
X11174944Y-12432079D02*
X11174944Y-12441603D01*
X11174944Y-12441603D02*
X11165420Y-12460650D01*
X11165420Y-12460650D02*
X11155896Y-12470174D01*
X11155896Y-12470174D02*
X11136849Y-12479698D01*
X11136849Y-12479698D02*
X11098753Y-12479698D01*
X11098753Y-12479698D02*
X11079706Y-12489222D01*
X11079706Y-12489222D02*
X11070182Y-12498746D01*
X11070182Y-12498746D02*
X11060658Y-12517793D01*
X11060658Y-12517793D02*
X11060658Y-12555888D01*
X11060658Y-12555888D02*
X11070182Y-12574936D01*
X11070182Y-12574936D02*
X11079706Y-12584460D01*
X11079706Y-12584460D02*
X11098753Y-12593984D01*
X11098753Y-12593984D02*
X11136849Y-12593984D01*
X11136849Y-12593984D02*
X11155896Y-12584460D01*
X11155896Y-12584460D02*
X11165420Y-12574936D01*
X11165420Y-12574936D02*
X11174944Y-12555888D01*
X11174944Y-12555888D02*
X11174944Y-12517793D01*
X11174944Y-12517793D02*
X11165420Y-12498746D01*
X11165420Y-12498746D02*
X11155896Y-12489222D01*
X11155896Y-12489222D02*
X11136849Y-12479698D01*
X11251134Y-12393984D02*
X11251134Y-12432079D01*
X11327325Y-12393984D02*
X11327325Y-12432079D01*
X11622563Y-12670174D02*
X11613039Y-12660650D01*
X11613039Y-12660650D02*
X11593991Y-12632079D01*
X11593991Y-12632079D02*
X11584468Y-12613031D01*
X11584468Y-12613031D02*
X11574944Y-12584460D01*
X11574944Y-12584460D02*
X11565420Y-12536841D01*
X11565420Y-12536841D02*
X11565420Y-12498746D01*
X11565420Y-12498746D02*
X11574944Y-12451127D01*
X11574944Y-12451127D02*
X11584468Y-12422555D01*
X11584468Y-12422555D02*
X11593991Y-12403508D01*
X11593991Y-12403508D02*
X11613039Y-12374936D01*
X11613039Y-12374936D02*
X11622563Y-12365412D01*
X11784468Y-12393984D02*
X11746372Y-12393984D01*
X11746372Y-12393984D02*
X11727325Y-12403508D01*
X11727325Y-12403508D02*
X11717801Y-12413031D01*
X11717801Y-12413031D02*
X11698753Y-12441603D01*
X11698753Y-12441603D02*
X11689229Y-12479698D01*
X11689229Y-12479698D02*
X11689229Y-12555888D01*
X11689229Y-12555888D02*
X11698753Y-12574936D01*
X11698753Y-12574936D02*
X11708277Y-12584460D01*
X11708277Y-12584460D02*
X11727325Y-12593984D01*
X11727325Y-12593984D02*
X11765420Y-12593984D01*
X11765420Y-12593984D02*
X11784468Y-12584460D01*
X11784468Y-12584460D02*
X11793991Y-12574936D01*
X11793991Y-12574936D02*
X11803515Y-12555888D01*
X11803515Y-12555888D02*
X11803515Y-12508269D01*
X11803515Y-12508269D02*
X11793991Y-12489222D01*
X11793991Y-12489222D02*
X11784468Y-12479698D01*
X11784468Y-12479698D02*
X11765420Y-12470174D01*
X11765420Y-12470174D02*
X11727325Y-12470174D01*
X11727325Y-12470174D02*
X11708277Y-12479698D01*
X11708277Y-12479698D02*
X11698753Y-12489222D01*
X11698753Y-12489222D02*
X11689229Y-12508269D01*
X11917801Y-12479698D02*
X11898753Y-12470174D01*
X11898753Y-12470174D02*
X11889229Y-12460650D01*
X11889229Y-12460650D02*
X11879706Y-12441603D01*
X11879706Y-12441603D02*
X11879706Y-12432079D01*
X11879706Y-12432079D02*
X11889229Y-12413031D01*
X11889229Y-12413031D02*
X11898753Y-12403508D01*
X11898753Y-12403508D02*
X11917801Y-12393984D01*
X11917801Y-12393984D02*
X11955896Y-12393984D01*
X11955896Y-12393984D02*
X11974944Y-12403508D01*
X11974944Y-12403508D02*
X11984468Y-12413031D01*
X11984468Y-12413031D02*
X11993991Y-12432079D01*
X11993991Y-12432079D02*
X11993991Y-12441603D01*
X11993991Y-12441603D02*
X11984468Y-12460650D01*
X11984468Y-12460650D02*
X11974944Y-12470174D01*
X11974944Y-12470174D02*
X11955896Y-12479698D01*
X11955896Y-12479698D02*
X11917801Y-12479698D01*
X11917801Y-12479698D02*
X11898753Y-12489222D01*
X11898753Y-12489222D02*
X11889229Y-12498746D01*
X11889229Y-12498746D02*
X11879706Y-12517793D01*
X11879706Y-12517793D02*
X11879706Y-12555888D01*
X11879706Y-12555888D02*
X11889229Y-12574936D01*
X11889229Y-12574936D02*
X11898753Y-12584460D01*
X11898753Y-12584460D02*
X11917801Y-12593984D01*
X11917801Y-12593984D02*
X11955896Y-12593984D01*
X11955896Y-12593984D02*
X11974944Y-12584460D01*
X11974944Y-12584460D02*
X11984468Y-12574936D01*
X11984468Y-12574936D02*
X11993991Y-12555888D01*
X11993991Y-12555888D02*
X11993991Y-12517793D01*
X11993991Y-12517793D02*
X11984468Y-12498746D01*
X11984468Y-12498746D02*
X11974944Y-12489222D01*
X11974944Y-12489222D02*
X11955896Y-12479698D01*
X12232087Y-12593984D02*
X12232087Y-12393984D01*
X12317801Y-12593984D02*
X12317801Y-12489222D01*
X12317801Y-12489222D02*
X12308277Y-12470174D01*
X12308277Y-12470174D02*
X12289230Y-12460650D01*
X12289230Y-12460650D02*
X12260658Y-12460650D01*
X12260658Y-12460650D02*
X12241610Y-12470174D01*
X12241610Y-12470174D02*
X12232087Y-12479698D01*
X12441610Y-12593984D02*
X12422563Y-12584460D01*
X12422563Y-12584460D02*
X12413039Y-12574936D01*
X12413039Y-12574936D02*
X12403515Y-12555888D01*
X12403515Y-12555888D02*
X12403515Y-12498746D01*
X12403515Y-12498746D02*
X12413039Y-12479698D01*
X12413039Y-12479698D02*
X12422563Y-12470174D01*
X12422563Y-12470174D02*
X12441610Y-12460650D01*
X12441610Y-12460650D02*
X12470182Y-12460650D01*
X12470182Y-12460650D02*
X12489230Y-12470174D01*
X12489230Y-12470174D02*
X12498753Y-12479698D01*
X12498753Y-12479698D02*
X12508277Y-12498746D01*
X12508277Y-12498746D02*
X12508277Y-12555888D01*
X12508277Y-12555888D02*
X12498753Y-12574936D01*
X12498753Y-12574936D02*
X12489230Y-12584460D01*
X12489230Y-12584460D02*
X12470182Y-12593984D01*
X12470182Y-12593984D02*
X12441610Y-12593984D01*
X12622563Y-12593984D02*
X12603515Y-12584460D01*
X12603515Y-12584460D02*
X12593991Y-12565412D01*
X12593991Y-12565412D02*
X12593991Y-12393984D01*
X12774944Y-12584460D02*
X12755896Y-12593984D01*
X12755896Y-12593984D02*
X12717801Y-12593984D01*
X12717801Y-12593984D02*
X12698753Y-12584460D01*
X12698753Y-12584460D02*
X12689230Y-12565412D01*
X12689230Y-12565412D02*
X12689230Y-12489222D01*
X12689230Y-12489222D02*
X12698753Y-12470174D01*
X12698753Y-12470174D02*
X12717801Y-12460650D01*
X12717801Y-12460650D02*
X12755896Y-12460650D01*
X12755896Y-12460650D02*
X12774944Y-12470174D01*
X12774944Y-12470174D02*
X12784468Y-12489222D01*
X12784468Y-12489222D02*
X12784468Y-12508269D01*
X12784468Y-12508269D02*
X12689230Y-12527317D01*
X12860658Y-12584460D02*
X12879706Y-12593984D01*
X12879706Y-12593984D02*
X12917801Y-12593984D01*
X12917801Y-12593984D02*
X12936849Y-12584460D01*
X12936849Y-12584460D02*
X12946372Y-12565412D01*
X12946372Y-12565412D02*
X12946372Y-12555888D01*
X12946372Y-12555888D02*
X12936849Y-12536841D01*
X12936849Y-12536841D02*
X12917801Y-12527317D01*
X12917801Y-12527317D02*
X12889230Y-12527317D01*
X12889230Y-12527317D02*
X12870182Y-12517793D01*
X12870182Y-12517793D02*
X12860658Y-12498746D01*
X12860658Y-12498746D02*
X12860658Y-12489222D01*
X12860658Y-12489222D02*
X12870182Y-12470174D01*
X12870182Y-12470174D02*
X12889230Y-12460650D01*
X12889230Y-12460650D02*
X12917801Y-12460650D01*
X12917801Y-12460650D02*
X12936849Y-12470174D01*
X13013039Y-12670174D02*
X13022563Y-12660650D01*
X13022563Y-12660650D02*
X13041611Y-12632079D01*
X13041611Y-12632079D02*
X13051134Y-12613031D01*
X13051134Y-12613031D02*
X13060658Y-12584460D01*
X13060658Y-12584460D02*
X13070182Y-12536841D01*
X13070182Y-12536841D02*
X13070182Y-12498746D01*
X13070182Y-12498746D02*
X13060658Y-12451127D01*
X13060658Y-12451127D02*
X13051134Y-12422555D01*
X13051134Y-12422555D02*
X13041611Y-12403508D01*
X13041611Y-12403508D02*
X13022563Y-12374936D01*
X13022563Y-12374936D02*
X13013039Y-12365412D01*
D12*
X8047500Y-12766500D02*
G75*
G02*
X7947500Y-12766500I-50000J0D01*
G01*
X7947500Y-12766500D02*
G75*
G02*
X8047500Y-12766500I50000J0D01*
G01*
D11*
X8413039Y-12857984D02*
X8298753Y-12857984D01*
X8355896Y-12857984D02*
X8355896Y-12657984D01*
X8355896Y-12657984D02*
X8336848Y-12686555D01*
X8336848Y-12686555D02*
X8317801Y-12705603D01*
X8317801Y-12705603D02*
X8298753Y-12715127D01*
X8498753Y-12838936D02*
X8508277Y-12848460D01*
X8508277Y-12848460D02*
X8498753Y-12857984D01*
X8498753Y-12857984D02*
X8489229Y-12848460D01*
X8489229Y-12848460D02*
X8498753Y-12838936D01*
X8498753Y-12838936D02*
X8498753Y-12857984D01*
X8632086Y-12657984D02*
X8651134Y-12657984D01*
X8651134Y-12657984D02*
X8670182Y-12667508D01*
X8670182Y-12667508D02*
X8679705Y-12677031D01*
X8679705Y-12677031D02*
X8689229Y-12696079D01*
X8689229Y-12696079D02*
X8698753Y-12734174D01*
X8698753Y-12734174D02*
X8698753Y-12781793D01*
X8698753Y-12781793D02*
X8689229Y-12819888D01*
X8689229Y-12819888D02*
X8679705Y-12838936D01*
X8679705Y-12838936D02*
X8670182Y-12848460D01*
X8670182Y-12848460D02*
X8651134Y-12857984D01*
X8651134Y-12857984D02*
X8632086Y-12857984D01*
X8632086Y-12857984D02*
X8613039Y-12848460D01*
X8613039Y-12848460D02*
X8603515Y-12838936D01*
X8603515Y-12838936D02*
X8593991Y-12819888D01*
X8593991Y-12819888D02*
X8584467Y-12781793D01*
X8584467Y-12781793D02*
X8584467Y-12734174D01*
X8584467Y-12734174D02*
X8593991Y-12696079D01*
X8593991Y-12696079D02*
X8603515Y-12677031D01*
X8603515Y-12677031D02*
X8613039Y-12667508D01*
X8613039Y-12667508D02*
X8632086Y-12657984D01*
X8822563Y-12657984D02*
X8841610Y-12657984D01*
X8841610Y-12657984D02*
X8860658Y-12667508D01*
X8860658Y-12667508D02*
X8870182Y-12677031D01*
X8870182Y-12677031D02*
X8879705Y-12696079D01*
X8879705Y-12696079D02*
X8889229Y-12734174D01*
X8889229Y-12734174D02*
X8889229Y-12781793D01*
X8889229Y-12781793D02*
X8879705Y-12819888D01*
X8879705Y-12819888D02*
X8870182Y-12838936D01*
X8870182Y-12838936D02*
X8860658Y-12848460D01*
X8860658Y-12848460D02*
X8841610Y-12857984D01*
X8841610Y-12857984D02*
X8822563Y-12857984D01*
X8822563Y-12857984D02*
X8803515Y-12848460D01*
X8803515Y-12848460D02*
X8793991Y-12838936D01*
X8793991Y-12838936D02*
X8784467Y-12819888D01*
X8784467Y-12819888D02*
X8774944Y-12781793D01*
X8774944Y-12781793D02*
X8774944Y-12734174D01*
X8774944Y-12734174D02*
X8784467Y-12696079D01*
X8784467Y-12696079D02*
X8793991Y-12677031D01*
X8793991Y-12677031D02*
X8803515Y-12667508D01*
X8803515Y-12667508D02*
X8822563Y-12657984D01*
X9013039Y-12657984D02*
X9032086Y-12657984D01*
X9032086Y-12657984D02*
X9051134Y-12667508D01*
X9051134Y-12667508D02*
X9060658Y-12677031D01*
X9060658Y-12677031D02*
X9070182Y-12696079D01*
X9070182Y-12696079D02*
X9079705Y-12734174D01*
X9079705Y-12734174D02*
X9079705Y-12781793D01*
X9079705Y-12781793D02*
X9070182Y-12819888D01*
X9070182Y-12819888D02*
X9060658Y-12838936D01*
X9060658Y-12838936D02*
X9051134Y-12848460D01*
X9051134Y-12848460D02*
X9032086Y-12857984D01*
X9032086Y-12857984D02*
X9013039Y-12857984D01*
X9013039Y-12857984D02*
X8993991Y-12848460D01*
X8993991Y-12848460D02*
X8984467Y-12838936D01*
X8984467Y-12838936D02*
X8974944Y-12819888D01*
X8974944Y-12819888D02*
X8965420Y-12781793D01*
X8965420Y-12781793D02*
X8965420Y-12734174D01*
X8965420Y-12734174D02*
X8974944Y-12696079D01*
X8974944Y-12696079D02*
X8984467Y-12677031D01*
X8984467Y-12677031D02*
X8993991Y-12667508D01*
X8993991Y-12667508D02*
X9013039Y-12657984D01*
X9165420Y-12857984D02*
X9165420Y-12724650D01*
X9165420Y-12743698D02*
X9174944Y-12734174D01*
X9174944Y-12734174D02*
X9193991Y-12724650D01*
X9193991Y-12724650D02*
X9222563Y-12724650D01*
X9222563Y-12724650D02*
X9241610Y-12734174D01*
X9241610Y-12734174D02*
X9251134Y-12753222D01*
X9251134Y-12753222D02*
X9251134Y-12857984D01*
X9251134Y-12753222D02*
X9260658Y-12734174D01*
X9260658Y-12734174D02*
X9279705Y-12724650D01*
X9279705Y-12724650D02*
X9308277Y-12724650D01*
X9308277Y-12724650D02*
X9327325Y-12734174D01*
X9327325Y-12734174D02*
X9336848Y-12753222D01*
X9336848Y-12753222D02*
X9336848Y-12857984D01*
X9432086Y-12857984D02*
X9432086Y-12724650D01*
X9432086Y-12743698D02*
X9441610Y-12734174D01*
X9441610Y-12734174D02*
X9460658Y-12724650D01*
X9460658Y-12724650D02*
X9489229Y-12724650D01*
X9489229Y-12724650D02*
X9508277Y-12734174D01*
X9508277Y-12734174D02*
X9517801Y-12753222D01*
X9517801Y-12753222D02*
X9517801Y-12857984D01*
X9517801Y-12753222D02*
X9527325Y-12734174D01*
X9527325Y-12734174D02*
X9546372Y-12724650D01*
X9546372Y-12724650D02*
X9574944Y-12724650D01*
X9574944Y-12724650D02*
X9593991Y-12734174D01*
X9593991Y-12734174D02*
X9603515Y-12753222D01*
X9603515Y-12753222D02*
X9603515Y-12857984D01*
X9993991Y-12648460D02*
X9822563Y-12905603D01*
X10251134Y-12657984D02*
X10270182Y-12657984D01*
X10270182Y-12657984D02*
X10289229Y-12667508D01*
X10289229Y-12667508D02*
X10298753Y-12677031D01*
X10298753Y-12677031D02*
X10308277Y-12696079D01*
X10308277Y-12696079D02*
X10317801Y-12734174D01*
X10317801Y-12734174D02*
X10317801Y-12781793D01*
X10317801Y-12781793D02*
X10308277Y-12819888D01*
X10308277Y-12819888D02*
X10298753Y-12838936D01*
X10298753Y-12838936D02*
X10289229Y-12848460D01*
X10289229Y-12848460D02*
X10270182Y-12857984D01*
X10270182Y-12857984D02*
X10251134Y-12857984D01*
X10251134Y-12857984D02*
X10232087Y-12848460D01*
X10232087Y-12848460D02*
X10222563Y-12838936D01*
X10222563Y-12838936D02*
X10213039Y-12819888D01*
X10213039Y-12819888D02*
X10203515Y-12781793D01*
X10203515Y-12781793D02*
X10203515Y-12734174D01*
X10203515Y-12734174D02*
X10213039Y-12696079D01*
X10213039Y-12696079D02*
X10222563Y-12677031D01*
X10222563Y-12677031D02*
X10232087Y-12667508D01*
X10232087Y-12667508D02*
X10251134Y-12657984D01*
X10403515Y-12838936D02*
X10413039Y-12848460D01*
X10413039Y-12848460D02*
X10403515Y-12857984D01*
X10403515Y-12857984D02*
X10393991Y-12848460D01*
X10393991Y-12848460D02*
X10403515Y-12838936D01*
X10403515Y-12838936D02*
X10403515Y-12857984D01*
X10536848Y-12657984D02*
X10555896Y-12657984D01*
X10555896Y-12657984D02*
X10574944Y-12667508D01*
X10574944Y-12667508D02*
X10584468Y-12677031D01*
X10584468Y-12677031D02*
X10593991Y-12696079D01*
X10593991Y-12696079D02*
X10603515Y-12734174D01*
X10603515Y-12734174D02*
X10603515Y-12781793D01*
X10603515Y-12781793D02*
X10593991Y-12819888D01*
X10593991Y-12819888D02*
X10584468Y-12838936D01*
X10584468Y-12838936D02*
X10574944Y-12848460D01*
X10574944Y-12848460D02*
X10555896Y-12857984D01*
X10555896Y-12857984D02*
X10536848Y-12857984D01*
X10536848Y-12857984D02*
X10517801Y-12848460D01*
X10517801Y-12848460D02*
X10508277Y-12838936D01*
X10508277Y-12838936D02*
X10498753Y-12819888D01*
X10498753Y-12819888D02*
X10489229Y-12781793D01*
X10489229Y-12781793D02*
X10489229Y-12734174D01*
X10489229Y-12734174D02*
X10498753Y-12696079D01*
X10498753Y-12696079D02*
X10508277Y-12677031D01*
X10508277Y-12677031D02*
X10517801Y-12667508D01*
X10517801Y-12667508D02*
X10536848Y-12657984D01*
X10670182Y-12657984D02*
X10793991Y-12657984D01*
X10793991Y-12657984D02*
X10727325Y-12734174D01*
X10727325Y-12734174D02*
X10755896Y-12734174D01*
X10755896Y-12734174D02*
X10774944Y-12743698D01*
X10774944Y-12743698D02*
X10784468Y-12753222D01*
X10784468Y-12753222D02*
X10793991Y-12772269D01*
X10793991Y-12772269D02*
X10793991Y-12819888D01*
X10793991Y-12819888D02*
X10784468Y-12838936D01*
X10784468Y-12838936D02*
X10774944Y-12848460D01*
X10774944Y-12848460D02*
X10755896Y-12857984D01*
X10755896Y-12857984D02*
X10698753Y-12857984D01*
X10698753Y-12857984D02*
X10679706Y-12848460D01*
X10679706Y-12848460D02*
X10670182Y-12838936D01*
X10889229Y-12857984D02*
X10927325Y-12857984D01*
X10927325Y-12857984D02*
X10946372Y-12848460D01*
X10946372Y-12848460D02*
X10955896Y-12838936D01*
X10955896Y-12838936D02*
X10974944Y-12810365D01*
X10974944Y-12810365D02*
X10984468Y-12772269D01*
X10984468Y-12772269D02*
X10984468Y-12696079D01*
X10984468Y-12696079D02*
X10974944Y-12677031D01*
X10974944Y-12677031D02*
X10965420Y-12667508D01*
X10965420Y-12667508D02*
X10946372Y-12657984D01*
X10946372Y-12657984D02*
X10908277Y-12657984D01*
X10908277Y-12657984D02*
X10889229Y-12667508D01*
X10889229Y-12667508D02*
X10879706Y-12677031D01*
X10879706Y-12677031D02*
X10870182Y-12696079D01*
X10870182Y-12696079D02*
X10870182Y-12743698D01*
X10870182Y-12743698D02*
X10879706Y-12762746D01*
X10879706Y-12762746D02*
X10889229Y-12772269D01*
X10889229Y-12772269D02*
X10908277Y-12781793D01*
X10908277Y-12781793D02*
X10946372Y-12781793D01*
X10946372Y-12781793D02*
X10965420Y-12772269D01*
X10965420Y-12772269D02*
X10974944Y-12762746D01*
X10974944Y-12762746D02*
X10984468Y-12743698D01*
X11155896Y-12724650D02*
X11155896Y-12857984D01*
X11108277Y-12648460D02*
X11060658Y-12791317D01*
X11060658Y-12791317D02*
X11184468Y-12791317D01*
X11251134Y-12657984D02*
X11251134Y-12696079D01*
X11327325Y-12657984D02*
X11327325Y-12696079D01*
X11622563Y-12934174D02*
X11613039Y-12924650D01*
X11613039Y-12924650D02*
X11593991Y-12896079D01*
X11593991Y-12896079D02*
X11584468Y-12877031D01*
X11584468Y-12877031D02*
X11574944Y-12848460D01*
X11574944Y-12848460D02*
X11565420Y-12800841D01*
X11565420Y-12800841D02*
X11565420Y-12762746D01*
X11565420Y-12762746D02*
X11574944Y-12715127D01*
X11574944Y-12715127D02*
X11584468Y-12686555D01*
X11584468Y-12686555D02*
X11593991Y-12667508D01*
X11593991Y-12667508D02*
X11613039Y-12638936D01*
X11613039Y-12638936D02*
X11622563Y-12629412D01*
X11727325Y-12743698D02*
X11708277Y-12734174D01*
X11708277Y-12734174D02*
X11698753Y-12724650D01*
X11698753Y-12724650D02*
X11689229Y-12705603D01*
X11689229Y-12705603D02*
X11689229Y-12696079D01*
X11689229Y-12696079D02*
X11698753Y-12677031D01*
X11698753Y-12677031D02*
X11708277Y-12667508D01*
X11708277Y-12667508D02*
X11727325Y-12657984D01*
X11727325Y-12657984D02*
X11765420Y-12657984D01*
X11765420Y-12657984D02*
X11784468Y-12667508D01*
X11784468Y-12667508D02*
X11793991Y-12677031D01*
X11793991Y-12677031D02*
X11803515Y-12696079D01*
X11803515Y-12696079D02*
X11803515Y-12705603D01*
X11803515Y-12705603D02*
X11793991Y-12724650D01*
X11793991Y-12724650D02*
X11784468Y-12734174D01*
X11784468Y-12734174D02*
X11765420Y-12743698D01*
X11765420Y-12743698D02*
X11727325Y-12743698D01*
X11727325Y-12743698D02*
X11708277Y-12753222D01*
X11708277Y-12753222D02*
X11698753Y-12762746D01*
X11698753Y-12762746D02*
X11689229Y-12781793D01*
X11689229Y-12781793D02*
X11689229Y-12819888D01*
X11689229Y-12819888D02*
X11698753Y-12838936D01*
X11698753Y-12838936D02*
X11708277Y-12848460D01*
X11708277Y-12848460D02*
X11727325Y-12857984D01*
X11727325Y-12857984D02*
X11765420Y-12857984D01*
X11765420Y-12857984D02*
X11784468Y-12848460D01*
X11784468Y-12848460D02*
X11793991Y-12838936D01*
X11793991Y-12838936D02*
X11803515Y-12819888D01*
X11803515Y-12819888D02*
X11803515Y-12781793D01*
X11803515Y-12781793D02*
X11793991Y-12762746D01*
X11793991Y-12762746D02*
X11784468Y-12753222D01*
X11784468Y-12753222D02*
X11765420Y-12743698D01*
X12041610Y-12857984D02*
X12041610Y-12657984D01*
X12127325Y-12857984D02*
X12127325Y-12753222D01*
X12127325Y-12753222D02*
X12117801Y-12734174D01*
X12117801Y-12734174D02*
X12098753Y-12724650D01*
X12098753Y-12724650D02*
X12070182Y-12724650D01*
X12070182Y-12724650D02*
X12051134Y-12734174D01*
X12051134Y-12734174D02*
X12041610Y-12743698D01*
X12251134Y-12857984D02*
X12232087Y-12848460D01*
X12232087Y-12848460D02*
X12222563Y-12838936D01*
X12222563Y-12838936D02*
X12213039Y-12819888D01*
X12213039Y-12819888D02*
X12213039Y-12762746D01*
X12213039Y-12762746D02*
X12222563Y-12743698D01*
X12222563Y-12743698D02*
X12232087Y-12734174D01*
X12232087Y-12734174D02*
X12251134Y-12724650D01*
X12251134Y-12724650D02*
X12279706Y-12724650D01*
X12279706Y-12724650D02*
X12298753Y-12734174D01*
X12298753Y-12734174D02*
X12308277Y-12743698D01*
X12308277Y-12743698D02*
X12317801Y-12762746D01*
X12317801Y-12762746D02*
X12317801Y-12819888D01*
X12317801Y-12819888D02*
X12308277Y-12838936D01*
X12308277Y-12838936D02*
X12298753Y-12848460D01*
X12298753Y-12848460D02*
X12279706Y-12857984D01*
X12279706Y-12857984D02*
X12251134Y-12857984D01*
X12432087Y-12857984D02*
X12413039Y-12848460D01*
X12413039Y-12848460D02*
X12403515Y-12829412D01*
X12403515Y-12829412D02*
X12403515Y-12657984D01*
X12584468Y-12848460D02*
X12565420Y-12857984D01*
X12565420Y-12857984D02*
X12527325Y-12857984D01*
X12527325Y-12857984D02*
X12508277Y-12848460D01*
X12508277Y-12848460D02*
X12498753Y-12829412D01*
X12498753Y-12829412D02*
X12498753Y-12753222D01*
X12498753Y-12753222D02*
X12508277Y-12734174D01*
X12508277Y-12734174D02*
X12527325Y-12724650D01*
X12527325Y-12724650D02*
X12565420Y-12724650D01*
X12565420Y-12724650D02*
X12584468Y-12734174D01*
X12584468Y-12734174D02*
X12593991Y-12753222D01*
X12593991Y-12753222D02*
X12593991Y-12772269D01*
X12593991Y-12772269D02*
X12498753Y-12791317D01*
X12670182Y-12848460D02*
X12689230Y-12857984D01*
X12689230Y-12857984D02*
X12727325Y-12857984D01*
X12727325Y-12857984D02*
X12746372Y-12848460D01*
X12746372Y-12848460D02*
X12755896Y-12829412D01*
X12755896Y-12829412D02*
X12755896Y-12819888D01*
X12755896Y-12819888D02*
X12746372Y-12800841D01*
X12746372Y-12800841D02*
X12727325Y-12791317D01*
X12727325Y-12791317D02*
X12698753Y-12791317D01*
X12698753Y-12791317D02*
X12679706Y-12781793D01*
X12679706Y-12781793D02*
X12670182Y-12762746D01*
X12670182Y-12762746D02*
X12670182Y-12753222D01*
X12670182Y-12753222D02*
X12679706Y-12734174D01*
X12679706Y-12734174D02*
X12698753Y-12724650D01*
X12698753Y-12724650D02*
X12727325Y-12724650D01*
X12727325Y-12724650D02*
X12746372Y-12734174D01*
X12822563Y-12934174D02*
X12832087Y-12924650D01*
X12832087Y-12924650D02*
X12851134Y-12896079D01*
X12851134Y-12896079D02*
X12860658Y-12877031D01*
X12860658Y-12877031D02*
X12870182Y-12848460D01*
X12870182Y-12848460D02*
X12879706Y-12800841D01*
X12879706Y-12800841D02*
X12879706Y-12762746D01*
X12879706Y-12762746D02*
X12870182Y-12715127D01*
X12870182Y-12715127D02*
X12860658Y-12686555D01*
X12860658Y-12686555D02*
X12851134Y-12667508D01*
X12851134Y-12667508D02*
X12832087Y-12638936D01*
X12832087Y-12638936D02*
X12822563Y-12629412D01*
D13*
X7992500Y-12975500D02*
X7992500Y-13085500D01*
X7937500Y-13030500D02*
X8047500Y-13030500D01*
D11*
X8413039Y-13121984D02*
X8298753Y-13121984D01*
X8355896Y-13121984D02*
X8355896Y-12921984D01*
X8355896Y-12921984D02*
X8336848Y-12950555D01*
X8336848Y-12950555D02*
X8317801Y-12969603D01*
X8317801Y-12969603D02*
X8298753Y-12979127D01*
X8498753Y-13102936D02*
X8508277Y-13112460D01*
X8508277Y-13112460D02*
X8498753Y-13121984D01*
X8498753Y-13121984D02*
X8489229Y-13112460D01*
X8489229Y-13112460D02*
X8498753Y-13102936D01*
X8498753Y-13102936D02*
X8498753Y-13121984D01*
X8698753Y-13121984D02*
X8584467Y-13121984D01*
X8641610Y-13121984D02*
X8641610Y-12921984D01*
X8641610Y-12921984D02*
X8622563Y-12950555D01*
X8622563Y-12950555D02*
X8603515Y-12969603D01*
X8603515Y-12969603D02*
X8584467Y-12979127D01*
X8822563Y-12921984D02*
X8841610Y-12921984D01*
X8841610Y-12921984D02*
X8860658Y-12931508D01*
X8860658Y-12931508D02*
X8870182Y-12941031D01*
X8870182Y-12941031D02*
X8879705Y-12960079D01*
X8879705Y-12960079D02*
X8889229Y-12998174D01*
X8889229Y-12998174D02*
X8889229Y-13045793D01*
X8889229Y-13045793D02*
X8879705Y-13083888D01*
X8879705Y-13083888D02*
X8870182Y-13102936D01*
X8870182Y-13102936D02*
X8860658Y-13112460D01*
X8860658Y-13112460D02*
X8841610Y-13121984D01*
X8841610Y-13121984D02*
X8822563Y-13121984D01*
X8822563Y-13121984D02*
X8803515Y-13112460D01*
X8803515Y-13112460D02*
X8793991Y-13102936D01*
X8793991Y-13102936D02*
X8784467Y-13083888D01*
X8784467Y-13083888D02*
X8774944Y-13045793D01*
X8774944Y-13045793D02*
X8774944Y-12998174D01*
X8774944Y-12998174D02*
X8784467Y-12960079D01*
X8784467Y-12960079D02*
X8793991Y-12941031D01*
X8793991Y-12941031D02*
X8803515Y-12931508D01*
X8803515Y-12931508D02*
X8822563Y-12921984D01*
X9013039Y-12921984D02*
X9032086Y-12921984D01*
X9032086Y-12921984D02*
X9051134Y-12931508D01*
X9051134Y-12931508D02*
X9060658Y-12941031D01*
X9060658Y-12941031D02*
X9070182Y-12960079D01*
X9070182Y-12960079D02*
X9079705Y-12998174D01*
X9079705Y-12998174D02*
X9079705Y-13045793D01*
X9079705Y-13045793D02*
X9070182Y-13083888D01*
X9070182Y-13083888D02*
X9060658Y-13102936D01*
X9060658Y-13102936D02*
X9051134Y-13112460D01*
X9051134Y-13112460D02*
X9032086Y-13121984D01*
X9032086Y-13121984D02*
X9013039Y-13121984D01*
X9013039Y-13121984D02*
X8993991Y-13112460D01*
X8993991Y-13112460D02*
X8984467Y-13102936D01*
X8984467Y-13102936D02*
X8974944Y-13083888D01*
X8974944Y-13083888D02*
X8965420Y-13045793D01*
X8965420Y-13045793D02*
X8965420Y-12998174D01*
X8965420Y-12998174D02*
X8974944Y-12960079D01*
X8974944Y-12960079D02*
X8984467Y-12941031D01*
X8984467Y-12941031D02*
X8993991Y-12931508D01*
X8993991Y-12931508D02*
X9013039Y-12921984D01*
X9165420Y-13121984D02*
X9165420Y-12988650D01*
X9165420Y-13007698D02*
X9174944Y-12998174D01*
X9174944Y-12998174D02*
X9193991Y-12988650D01*
X9193991Y-12988650D02*
X9222563Y-12988650D01*
X9222563Y-12988650D02*
X9241610Y-12998174D01*
X9241610Y-12998174D02*
X9251134Y-13017222D01*
X9251134Y-13017222D02*
X9251134Y-13121984D01*
X9251134Y-13017222D02*
X9260658Y-12998174D01*
X9260658Y-12998174D02*
X9279705Y-12988650D01*
X9279705Y-12988650D02*
X9308277Y-12988650D01*
X9308277Y-12988650D02*
X9327325Y-12998174D01*
X9327325Y-12998174D02*
X9336848Y-13017222D01*
X9336848Y-13017222D02*
X9336848Y-13121984D01*
X9432086Y-13121984D02*
X9432086Y-12988650D01*
X9432086Y-13007698D02*
X9441610Y-12998174D01*
X9441610Y-12998174D02*
X9460658Y-12988650D01*
X9460658Y-12988650D02*
X9489229Y-12988650D01*
X9489229Y-12988650D02*
X9508277Y-12998174D01*
X9508277Y-12998174D02*
X9517801Y-13017222D01*
X9517801Y-13017222D02*
X9517801Y-13121984D01*
X9517801Y-13017222D02*
X9527325Y-12998174D01*
X9527325Y-12998174D02*
X9546372Y-12988650D01*
X9546372Y-12988650D02*
X9574944Y-12988650D01*
X9574944Y-12988650D02*
X9593991Y-12998174D01*
X9593991Y-12998174D02*
X9603515Y-13017222D01*
X9603515Y-13017222D02*
X9603515Y-13121984D01*
X9993991Y-12912460D02*
X9822563Y-13169603D01*
X10251134Y-12921984D02*
X10270182Y-12921984D01*
X10270182Y-12921984D02*
X10289229Y-12931508D01*
X10289229Y-12931508D02*
X10298753Y-12941031D01*
X10298753Y-12941031D02*
X10308277Y-12960079D01*
X10308277Y-12960079D02*
X10317801Y-12998174D01*
X10317801Y-12998174D02*
X10317801Y-13045793D01*
X10317801Y-13045793D02*
X10308277Y-13083888D01*
X10308277Y-13083888D02*
X10298753Y-13102936D01*
X10298753Y-13102936D02*
X10289229Y-13112460D01*
X10289229Y-13112460D02*
X10270182Y-13121984D01*
X10270182Y-13121984D02*
X10251134Y-13121984D01*
X10251134Y-13121984D02*
X10232087Y-13112460D01*
X10232087Y-13112460D02*
X10222563Y-13102936D01*
X10222563Y-13102936D02*
X10213039Y-13083888D01*
X10213039Y-13083888D02*
X10203515Y-13045793D01*
X10203515Y-13045793D02*
X10203515Y-12998174D01*
X10203515Y-12998174D02*
X10213039Y-12960079D01*
X10213039Y-12960079D02*
X10222563Y-12941031D01*
X10222563Y-12941031D02*
X10232087Y-12931508D01*
X10232087Y-12931508D02*
X10251134Y-12921984D01*
X10403515Y-13102936D02*
X10413039Y-13112460D01*
X10413039Y-13112460D02*
X10403515Y-13121984D01*
X10403515Y-13121984D02*
X10393991Y-13112460D01*
X10393991Y-13112460D02*
X10403515Y-13102936D01*
X10403515Y-13102936D02*
X10403515Y-13121984D01*
X10536848Y-12921984D02*
X10555896Y-12921984D01*
X10555896Y-12921984D02*
X10574944Y-12931508D01*
X10574944Y-12931508D02*
X10584468Y-12941031D01*
X10584468Y-12941031D02*
X10593991Y-12960079D01*
X10593991Y-12960079D02*
X10603515Y-12998174D01*
X10603515Y-12998174D02*
X10603515Y-13045793D01*
X10603515Y-13045793D02*
X10593991Y-13083888D01*
X10593991Y-13083888D02*
X10584468Y-13102936D01*
X10584468Y-13102936D02*
X10574944Y-13112460D01*
X10574944Y-13112460D02*
X10555896Y-13121984D01*
X10555896Y-13121984D02*
X10536848Y-13121984D01*
X10536848Y-13121984D02*
X10517801Y-13112460D01*
X10517801Y-13112460D02*
X10508277Y-13102936D01*
X10508277Y-13102936D02*
X10498753Y-13083888D01*
X10498753Y-13083888D02*
X10489229Y-13045793D01*
X10489229Y-13045793D02*
X10489229Y-12998174D01*
X10489229Y-12998174D02*
X10498753Y-12960079D01*
X10498753Y-12960079D02*
X10508277Y-12941031D01*
X10508277Y-12941031D02*
X10517801Y-12931508D01*
X10517801Y-12931508D02*
X10536848Y-12921984D01*
X10774944Y-12988650D02*
X10774944Y-13121984D01*
X10727325Y-12912460D02*
X10679706Y-13055317D01*
X10679706Y-13055317D02*
X10803515Y-13055317D01*
X10860658Y-12921984D02*
X10984468Y-12921984D01*
X10984468Y-12921984D02*
X10917801Y-12998174D01*
X10917801Y-12998174D02*
X10946372Y-12998174D01*
X10946372Y-12998174D02*
X10965420Y-13007698D01*
X10965420Y-13007698D02*
X10974944Y-13017222D01*
X10974944Y-13017222D02*
X10984468Y-13036269D01*
X10984468Y-13036269D02*
X10984468Y-13083888D01*
X10984468Y-13083888D02*
X10974944Y-13102936D01*
X10974944Y-13102936D02*
X10965420Y-13112460D01*
X10965420Y-13112460D02*
X10946372Y-13121984D01*
X10946372Y-13121984D02*
X10889229Y-13121984D01*
X10889229Y-13121984D02*
X10870182Y-13112460D01*
X10870182Y-13112460D02*
X10860658Y-13102936D01*
X11051134Y-12921984D02*
X11174944Y-12921984D01*
X11174944Y-12921984D02*
X11108277Y-12998174D01*
X11108277Y-12998174D02*
X11136849Y-12998174D01*
X11136849Y-12998174D02*
X11155896Y-13007698D01*
X11155896Y-13007698D02*
X11165420Y-13017222D01*
X11165420Y-13017222D02*
X11174944Y-13036269D01*
X11174944Y-13036269D02*
X11174944Y-13083888D01*
X11174944Y-13083888D02*
X11165420Y-13102936D01*
X11165420Y-13102936D02*
X11155896Y-13112460D01*
X11155896Y-13112460D02*
X11136849Y-13121984D01*
X11136849Y-13121984D02*
X11079706Y-13121984D01*
X11079706Y-13121984D02*
X11060658Y-13112460D01*
X11060658Y-13112460D02*
X11051134Y-13102936D01*
X11251134Y-12921984D02*
X11251134Y-12960079D01*
X11327325Y-12921984D02*
X11327325Y-12960079D01*
X11622563Y-13198174D02*
X11613039Y-13188650D01*
X11613039Y-13188650D02*
X11593991Y-13160079D01*
X11593991Y-13160079D02*
X11584468Y-13141031D01*
X11584468Y-13141031D02*
X11574944Y-13112460D01*
X11574944Y-13112460D02*
X11565420Y-13064841D01*
X11565420Y-13064841D02*
X11565420Y-13026746D01*
X11565420Y-13026746D02*
X11574944Y-12979127D01*
X11574944Y-12979127D02*
X11584468Y-12950555D01*
X11584468Y-12950555D02*
X11593991Y-12931508D01*
X11593991Y-12931508D02*
X11613039Y-12902936D01*
X11613039Y-12902936D02*
X11622563Y-12893412D01*
X11679706Y-12921984D02*
X11803515Y-12921984D01*
X11803515Y-12921984D02*
X11736848Y-12998174D01*
X11736848Y-12998174D02*
X11765420Y-12998174D01*
X11765420Y-12998174D02*
X11784468Y-13007698D01*
X11784468Y-13007698D02*
X11793991Y-13017222D01*
X11793991Y-13017222D02*
X11803515Y-13036269D01*
X11803515Y-13036269D02*
X11803515Y-13083888D01*
X11803515Y-13083888D02*
X11793991Y-13102936D01*
X11793991Y-13102936D02*
X11784468Y-13112460D01*
X11784468Y-13112460D02*
X11765420Y-13121984D01*
X11765420Y-13121984D02*
X11708277Y-13121984D01*
X11708277Y-13121984D02*
X11689229Y-13112460D01*
X11689229Y-13112460D02*
X11679706Y-13102936D01*
X12041610Y-13121984D02*
X12041610Y-12921984D01*
X12127325Y-13121984D02*
X12127325Y-13017222D01*
X12127325Y-13017222D02*
X12117801Y-12998174D01*
X12117801Y-12998174D02*
X12098753Y-12988650D01*
X12098753Y-12988650D02*
X12070182Y-12988650D01*
X12070182Y-12988650D02*
X12051134Y-12998174D01*
X12051134Y-12998174D02*
X12041610Y-13007698D01*
X12251134Y-13121984D02*
X12232087Y-13112460D01*
X12232087Y-13112460D02*
X12222563Y-13102936D01*
X12222563Y-13102936D02*
X12213039Y-13083888D01*
X12213039Y-13083888D02*
X12213039Y-13026746D01*
X12213039Y-13026746D02*
X12222563Y-13007698D01*
X12222563Y-13007698D02*
X12232087Y-12998174D01*
X12232087Y-12998174D02*
X12251134Y-12988650D01*
X12251134Y-12988650D02*
X12279706Y-12988650D01*
X12279706Y-12988650D02*
X12298753Y-12998174D01*
X12298753Y-12998174D02*
X12308277Y-13007698D01*
X12308277Y-13007698D02*
X12317801Y-13026746D01*
X12317801Y-13026746D02*
X12317801Y-13083888D01*
X12317801Y-13083888D02*
X12308277Y-13102936D01*
X12308277Y-13102936D02*
X12298753Y-13112460D01*
X12298753Y-13112460D02*
X12279706Y-13121984D01*
X12279706Y-13121984D02*
X12251134Y-13121984D01*
X12432087Y-13121984D02*
X12413039Y-13112460D01*
X12413039Y-13112460D02*
X12403515Y-13093412D01*
X12403515Y-13093412D02*
X12403515Y-12921984D01*
X12584468Y-13112460D02*
X12565420Y-13121984D01*
X12565420Y-13121984D02*
X12527325Y-13121984D01*
X12527325Y-13121984D02*
X12508277Y-13112460D01*
X12508277Y-13112460D02*
X12498753Y-13093412D01*
X12498753Y-13093412D02*
X12498753Y-13017222D01*
X12498753Y-13017222D02*
X12508277Y-12998174D01*
X12508277Y-12998174D02*
X12527325Y-12988650D01*
X12527325Y-12988650D02*
X12565420Y-12988650D01*
X12565420Y-12988650D02*
X12584468Y-12998174D01*
X12584468Y-12998174D02*
X12593991Y-13017222D01*
X12593991Y-13017222D02*
X12593991Y-13036269D01*
X12593991Y-13036269D02*
X12498753Y-13055317D01*
X12670182Y-13112460D02*
X12689230Y-13121984D01*
X12689230Y-13121984D02*
X12727325Y-13121984D01*
X12727325Y-13121984D02*
X12746372Y-13112460D01*
X12746372Y-13112460D02*
X12755896Y-13093412D01*
X12755896Y-13093412D02*
X12755896Y-13083888D01*
X12755896Y-13083888D02*
X12746372Y-13064841D01*
X12746372Y-13064841D02*
X12727325Y-13055317D01*
X12727325Y-13055317D02*
X12698753Y-13055317D01*
X12698753Y-13055317D02*
X12679706Y-13045793D01*
X12679706Y-13045793D02*
X12670182Y-13026746D01*
X12670182Y-13026746D02*
X12670182Y-13017222D01*
X12670182Y-13017222D02*
X12679706Y-12998174D01*
X12679706Y-12998174D02*
X12698753Y-12988650D01*
X12698753Y-12988650D02*
X12727325Y-12988650D01*
X12727325Y-12988650D02*
X12746372Y-12998174D01*
X12822563Y-13198174D02*
X12832087Y-13188650D01*
X12832087Y-13188650D02*
X12851134Y-13160079D01*
X12851134Y-13160079D02*
X12860658Y-13141031D01*
X12860658Y-13141031D02*
X12870182Y-13112460D01*
X12870182Y-13112460D02*
X12879706Y-13064841D01*
X12879706Y-13064841D02*
X12879706Y-13026746D01*
X12879706Y-13026746D02*
X12870182Y-12979127D01*
X12870182Y-12979127D02*
X12860658Y-12950555D01*
X12860658Y-12950555D02*
X12851134Y-12931508D01*
X12851134Y-12931508D02*
X12832087Y-12902936D01*
X12832087Y-12902936D02*
X12822563Y-12893412D01*
D14*
X8029927Y-13336927D02*
X8029927Y-13252073D01*
X7945073Y-13252073D01*
X7945073Y-13336927D01*
X8029927Y-13336927D01*
D11*
X8413039Y-13385984D02*
X8298753Y-13385984D01*
X8355896Y-13385984D02*
X8355896Y-13185984D01*
X8355896Y-13185984D02*
X8336848Y-13214555D01*
X8336848Y-13214555D02*
X8317801Y-13233603D01*
X8317801Y-13233603D02*
X8298753Y-13243127D01*
X8498753Y-13366936D02*
X8508277Y-13376460D01*
X8508277Y-13376460D02*
X8498753Y-13385984D01*
X8498753Y-13385984D02*
X8489229Y-13376460D01*
X8489229Y-13376460D02*
X8498753Y-13366936D01*
X8498753Y-13366936D02*
X8498753Y-13385984D01*
X8584467Y-13205031D02*
X8593991Y-13195508D01*
X8593991Y-13195508D02*
X8613039Y-13185984D01*
X8613039Y-13185984D02*
X8660658Y-13185984D01*
X8660658Y-13185984D02*
X8679705Y-13195508D01*
X8679705Y-13195508D02*
X8689229Y-13205031D01*
X8689229Y-13205031D02*
X8698753Y-13224079D01*
X8698753Y-13224079D02*
X8698753Y-13243127D01*
X8698753Y-13243127D02*
X8689229Y-13271698D01*
X8689229Y-13271698D02*
X8574944Y-13385984D01*
X8574944Y-13385984D02*
X8698753Y-13385984D01*
X8822563Y-13185984D02*
X8841610Y-13185984D01*
X8841610Y-13185984D02*
X8860658Y-13195508D01*
X8860658Y-13195508D02*
X8870182Y-13205031D01*
X8870182Y-13205031D02*
X8879705Y-13224079D01*
X8879705Y-13224079D02*
X8889229Y-13262174D01*
X8889229Y-13262174D02*
X8889229Y-13309793D01*
X8889229Y-13309793D02*
X8879705Y-13347888D01*
X8879705Y-13347888D02*
X8870182Y-13366936D01*
X8870182Y-13366936D02*
X8860658Y-13376460D01*
X8860658Y-13376460D02*
X8841610Y-13385984D01*
X8841610Y-13385984D02*
X8822563Y-13385984D01*
X8822563Y-13385984D02*
X8803515Y-13376460D01*
X8803515Y-13376460D02*
X8793991Y-13366936D01*
X8793991Y-13366936D02*
X8784467Y-13347888D01*
X8784467Y-13347888D02*
X8774944Y-13309793D01*
X8774944Y-13309793D02*
X8774944Y-13262174D01*
X8774944Y-13262174D02*
X8784467Y-13224079D01*
X8784467Y-13224079D02*
X8793991Y-13205031D01*
X8793991Y-13205031D02*
X8803515Y-13195508D01*
X8803515Y-13195508D02*
X8822563Y-13185984D01*
X9013039Y-13185984D02*
X9032086Y-13185984D01*
X9032086Y-13185984D02*
X9051134Y-13195508D01*
X9051134Y-13195508D02*
X9060658Y-13205031D01*
X9060658Y-13205031D02*
X9070182Y-13224079D01*
X9070182Y-13224079D02*
X9079705Y-13262174D01*
X9079705Y-13262174D02*
X9079705Y-13309793D01*
X9079705Y-13309793D02*
X9070182Y-13347888D01*
X9070182Y-13347888D02*
X9060658Y-13366936D01*
X9060658Y-13366936D02*
X9051134Y-13376460D01*
X9051134Y-13376460D02*
X9032086Y-13385984D01*
X9032086Y-13385984D02*
X9013039Y-13385984D01*
X9013039Y-13385984D02*
X8993991Y-13376460D01*
X8993991Y-13376460D02*
X8984467Y-13366936D01*
X8984467Y-13366936D02*
X8974944Y-13347888D01*
X8974944Y-13347888D02*
X8965420Y-13309793D01*
X8965420Y-13309793D02*
X8965420Y-13262174D01*
X8965420Y-13262174D02*
X8974944Y-13224079D01*
X8974944Y-13224079D02*
X8984467Y-13205031D01*
X8984467Y-13205031D02*
X8993991Y-13195508D01*
X8993991Y-13195508D02*
X9013039Y-13185984D01*
X9165420Y-13385984D02*
X9165420Y-13252650D01*
X9165420Y-13271698D02*
X9174944Y-13262174D01*
X9174944Y-13262174D02*
X9193991Y-13252650D01*
X9193991Y-13252650D02*
X9222563Y-13252650D01*
X9222563Y-13252650D02*
X9241610Y-13262174D01*
X9241610Y-13262174D02*
X9251134Y-13281222D01*
X9251134Y-13281222D02*
X9251134Y-13385984D01*
X9251134Y-13281222D02*
X9260658Y-13262174D01*
X9260658Y-13262174D02*
X9279705Y-13252650D01*
X9279705Y-13252650D02*
X9308277Y-13252650D01*
X9308277Y-13252650D02*
X9327325Y-13262174D01*
X9327325Y-13262174D02*
X9336848Y-13281222D01*
X9336848Y-13281222D02*
X9336848Y-13385984D01*
X9432086Y-13385984D02*
X9432086Y-13252650D01*
X9432086Y-13271698D02*
X9441610Y-13262174D01*
X9441610Y-13262174D02*
X9460658Y-13252650D01*
X9460658Y-13252650D02*
X9489229Y-13252650D01*
X9489229Y-13252650D02*
X9508277Y-13262174D01*
X9508277Y-13262174D02*
X9517801Y-13281222D01*
X9517801Y-13281222D02*
X9517801Y-13385984D01*
X9517801Y-13281222D02*
X9527325Y-13262174D01*
X9527325Y-13262174D02*
X9546372Y-13252650D01*
X9546372Y-13252650D02*
X9574944Y-13252650D01*
X9574944Y-13252650D02*
X9593991Y-13262174D01*
X9593991Y-13262174D02*
X9603515Y-13281222D01*
X9603515Y-13281222D02*
X9603515Y-13385984D01*
X9993991Y-13176460D02*
X9822563Y-13433603D01*
X10251134Y-13185984D02*
X10270182Y-13185984D01*
X10270182Y-13185984D02*
X10289229Y-13195508D01*
X10289229Y-13195508D02*
X10298753Y-13205031D01*
X10298753Y-13205031D02*
X10308277Y-13224079D01*
X10308277Y-13224079D02*
X10317801Y-13262174D01*
X10317801Y-13262174D02*
X10317801Y-13309793D01*
X10317801Y-13309793D02*
X10308277Y-13347888D01*
X10308277Y-13347888D02*
X10298753Y-13366936D01*
X10298753Y-13366936D02*
X10289229Y-13376460D01*
X10289229Y-13376460D02*
X10270182Y-13385984D01*
X10270182Y-13385984D02*
X10251134Y-13385984D01*
X10251134Y-13385984D02*
X10232087Y-13376460D01*
X10232087Y-13376460D02*
X10222563Y-13366936D01*
X10222563Y-13366936D02*
X10213039Y-13347888D01*
X10213039Y-13347888D02*
X10203515Y-13309793D01*
X10203515Y-13309793D02*
X10203515Y-13262174D01*
X10203515Y-13262174D02*
X10213039Y-13224079D01*
X10213039Y-13224079D02*
X10222563Y-13205031D01*
X10222563Y-13205031D02*
X10232087Y-13195508D01*
X10232087Y-13195508D02*
X10251134Y-13185984D01*
X10403515Y-13366936D02*
X10413039Y-13376460D01*
X10413039Y-13376460D02*
X10403515Y-13385984D01*
X10403515Y-13385984D02*
X10393991Y-13376460D01*
X10393991Y-13376460D02*
X10403515Y-13366936D01*
X10403515Y-13366936D02*
X10403515Y-13385984D01*
X10536848Y-13185984D02*
X10555896Y-13185984D01*
X10555896Y-13185984D02*
X10574944Y-13195508D01*
X10574944Y-13195508D02*
X10584468Y-13205031D01*
X10584468Y-13205031D02*
X10593991Y-13224079D01*
X10593991Y-13224079D02*
X10603515Y-13262174D01*
X10603515Y-13262174D02*
X10603515Y-13309793D01*
X10603515Y-13309793D02*
X10593991Y-13347888D01*
X10593991Y-13347888D02*
X10584468Y-13366936D01*
X10584468Y-13366936D02*
X10574944Y-13376460D01*
X10574944Y-13376460D02*
X10555896Y-13385984D01*
X10555896Y-13385984D02*
X10536848Y-13385984D01*
X10536848Y-13385984D02*
X10517801Y-13376460D01*
X10517801Y-13376460D02*
X10508277Y-13366936D01*
X10508277Y-13366936D02*
X10498753Y-13347888D01*
X10498753Y-13347888D02*
X10489229Y-13309793D01*
X10489229Y-13309793D02*
X10489229Y-13262174D01*
X10489229Y-13262174D02*
X10498753Y-13224079D01*
X10498753Y-13224079D02*
X10508277Y-13205031D01*
X10508277Y-13205031D02*
X10517801Y-13195508D01*
X10517801Y-13195508D02*
X10536848Y-13185984D01*
X10774944Y-13252650D02*
X10774944Y-13385984D01*
X10727325Y-13176460D02*
X10679706Y-13319317D01*
X10679706Y-13319317D02*
X10803515Y-13319317D01*
X10860658Y-13185984D02*
X10993991Y-13185984D01*
X10993991Y-13185984D02*
X10908277Y-13385984D01*
X11060658Y-13205031D02*
X11070182Y-13195508D01*
X11070182Y-13195508D02*
X11089229Y-13185984D01*
X11089229Y-13185984D02*
X11136849Y-13185984D01*
X11136849Y-13185984D02*
X11155896Y-13195508D01*
X11155896Y-13195508D02*
X11165420Y-13205031D01*
X11165420Y-13205031D02*
X11174944Y-13224079D01*
X11174944Y-13224079D02*
X11174944Y-13243127D01*
X11174944Y-13243127D02*
X11165420Y-13271698D01*
X11165420Y-13271698D02*
X11051134Y-13385984D01*
X11051134Y-13385984D02*
X11174944Y-13385984D01*
X11251134Y-13185984D02*
X11251134Y-13224079D01*
X11327325Y-13185984D02*
X11327325Y-13224079D01*
X11622563Y-13462174D02*
X11613039Y-13452650D01*
X11613039Y-13452650D02*
X11593991Y-13424079D01*
X11593991Y-13424079D02*
X11584468Y-13405031D01*
X11584468Y-13405031D02*
X11574944Y-13376460D01*
X11574944Y-13376460D02*
X11565420Y-13328841D01*
X11565420Y-13328841D02*
X11565420Y-13290746D01*
X11565420Y-13290746D02*
X11574944Y-13243127D01*
X11574944Y-13243127D02*
X11584468Y-13214555D01*
X11584468Y-13214555D02*
X11593991Y-13195508D01*
X11593991Y-13195508D02*
X11613039Y-13166936D01*
X11613039Y-13166936D02*
X11622563Y-13157412D01*
X11689229Y-13205031D02*
X11698753Y-13195508D01*
X11698753Y-13195508D02*
X11717801Y-13185984D01*
X11717801Y-13185984D02*
X11765420Y-13185984D01*
X11765420Y-13185984D02*
X11784468Y-13195508D01*
X11784468Y-13195508D02*
X11793991Y-13205031D01*
X11793991Y-13205031D02*
X11803515Y-13224079D01*
X11803515Y-13224079D02*
X11803515Y-13243127D01*
X11803515Y-13243127D02*
X11793991Y-13271698D01*
X11793991Y-13271698D02*
X11679706Y-13385984D01*
X11679706Y-13385984D02*
X11803515Y-13385984D01*
X12041610Y-13385984D02*
X12041610Y-13185984D01*
X12127325Y-13385984D02*
X12127325Y-13281222D01*
X12127325Y-13281222D02*
X12117801Y-13262174D01*
X12117801Y-13262174D02*
X12098753Y-13252650D01*
X12098753Y-13252650D02*
X12070182Y-13252650D01*
X12070182Y-13252650D02*
X12051134Y-13262174D01*
X12051134Y-13262174D02*
X12041610Y-13271698D01*
X12251134Y-13385984D02*
X12232087Y-13376460D01*
X12232087Y-13376460D02*
X12222563Y-13366936D01*
X12222563Y-13366936D02*
X12213039Y-13347888D01*
X12213039Y-13347888D02*
X12213039Y-13290746D01*
X12213039Y-13290746D02*
X12222563Y-13271698D01*
X12222563Y-13271698D02*
X12232087Y-13262174D01*
X12232087Y-13262174D02*
X12251134Y-13252650D01*
X12251134Y-13252650D02*
X12279706Y-13252650D01*
X12279706Y-13252650D02*
X12298753Y-13262174D01*
X12298753Y-13262174D02*
X12308277Y-13271698D01*
X12308277Y-13271698D02*
X12317801Y-13290746D01*
X12317801Y-13290746D02*
X12317801Y-13347888D01*
X12317801Y-13347888D02*
X12308277Y-13366936D01*
X12308277Y-13366936D02*
X12298753Y-13376460D01*
X12298753Y-13376460D02*
X12279706Y-13385984D01*
X12279706Y-13385984D02*
X12251134Y-13385984D01*
X12432087Y-13385984D02*
X12413039Y-13376460D01*
X12413039Y-13376460D02*
X12403515Y-13357412D01*
X12403515Y-13357412D02*
X12403515Y-13185984D01*
X12584468Y-13376460D02*
X12565420Y-13385984D01*
X12565420Y-13385984D02*
X12527325Y-13385984D01*
X12527325Y-13385984D02*
X12508277Y-13376460D01*
X12508277Y-13376460D02*
X12498753Y-13357412D01*
X12498753Y-13357412D02*
X12498753Y-13281222D01*
X12498753Y-13281222D02*
X12508277Y-13262174D01*
X12508277Y-13262174D02*
X12527325Y-13252650D01*
X12527325Y-13252650D02*
X12565420Y-13252650D01*
X12565420Y-13252650D02*
X12584468Y-13262174D01*
X12584468Y-13262174D02*
X12593991Y-13281222D01*
X12593991Y-13281222D02*
X12593991Y-13300269D01*
X12593991Y-13300269D02*
X12498753Y-13319317D01*
X12670182Y-13376460D02*
X12689230Y-13385984D01*
X12689230Y-13385984D02*
X12727325Y-13385984D01*
X12727325Y-13385984D02*
X12746372Y-13376460D01*
X12746372Y-13376460D02*
X12755896Y-13357412D01*
X12755896Y-13357412D02*
X12755896Y-13347888D01*
X12755896Y-13347888D02*
X12746372Y-13328841D01*
X12746372Y-13328841D02*
X12727325Y-13319317D01*
X12727325Y-13319317D02*
X12698753Y-13319317D01*
X12698753Y-13319317D02*
X12679706Y-13309793D01*
X12679706Y-13309793D02*
X12670182Y-13290746D01*
X12670182Y-13290746D02*
X12670182Y-13281222D01*
X12670182Y-13281222D02*
X12679706Y-13262174D01*
X12679706Y-13262174D02*
X12698753Y-13252650D01*
X12698753Y-13252650D02*
X12727325Y-13252650D01*
X12727325Y-13252650D02*
X12746372Y-13262174D01*
X12822563Y-13462174D02*
X12832087Y-13452650D01*
X12832087Y-13452650D02*
X12851134Y-13424079D01*
X12851134Y-13424079D02*
X12860658Y-13405031D01*
X12860658Y-13405031D02*
X12870182Y-13376460D01*
X12870182Y-13376460D02*
X12879706Y-13328841D01*
X12879706Y-13328841D02*
X12879706Y-13290746D01*
X12879706Y-13290746D02*
X12870182Y-13243127D01*
X12870182Y-13243127D02*
X12860658Y-13214555D01*
X12860658Y-13214555D02*
X12851134Y-13195508D01*
X12851134Y-13195508D02*
X12832087Y-13166936D01*
X12832087Y-13166936D02*
X12822563Y-13157412D01*
D15*
X7980000Y-13626000D02*
X8047500Y-13558500D01*
X7980000Y-13491000D01*
X7912500Y-13558500D01*
X7980000Y-13626000D01*
D11*
X8413039Y-13649984D02*
X8298753Y-13649984D01*
X8355896Y-13649984D02*
X8355896Y-13449984D01*
X8355896Y-13449984D02*
X8336848Y-13478555D01*
X8336848Y-13478555D02*
X8317801Y-13497603D01*
X8317801Y-13497603D02*
X8298753Y-13507127D01*
X8498753Y-13630936D02*
X8508277Y-13640460D01*
X8508277Y-13640460D02*
X8498753Y-13649984D01*
X8498753Y-13649984D02*
X8489229Y-13640460D01*
X8489229Y-13640460D02*
X8498753Y-13630936D01*
X8498753Y-13630936D02*
X8498753Y-13649984D01*
X8574944Y-13449984D02*
X8698753Y-13449984D01*
X8698753Y-13449984D02*
X8632086Y-13526174D01*
X8632086Y-13526174D02*
X8660658Y-13526174D01*
X8660658Y-13526174D02*
X8679705Y-13535698D01*
X8679705Y-13535698D02*
X8689229Y-13545222D01*
X8689229Y-13545222D02*
X8698753Y-13564269D01*
X8698753Y-13564269D02*
X8698753Y-13611888D01*
X8698753Y-13611888D02*
X8689229Y-13630936D01*
X8689229Y-13630936D02*
X8679705Y-13640460D01*
X8679705Y-13640460D02*
X8660658Y-13649984D01*
X8660658Y-13649984D02*
X8603515Y-13649984D01*
X8603515Y-13649984D02*
X8584467Y-13640460D01*
X8584467Y-13640460D02*
X8574944Y-13630936D01*
X8879705Y-13449984D02*
X8784467Y-13449984D01*
X8784467Y-13449984D02*
X8774944Y-13545222D01*
X8774944Y-13545222D02*
X8784467Y-13535698D01*
X8784467Y-13535698D02*
X8803515Y-13526174D01*
X8803515Y-13526174D02*
X8851134Y-13526174D01*
X8851134Y-13526174D02*
X8870182Y-13535698D01*
X8870182Y-13535698D02*
X8879705Y-13545222D01*
X8879705Y-13545222D02*
X8889229Y-13564269D01*
X8889229Y-13564269D02*
X8889229Y-13611888D01*
X8889229Y-13611888D02*
X8879705Y-13630936D01*
X8879705Y-13630936D02*
X8870182Y-13640460D01*
X8870182Y-13640460D02*
X8851134Y-13649984D01*
X8851134Y-13649984D02*
X8803515Y-13649984D01*
X8803515Y-13649984D02*
X8784467Y-13640460D01*
X8784467Y-13640460D02*
X8774944Y-13630936D01*
X9013039Y-13449984D02*
X9032086Y-13449984D01*
X9032086Y-13449984D02*
X9051134Y-13459508D01*
X9051134Y-13459508D02*
X9060658Y-13469031D01*
X9060658Y-13469031D02*
X9070182Y-13488079D01*
X9070182Y-13488079D02*
X9079705Y-13526174D01*
X9079705Y-13526174D02*
X9079705Y-13573793D01*
X9079705Y-13573793D02*
X9070182Y-13611888D01*
X9070182Y-13611888D02*
X9060658Y-13630936D01*
X9060658Y-13630936D02*
X9051134Y-13640460D01*
X9051134Y-13640460D02*
X9032086Y-13649984D01*
X9032086Y-13649984D02*
X9013039Y-13649984D01*
X9013039Y-13649984D02*
X8993991Y-13640460D01*
X8993991Y-13640460D02*
X8984467Y-13630936D01*
X8984467Y-13630936D02*
X8974944Y-13611888D01*
X8974944Y-13611888D02*
X8965420Y-13573793D01*
X8965420Y-13573793D02*
X8965420Y-13526174D01*
X8965420Y-13526174D02*
X8974944Y-13488079D01*
X8974944Y-13488079D02*
X8984467Y-13469031D01*
X8984467Y-13469031D02*
X8993991Y-13459508D01*
X8993991Y-13459508D02*
X9013039Y-13449984D01*
X9165420Y-13649984D02*
X9165420Y-13516650D01*
X9165420Y-13535698D02*
X9174944Y-13526174D01*
X9174944Y-13526174D02*
X9193991Y-13516650D01*
X9193991Y-13516650D02*
X9222563Y-13516650D01*
X9222563Y-13516650D02*
X9241610Y-13526174D01*
X9241610Y-13526174D02*
X9251134Y-13545222D01*
X9251134Y-13545222D02*
X9251134Y-13649984D01*
X9251134Y-13545222D02*
X9260658Y-13526174D01*
X9260658Y-13526174D02*
X9279705Y-13516650D01*
X9279705Y-13516650D02*
X9308277Y-13516650D01*
X9308277Y-13516650D02*
X9327325Y-13526174D01*
X9327325Y-13526174D02*
X9336848Y-13545222D01*
X9336848Y-13545222D02*
X9336848Y-13649984D01*
X9432086Y-13649984D02*
X9432086Y-13516650D01*
X9432086Y-13535698D02*
X9441610Y-13526174D01*
X9441610Y-13526174D02*
X9460658Y-13516650D01*
X9460658Y-13516650D02*
X9489229Y-13516650D01*
X9489229Y-13516650D02*
X9508277Y-13526174D01*
X9508277Y-13526174D02*
X9517801Y-13545222D01*
X9517801Y-13545222D02*
X9517801Y-13649984D01*
X9517801Y-13545222D02*
X9527325Y-13526174D01*
X9527325Y-13526174D02*
X9546372Y-13516650D01*
X9546372Y-13516650D02*
X9574944Y-13516650D01*
X9574944Y-13516650D02*
X9593991Y-13526174D01*
X9593991Y-13526174D02*
X9603515Y-13545222D01*
X9603515Y-13545222D02*
X9603515Y-13649984D01*
X9993991Y-13440460D02*
X9822563Y-13697603D01*
X10251134Y-13449984D02*
X10270182Y-13449984D01*
X10270182Y-13449984D02*
X10289229Y-13459508D01*
X10289229Y-13459508D02*
X10298753Y-13469031D01*
X10298753Y-13469031D02*
X10308277Y-13488079D01*
X10308277Y-13488079D02*
X10317801Y-13526174D01*
X10317801Y-13526174D02*
X10317801Y-13573793D01*
X10317801Y-13573793D02*
X10308277Y-13611888D01*
X10308277Y-13611888D02*
X10298753Y-13630936D01*
X10298753Y-13630936D02*
X10289229Y-13640460D01*
X10289229Y-13640460D02*
X10270182Y-13649984D01*
X10270182Y-13649984D02*
X10251134Y-13649984D01*
X10251134Y-13649984D02*
X10232087Y-13640460D01*
X10232087Y-13640460D02*
X10222563Y-13630936D01*
X10222563Y-13630936D02*
X10213039Y-13611888D01*
X10213039Y-13611888D02*
X10203515Y-13573793D01*
X10203515Y-13573793D02*
X10203515Y-13526174D01*
X10203515Y-13526174D02*
X10213039Y-13488079D01*
X10213039Y-13488079D02*
X10222563Y-13469031D01*
X10222563Y-13469031D02*
X10232087Y-13459508D01*
X10232087Y-13459508D02*
X10251134Y-13449984D01*
X10403515Y-13630936D02*
X10413039Y-13640460D01*
X10413039Y-13640460D02*
X10403515Y-13649984D01*
X10403515Y-13649984D02*
X10393991Y-13640460D01*
X10393991Y-13640460D02*
X10403515Y-13630936D01*
X10403515Y-13630936D02*
X10403515Y-13649984D01*
X10536848Y-13449984D02*
X10555896Y-13449984D01*
X10555896Y-13449984D02*
X10574944Y-13459508D01*
X10574944Y-13459508D02*
X10584468Y-13469031D01*
X10584468Y-13469031D02*
X10593991Y-13488079D01*
X10593991Y-13488079D02*
X10603515Y-13526174D01*
X10603515Y-13526174D02*
X10603515Y-13573793D01*
X10603515Y-13573793D02*
X10593991Y-13611888D01*
X10593991Y-13611888D02*
X10584468Y-13630936D01*
X10584468Y-13630936D02*
X10574944Y-13640460D01*
X10574944Y-13640460D02*
X10555896Y-13649984D01*
X10555896Y-13649984D02*
X10536848Y-13649984D01*
X10536848Y-13649984D02*
X10517801Y-13640460D01*
X10517801Y-13640460D02*
X10508277Y-13630936D01*
X10508277Y-13630936D02*
X10498753Y-13611888D01*
X10498753Y-13611888D02*
X10489229Y-13573793D01*
X10489229Y-13573793D02*
X10489229Y-13526174D01*
X10489229Y-13526174D02*
X10498753Y-13488079D01*
X10498753Y-13488079D02*
X10508277Y-13469031D01*
X10508277Y-13469031D02*
X10517801Y-13459508D01*
X10517801Y-13459508D02*
X10536848Y-13449984D01*
X10784468Y-13449984D02*
X10689229Y-13449984D01*
X10689229Y-13449984D02*
X10679706Y-13545222D01*
X10679706Y-13545222D02*
X10689229Y-13535698D01*
X10689229Y-13535698D02*
X10708277Y-13526174D01*
X10708277Y-13526174D02*
X10755896Y-13526174D01*
X10755896Y-13526174D02*
X10774944Y-13535698D01*
X10774944Y-13535698D02*
X10784468Y-13545222D01*
X10784468Y-13545222D02*
X10793991Y-13564269D01*
X10793991Y-13564269D02*
X10793991Y-13611888D01*
X10793991Y-13611888D02*
X10784468Y-13630936D01*
X10784468Y-13630936D02*
X10774944Y-13640460D01*
X10774944Y-13640460D02*
X10755896Y-13649984D01*
X10755896Y-13649984D02*
X10708277Y-13649984D01*
X10708277Y-13649984D02*
X10689229Y-13640460D01*
X10689229Y-13640460D02*
X10679706Y-13630936D01*
X10860658Y-13449984D02*
X10984468Y-13449984D01*
X10984468Y-13449984D02*
X10917801Y-13526174D01*
X10917801Y-13526174D02*
X10946372Y-13526174D01*
X10946372Y-13526174D02*
X10965420Y-13535698D01*
X10965420Y-13535698D02*
X10974944Y-13545222D01*
X10974944Y-13545222D02*
X10984468Y-13564269D01*
X10984468Y-13564269D02*
X10984468Y-13611888D01*
X10984468Y-13611888D02*
X10974944Y-13630936D01*
X10974944Y-13630936D02*
X10965420Y-13640460D01*
X10965420Y-13640460D02*
X10946372Y-13649984D01*
X10946372Y-13649984D02*
X10889229Y-13649984D01*
X10889229Y-13649984D02*
X10870182Y-13640460D01*
X10870182Y-13640460D02*
X10860658Y-13630936D01*
X11174944Y-13649984D02*
X11060658Y-13649984D01*
X11117801Y-13649984D02*
X11117801Y-13449984D01*
X11117801Y-13449984D02*
X11098753Y-13478555D01*
X11098753Y-13478555D02*
X11079706Y-13497603D01*
X11079706Y-13497603D02*
X11060658Y-13507127D01*
X11251134Y-13449984D02*
X11251134Y-13488079D01*
X11327325Y-13449984D02*
X11327325Y-13488079D01*
X11622563Y-13726174D02*
X11613039Y-13716650D01*
X11613039Y-13716650D02*
X11593991Y-13688079D01*
X11593991Y-13688079D02*
X11584468Y-13669031D01*
X11584468Y-13669031D02*
X11574944Y-13640460D01*
X11574944Y-13640460D02*
X11565420Y-13592841D01*
X11565420Y-13592841D02*
X11565420Y-13554746D01*
X11565420Y-13554746D02*
X11574944Y-13507127D01*
X11574944Y-13507127D02*
X11584468Y-13478555D01*
X11584468Y-13478555D02*
X11593991Y-13459508D01*
X11593991Y-13459508D02*
X11613039Y-13430936D01*
X11613039Y-13430936D02*
X11622563Y-13421412D01*
X11793991Y-13449984D02*
X11698753Y-13449984D01*
X11698753Y-13449984D02*
X11689229Y-13545222D01*
X11689229Y-13545222D02*
X11698753Y-13535698D01*
X11698753Y-13535698D02*
X11717801Y-13526174D01*
X11717801Y-13526174D02*
X11765420Y-13526174D01*
X11765420Y-13526174D02*
X11784468Y-13535698D01*
X11784468Y-13535698D02*
X11793991Y-13545222D01*
X11793991Y-13545222D02*
X11803515Y-13564269D01*
X11803515Y-13564269D02*
X11803515Y-13611888D01*
X11803515Y-13611888D02*
X11793991Y-13630936D01*
X11793991Y-13630936D02*
X11784468Y-13640460D01*
X11784468Y-13640460D02*
X11765420Y-13649984D01*
X11765420Y-13649984D02*
X11717801Y-13649984D01*
X11717801Y-13649984D02*
X11698753Y-13640460D01*
X11698753Y-13640460D02*
X11689229Y-13630936D01*
X12041610Y-13649984D02*
X12041610Y-13449984D01*
X12127325Y-13649984D02*
X12127325Y-13545222D01*
X12127325Y-13545222D02*
X12117801Y-13526174D01*
X12117801Y-13526174D02*
X12098753Y-13516650D01*
X12098753Y-13516650D02*
X12070182Y-13516650D01*
X12070182Y-13516650D02*
X12051134Y-13526174D01*
X12051134Y-13526174D02*
X12041610Y-13535698D01*
X12251134Y-13649984D02*
X12232087Y-13640460D01*
X12232087Y-13640460D02*
X12222563Y-13630936D01*
X12222563Y-13630936D02*
X12213039Y-13611888D01*
X12213039Y-13611888D02*
X12213039Y-13554746D01*
X12213039Y-13554746D02*
X12222563Y-13535698D01*
X12222563Y-13535698D02*
X12232087Y-13526174D01*
X12232087Y-13526174D02*
X12251134Y-13516650D01*
X12251134Y-13516650D02*
X12279706Y-13516650D01*
X12279706Y-13516650D02*
X12298753Y-13526174D01*
X12298753Y-13526174D02*
X12308277Y-13535698D01*
X12308277Y-13535698D02*
X12317801Y-13554746D01*
X12317801Y-13554746D02*
X12317801Y-13611888D01*
X12317801Y-13611888D02*
X12308277Y-13630936D01*
X12308277Y-13630936D02*
X12298753Y-13640460D01*
X12298753Y-13640460D02*
X12279706Y-13649984D01*
X12279706Y-13649984D02*
X12251134Y-13649984D01*
X12432087Y-13649984D02*
X12413039Y-13640460D01*
X12413039Y-13640460D02*
X12403515Y-13621412D01*
X12403515Y-13621412D02*
X12403515Y-13449984D01*
X12584468Y-13640460D02*
X12565420Y-13649984D01*
X12565420Y-13649984D02*
X12527325Y-13649984D01*
X12527325Y-13649984D02*
X12508277Y-13640460D01*
X12508277Y-13640460D02*
X12498753Y-13621412D01*
X12498753Y-13621412D02*
X12498753Y-13545222D01*
X12498753Y-13545222D02*
X12508277Y-13526174D01*
X12508277Y-13526174D02*
X12527325Y-13516650D01*
X12527325Y-13516650D02*
X12565420Y-13516650D01*
X12565420Y-13516650D02*
X12584468Y-13526174D01*
X12584468Y-13526174D02*
X12593991Y-13545222D01*
X12593991Y-13545222D02*
X12593991Y-13564269D01*
X12593991Y-13564269D02*
X12498753Y-13583317D01*
X12670182Y-13640460D02*
X12689230Y-13649984D01*
X12689230Y-13649984D02*
X12727325Y-13649984D01*
X12727325Y-13649984D02*
X12746372Y-13640460D01*
X12746372Y-13640460D02*
X12755896Y-13621412D01*
X12755896Y-13621412D02*
X12755896Y-13611888D01*
X12755896Y-13611888D02*
X12746372Y-13592841D01*
X12746372Y-13592841D02*
X12727325Y-13583317D01*
X12727325Y-13583317D02*
X12698753Y-13583317D01*
X12698753Y-13583317D02*
X12679706Y-13573793D01*
X12679706Y-13573793D02*
X12670182Y-13554746D01*
X12670182Y-13554746D02*
X12670182Y-13545222D01*
X12670182Y-13545222D02*
X12679706Y-13526174D01*
X12679706Y-13526174D02*
X12698753Y-13516650D01*
X12698753Y-13516650D02*
X12727325Y-13516650D01*
X12727325Y-13516650D02*
X12746372Y-13526174D01*
X12822563Y-13726174D02*
X12832087Y-13716650D01*
X12832087Y-13716650D02*
X12851134Y-13688079D01*
X12851134Y-13688079D02*
X12860658Y-13669031D01*
X12860658Y-13669031D02*
X12870182Y-13640460D01*
X12870182Y-13640460D02*
X12879706Y-13592841D01*
X12879706Y-13592841D02*
X12879706Y-13554746D01*
X12879706Y-13554746D02*
X12870182Y-13507127D01*
X12870182Y-13507127D02*
X12860658Y-13478555D01*
X12860658Y-13478555D02*
X12851134Y-13459508D01*
X12851134Y-13459508D02*
X12832087Y-13430936D01*
X12832087Y-13430936D02*
X12822563Y-13421412D01*
X7847500Y-13722500D02*
X8047500Y-13922500D01*
X8047500Y-13722500D02*
X7847500Y-13922500D01*
X8047500Y-13822500D02*
G75*
G02*
X7847500Y-13822500I-100000J0D01*
G01*
X7847500Y-13822500D02*
G75*
G02*
X8047500Y-13822500I100000J0D01*
G01*
X8298753Y-13733031D02*
X8308277Y-13723508D01*
X8308277Y-13723508D02*
X8327324Y-13713984D01*
X8327324Y-13713984D02*
X8374943Y-13713984D01*
X8374943Y-13713984D02*
X8393991Y-13723508D01*
X8393991Y-13723508D02*
X8403515Y-13733031D01*
X8403515Y-13733031D02*
X8413039Y-13752079D01*
X8413039Y-13752079D02*
X8413039Y-13771127D01*
X8413039Y-13771127D02*
X8403515Y-13799698D01*
X8403515Y-13799698D02*
X8289229Y-13913984D01*
X8289229Y-13913984D02*
X8413039Y-13913984D01*
X8498753Y-13894936D02*
X8508277Y-13904460D01*
X8508277Y-13904460D02*
X8498753Y-13913984D01*
X8498753Y-13913984D02*
X8489229Y-13904460D01*
X8489229Y-13904460D02*
X8498753Y-13894936D01*
X8498753Y-13894936D02*
X8498753Y-13913984D01*
X8689229Y-13713984D02*
X8593991Y-13713984D01*
X8593991Y-13713984D02*
X8584467Y-13809222D01*
X8584467Y-13809222D02*
X8593991Y-13799698D01*
X8593991Y-13799698D02*
X8613039Y-13790174D01*
X8613039Y-13790174D02*
X8660658Y-13790174D01*
X8660658Y-13790174D02*
X8679705Y-13799698D01*
X8679705Y-13799698D02*
X8689229Y-13809222D01*
X8689229Y-13809222D02*
X8698753Y-13828269D01*
X8698753Y-13828269D02*
X8698753Y-13875888D01*
X8698753Y-13875888D02*
X8689229Y-13894936D01*
X8689229Y-13894936D02*
X8679705Y-13904460D01*
X8679705Y-13904460D02*
X8660658Y-13913984D01*
X8660658Y-13913984D02*
X8613039Y-13913984D01*
X8613039Y-13913984D02*
X8593991Y-13904460D01*
X8593991Y-13904460D02*
X8584467Y-13894936D01*
X8822563Y-13713984D02*
X8841610Y-13713984D01*
X8841610Y-13713984D02*
X8860658Y-13723508D01*
X8860658Y-13723508D02*
X8870182Y-13733031D01*
X8870182Y-13733031D02*
X8879705Y-13752079D01*
X8879705Y-13752079D02*
X8889229Y-13790174D01*
X8889229Y-13790174D02*
X8889229Y-13837793D01*
X8889229Y-13837793D02*
X8879705Y-13875888D01*
X8879705Y-13875888D02*
X8870182Y-13894936D01*
X8870182Y-13894936D02*
X8860658Y-13904460D01*
X8860658Y-13904460D02*
X8841610Y-13913984D01*
X8841610Y-13913984D02*
X8822563Y-13913984D01*
X8822563Y-13913984D02*
X8803515Y-13904460D01*
X8803515Y-13904460D02*
X8793991Y-13894936D01*
X8793991Y-13894936D02*
X8784467Y-13875888D01*
X8784467Y-13875888D02*
X8774944Y-13837793D01*
X8774944Y-13837793D02*
X8774944Y-13790174D01*
X8774944Y-13790174D02*
X8784467Y-13752079D01*
X8784467Y-13752079D02*
X8793991Y-13733031D01*
X8793991Y-13733031D02*
X8803515Y-13723508D01*
X8803515Y-13723508D02*
X8822563Y-13713984D01*
X9013039Y-13713984D02*
X9032086Y-13713984D01*
X9032086Y-13713984D02*
X9051134Y-13723508D01*
X9051134Y-13723508D02*
X9060658Y-13733031D01*
X9060658Y-13733031D02*
X9070182Y-13752079D01*
X9070182Y-13752079D02*
X9079705Y-13790174D01*
X9079705Y-13790174D02*
X9079705Y-13837793D01*
X9079705Y-13837793D02*
X9070182Y-13875888D01*
X9070182Y-13875888D02*
X9060658Y-13894936D01*
X9060658Y-13894936D02*
X9051134Y-13904460D01*
X9051134Y-13904460D02*
X9032086Y-13913984D01*
X9032086Y-13913984D02*
X9013039Y-13913984D01*
X9013039Y-13913984D02*
X8993991Y-13904460D01*
X8993991Y-13904460D02*
X8984467Y-13894936D01*
X8984467Y-13894936D02*
X8974944Y-13875888D01*
X8974944Y-13875888D02*
X8965420Y-13837793D01*
X8965420Y-13837793D02*
X8965420Y-13790174D01*
X8965420Y-13790174D02*
X8974944Y-13752079D01*
X8974944Y-13752079D02*
X8984467Y-13733031D01*
X8984467Y-13733031D02*
X8993991Y-13723508D01*
X8993991Y-13723508D02*
X9013039Y-13713984D01*
X9165420Y-13913984D02*
X9165420Y-13780650D01*
X9165420Y-13799698D02*
X9174944Y-13790174D01*
X9174944Y-13790174D02*
X9193991Y-13780650D01*
X9193991Y-13780650D02*
X9222563Y-13780650D01*
X9222563Y-13780650D02*
X9241610Y-13790174D01*
X9241610Y-13790174D02*
X9251134Y-13809222D01*
X9251134Y-13809222D02*
X9251134Y-13913984D01*
X9251134Y-13809222D02*
X9260658Y-13790174D01*
X9260658Y-13790174D02*
X9279705Y-13780650D01*
X9279705Y-13780650D02*
X9308277Y-13780650D01*
X9308277Y-13780650D02*
X9327325Y-13790174D01*
X9327325Y-13790174D02*
X9336848Y-13809222D01*
X9336848Y-13809222D02*
X9336848Y-13913984D01*
X9432086Y-13913984D02*
X9432086Y-13780650D01*
X9432086Y-13799698D02*
X9441610Y-13790174D01*
X9441610Y-13790174D02*
X9460658Y-13780650D01*
X9460658Y-13780650D02*
X9489229Y-13780650D01*
X9489229Y-13780650D02*
X9508277Y-13790174D01*
X9508277Y-13790174D02*
X9517801Y-13809222D01*
X9517801Y-13809222D02*
X9517801Y-13913984D01*
X9517801Y-13809222D02*
X9527325Y-13790174D01*
X9527325Y-13790174D02*
X9546372Y-13780650D01*
X9546372Y-13780650D02*
X9574944Y-13780650D01*
X9574944Y-13780650D02*
X9593991Y-13790174D01*
X9593991Y-13790174D02*
X9603515Y-13809222D01*
X9603515Y-13809222D02*
X9603515Y-13913984D01*
X9993991Y-13704460D02*
X9822563Y-13961603D01*
X10251134Y-13713984D02*
X10270182Y-13713984D01*
X10270182Y-13713984D02*
X10289229Y-13723508D01*
X10289229Y-13723508D02*
X10298753Y-13733031D01*
X10298753Y-13733031D02*
X10308277Y-13752079D01*
X10308277Y-13752079D02*
X10317801Y-13790174D01*
X10317801Y-13790174D02*
X10317801Y-13837793D01*
X10317801Y-13837793D02*
X10308277Y-13875888D01*
X10308277Y-13875888D02*
X10298753Y-13894936D01*
X10298753Y-13894936D02*
X10289229Y-13904460D01*
X10289229Y-13904460D02*
X10270182Y-13913984D01*
X10270182Y-13913984D02*
X10251134Y-13913984D01*
X10251134Y-13913984D02*
X10232087Y-13904460D01*
X10232087Y-13904460D02*
X10222563Y-13894936D01*
X10222563Y-13894936D02*
X10213039Y-13875888D01*
X10213039Y-13875888D02*
X10203515Y-13837793D01*
X10203515Y-13837793D02*
X10203515Y-13790174D01*
X10203515Y-13790174D02*
X10213039Y-13752079D01*
X10213039Y-13752079D02*
X10222563Y-13733031D01*
X10222563Y-13733031D02*
X10232087Y-13723508D01*
X10232087Y-13723508D02*
X10251134Y-13713984D01*
X10403515Y-13894936D02*
X10413039Y-13904460D01*
X10413039Y-13904460D02*
X10403515Y-13913984D01*
X10403515Y-13913984D02*
X10393991Y-13904460D01*
X10393991Y-13904460D02*
X10403515Y-13894936D01*
X10403515Y-13894936D02*
X10403515Y-13913984D01*
X10536848Y-13713984D02*
X10555896Y-13713984D01*
X10555896Y-13713984D02*
X10574944Y-13723508D01*
X10574944Y-13723508D02*
X10584468Y-13733031D01*
X10584468Y-13733031D02*
X10593991Y-13752079D01*
X10593991Y-13752079D02*
X10603515Y-13790174D01*
X10603515Y-13790174D02*
X10603515Y-13837793D01*
X10603515Y-13837793D02*
X10593991Y-13875888D01*
X10593991Y-13875888D02*
X10584468Y-13894936D01*
X10584468Y-13894936D02*
X10574944Y-13904460D01*
X10574944Y-13904460D02*
X10555896Y-13913984D01*
X10555896Y-13913984D02*
X10536848Y-13913984D01*
X10536848Y-13913984D02*
X10517801Y-13904460D01*
X10517801Y-13904460D02*
X10508277Y-13894936D01*
X10508277Y-13894936D02*
X10498753Y-13875888D01*
X10498753Y-13875888D02*
X10489229Y-13837793D01*
X10489229Y-13837793D02*
X10489229Y-13790174D01*
X10489229Y-13790174D02*
X10498753Y-13752079D01*
X10498753Y-13752079D02*
X10508277Y-13733031D01*
X10508277Y-13733031D02*
X10517801Y-13723508D01*
X10517801Y-13723508D02*
X10536848Y-13713984D01*
X10698753Y-13913984D02*
X10736848Y-13913984D01*
X10736848Y-13913984D02*
X10755896Y-13904460D01*
X10755896Y-13904460D02*
X10765420Y-13894936D01*
X10765420Y-13894936D02*
X10784468Y-13866365D01*
X10784468Y-13866365D02*
X10793991Y-13828269D01*
X10793991Y-13828269D02*
X10793991Y-13752079D01*
X10793991Y-13752079D02*
X10784468Y-13733031D01*
X10784468Y-13733031D02*
X10774944Y-13723508D01*
X10774944Y-13723508D02*
X10755896Y-13713984D01*
X10755896Y-13713984D02*
X10717801Y-13713984D01*
X10717801Y-13713984D02*
X10698753Y-13723508D01*
X10698753Y-13723508D02*
X10689229Y-13733031D01*
X10689229Y-13733031D02*
X10679706Y-13752079D01*
X10679706Y-13752079D02*
X10679706Y-13799698D01*
X10679706Y-13799698D02*
X10689229Y-13818746D01*
X10689229Y-13818746D02*
X10698753Y-13828269D01*
X10698753Y-13828269D02*
X10717801Y-13837793D01*
X10717801Y-13837793D02*
X10755896Y-13837793D01*
X10755896Y-13837793D02*
X10774944Y-13828269D01*
X10774944Y-13828269D02*
X10784468Y-13818746D01*
X10784468Y-13818746D02*
X10793991Y-13799698D01*
X10908277Y-13799698D02*
X10889229Y-13790174D01*
X10889229Y-13790174D02*
X10879706Y-13780650D01*
X10879706Y-13780650D02*
X10870182Y-13761603D01*
X10870182Y-13761603D02*
X10870182Y-13752079D01*
X10870182Y-13752079D02*
X10879706Y-13733031D01*
X10879706Y-13733031D02*
X10889229Y-13723508D01*
X10889229Y-13723508D02*
X10908277Y-13713984D01*
X10908277Y-13713984D02*
X10946372Y-13713984D01*
X10946372Y-13713984D02*
X10965420Y-13723508D01*
X10965420Y-13723508D02*
X10974944Y-13733031D01*
X10974944Y-13733031D02*
X10984468Y-13752079D01*
X10984468Y-13752079D02*
X10984468Y-13761603D01*
X10984468Y-13761603D02*
X10974944Y-13780650D01*
X10974944Y-13780650D02*
X10965420Y-13790174D01*
X10965420Y-13790174D02*
X10946372Y-13799698D01*
X10946372Y-13799698D02*
X10908277Y-13799698D01*
X10908277Y-13799698D02*
X10889229Y-13809222D01*
X10889229Y-13809222D02*
X10879706Y-13818746D01*
X10879706Y-13818746D02*
X10870182Y-13837793D01*
X10870182Y-13837793D02*
X10870182Y-13875888D01*
X10870182Y-13875888D02*
X10879706Y-13894936D01*
X10879706Y-13894936D02*
X10889229Y-13904460D01*
X10889229Y-13904460D02*
X10908277Y-13913984D01*
X10908277Y-13913984D02*
X10946372Y-13913984D01*
X10946372Y-13913984D02*
X10965420Y-13904460D01*
X10965420Y-13904460D02*
X10974944Y-13894936D01*
X10974944Y-13894936D02*
X10984468Y-13875888D01*
X10984468Y-13875888D02*
X10984468Y-13837793D01*
X10984468Y-13837793D02*
X10974944Y-13818746D01*
X10974944Y-13818746D02*
X10965420Y-13809222D01*
X10965420Y-13809222D02*
X10946372Y-13799698D01*
X11155896Y-13780650D02*
X11155896Y-13913984D01*
X11108277Y-13704460D02*
X11060658Y-13847317D01*
X11060658Y-13847317D02*
X11184468Y-13847317D01*
X11251134Y-13713984D02*
X11251134Y-13752079D01*
X11327325Y-13713984D02*
X11327325Y-13752079D01*
X11622563Y-13990174D02*
X11613039Y-13980650D01*
X11613039Y-13980650D02*
X11593991Y-13952079D01*
X11593991Y-13952079D02*
X11584468Y-13933031D01*
X11584468Y-13933031D02*
X11574944Y-13904460D01*
X11574944Y-13904460D02*
X11565420Y-13856841D01*
X11565420Y-13856841D02*
X11565420Y-13818746D01*
X11565420Y-13818746D02*
X11574944Y-13771127D01*
X11574944Y-13771127D02*
X11584468Y-13742555D01*
X11584468Y-13742555D02*
X11593991Y-13723508D01*
X11593991Y-13723508D02*
X11613039Y-13694936D01*
X11613039Y-13694936D02*
X11622563Y-13685412D01*
X11689229Y-13733031D02*
X11698753Y-13723508D01*
X11698753Y-13723508D02*
X11717801Y-13713984D01*
X11717801Y-13713984D02*
X11765420Y-13713984D01*
X11765420Y-13713984D02*
X11784468Y-13723508D01*
X11784468Y-13723508D02*
X11793991Y-13733031D01*
X11793991Y-13733031D02*
X11803515Y-13752079D01*
X11803515Y-13752079D02*
X11803515Y-13771127D01*
X11803515Y-13771127D02*
X11793991Y-13799698D01*
X11793991Y-13799698D02*
X11679706Y-13913984D01*
X11679706Y-13913984D02*
X11803515Y-13913984D01*
X12041610Y-13913984D02*
X12041610Y-13713984D01*
X12127325Y-13913984D02*
X12127325Y-13809222D01*
X12127325Y-13809222D02*
X12117801Y-13790174D01*
X12117801Y-13790174D02*
X12098753Y-13780650D01*
X12098753Y-13780650D02*
X12070182Y-13780650D01*
X12070182Y-13780650D02*
X12051134Y-13790174D01*
X12051134Y-13790174D02*
X12041610Y-13799698D01*
X12251134Y-13913984D02*
X12232087Y-13904460D01*
X12232087Y-13904460D02*
X12222563Y-13894936D01*
X12222563Y-13894936D02*
X12213039Y-13875888D01*
X12213039Y-13875888D02*
X12213039Y-13818746D01*
X12213039Y-13818746D02*
X12222563Y-13799698D01*
X12222563Y-13799698D02*
X12232087Y-13790174D01*
X12232087Y-13790174D02*
X12251134Y-13780650D01*
X12251134Y-13780650D02*
X12279706Y-13780650D01*
X12279706Y-13780650D02*
X12298753Y-13790174D01*
X12298753Y-13790174D02*
X12308277Y-13799698D01*
X12308277Y-13799698D02*
X12317801Y-13818746D01*
X12317801Y-13818746D02*
X12317801Y-13875888D01*
X12317801Y-13875888D02*
X12308277Y-13894936D01*
X12308277Y-13894936D02*
X12298753Y-13904460D01*
X12298753Y-13904460D02*
X12279706Y-13913984D01*
X12279706Y-13913984D02*
X12251134Y-13913984D01*
X12432087Y-13913984D02*
X12413039Y-13904460D01*
X12413039Y-13904460D02*
X12403515Y-13885412D01*
X12403515Y-13885412D02*
X12403515Y-13713984D01*
X12584468Y-13904460D02*
X12565420Y-13913984D01*
X12565420Y-13913984D02*
X12527325Y-13913984D01*
X12527325Y-13913984D02*
X12508277Y-13904460D01*
X12508277Y-13904460D02*
X12498753Y-13885412D01*
X12498753Y-13885412D02*
X12498753Y-13809222D01*
X12498753Y-13809222D02*
X12508277Y-13790174D01*
X12508277Y-13790174D02*
X12527325Y-13780650D01*
X12527325Y-13780650D02*
X12565420Y-13780650D01*
X12565420Y-13780650D02*
X12584468Y-13790174D01*
X12584468Y-13790174D02*
X12593991Y-13809222D01*
X12593991Y-13809222D02*
X12593991Y-13828269D01*
X12593991Y-13828269D02*
X12498753Y-13847317D01*
X12670182Y-13904460D02*
X12689230Y-13913984D01*
X12689230Y-13913984D02*
X12727325Y-13913984D01*
X12727325Y-13913984D02*
X12746372Y-13904460D01*
X12746372Y-13904460D02*
X12755896Y-13885412D01*
X12755896Y-13885412D02*
X12755896Y-13875888D01*
X12755896Y-13875888D02*
X12746372Y-13856841D01*
X12746372Y-13856841D02*
X12727325Y-13847317D01*
X12727325Y-13847317D02*
X12698753Y-13847317D01*
X12698753Y-13847317D02*
X12679706Y-13837793D01*
X12679706Y-13837793D02*
X12670182Y-13818746D01*
X12670182Y-13818746D02*
X12670182Y-13809222D01*
X12670182Y-13809222D02*
X12679706Y-13790174D01*
X12679706Y-13790174D02*
X12698753Y-13780650D01*
X12698753Y-13780650D02*
X12727325Y-13780650D01*
X12727325Y-13780650D02*
X12746372Y-13790174D01*
X12822563Y-13990174D02*
X12832087Y-13980650D01*
X12832087Y-13980650D02*
X12851134Y-13952079D01*
X12851134Y-13952079D02*
X12860658Y-13933031D01*
X12860658Y-13933031D02*
X12870182Y-13904460D01*
X12870182Y-13904460D02*
X12879706Y-13856841D01*
X12879706Y-13856841D02*
X12879706Y-13818746D01*
X12879706Y-13818746D02*
X12870182Y-13771127D01*
X12870182Y-13771127D02*
X12860658Y-13742555D01*
X12860658Y-13742555D02*
X12851134Y-13723508D01*
X12851134Y-13723508D02*
X12832087Y-13694936D01*
X12832087Y-13694936D02*
X12822563Y-13685412D01*
X7847500Y-14042500D02*
X8047500Y-14242500D01*
X8047500Y-14042500D02*
X7847500Y-14242500D01*
X7947500Y-14042500D02*
X7947500Y-14242500D01*
X7847500Y-14142500D02*
X8047500Y-14142500D01*
X8289229Y-14033984D02*
X8413039Y-14033984D01*
X8413039Y-14033984D02*
X8346372Y-14110174D01*
X8346372Y-14110174D02*
X8374943Y-14110174D01*
X8374943Y-14110174D02*
X8393991Y-14119698D01*
X8393991Y-14119698D02*
X8403515Y-14129222D01*
X8403515Y-14129222D02*
X8413039Y-14148269D01*
X8413039Y-14148269D02*
X8413039Y-14195888D01*
X8413039Y-14195888D02*
X8403515Y-14214936D01*
X8403515Y-14214936D02*
X8393991Y-14224460D01*
X8393991Y-14224460D02*
X8374943Y-14233984D01*
X8374943Y-14233984D02*
X8317801Y-14233984D01*
X8317801Y-14233984D02*
X8298753Y-14224460D01*
X8298753Y-14224460D02*
X8289229Y-14214936D01*
X8498753Y-14214936D02*
X8508277Y-14224460D01*
X8508277Y-14224460D02*
X8498753Y-14233984D01*
X8498753Y-14233984D02*
X8489229Y-14224460D01*
X8489229Y-14224460D02*
X8498753Y-14214936D01*
X8498753Y-14214936D02*
X8498753Y-14233984D01*
X8632086Y-14033984D02*
X8651134Y-14033984D01*
X8651134Y-14033984D02*
X8670182Y-14043508D01*
X8670182Y-14043508D02*
X8679705Y-14053031D01*
X8679705Y-14053031D02*
X8689229Y-14072079D01*
X8689229Y-14072079D02*
X8698753Y-14110174D01*
X8698753Y-14110174D02*
X8698753Y-14157793D01*
X8698753Y-14157793D02*
X8689229Y-14195888D01*
X8689229Y-14195888D02*
X8679705Y-14214936D01*
X8679705Y-14214936D02*
X8670182Y-14224460D01*
X8670182Y-14224460D02*
X8651134Y-14233984D01*
X8651134Y-14233984D02*
X8632086Y-14233984D01*
X8632086Y-14233984D02*
X8613039Y-14224460D01*
X8613039Y-14224460D02*
X8603515Y-14214936D01*
X8603515Y-14214936D02*
X8593991Y-14195888D01*
X8593991Y-14195888D02*
X8584467Y-14157793D01*
X8584467Y-14157793D02*
X8584467Y-14110174D01*
X8584467Y-14110174D02*
X8593991Y-14072079D01*
X8593991Y-14072079D02*
X8603515Y-14053031D01*
X8603515Y-14053031D02*
X8613039Y-14043508D01*
X8613039Y-14043508D02*
X8632086Y-14033984D01*
X8822563Y-14033984D02*
X8841610Y-14033984D01*
X8841610Y-14033984D02*
X8860658Y-14043508D01*
X8860658Y-14043508D02*
X8870182Y-14053031D01*
X8870182Y-14053031D02*
X8879705Y-14072079D01*
X8879705Y-14072079D02*
X8889229Y-14110174D01*
X8889229Y-14110174D02*
X8889229Y-14157793D01*
X8889229Y-14157793D02*
X8879705Y-14195888D01*
X8879705Y-14195888D02*
X8870182Y-14214936D01*
X8870182Y-14214936D02*
X8860658Y-14224460D01*
X8860658Y-14224460D02*
X8841610Y-14233984D01*
X8841610Y-14233984D02*
X8822563Y-14233984D01*
X8822563Y-14233984D02*
X8803515Y-14224460D01*
X8803515Y-14224460D02*
X8793991Y-14214936D01*
X8793991Y-14214936D02*
X8784467Y-14195888D01*
X8784467Y-14195888D02*
X8774944Y-14157793D01*
X8774944Y-14157793D02*
X8774944Y-14110174D01*
X8774944Y-14110174D02*
X8784467Y-14072079D01*
X8784467Y-14072079D02*
X8793991Y-14053031D01*
X8793991Y-14053031D02*
X8803515Y-14043508D01*
X8803515Y-14043508D02*
X8822563Y-14033984D01*
X9013039Y-14033984D02*
X9032086Y-14033984D01*
X9032086Y-14033984D02*
X9051134Y-14043508D01*
X9051134Y-14043508D02*
X9060658Y-14053031D01*
X9060658Y-14053031D02*
X9070182Y-14072079D01*
X9070182Y-14072079D02*
X9079705Y-14110174D01*
X9079705Y-14110174D02*
X9079705Y-14157793D01*
X9079705Y-14157793D02*
X9070182Y-14195888D01*
X9070182Y-14195888D02*
X9060658Y-14214936D01*
X9060658Y-14214936D02*
X9051134Y-14224460D01*
X9051134Y-14224460D02*
X9032086Y-14233984D01*
X9032086Y-14233984D02*
X9013039Y-14233984D01*
X9013039Y-14233984D02*
X8993991Y-14224460D01*
X8993991Y-14224460D02*
X8984467Y-14214936D01*
X8984467Y-14214936D02*
X8974944Y-14195888D01*
X8974944Y-14195888D02*
X8965420Y-14157793D01*
X8965420Y-14157793D02*
X8965420Y-14110174D01*
X8965420Y-14110174D02*
X8974944Y-14072079D01*
X8974944Y-14072079D02*
X8984467Y-14053031D01*
X8984467Y-14053031D02*
X8993991Y-14043508D01*
X8993991Y-14043508D02*
X9013039Y-14033984D01*
X9165420Y-14233984D02*
X9165420Y-14100650D01*
X9165420Y-14119698D02*
X9174944Y-14110174D01*
X9174944Y-14110174D02*
X9193991Y-14100650D01*
X9193991Y-14100650D02*
X9222563Y-14100650D01*
X9222563Y-14100650D02*
X9241610Y-14110174D01*
X9241610Y-14110174D02*
X9251134Y-14129222D01*
X9251134Y-14129222D02*
X9251134Y-14233984D01*
X9251134Y-14129222D02*
X9260658Y-14110174D01*
X9260658Y-14110174D02*
X9279705Y-14100650D01*
X9279705Y-14100650D02*
X9308277Y-14100650D01*
X9308277Y-14100650D02*
X9327325Y-14110174D01*
X9327325Y-14110174D02*
X9336848Y-14129222D01*
X9336848Y-14129222D02*
X9336848Y-14233984D01*
X9432086Y-14233984D02*
X9432086Y-14100650D01*
X9432086Y-14119698D02*
X9441610Y-14110174D01*
X9441610Y-14110174D02*
X9460658Y-14100650D01*
X9460658Y-14100650D02*
X9489229Y-14100650D01*
X9489229Y-14100650D02*
X9508277Y-14110174D01*
X9508277Y-14110174D02*
X9517801Y-14129222D01*
X9517801Y-14129222D02*
X9517801Y-14233984D01*
X9517801Y-14129222D02*
X9527325Y-14110174D01*
X9527325Y-14110174D02*
X9546372Y-14100650D01*
X9546372Y-14100650D02*
X9574944Y-14100650D01*
X9574944Y-14100650D02*
X9593991Y-14110174D01*
X9593991Y-14110174D02*
X9603515Y-14129222D01*
X9603515Y-14129222D02*
X9603515Y-14233984D01*
X9993991Y-14024460D02*
X9822563Y-14281603D01*
X10251134Y-14033984D02*
X10270182Y-14033984D01*
X10270182Y-14033984D02*
X10289229Y-14043508D01*
X10289229Y-14043508D02*
X10298753Y-14053031D01*
X10298753Y-14053031D02*
X10308277Y-14072079D01*
X10308277Y-14072079D02*
X10317801Y-14110174D01*
X10317801Y-14110174D02*
X10317801Y-14157793D01*
X10317801Y-14157793D02*
X10308277Y-14195888D01*
X10308277Y-14195888D02*
X10298753Y-14214936D01*
X10298753Y-14214936D02*
X10289229Y-14224460D01*
X10289229Y-14224460D02*
X10270182Y-14233984D01*
X10270182Y-14233984D02*
X10251134Y-14233984D01*
X10251134Y-14233984D02*
X10232087Y-14224460D01*
X10232087Y-14224460D02*
X10222563Y-14214936D01*
X10222563Y-14214936D02*
X10213039Y-14195888D01*
X10213039Y-14195888D02*
X10203515Y-14157793D01*
X10203515Y-14157793D02*
X10203515Y-14110174D01*
X10203515Y-14110174D02*
X10213039Y-14072079D01*
X10213039Y-14072079D02*
X10222563Y-14053031D01*
X10222563Y-14053031D02*
X10232087Y-14043508D01*
X10232087Y-14043508D02*
X10251134Y-14033984D01*
X10403515Y-14214936D02*
X10413039Y-14224460D01*
X10413039Y-14224460D02*
X10403515Y-14233984D01*
X10403515Y-14233984D02*
X10393991Y-14224460D01*
X10393991Y-14224460D02*
X10403515Y-14214936D01*
X10403515Y-14214936D02*
X10403515Y-14233984D01*
X10603515Y-14233984D02*
X10489229Y-14233984D01*
X10546372Y-14233984D02*
X10546372Y-14033984D01*
X10546372Y-14033984D02*
X10527325Y-14062555D01*
X10527325Y-14062555D02*
X10508277Y-14081603D01*
X10508277Y-14081603D02*
X10489229Y-14091127D01*
X10793991Y-14233984D02*
X10679706Y-14233984D01*
X10736848Y-14233984D02*
X10736848Y-14033984D01*
X10736848Y-14033984D02*
X10717801Y-14062555D01*
X10717801Y-14062555D02*
X10698753Y-14081603D01*
X10698753Y-14081603D02*
X10679706Y-14091127D01*
X10908277Y-14119698D02*
X10889229Y-14110174D01*
X10889229Y-14110174D02*
X10879706Y-14100650D01*
X10879706Y-14100650D02*
X10870182Y-14081603D01*
X10870182Y-14081603D02*
X10870182Y-14072079D01*
X10870182Y-14072079D02*
X10879706Y-14053031D01*
X10879706Y-14053031D02*
X10889229Y-14043508D01*
X10889229Y-14043508D02*
X10908277Y-14033984D01*
X10908277Y-14033984D02*
X10946372Y-14033984D01*
X10946372Y-14033984D02*
X10965420Y-14043508D01*
X10965420Y-14043508D02*
X10974944Y-14053031D01*
X10974944Y-14053031D02*
X10984468Y-14072079D01*
X10984468Y-14072079D02*
X10984468Y-14081603D01*
X10984468Y-14081603D02*
X10974944Y-14100650D01*
X10974944Y-14100650D02*
X10965420Y-14110174D01*
X10965420Y-14110174D02*
X10946372Y-14119698D01*
X10946372Y-14119698D02*
X10908277Y-14119698D01*
X10908277Y-14119698D02*
X10889229Y-14129222D01*
X10889229Y-14129222D02*
X10879706Y-14138746D01*
X10879706Y-14138746D02*
X10870182Y-14157793D01*
X10870182Y-14157793D02*
X10870182Y-14195888D01*
X10870182Y-14195888D02*
X10879706Y-14214936D01*
X10879706Y-14214936D02*
X10889229Y-14224460D01*
X10889229Y-14224460D02*
X10908277Y-14233984D01*
X10908277Y-14233984D02*
X10946372Y-14233984D01*
X10946372Y-14233984D02*
X10965420Y-14224460D01*
X10965420Y-14224460D02*
X10974944Y-14214936D01*
X10974944Y-14214936D02*
X10984468Y-14195888D01*
X10984468Y-14195888D02*
X10984468Y-14157793D01*
X10984468Y-14157793D02*
X10974944Y-14138746D01*
X10974944Y-14138746D02*
X10965420Y-14129222D01*
X10965420Y-14129222D02*
X10946372Y-14119698D01*
X11174944Y-14233984D02*
X11060658Y-14233984D01*
X11117801Y-14233984D02*
X11117801Y-14033984D01*
X11117801Y-14033984D02*
X11098753Y-14062555D01*
X11098753Y-14062555D02*
X11079706Y-14081603D01*
X11079706Y-14081603D02*
X11060658Y-14091127D01*
X11251134Y-14033984D02*
X11251134Y-14072079D01*
X11327325Y-14033984D02*
X11327325Y-14072079D01*
X11622563Y-14310174D02*
X11613039Y-14300650D01*
X11613039Y-14300650D02*
X11593991Y-14272079D01*
X11593991Y-14272079D02*
X11584468Y-14253031D01*
X11584468Y-14253031D02*
X11574944Y-14224460D01*
X11574944Y-14224460D02*
X11565420Y-14176841D01*
X11565420Y-14176841D02*
X11565420Y-14138746D01*
X11565420Y-14138746D02*
X11574944Y-14091127D01*
X11574944Y-14091127D02*
X11584468Y-14062555D01*
X11584468Y-14062555D02*
X11593991Y-14043508D01*
X11593991Y-14043508D02*
X11613039Y-14014936D01*
X11613039Y-14014936D02*
X11622563Y-14005412D01*
X11793991Y-14033984D02*
X11698753Y-14033984D01*
X11698753Y-14033984D02*
X11689229Y-14129222D01*
X11689229Y-14129222D02*
X11698753Y-14119698D01*
X11698753Y-14119698D02*
X11717801Y-14110174D01*
X11717801Y-14110174D02*
X11765420Y-14110174D01*
X11765420Y-14110174D02*
X11784468Y-14119698D01*
X11784468Y-14119698D02*
X11793991Y-14129222D01*
X11793991Y-14129222D02*
X11803515Y-14148269D01*
X11803515Y-14148269D02*
X11803515Y-14195888D01*
X11803515Y-14195888D02*
X11793991Y-14214936D01*
X11793991Y-14214936D02*
X11784468Y-14224460D01*
X11784468Y-14224460D02*
X11765420Y-14233984D01*
X11765420Y-14233984D02*
X11717801Y-14233984D01*
X11717801Y-14233984D02*
X11698753Y-14224460D01*
X11698753Y-14224460D02*
X11689229Y-14214936D01*
X12041610Y-14233984D02*
X12041610Y-14033984D01*
X12127325Y-14233984D02*
X12127325Y-14129222D01*
X12127325Y-14129222D02*
X12117801Y-14110174D01*
X12117801Y-14110174D02*
X12098753Y-14100650D01*
X12098753Y-14100650D02*
X12070182Y-14100650D01*
X12070182Y-14100650D02*
X12051134Y-14110174D01*
X12051134Y-14110174D02*
X12041610Y-14119698D01*
X12251134Y-14233984D02*
X12232087Y-14224460D01*
X12232087Y-14224460D02*
X12222563Y-14214936D01*
X12222563Y-14214936D02*
X12213039Y-14195888D01*
X12213039Y-14195888D02*
X12213039Y-14138746D01*
X12213039Y-14138746D02*
X12222563Y-14119698D01*
X12222563Y-14119698D02*
X12232087Y-14110174D01*
X12232087Y-14110174D02*
X12251134Y-14100650D01*
X12251134Y-14100650D02*
X12279706Y-14100650D01*
X12279706Y-14100650D02*
X12298753Y-14110174D01*
X12298753Y-14110174D02*
X12308277Y-14119698D01*
X12308277Y-14119698D02*
X12317801Y-14138746D01*
X12317801Y-14138746D02*
X12317801Y-14195888D01*
X12317801Y-14195888D02*
X12308277Y-14214936D01*
X12308277Y-14214936D02*
X12298753Y-14224460D01*
X12298753Y-14224460D02*
X12279706Y-14233984D01*
X12279706Y-14233984D02*
X12251134Y-14233984D01*
X12432087Y-14233984D02*
X12413039Y-14224460D01*
X12413039Y-14224460D02*
X12403515Y-14205412D01*
X12403515Y-14205412D02*
X12403515Y-14033984D01*
X12584468Y-14224460D02*
X12565420Y-14233984D01*
X12565420Y-14233984D02*
X12527325Y-14233984D01*
X12527325Y-14233984D02*
X12508277Y-14224460D01*
X12508277Y-14224460D02*
X12498753Y-14205412D01*
X12498753Y-14205412D02*
X12498753Y-14129222D01*
X12498753Y-14129222D02*
X12508277Y-14110174D01*
X12508277Y-14110174D02*
X12527325Y-14100650D01*
X12527325Y-14100650D02*
X12565420Y-14100650D01*
X12565420Y-14100650D02*
X12584468Y-14110174D01*
X12584468Y-14110174D02*
X12593991Y-14129222D01*
X12593991Y-14129222D02*
X12593991Y-14148269D01*
X12593991Y-14148269D02*
X12498753Y-14167317D01*
X12670182Y-14224460D02*
X12689230Y-14233984D01*
X12689230Y-14233984D02*
X12727325Y-14233984D01*
X12727325Y-14233984D02*
X12746372Y-14224460D01*
X12746372Y-14224460D02*
X12755896Y-14205412D01*
X12755896Y-14205412D02*
X12755896Y-14195888D01*
X12755896Y-14195888D02*
X12746372Y-14176841D01*
X12746372Y-14176841D02*
X12727325Y-14167317D01*
X12727325Y-14167317D02*
X12698753Y-14167317D01*
X12698753Y-14167317D02*
X12679706Y-14157793D01*
X12679706Y-14157793D02*
X12670182Y-14138746D01*
X12670182Y-14138746D02*
X12670182Y-14129222D01*
X12670182Y-14129222D02*
X12679706Y-14110174D01*
X12679706Y-14110174D02*
X12698753Y-14100650D01*
X12698753Y-14100650D02*
X12727325Y-14100650D01*
X12727325Y-14100650D02*
X12746372Y-14110174D01*
X12822563Y-14310174D02*
X12832087Y-14300650D01*
X12832087Y-14300650D02*
X12851134Y-14272079D01*
X12851134Y-14272079D02*
X12860658Y-14253031D01*
X12860658Y-14253031D02*
X12870182Y-14224460D01*
X12870182Y-14224460D02*
X12879706Y-14176841D01*
X12879706Y-14176841D02*
X12879706Y-14138746D01*
X12879706Y-14138746D02*
X12870182Y-14091127D01*
X12870182Y-14091127D02*
X12860658Y-14062555D01*
X12860658Y-14062555D02*
X12851134Y-14043508D01*
X12851134Y-14043508D02*
X12832087Y-14014936D01*
X12832087Y-14014936D02*
X12822563Y-14005412D01*
M02*
