%TF.GenerationSoftware,KiCad,Pcbnew,8.0.5*%
%TF.CreationDate,2024-10-07T01:51:23+09:00*%
%TF.ProjectId,fsk-energymeter,66736b2d-656e-4657-9267-796d65746572,v0.0.1*%
%TF.SameCoordinates,Original*%
%TF.FileFunction,Drillmap*%
%TF.FilePolarity,Positive*%
%FSLAX45Y45*%
G04 Gerber Fmt 4.5, Leading zero omitted, Abs format (unit mm)*
G04 Created by KiCad (PCBNEW 8.0.5) date 2024-10-07 01:51:23*
%MOMM*%
%LPD*%
G01*
G04 APERTURE LIST*
%ADD10C,0.050000*%
%ADD11C,0.200000*%
%ADD12C,0.100000*%
%ADD13C,0.105000*%
%ADD14C,0.130000*%
%ADD15C,0.235000*%
%ADD16C,0.285000*%
G04 APERTURE END LIST*
D10*
X17050000Y-7460000D02*
X17050000Y-11610000D01*
X12930000Y-4460000D02*
G75*
G02*
X13180000Y-4710000I0J-250000D01*
G01*
X16800000Y-11860000D02*
X8300000Y-11860000D01*
X8300000Y-7210000D02*
X8830000Y-7210000D01*
X17050000Y-11610000D02*
G75*
G02*
X16800000Y-11860000I-250000J0D01*
G01*
X16800000Y-7210000D02*
G75*
G02*
X17050000Y-7460000I0J-250000D01*
G01*
X13430000Y-7210000D02*
X16800000Y-7210000D01*
X9080000Y-6960000D02*
G75*
G02*
X8830000Y-7210000I-250000J0D01*
G01*
X8050000Y-11610000D02*
X8050000Y-7460000D01*
X8300000Y-11860000D02*
G75*
G02*
X8050000Y-11610000I0J250000D01*
G01*
X13430000Y-7210000D02*
G75*
G02*
X13180000Y-6960000I0J250000D01*
G01*
X13180000Y-4710000D02*
X13180000Y-6960000D01*
X8050000Y-7460000D02*
G75*
G02*
X8300000Y-7210000I250000J0D01*
G01*
X9080000Y-4710000D02*
G75*
G02*
X9330000Y-4460000I250000J0D01*
G01*
X9080000Y-6960000D02*
X9080000Y-4710000D01*
X9330000Y-4460000D02*
X12930000Y-4460000D01*
D11*
D12*
X15020000Y-10850000D02*
X15120000Y-10950000D01*
X15120000Y-10850000D02*
X15020000Y-10950000D01*
X15820000Y-10850000D02*
X15920000Y-10950000D01*
X15920000Y-10850000D02*
X15820000Y-10950000D01*
D13*
X15392500Y-11110000D02*
G75*
G02*
X15287500Y-11110000I-52500J0D01*
G01*
X15287500Y-11110000D02*
G75*
G02*
X15392500Y-11110000I52500J0D01*
G01*
D14*
X15340000Y-10300000D02*
X15340000Y-10430000D01*
X15275000Y-10365000D02*
X15405000Y-10365000D01*
D15*
X12793086Y-10913086D02*
X12793086Y-10746914D01*
X12626914Y-10746914D01*
X12626914Y-10913086D01*
X12793086Y-10913086D01*
X14293086Y-10913086D02*
X14293086Y-10746914D01*
X14126914Y-10746914D01*
X14126914Y-10913086D01*
X14293086Y-10913086D01*
D16*
X12710000Y-11372500D02*
X12852500Y-11230000D01*
X12710000Y-11087500D01*
X12567500Y-11230000D01*
X12710000Y-11372500D01*
X14210000Y-11372500D02*
X14352500Y-11230000D01*
X14210000Y-11087500D01*
X14067500Y-11230000D01*
X14210000Y-11372500D01*
D11*
X8308277Y-12173984D02*
X8308277Y-11973984D01*
X8308277Y-11973984D02*
X8355896Y-11973984D01*
X8355896Y-11973984D02*
X8384467Y-11983508D01*
X8384467Y-11983508D02*
X8403515Y-12002555D01*
X8403515Y-12002555D02*
X8413039Y-12021603D01*
X8413039Y-12021603D02*
X8422563Y-12059698D01*
X8422563Y-12059698D02*
X8422563Y-12088269D01*
X8422563Y-12088269D02*
X8413039Y-12126365D01*
X8413039Y-12126365D02*
X8403515Y-12145412D01*
X8403515Y-12145412D02*
X8384467Y-12164460D01*
X8384467Y-12164460D02*
X8355896Y-12173984D01*
X8355896Y-12173984D02*
X8308277Y-12173984D01*
X8508277Y-12173984D02*
X8508277Y-12040650D01*
X8508277Y-12078746D02*
X8517801Y-12059698D01*
X8517801Y-12059698D02*
X8527324Y-12050174D01*
X8527324Y-12050174D02*
X8546372Y-12040650D01*
X8546372Y-12040650D02*
X8565420Y-12040650D01*
X8632086Y-12173984D02*
X8632086Y-12040650D01*
X8632086Y-11973984D02*
X8622563Y-11983508D01*
X8622563Y-11983508D02*
X8632086Y-11993031D01*
X8632086Y-11993031D02*
X8641610Y-11983508D01*
X8641610Y-11983508D02*
X8632086Y-11973984D01*
X8632086Y-11973984D02*
X8632086Y-11993031D01*
X8755896Y-12173984D02*
X8736848Y-12164460D01*
X8736848Y-12164460D02*
X8727324Y-12145412D01*
X8727324Y-12145412D02*
X8727324Y-11973984D01*
X8860658Y-12173984D02*
X8841610Y-12164460D01*
X8841610Y-12164460D02*
X8832086Y-12145412D01*
X8832086Y-12145412D02*
X8832086Y-11973984D01*
X9089229Y-12173984D02*
X9089229Y-11973984D01*
X9089229Y-11973984D02*
X9155896Y-12116841D01*
X9155896Y-12116841D02*
X9222563Y-11973984D01*
X9222563Y-11973984D02*
X9222563Y-12173984D01*
X9403515Y-12173984D02*
X9403515Y-12069222D01*
X9403515Y-12069222D02*
X9393991Y-12050174D01*
X9393991Y-12050174D02*
X9374944Y-12040650D01*
X9374944Y-12040650D02*
X9336848Y-12040650D01*
X9336848Y-12040650D02*
X9317801Y-12050174D01*
X9403515Y-12164460D02*
X9384467Y-12173984D01*
X9384467Y-12173984D02*
X9336848Y-12173984D01*
X9336848Y-12173984D02*
X9317801Y-12164460D01*
X9317801Y-12164460D02*
X9308277Y-12145412D01*
X9308277Y-12145412D02*
X9308277Y-12126365D01*
X9308277Y-12126365D02*
X9317801Y-12107317D01*
X9317801Y-12107317D02*
X9336848Y-12097793D01*
X9336848Y-12097793D02*
X9384467Y-12097793D01*
X9384467Y-12097793D02*
X9403515Y-12088269D01*
X9498753Y-12040650D02*
X9498753Y-12240650D01*
X9498753Y-12050174D02*
X9517801Y-12040650D01*
X9517801Y-12040650D02*
X9555896Y-12040650D01*
X9555896Y-12040650D02*
X9574944Y-12050174D01*
X9574944Y-12050174D02*
X9584467Y-12059698D01*
X9584467Y-12059698D02*
X9593991Y-12078746D01*
X9593991Y-12078746D02*
X9593991Y-12135888D01*
X9593991Y-12135888D02*
X9584467Y-12154936D01*
X9584467Y-12154936D02*
X9574944Y-12164460D01*
X9574944Y-12164460D02*
X9555896Y-12173984D01*
X9555896Y-12173984D02*
X9517801Y-12173984D01*
X9517801Y-12173984D02*
X9498753Y-12164460D01*
X9679705Y-12154936D02*
X9689229Y-12164460D01*
X9689229Y-12164460D02*
X9679705Y-12173984D01*
X9679705Y-12173984D02*
X9670182Y-12164460D01*
X9670182Y-12164460D02*
X9679705Y-12154936D01*
X9679705Y-12154936D02*
X9679705Y-12173984D01*
X9679705Y-12050174D02*
X9689229Y-12059698D01*
X9689229Y-12059698D02*
X9679705Y-12069222D01*
X9679705Y-12069222D02*
X9670182Y-12059698D01*
X9670182Y-12059698D02*
X9679705Y-12050174D01*
X9679705Y-12050174D02*
X9679705Y-12069222D01*
D12*
X7947500Y-12452500D02*
X8047500Y-12552500D01*
X8047500Y-12452500D02*
X7947500Y-12552500D01*
D11*
X8413039Y-12593984D02*
X8298753Y-12593984D01*
X8355896Y-12593984D02*
X8355896Y-12393984D01*
X8355896Y-12393984D02*
X8336848Y-12422555D01*
X8336848Y-12422555D02*
X8317801Y-12441603D01*
X8317801Y-12441603D02*
X8298753Y-12451127D01*
X8498753Y-12574936D02*
X8508277Y-12584460D01*
X8508277Y-12584460D02*
X8498753Y-12593984D01*
X8498753Y-12593984D02*
X8489229Y-12584460D01*
X8489229Y-12584460D02*
X8498753Y-12574936D01*
X8498753Y-12574936D02*
X8498753Y-12593984D01*
X8632086Y-12393984D02*
X8651134Y-12393984D01*
X8651134Y-12393984D02*
X8670182Y-12403508D01*
X8670182Y-12403508D02*
X8679705Y-12413031D01*
X8679705Y-12413031D02*
X8689229Y-12432079D01*
X8689229Y-12432079D02*
X8698753Y-12470174D01*
X8698753Y-12470174D02*
X8698753Y-12517793D01*
X8698753Y-12517793D02*
X8689229Y-12555888D01*
X8689229Y-12555888D02*
X8679705Y-12574936D01*
X8679705Y-12574936D02*
X8670182Y-12584460D01*
X8670182Y-12584460D02*
X8651134Y-12593984D01*
X8651134Y-12593984D02*
X8632086Y-12593984D01*
X8632086Y-12593984D02*
X8613039Y-12584460D01*
X8613039Y-12584460D02*
X8603515Y-12574936D01*
X8603515Y-12574936D02*
X8593991Y-12555888D01*
X8593991Y-12555888D02*
X8584467Y-12517793D01*
X8584467Y-12517793D02*
X8584467Y-12470174D01*
X8584467Y-12470174D02*
X8593991Y-12432079D01*
X8593991Y-12432079D02*
X8603515Y-12413031D01*
X8603515Y-12413031D02*
X8613039Y-12403508D01*
X8613039Y-12403508D02*
X8632086Y-12393984D01*
X8822563Y-12393984D02*
X8841610Y-12393984D01*
X8841610Y-12393984D02*
X8860658Y-12403508D01*
X8860658Y-12403508D02*
X8870182Y-12413031D01*
X8870182Y-12413031D02*
X8879705Y-12432079D01*
X8879705Y-12432079D02*
X8889229Y-12470174D01*
X8889229Y-12470174D02*
X8889229Y-12517793D01*
X8889229Y-12517793D02*
X8879705Y-12555888D01*
X8879705Y-12555888D02*
X8870182Y-12574936D01*
X8870182Y-12574936D02*
X8860658Y-12584460D01*
X8860658Y-12584460D02*
X8841610Y-12593984D01*
X8841610Y-12593984D02*
X8822563Y-12593984D01*
X8822563Y-12593984D02*
X8803515Y-12584460D01*
X8803515Y-12584460D02*
X8793991Y-12574936D01*
X8793991Y-12574936D02*
X8784467Y-12555888D01*
X8784467Y-12555888D02*
X8774944Y-12517793D01*
X8774944Y-12517793D02*
X8774944Y-12470174D01*
X8774944Y-12470174D02*
X8784467Y-12432079D01*
X8784467Y-12432079D02*
X8793991Y-12413031D01*
X8793991Y-12413031D02*
X8803515Y-12403508D01*
X8803515Y-12403508D02*
X8822563Y-12393984D01*
X9013039Y-12393984D02*
X9032086Y-12393984D01*
X9032086Y-12393984D02*
X9051134Y-12403508D01*
X9051134Y-12403508D02*
X9060658Y-12413031D01*
X9060658Y-12413031D02*
X9070182Y-12432079D01*
X9070182Y-12432079D02*
X9079705Y-12470174D01*
X9079705Y-12470174D02*
X9079705Y-12517793D01*
X9079705Y-12517793D02*
X9070182Y-12555888D01*
X9070182Y-12555888D02*
X9060658Y-12574936D01*
X9060658Y-12574936D02*
X9051134Y-12584460D01*
X9051134Y-12584460D02*
X9032086Y-12593984D01*
X9032086Y-12593984D02*
X9013039Y-12593984D01*
X9013039Y-12593984D02*
X8993991Y-12584460D01*
X8993991Y-12584460D02*
X8984467Y-12574936D01*
X8984467Y-12574936D02*
X8974944Y-12555888D01*
X8974944Y-12555888D02*
X8965420Y-12517793D01*
X8965420Y-12517793D02*
X8965420Y-12470174D01*
X8965420Y-12470174D02*
X8974944Y-12432079D01*
X8974944Y-12432079D02*
X8984467Y-12413031D01*
X8984467Y-12413031D02*
X8993991Y-12403508D01*
X8993991Y-12403508D02*
X9013039Y-12393984D01*
X9165420Y-12593984D02*
X9165420Y-12460650D01*
X9165420Y-12479698D02*
X9174944Y-12470174D01*
X9174944Y-12470174D02*
X9193991Y-12460650D01*
X9193991Y-12460650D02*
X9222563Y-12460650D01*
X9222563Y-12460650D02*
X9241610Y-12470174D01*
X9241610Y-12470174D02*
X9251134Y-12489222D01*
X9251134Y-12489222D02*
X9251134Y-12593984D01*
X9251134Y-12489222D02*
X9260658Y-12470174D01*
X9260658Y-12470174D02*
X9279705Y-12460650D01*
X9279705Y-12460650D02*
X9308277Y-12460650D01*
X9308277Y-12460650D02*
X9327325Y-12470174D01*
X9327325Y-12470174D02*
X9336848Y-12489222D01*
X9336848Y-12489222D02*
X9336848Y-12593984D01*
X9432086Y-12593984D02*
X9432086Y-12460650D01*
X9432086Y-12479698D02*
X9441610Y-12470174D01*
X9441610Y-12470174D02*
X9460658Y-12460650D01*
X9460658Y-12460650D02*
X9489229Y-12460650D01*
X9489229Y-12460650D02*
X9508277Y-12470174D01*
X9508277Y-12470174D02*
X9517801Y-12489222D01*
X9517801Y-12489222D02*
X9517801Y-12593984D01*
X9517801Y-12489222D02*
X9527325Y-12470174D01*
X9527325Y-12470174D02*
X9546372Y-12460650D01*
X9546372Y-12460650D02*
X9574944Y-12460650D01*
X9574944Y-12460650D02*
X9593991Y-12470174D01*
X9593991Y-12470174D02*
X9603515Y-12489222D01*
X9603515Y-12489222D02*
X9603515Y-12593984D01*
X9993991Y-12384460D02*
X9822563Y-12641603D01*
X10251134Y-12393984D02*
X10270182Y-12393984D01*
X10270182Y-12393984D02*
X10289229Y-12403508D01*
X10289229Y-12403508D02*
X10298753Y-12413031D01*
X10298753Y-12413031D02*
X10308277Y-12432079D01*
X10308277Y-12432079D02*
X10317801Y-12470174D01*
X10317801Y-12470174D02*
X10317801Y-12517793D01*
X10317801Y-12517793D02*
X10308277Y-12555888D01*
X10308277Y-12555888D02*
X10298753Y-12574936D01*
X10298753Y-12574936D02*
X10289229Y-12584460D01*
X10289229Y-12584460D02*
X10270182Y-12593984D01*
X10270182Y-12593984D02*
X10251134Y-12593984D01*
X10251134Y-12593984D02*
X10232087Y-12584460D01*
X10232087Y-12584460D02*
X10222563Y-12574936D01*
X10222563Y-12574936D02*
X10213039Y-12555888D01*
X10213039Y-12555888D02*
X10203515Y-12517793D01*
X10203515Y-12517793D02*
X10203515Y-12470174D01*
X10203515Y-12470174D02*
X10213039Y-12432079D01*
X10213039Y-12432079D02*
X10222563Y-12413031D01*
X10222563Y-12413031D02*
X10232087Y-12403508D01*
X10232087Y-12403508D02*
X10251134Y-12393984D01*
X10403515Y-12574936D02*
X10413039Y-12584460D01*
X10413039Y-12584460D02*
X10403515Y-12593984D01*
X10403515Y-12593984D02*
X10393991Y-12584460D01*
X10393991Y-12584460D02*
X10403515Y-12574936D01*
X10403515Y-12574936D02*
X10403515Y-12593984D01*
X10536848Y-12393984D02*
X10555896Y-12393984D01*
X10555896Y-12393984D02*
X10574944Y-12403508D01*
X10574944Y-12403508D02*
X10584468Y-12413031D01*
X10584468Y-12413031D02*
X10593991Y-12432079D01*
X10593991Y-12432079D02*
X10603515Y-12470174D01*
X10603515Y-12470174D02*
X10603515Y-12517793D01*
X10603515Y-12517793D02*
X10593991Y-12555888D01*
X10593991Y-12555888D02*
X10584468Y-12574936D01*
X10584468Y-12574936D02*
X10574944Y-12584460D01*
X10574944Y-12584460D02*
X10555896Y-12593984D01*
X10555896Y-12593984D02*
X10536848Y-12593984D01*
X10536848Y-12593984D02*
X10517801Y-12584460D01*
X10517801Y-12584460D02*
X10508277Y-12574936D01*
X10508277Y-12574936D02*
X10498753Y-12555888D01*
X10498753Y-12555888D02*
X10489229Y-12517793D01*
X10489229Y-12517793D02*
X10489229Y-12470174D01*
X10489229Y-12470174D02*
X10498753Y-12432079D01*
X10498753Y-12432079D02*
X10508277Y-12413031D01*
X10508277Y-12413031D02*
X10517801Y-12403508D01*
X10517801Y-12403508D02*
X10536848Y-12393984D01*
X10670182Y-12393984D02*
X10793991Y-12393984D01*
X10793991Y-12393984D02*
X10727325Y-12470174D01*
X10727325Y-12470174D02*
X10755896Y-12470174D01*
X10755896Y-12470174D02*
X10774944Y-12479698D01*
X10774944Y-12479698D02*
X10784468Y-12489222D01*
X10784468Y-12489222D02*
X10793991Y-12508269D01*
X10793991Y-12508269D02*
X10793991Y-12555888D01*
X10793991Y-12555888D02*
X10784468Y-12574936D01*
X10784468Y-12574936D02*
X10774944Y-12584460D01*
X10774944Y-12584460D02*
X10755896Y-12593984D01*
X10755896Y-12593984D02*
X10698753Y-12593984D01*
X10698753Y-12593984D02*
X10679706Y-12584460D01*
X10679706Y-12584460D02*
X10670182Y-12574936D01*
X10889229Y-12593984D02*
X10927325Y-12593984D01*
X10927325Y-12593984D02*
X10946372Y-12584460D01*
X10946372Y-12584460D02*
X10955896Y-12574936D01*
X10955896Y-12574936D02*
X10974944Y-12546365D01*
X10974944Y-12546365D02*
X10984468Y-12508269D01*
X10984468Y-12508269D02*
X10984468Y-12432079D01*
X10984468Y-12432079D02*
X10974944Y-12413031D01*
X10974944Y-12413031D02*
X10965420Y-12403508D01*
X10965420Y-12403508D02*
X10946372Y-12393984D01*
X10946372Y-12393984D02*
X10908277Y-12393984D01*
X10908277Y-12393984D02*
X10889229Y-12403508D01*
X10889229Y-12403508D02*
X10879706Y-12413031D01*
X10879706Y-12413031D02*
X10870182Y-12432079D01*
X10870182Y-12432079D02*
X10870182Y-12479698D01*
X10870182Y-12479698D02*
X10879706Y-12498746D01*
X10879706Y-12498746D02*
X10889229Y-12508269D01*
X10889229Y-12508269D02*
X10908277Y-12517793D01*
X10908277Y-12517793D02*
X10946372Y-12517793D01*
X10946372Y-12517793D02*
X10965420Y-12508269D01*
X10965420Y-12508269D02*
X10974944Y-12498746D01*
X10974944Y-12498746D02*
X10984468Y-12479698D01*
X11155896Y-12460650D02*
X11155896Y-12593984D01*
X11108277Y-12384460D02*
X11060658Y-12527317D01*
X11060658Y-12527317D02*
X11184468Y-12527317D01*
X11251134Y-12393984D02*
X11251134Y-12432079D01*
X11327325Y-12393984D02*
X11327325Y-12432079D01*
X11622563Y-12670174D02*
X11613039Y-12660650D01*
X11613039Y-12660650D02*
X11593991Y-12632079D01*
X11593991Y-12632079D02*
X11584468Y-12613031D01*
X11584468Y-12613031D02*
X11574944Y-12584460D01*
X11574944Y-12584460D02*
X11565420Y-12536841D01*
X11565420Y-12536841D02*
X11565420Y-12498746D01*
X11565420Y-12498746D02*
X11574944Y-12451127D01*
X11574944Y-12451127D02*
X11584468Y-12422555D01*
X11584468Y-12422555D02*
X11593991Y-12403508D01*
X11593991Y-12403508D02*
X11613039Y-12374936D01*
X11613039Y-12374936D02*
X11622563Y-12365412D01*
X11689229Y-12413031D02*
X11698753Y-12403508D01*
X11698753Y-12403508D02*
X11717801Y-12393984D01*
X11717801Y-12393984D02*
X11765420Y-12393984D01*
X11765420Y-12393984D02*
X11784468Y-12403508D01*
X11784468Y-12403508D02*
X11793991Y-12413031D01*
X11793991Y-12413031D02*
X11803515Y-12432079D01*
X11803515Y-12432079D02*
X11803515Y-12451127D01*
X11803515Y-12451127D02*
X11793991Y-12479698D01*
X11793991Y-12479698D02*
X11679706Y-12593984D01*
X11679706Y-12593984D02*
X11803515Y-12593984D01*
X12041610Y-12593984D02*
X12041610Y-12393984D01*
X12127325Y-12593984D02*
X12127325Y-12489222D01*
X12127325Y-12489222D02*
X12117801Y-12470174D01*
X12117801Y-12470174D02*
X12098753Y-12460650D01*
X12098753Y-12460650D02*
X12070182Y-12460650D01*
X12070182Y-12460650D02*
X12051134Y-12470174D01*
X12051134Y-12470174D02*
X12041610Y-12479698D01*
X12251134Y-12593984D02*
X12232087Y-12584460D01*
X12232087Y-12584460D02*
X12222563Y-12574936D01*
X12222563Y-12574936D02*
X12213039Y-12555888D01*
X12213039Y-12555888D02*
X12213039Y-12498746D01*
X12213039Y-12498746D02*
X12222563Y-12479698D01*
X12222563Y-12479698D02*
X12232087Y-12470174D01*
X12232087Y-12470174D02*
X12251134Y-12460650D01*
X12251134Y-12460650D02*
X12279706Y-12460650D01*
X12279706Y-12460650D02*
X12298753Y-12470174D01*
X12298753Y-12470174D02*
X12308277Y-12479698D01*
X12308277Y-12479698D02*
X12317801Y-12498746D01*
X12317801Y-12498746D02*
X12317801Y-12555888D01*
X12317801Y-12555888D02*
X12308277Y-12574936D01*
X12308277Y-12574936D02*
X12298753Y-12584460D01*
X12298753Y-12584460D02*
X12279706Y-12593984D01*
X12279706Y-12593984D02*
X12251134Y-12593984D01*
X12432087Y-12593984D02*
X12413039Y-12584460D01*
X12413039Y-12584460D02*
X12403515Y-12565412D01*
X12403515Y-12565412D02*
X12403515Y-12393984D01*
X12584468Y-12584460D02*
X12565420Y-12593984D01*
X12565420Y-12593984D02*
X12527325Y-12593984D01*
X12527325Y-12593984D02*
X12508277Y-12584460D01*
X12508277Y-12584460D02*
X12498753Y-12565412D01*
X12498753Y-12565412D02*
X12498753Y-12489222D01*
X12498753Y-12489222D02*
X12508277Y-12470174D01*
X12508277Y-12470174D02*
X12527325Y-12460650D01*
X12527325Y-12460650D02*
X12565420Y-12460650D01*
X12565420Y-12460650D02*
X12584468Y-12470174D01*
X12584468Y-12470174D02*
X12593991Y-12489222D01*
X12593991Y-12489222D02*
X12593991Y-12508269D01*
X12593991Y-12508269D02*
X12498753Y-12527317D01*
X12670182Y-12584460D02*
X12689230Y-12593984D01*
X12689230Y-12593984D02*
X12727325Y-12593984D01*
X12727325Y-12593984D02*
X12746372Y-12584460D01*
X12746372Y-12584460D02*
X12755896Y-12565412D01*
X12755896Y-12565412D02*
X12755896Y-12555888D01*
X12755896Y-12555888D02*
X12746372Y-12536841D01*
X12746372Y-12536841D02*
X12727325Y-12527317D01*
X12727325Y-12527317D02*
X12698753Y-12527317D01*
X12698753Y-12527317D02*
X12679706Y-12517793D01*
X12679706Y-12517793D02*
X12670182Y-12498746D01*
X12670182Y-12498746D02*
X12670182Y-12489222D01*
X12670182Y-12489222D02*
X12679706Y-12470174D01*
X12679706Y-12470174D02*
X12698753Y-12460650D01*
X12698753Y-12460650D02*
X12727325Y-12460650D01*
X12727325Y-12460650D02*
X12746372Y-12470174D01*
X12822563Y-12670174D02*
X12832087Y-12660650D01*
X12832087Y-12660650D02*
X12851134Y-12632079D01*
X12851134Y-12632079D02*
X12860658Y-12613031D01*
X12860658Y-12613031D02*
X12870182Y-12584460D01*
X12870182Y-12584460D02*
X12879706Y-12536841D01*
X12879706Y-12536841D02*
X12879706Y-12498746D01*
X12879706Y-12498746D02*
X12870182Y-12451127D01*
X12870182Y-12451127D02*
X12860658Y-12422555D01*
X12860658Y-12422555D02*
X12851134Y-12403508D01*
X12851134Y-12403508D02*
X12832087Y-12374936D01*
X12832087Y-12374936D02*
X12822563Y-12365412D01*
X13184468Y-12670174D02*
X13174944Y-12660650D01*
X13174944Y-12660650D02*
X13155896Y-12632079D01*
X13155896Y-12632079D02*
X13146372Y-12613031D01*
X13146372Y-12613031D02*
X13136849Y-12584460D01*
X13136849Y-12584460D02*
X13127325Y-12536841D01*
X13127325Y-12536841D02*
X13127325Y-12498746D01*
X13127325Y-12498746D02*
X13136849Y-12451127D01*
X13136849Y-12451127D02*
X13146372Y-12422555D01*
X13146372Y-12422555D02*
X13155896Y-12403508D01*
X13155896Y-12403508D02*
X13174944Y-12374936D01*
X13174944Y-12374936D02*
X13184468Y-12365412D01*
X13260658Y-12460650D02*
X13260658Y-12593984D01*
X13260658Y-12479698D02*
X13270182Y-12470174D01*
X13270182Y-12470174D02*
X13289230Y-12460650D01*
X13289230Y-12460650D02*
X13317801Y-12460650D01*
X13317801Y-12460650D02*
X13336849Y-12470174D01*
X13336849Y-12470174D02*
X13346372Y-12489222D01*
X13346372Y-12489222D02*
X13346372Y-12593984D01*
X13470182Y-12593984D02*
X13451134Y-12584460D01*
X13451134Y-12584460D02*
X13441611Y-12574936D01*
X13441611Y-12574936D02*
X13432087Y-12555888D01*
X13432087Y-12555888D02*
X13432087Y-12498746D01*
X13432087Y-12498746D02*
X13441611Y-12479698D01*
X13441611Y-12479698D02*
X13451134Y-12470174D01*
X13451134Y-12470174D02*
X13470182Y-12460650D01*
X13470182Y-12460650D02*
X13498753Y-12460650D01*
X13498753Y-12460650D02*
X13517801Y-12470174D01*
X13517801Y-12470174D02*
X13527325Y-12479698D01*
X13527325Y-12479698D02*
X13536849Y-12498746D01*
X13536849Y-12498746D02*
X13536849Y-12555888D01*
X13536849Y-12555888D02*
X13527325Y-12574936D01*
X13527325Y-12574936D02*
X13517801Y-12584460D01*
X13517801Y-12584460D02*
X13498753Y-12593984D01*
X13498753Y-12593984D02*
X13470182Y-12593984D01*
X13593992Y-12460650D02*
X13670182Y-12460650D01*
X13622563Y-12393984D02*
X13622563Y-12565412D01*
X13622563Y-12565412D02*
X13632087Y-12584460D01*
X13632087Y-12584460D02*
X13651134Y-12593984D01*
X13651134Y-12593984D02*
X13670182Y-12593984D01*
X13889230Y-12460650D02*
X13889230Y-12660650D01*
X13889230Y-12470174D02*
X13908277Y-12460650D01*
X13908277Y-12460650D02*
X13946373Y-12460650D01*
X13946373Y-12460650D02*
X13965420Y-12470174D01*
X13965420Y-12470174D02*
X13974944Y-12479698D01*
X13974944Y-12479698D02*
X13984468Y-12498746D01*
X13984468Y-12498746D02*
X13984468Y-12555888D01*
X13984468Y-12555888D02*
X13974944Y-12574936D01*
X13974944Y-12574936D02*
X13965420Y-12584460D01*
X13965420Y-12584460D02*
X13946373Y-12593984D01*
X13946373Y-12593984D02*
X13908277Y-12593984D01*
X13908277Y-12593984D02*
X13889230Y-12584460D01*
X14098753Y-12593984D02*
X14079706Y-12584460D01*
X14079706Y-12584460D02*
X14070182Y-12565412D01*
X14070182Y-12565412D02*
X14070182Y-12393984D01*
X14260658Y-12593984D02*
X14260658Y-12489222D01*
X14260658Y-12489222D02*
X14251134Y-12470174D01*
X14251134Y-12470174D02*
X14232087Y-12460650D01*
X14232087Y-12460650D02*
X14193992Y-12460650D01*
X14193992Y-12460650D02*
X14174944Y-12470174D01*
X14260658Y-12584460D02*
X14241611Y-12593984D01*
X14241611Y-12593984D02*
X14193992Y-12593984D01*
X14193992Y-12593984D02*
X14174944Y-12584460D01*
X14174944Y-12584460D02*
X14165420Y-12565412D01*
X14165420Y-12565412D02*
X14165420Y-12546365D01*
X14165420Y-12546365D02*
X14174944Y-12527317D01*
X14174944Y-12527317D02*
X14193992Y-12517793D01*
X14193992Y-12517793D02*
X14241611Y-12517793D01*
X14241611Y-12517793D02*
X14260658Y-12508269D01*
X14327325Y-12460650D02*
X14403515Y-12460650D01*
X14355896Y-12393984D02*
X14355896Y-12565412D01*
X14355896Y-12565412D02*
X14365420Y-12584460D01*
X14365420Y-12584460D02*
X14384468Y-12593984D01*
X14384468Y-12593984D02*
X14403515Y-12593984D01*
X14546373Y-12584460D02*
X14527325Y-12593984D01*
X14527325Y-12593984D02*
X14489230Y-12593984D01*
X14489230Y-12593984D02*
X14470182Y-12584460D01*
X14470182Y-12584460D02*
X14460658Y-12565412D01*
X14460658Y-12565412D02*
X14460658Y-12489222D01*
X14460658Y-12489222D02*
X14470182Y-12470174D01*
X14470182Y-12470174D02*
X14489230Y-12460650D01*
X14489230Y-12460650D02*
X14527325Y-12460650D01*
X14527325Y-12460650D02*
X14546373Y-12470174D01*
X14546373Y-12470174D02*
X14555896Y-12489222D01*
X14555896Y-12489222D02*
X14555896Y-12508269D01*
X14555896Y-12508269D02*
X14460658Y-12527317D01*
X14727325Y-12593984D02*
X14727325Y-12393984D01*
X14727325Y-12584460D02*
X14708277Y-12593984D01*
X14708277Y-12593984D02*
X14670182Y-12593984D01*
X14670182Y-12593984D02*
X14651134Y-12584460D01*
X14651134Y-12584460D02*
X14641611Y-12574936D01*
X14641611Y-12574936D02*
X14632087Y-12555888D01*
X14632087Y-12555888D02*
X14632087Y-12498746D01*
X14632087Y-12498746D02*
X14641611Y-12479698D01*
X14641611Y-12479698D02*
X14651134Y-12470174D01*
X14651134Y-12470174D02*
X14670182Y-12460650D01*
X14670182Y-12460650D02*
X14708277Y-12460650D01*
X14708277Y-12460650D02*
X14727325Y-12470174D01*
X14803515Y-12670174D02*
X14813039Y-12660650D01*
X14813039Y-12660650D02*
X14832087Y-12632079D01*
X14832087Y-12632079D02*
X14841611Y-12613031D01*
X14841611Y-12613031D02*
X14851134Y-12584460D01*
X14851134Y-12584460D02*
X14860658Y-12536841D01*
X14860658Y-12536841D02*
X14860658Y-12498746D01*
X14860658Y-12498746D02*
X14851134Y-12451127D01*
X14851134Y-12451127D02*
X14841611Y-12422555D01*
X14841611Y-12422555D02*
X14832087Y-12403508D01*
X14832087Y-12403508D02*
X14813039Y-12374936D01*
X14813039Y-12374936D02*
X14803515Y-12365412D01*
D13*
X8047500Y-12766500D02*
G75*
G02*
X7942500Y-12766500I-52500J0D01*
G01*
X7942500Y-12766500D02*
G75*
G02*
X8047500Y-12766500I52500J0D01*
G01*
D11*
X8413039Y-12857984D02*
X8298753Y-12857984D01*
X8355896Y-12857984D02*
X8355896Y-12657984D01*
X8355896Y-12657984D02*
X8336848Y-12686555D01*
X8336848Y-12686555D02*
X8317801Y-12705603D01*
X8317801Y-12705603D02*
X8298753Y-12715127D01*
X8498753Y-12838936D02*
X8508277Y-12848460D01*
X8508277Y-12848460D02*
X8498753Y-12857984D01*
X8498753Y-12857984D02*
X8489229Y-12848460D01*
X8489229Y-12848460D02*
X8498753Y-12838936D01*
X8498753Y-12838936D02*
X8498753Y-12857984D01*
X8632086Y-12657984D02*
X8651134Y-12657984D01*
X8651134Y-12657984D02*
X8670182Y-12667508D01*
X8670182Y-12667508D02*
X8679705Y-12677031D01*
X8679705Y-12677031D02*
X8689229Y-12696079D01*
X8689229Y-12696079D02*
X8698753Y-12734174D01*
X8698753Y-12734174D02*
X8698753Y-12781793D01*
X8698753Y-12781793D02*
X8689229Y-12819888D01*
X8689229Y-12819888D02*
X8679705Y-12838936D01*
X8679705Y-12838936D02*
X8670182Y-12848460D01*
X8670182Y-12848460D02*
X8651134Y-12857984D01*
X8651134Y-12857984D02*
X8632086Y-12857984D01*
X8632086Y-12857984D02*
X8613039Y-12848460D01*
X8613039Y-12848460D02*
X8603515Y-12838936D01*
X8603515Y-12838936D02*
X8593991Y-12819888D01*
X8593991Y-12819888D02*
X8584467Y-12781793D01*
X8584467Y-12781793D02*
X8584467Y-12734174D01*
X8584467Y-12734174D02*
X8593991Y-12696079D01*
X8593991Y-12696079D02*
X8603515Y-12677031D01*
X8603515Y-12677031D02*
X8613039Y-12667508D01*
X8613039Y-12667508D02*
X8632086Y-12657984D01*
X8879705Y-12657984D02*
X8784467Y-12657984D01*
X8784467Y-12657984D02*
X8774944Y-12753222D01*
X8774944Y-12753222D02*
X8784467Y-12743698D01*
X8784467Y-12743698D02*
X8803515Y-12734174D01*
X8803515Y-12734174D02*
X8851134Y-12734174D01*
X8851134Y-12734174D02*
X8870182Y-12743698D01*
X8870182Y-12743698D02*
X8879705Y-12753222D01*
X8879705Y-12753222D02*
X8889229Y-12772269D01*
X8889229Y-12772269D02*
X8889229Y-12819888D01*
X8889229Y-12819888D02*
X8879705Y-12838936D01*
X8879705Y-12838936D02*
X8870182Y-12848460D01*
X8870182Y-12848460D02*
X8851134Y-12857984D01*
X8851134Y-12857984D02*
X8803515Y-12857984D01*
X8803515Y-12857984D02*
X8784467Y-12848460D01*
X8784467Y-12848460D02*
X8774944Y-12838936D01*
X9013039Y-12657984D02*
X9032086Y-12657984D01*
X9032086Y-12657984D02*
X9051134Y-12667508D01*
X9051134Y-12667508D02*
X9060658Y-12677031D01*
X9060658Y-12677031D02*
X9070182Y-12696079D01*
X9070182Y-12696079D02*
X9079705Y-12734174D01*
X9079705Y-12734174D02*
X9079705Y-12781793D01*
X9079705Y-12781793D02*
X9070182Y-12819888D01*
X9070182Y-12819888D02*
X9060658Y-12838936D01*
X9060658Y-12838936D02*
X9051134Y-12848460D01*
X9051134Y-12848460D02*
X9032086Y-12857984D01*
X9032086Y-12857984D02*
X9013039Y-12857984D01*
X9013039Y-12857984D02*
X8993991Y-12848460D01*
X8993991Y-12848460D02*
X8984467Y-12838936D01*
X8984467Y-12838936D02*
X8974944Y-12819888D01*
X8974944Y-12819888D02*
X8965420Y-12781793D01*
X8965420Y-12781793D02*
X8965420Y-12734174D01*
X8965420Y-12734174D02*
X8974944Y-12696079D01*
X8974944Y-12696079D02*
X8984467Y-12677031D01*
X8984467Y-12677031D02*
X8993991Y-12667508D01*
X8993991Y-12667508D02*
X9013039Y-12657984D01*
X9165420Y-12857984D02*
X9165420Y-12724650D01*
X9165420Y-12743698D02*
X9174944Y-12734174D01*
X9174944Y-12734174D02*
X9193991Y-12724650D01*
X9193991Y-12724650D02*
X9222563Y-12724650D01*
X9222563Y-12724650D02*
X9241610Y-12734174D01*
X9241610Y-12734174D02*
X9251134Y-12753222D01*
X9251134Y-12753222D02*
X9251134Y-12857984D01*
X9251134Y-12753222D02*
X9260658Y-12734174D01*
X9260658Y-12734174D02*
X9279705Y-12724650D01*
X9279705Y-12724650D02*
X9308277Y-12724650D01*
X9308277Y-12724650D02*
X9327325Y-12734174D01*
X9327325Y-12734174D02*
X9336848Y-12753222D01*
X9336848Y-12753222D02*
X9336848Y-12857984D01*
X9432086Y-12857984D02*
X9432086Y-12724650D01*
X9432086Y-12743698D02*
X9441610Y-12734174D01*
X9441610Y-12734174D02*
X9460658Y-12724650D01*
X9460658Y-12724650D02*
X9489229Y-12724650D01*
X9489229Y-12724650D02*
X9508277Y-12734174D01*
X9508277Y-12734174D02*
X9517801Y-12753222D01*
X9517801Y-12753222D02*
X9517801Y-12857984D01*
X9517801Y-12753222D02*
X9527325Y-12734174D01*
X9527325Y-12734174D02*
X9546372Y-12724650D01*
X9546372Y-12724650D02*
X9574944Y-12724650D01*
X9574944Y-12724650D02*
X9593991Y-12734174D01*
X9593991Y-12734174D02*
X9603515Y-12753222D01*
X9603515Y-12753222D02*
X9603515Y-12857984D01*
X9993991Y-12648460D02*
X9822563Y-12905603D01*
X10251134Y-12657984D02*
X10270182Y-12657984D01*
X10270182Y-12657984D02*
X10289229Y-12667508D01*
X10289229Y-12667508D02*
X10298753Y-12677031D01*
X10298753Y-12677031D02*
X10308277Y-12696079D01*
X10308277Y-12696079D02*
X10317801Y-12734174D01*
X10317801Y-12734174D02*
X10317801Y-12781793D01*
X10317801Y-12781793D02*
X10308277Y-12819888D01*
X10308277Y-12819888D02*
X10298753Y-12838936D01*
X10298753Y-12838936D02*
X10289229Y-12848460D01*
X10289229Y-12848460D02*
X10270182Y-12857984D01*
X10270182Y-12857984D02*
X10251134Y-12857984D01*
X10251134Y-12857984D02*
X10232087Y-12848460D01*
X10232087Y-12848460D02*
X10222563Y-12838936D01*
X10222563Y-12838936D02*
X10213039Y-12819888D01*
X10213039Y-12819888D02*
X10203515Y-12781793D01*
X10203515Y-12781793D02*
X10203515Y-12734174D01*
X10203515Y-12734174D02*
X10213039Y-12696079D01*
X10213039Y-12696079D02*
X10222563Y-12677031D01*
X10222563Y-12677031D02*
X10232087Y-12667508D01*
X10232087Y-12667508D02*
X10251134Y-12657984D01*
X10403515Y-12838936D02*
X10413039Y-12848460D01*
X10413039Y-12848460D02*
X10403515Y-12857984D01*
X10403515Y-12857984D02*
X10393991Y-12848460D01*
X10393991Y-12848460D02*
X10403515Y-12838936D01*
X10403515Y-12838936D02*
X10403515Y-12857984D01*
X10536848Y-12657984D02*
X10555896Y-12657984D01*
X10555896Y-12657984D02*
X10574944Y-12667508D01*
X10574944Y-12667508D02*
X10584468Y-12677031D01*
X10584468Y-12677031D02*
X10593991Y-12696079D01*
X10593991Y-12696079D02*
X10603515Y-12734174D01*
X10603515Y-12734174D02*
X10603515Y-12781793D01*
X10603515Y-12781793D02*
X10593991Y-12819888D01*
X10593991Y-12819888D02*
X10584468Y-12838936D01*
X10584468Y-12838936D02*
X10574944Y-12848460D01*
X10574944Y-12848460D02*
X10555896Y-12857984D01*
X10555896Y-12857984D02*
X10536848Y-12857984D01*
X10536848Y-12857984D02*
X10517801Y-12848460D01*
X10517801Y-12848460D02*
X10508277Y-12838936D01*
X10508277Y-12838936D02*
X10498753Y-12819888D01*
X10498753Y-12819888D02*
X10489229Y-12781793D01*
X10489229Y-12781793D02*
X10489229Y-12734174D01*
X10489229Y-12734174D02*
X10498753Y-12696079D01*
X10498753Y-12696079D02*
X10508277Y-12677031D01*
X10508277Y-12677031D02*
X10517801Y-12667508D01*
X10517801Y-12667508D02*
X10536848Y-12657984D01*
X10774944Y-12724650D02*
X10774944Y-12857984D01*
X10727325Y-12648460D02*
X10679706Y-12791317D01*
X10679706Y-12791317D02*
X10803515Y-12791317D01*
X10984468Y-12857984D02*
X10870182Y-12857984D01*
X10927325Y-12857984D02*
X10927325Y-12657984D01*
X10927325Y-12657984D02*
X10908277Y-12686555D01*
X10908277Y-12686555D02*
X10889229Y-12705603D01*
X10889229Y-12705603D02*
X10870182Y-12715127D01*
X11051134Y-12657984D02*
X11174944Y-12657984D01*
X11174944Y-12657984D02*
X11108277Y-12734174D01*
X11108277Y-12734174D02*
X11136849Y-12734174D01*
X11136849Y-12734174D02*
X11155896Y-12743698D01*
X11155896Y-12743698D02*
X11165420Y-12753222D01*
X11165420Y-12753222D02*
X11174944Y-12772269D01*
X11174944Y-12772269D02*
X11174944Y-12819888D01*
X11174944Y-12819888D02*
X11165420Y-12838936D01*
X11165420Y-12838936D02*
X11155896Y-12848460D01*
X11155896Y-12848460D02*
X11136849Y-12857984D01*
X11136849Y-12857984D02*
X11079706Y-12857984D01*
X11079706Y-12857984D02*
X11060658Y-12848460D01*
X11060658Y-12848460D02*
X11051134Y-12838936D01*
X11251134Y-12657984D02*
X11251134Y-12696079D01*
X11327325Y-12657984D02*
X11327325Y-12696079D01*
X11622563Y-12934174D02*
X11613039Y-12924650D01*
X11613039Y-12924650D02*
X11593991Y-12896079D01*
X11593991Y-12896079D02*
X11584468Y-12877031D01*
X11584468Y-12877031D02*
X11574944Y-12848460D01*
X11574944Y-12848460D02*
X11565420Y-12800841D01*
X11565420Y-12800841D02*
X11565420Y-12762746D01*
X11565420Y-12762746D02*
X11574944Y-12715127D01*
X11574944Y-12715127D02*
X11584468Y-12686555D01*
X11584468Y-12686555D02*
X11593991Y-12667508D01*
X11593991Y-12667508D02*
X11613039Y-12638936D01*
X11613039Y-12638936D02*
X11622563Y-12629412D01*
X11803515Y-12857984D02*
X11689229Y-12857984D01*
X11746372Y-12857984D02*
X11746372Y-12657984D01*
X11746372Y-12657984D02*
X11727325Y-12686555D01*
X11727325Y-12686555D02*
X11708277Y-12705603D01*
X11708277Y-12705603D02*
X11689229Y-12715127D01*
X12041610Y-12857984D02*
X12041610Y-12657984D01*
X12127325Y-12857984D02*
X12127325Y-12753222D01*
X12127325Y-12753222D02*
X12117801Y-12734174D01*
X12117801Y-12734174D02*
X12098753Y-12724650D01*
X12098753Y-12724650D02*
X12070182Y-12724650D01*
X12070182Y-12724650D02*
X12051134Y-12734174D01*
X12051134Y-12734174D02*
X12041610Y-12743698D01*
X12251134Y-12857984D02*
X12232087Y-12848460D01*
X12232087Y-12848460D02*
X12222563Y-12838936D01*
X12222563Y-12838936D02*
X12213039Y-12819888D01*
X12213039Y-12819888D02*
X12213039Y-12762746D01*
X12213039Y-12762746D02*
X12222563Y-12743698D01*
X12222563Y-12743698D02*
X12232087Y-12734174D01*
X12232087Y-12734174D02*
X12251134Y-12724650D01*
X12251134Y-12724650D02*
X12279706Y-12724650D01*
X12279706Y-12724650D02*
X12298753Y-12734174D01*
X12298753Y-12734174D02*
X12308277Y-12743698D01*
X12308277Y-12743698D02*
X12317801Y-12762746D01*
X12317801Y-12762746D02*
X12317801Y-12819888D01*
X12317801Y-12819888D02*
X12308277Y-12838936D01*
X12308277Y-12838936D02*
X12298753Y-12848460D01*
X12298753Y-12848460D02*
X12279706Y-12857984D01*
X12279706Y-12857984D02*
X12251134Y-12857984D01*
X12432087Y-12857984D02*
X12413039Y-12848460D01*
X12413039Y-12848460D02*
X12403515Y-12829412D01*
X12403515Y-12829412D02*
X12403515Y-12657984D01*
X12584468Y-12848460D02*
X12565420Y-12857984D01*
X12565420Y-12857984D02*
X12527325Y-12857984D01*
X12527325Y-12857984D02*
X12508277Y-12848460D01*
X12508277Y-12848460D02*
X12498753Y-12829412D01*
X12498753Y-12829412D02*
X12498753Y-12753222D01*
X12498753Y-12753222D02*
X12508277Y-12734174D01*
X12508277Y-12734174D02*
X12527325Y-12724650D01*
X12527325Y-12724650D02*
X12565420Y-12724650D01*
X12565420Y-12724650D02*
X12584468Y-12734174D01*
X12584468Y-12734174D02*
X12593991Y-12753222D01*
X12593991Y-12753222D02*
X12593991Y-12772269D01*
X12593991Y-12772269D02*
X12498753Y-12791317D01*
X12660658Y-12934174D02*
X12670182Y-12924650D01*
X12670182Y-12924650D02*
X12689230Y-12896079D01*
X12689230Y-12896079D02*
X12698753Y-12877031D01*
X12698753Y-12877031D02*
X12708277Y-12848460D01*
X12708277Y-12848460D02*
X12717801Y-12800841D01*
X12717801Y-12800841D02*
X12717801Y-12762746D01*
X12717801Y-12762746D02*
X12708277Y-12715127D01*
X12708277Y-12715127D02*
X12698753Y-12686555D01*
X12698753Y-12686555D02*
X12689230Y-12667508D01*
X12689230Y-12667508D02*
X12670182Y-12638936D01*
X12670182Y-12638936D02*
X12660658Y-12629412D01*
X13022563Y-12934174D02*
X13013039Y-12924650D01*
X13013039Y-12924650D02*
X12993991Y-12896079D01*
X12993991Y-12896079D02*
X12984468Y-12877031D01*
X12984468Y-12877031D02*
X12974944Y-12848460D01*
X12974944Y-12848460D02*
X12965420Y-12800841D01*
X12965420Y-12800841D02*
X12965420Y-12762746D01*
X12965420Y-12762746D02*
X12974944Y-12715127D01*
X12974944Y-12715127D02*
X12984468Y-12686555D01*
X12984468Y-12686555D02*
X12993991Y-12667508D01*
X12993991Y-12667508D02*
X13013039Y-12638936D01*
X13013039Y-12638936D02*
X13022563Y-12629412D01*
X13098753Y-12724650D02*
X13098753Y-12857984D01*
X13098753Y-12743698D02*
X13108277Y-12734174D01*
X13108277Y-12734174D02*
X13127325Y-12724650D01*
X13127325Y-12724650D02*
X13155896Y-12724650D01*
X13155896Y-12724650D02*
X13174944Y-12734174D01*
X13174944Y-12734174D02*
X13184468Y-12753222D01*
X13184468Y-12753222D02*
X13184468Y-12857984D01*
X13308277Y-12857984D02*
X13289230Y-12848460D01*
X13289230Y-12848460D02*
X13279706Y-12838936D01*
X13279706Y-12838936D02*
X13270182Y-12819888D01*
X13270182Y-12819888D02*
X13270182Y-12762746D01*
X13270182Y-12762746D02*
X13279706Y-12743698D01*
X13279706Y-12743698D02*
X13289230Y-12734174D01*
X13289230Y-12734174D02*
X13308277Y-12724650D01*
X13308277Y-12724650D02*
X13336849Y-12724650D01*
X13336849Y-12724650D02*
X13355896Y-12734174D01*
X13355896Y-12734174D02*
X13365420Y-12743698D01*
X13365420Y-12743698D02*
X13374944Y-12762746D01*
X13374944Y-12762746D02*
X13374944Y-12819888D01*
X13374944Y-12819888D02*
X13365420Y-12838936D01*
X13365420Y-12838936D02*
X13355896Y-12848460D01*
X13355896Y-12848460D02*
X13336849Y-12857984D01*
X13336849Y-12857984D02*
X13308277Y-12857984D01*
X13432087Y-12724650D02*
X13508277Y-12724650D01*
X13460658Y-12657984D02*
X13460658Y-12829412D01*
X13460658Y-12829412D02*
X13470182Y-12848460D01*
X13470182Y-12848460D02*
X13489230Y-12857984D01*
X13489230Y-12857984D02*
X13508277Y-12857984D01*
X13727325Y-12724650D02*
X13727325Y-12924650D01*
X13727325Y-12734174D02*
X13746372Y-12724650D01*
X13746372Y-12724650D02*
X13784468Y-12724650D01*
X13784468Y-12724650D02*
X13803515Y-12734174D01*
X13803515Y-12734174D02*
X13813039Y-12743698D01*
X13813039Y-12743698D02*
X13822563Y-12762746D01*
X13822563Y-12762746D02*
X13822563Y-12819888D01*
X13822563Y-12819888D02*
X13813039Y-12838936D01*
X13813039Y-12838936D02*
X13803515Y-12848460D01*
X13803515Y-12848460D02*
X13784468Y-12857984D01*
X13784468Y-12857984D02*
X13746372Y-12857984D01*
X13746372Y-12857984D02*
X13727325Y-12848460D01*
X13936849Y-12857984D02*
X13917801Y-12848460D01*
X13917801Y-12848460D02*
X13908277Y-12829412D01*
X13908277Y-12829412D02*
X13908277Y-12657984D01*
X14098753Y-12857984D02*
X14098753Y-12753222D01*
X14098753Y-12753222D02*
X14089230Y-12734174D01*
X14089230Y-12734174D02*
X14070182Y-12724650D01*
X14070182Y-12724650D02*
X14032087Y-12724650D01*
X14032087Y-12724650D02*
X14013039Y-12734174D01*
X14098753Y-12848460D02*
X14079706Y-12857984D01*
X14079706Y-12857984D02*
X14032087Y-12857984D01*
X14032087Y-12857984D02*
X14013039Y-12848460D01*
X14013039Y-12848460D02*
X14003515Y-12829412D01*
X14003515Y-12829412D02*
X14003515Y-12810365D01*
X14003515Y-12810365D02*
X14013039Y-12791317D01*
X14013039Y-12791317D02*
X14032087Y-12781793D01*
X14032087Y-12781793D02*
X14079706Y-12781793D01*
X14079706Y-12781793D02*
X14098753Y-12772269D01*
X14165420Y-12724650D02*
X14241611Y-12724650D01*
X14193992Y-12657984D02*
X14193992Y-12829412D01*
X14193992Y-12829412D02*
X14203515Y-12848460D01*
X14203515Y-12848460D02*
X14222563Y-12857984D01*
X14222563Y-12857984D02*
X14241611Y-12857984D01*
X14384468Y-12848460D02*
X14365420Y-12857984D01*
X14365420Y-12857984D02*
X14327325Y-12857984D01*
X14327325Y-12857984D02*
X14308277Y-12848460D01*
X14308277Y-12848460D02*
X14298753Y-12829412D01*
X14298753Y-12829412D02*
X14298753Y-12753222D01*
X14298753Y-12753222D02*
X14308277Y-12734174D01*
X14308277Y-12734174D02*
X14327325Y-12724650D01*
X14327325Y-12724650D02*
X14365420Y-12724650D01*
X14365420Y-12724650D02*
X14384468Y-12734174D01*
X14384468Y-12734174D02*
X14393992Y-12753222D01*
X14393992Y-12753222D02*
X14393992Y-12772269D01*
X14393992Y-12772269D02*
X14298753Y-12791317D01*
X14565420Y-12857984D02*
X14565420Y-12657984D01*
X14565420Y-12848460D02*
X14546373Y-12857984D01*
X14546373Y-12857984D02*
X14508277Y-12857984D01*
X14508277Y-12857984D02*
X14489230Y-12848460D01*
X14489230Y-12848460D02*
X14479706Y-12838936D01*
X14479706Y-12838936D02*
X14470182Y-12819888D01*
X14470182Y-12819888D02*
X14470182Y-12762746D01*
X14470182Y-12762746D02*
X14479706Y-12743698D01*
X14479706Y-12743698D02*
X14489230Y-12734174D01*
X14489230Y-12734174D02*
X14508277Y-12724650D01*
X14508277Y-12724650D02*
X14546373Y-12724650D01*
X14546373Y-12724650D02*
X14565420Y-12734174D01*
X14641611Y-12934174D02*
X14651134Y-12924650D01*
X14651134Y-12924650D02*
X14670182Y-12896079D01*
X14670182Y-12896079D02*
X14679706Y-12877031D01*
X14679706Y-12877031D02*
X14689230Y-12848460D01*
X14689230Y-12848460D02*
X14698753Y-12800841D01*
X14698753Y-12800841D02*
X14698753Y-12762746D01*
X14698753Y-12762746D02*
X14689230Y-12715127D01*
X14689230Y-12715127D02*
X14679706Y-12686555D01*
X14679706Y-12686555D02*
X14670182Y-12667508D01*
X14670182Y-12667508D02*
X14651134Y-12638936D01*
X14651134Y-12638936D02*
X14641611Y-12629412D01*
D14*
X7982500Y-12965500D02*
X7982500Y-13095500D01*
X7917500Y-13030500D02*
X8047500Y-13030500D01*
D11*
X8413039Y-13121984D02*
X8298753Y-13121984D01*
X8355896Y-13121984D02*
X8355896Y-12921984D01*
X8355896Y-12921984D02*
X8336848Y-12950555D01*
X8336848Y-12950555D02*
X8317801Y-12969603D01*
X8317801Y-12969603D02*
X8298753Y-12979127D01*
X8498753Y-13102936D02*
X8508277Y-13112460D01*
X8508277Y-13112460D02*
X8498753Y-13121984D01*
X8498753Y-13121984D02*
X8489229Y-13112460D01*
X8489229Y-13112460D02*
X8498753Y-13102936D01*
X8498753Y-13102936D02*
X8498753Y-13121984D01*
X8574944Y-12921984D02*
X8698753Y-12921984D01*
X8698753Y-12921984D02*
X8632086Y-12998174D01*
X8632086Y-12998174D02*
X8660658Y-12998174D01*
X8660658Y-12998174D02*
X8679705Y-13007698D01*
X8679705Y-13007698D02*
X8689229Y-13017222D01*
X8689229Y-13017222D02*
X8698753Y-13036269D01*
X8698753Y-13036269D02*
X8698753Y-13083888D01*
X8698753Y-13083888D02*
X8689229Y-13102936D01*
X8689229Y-13102936D02*
X8679705Y-13112460D01*
X8679705Y-13112460D02*
X8660658Y-13121984D01*
X8660658Y-13121984D02*
X8603515Y-13121984D01*
X8603515Y-13121984D02*
X8584467Y-13112460D01*
X8584467Y-13112460D02*
X8574944Y-13102936D01*
X8822563Y-12921984D02*
X8841610Y-12921984D01*
X8841610Y-12921984D02*
X8860658Y-12931508D01*
X8860658Y-12931508D02*
X8870182Y-12941031D01*
X8870182Y-12941031D02*
X8879705Y-12960079D01*
X8879705Y-12960079D02*
X8889229Y-12998174D01*
X8889229Y-12998174D02*
X8889229Y-13045793D01*
X8889229Y-13045793D02*
X8879705Y-13083888D01*
X8879705Y-13083888D02*
X8870182Y-13102936D01*
X8870182Y-13102936D02*
X8860658Y-13112460D01*
X8860658Y-13112460D02*
X8841610Y-13121984D01*
X8841610Y-13121984D02*
X8822563Y-13121984D01*
X8822563Y-13121984D02*
X8803515Y-13112460D01*
X8803515Y-13112460D02*
X8793991Y-13102936D01*
X8793991Y-13102936D02*
X8784467Y-13083888D01*
X8784467Y-13083888D02*
X8774944Y-13045793D01*
X8774944Y-13045793D02*
X8774944Y-12998174D01*
X8774944Y-12998174D02*
X8784467Y-12960079D01*
X8784467Y-12960079D02*
X8793991Y-12941031D01*
X8793991Y-12941031D02*
X8803515Y-12931508D01*
X8803515Y-12931508D02*
X8822563Y-12921984D01*
X9013039Y-12921984D02*
X9032086Y-12921984D01*
X9032086Y-12921984D02*
X9051134Y-12931508D01*
X9051134Y-12931508D02*
X9060658Y-12941031D01*
X9060658Y-12941031D02*
X9070182Y-12960079D01*
X9070182Y-12960079D02*
X9079705Y-12998174D01*
X9079705Y-12998174D02*
X9079705Y-13045793D01*
X9079705Y-13045793D02*
X9070182Y-13083888D01*
X9070182Y-13083888D02*
X9060658Y-13102936D01*
X9060658Y-13102936D02*
X9051134Y-13112460D01*
X9051134Y-13112460D02*
X9032086Y-13121984D01*
X9032086Y-13121984D02*
X9013039Y-13121984D01*
X9013039Y-13121984D02*
X8993991Y-13112460D01*
X8993991Y-13112460D02*
X8984467Y-13102936D01*
X8984467Y-13102936D02*
X8974944Y-13083888D01*
X8974944Y-13083888D02*
X8965420Y-13045793D01*
X8965420Y-13045793D02*
X8965420Y-12998174D01*
X8965420Y-12998174D02*
X8974944Y-12960079D01*
X8974944Y-12960079D02*
X8984467Y-12941031D01*
X8984467Y-12941031D02*
X8993991Y-12931508D01*
X8993991Y-12931508D02*
X9013039Y-12921984D01*
X9165420Y-13121984D02*
X9165420Y-12988650D01*
X9165420Y-13007698D02*
X9174944Y-12998174D01*
X9174944Y-12998174D02*
X9193991Y-12988650D01*
X9193991Y-12988650D02*
X9222563Y-12988650D01*
X9222563Y-12988650D02*
X9241610Y-12998174D01*
X9241610Y-12998174D02*
X9251134Y-13017222D01*
X9251134Y-13017222D02*
X9251134Y-13121984D01*
X9251134Y-13017222D02*
X9260658Y-12998174D01*
X9260658Y-12998174D02*
X9279705Y-12988650D01*
X9279705Y-12988650D02*
X9308277Y-12988650D01*
X9308277Y-12988650D02*
X9327325Y-12998174D01*
X9327325Y-12998174D02*
X9336848Y-13017222D01*
X9336848Y-13017222D02*
X9336848Y-13121984D01*
X9432086Y-13121984D02*
X9432086Y-12988650D01*
X9432086Y-13007698D02*
X9441610Y-12998174D01*
X9441610Y-12998174D02*
X9460658Y-12988650D01*
X9460658Y-12988650D02*
X9489229Y-12988650D01*
X9489229Y-12988650D02*
X9508277Y-12998174D01*
X9508277Y-12998174D02*
X9517801Y-13017222D01*
X9517801Y-13017222D02*
X9517801Y-13121984D01*
X9517801Y-13017222D02*
X9527325Y-12998174D01*
X9527325Y-12998174D02*
X9546372Y-12988650D01*
X9546372Y-12988650D02*
X9574944Y-12988650D01*
X9574944Y-12988650D02*
X9593991Y-12998174D01*
X9593991Y-12998174D02*
X9603515Y-13017222D01*
X9603515Y-13017222D02*
X9603515Y-13121984D01*
X9993991Y-12912460D02*
X9822563Y-13169603D01*
X10251134Y-12921984D02*
X10270182Y-12921984D01*
X10270182Y-12921984D02*
X10289229Y-12931508D01*
X10289229Y-12931508D02*
X10298753Y-12941031D01*
X10298753Y-12941031D02*
X10308277Y-12960079D01*
X10308277Y-12960079D02*
X10317801Y-12998174D01*
X10317801Y-12998174D02*
X10317801Y-13045793D01*
X10317801Y-13045793D02*
X10308277Y-13083888D01*
X10308277Y-13083888D02*
X10298753Y-13102936D01*
X10298753Y-13102936D02*
X10289229Y-13112460D01*
X10289229Y-13112460D02*
X10270182Y-13121984D01*
X10270182Y-13121984D02*
X10251134Y-13121984D01*
X10251134Y-13121984D02*
X10232087Y-13112460D01*
X10232087Y-13112460D02*
X10222563Y-13102936D01*
X10222563Y-13102936D02*
X10213039Y-13083888D01*
X10213039Y-13083888D02*
X10203515Y-13045793D01*
X10203515Y-13045793D02*
X10203515Y-12998174D01*
X10203515Y-12998174D02*
X10213039Y-12960079D01*
X10213039Y-12960079D02*
X10222563Y-12941031D01*
X10222563Y-12941031D02*
X10232087Y-12931508D01*
X10232087Y-12931508D02*
X10251134Y-12921984D01*
X10403515Y-13102936D02*
X10413039Y-13112460D01*
X10413039Y-13112460D02*
X10403515Y-13121984D01*
X10403515Y-13121984D02*
X10393991Y-13112460D01*
X10393991Y-13112460D02*
X10403515Y-13102936D01*
X10403515Y-13102936D02*
X10403515Y-13121984D01*
X10536848Y-12921984D02*
X10555896Y-12921984D01*
X10555896Y-12921984D02*
X10574944Y-12931508D01*
X10574944Y-12931508D02*
X10584468Y-12941031D01*
X10584468Y-12941031D02*
X10593991Y-12960079D01*
X10593991Y-12960079D02*
X10603515Y-12998174D01*
X10603515Y-12998174D02*
X10603515Y-13045793D01*
X10603515Y-13045793D02*
X10593991Y-13083888D01*
X10593991Y-13083888D02*
X10584468Y-13102936D01*
X10584468Y-13102936D02*
X10574944Y-13112460D01*
X10574944Y-13112460D02*
X10555896Y-13121984D01*
X10555896Y-13121984D02*
X10536848Y-13121984D01*
X10536848Y-13121984D02*
X10517801Y-13112460D01*
X10517801Y-13112460D02*
X10508277Y-13102936D01*
X10508277Y-13102936D02*
X10498753Y-13083888D01*
X10498753Y-13083888D02*
X10489229Y-13045793D01*
X10489229Y-13045793D02*
X10489229Y-12998174D01*
X10489229Y-12998174D02*
X10498753Y-12960079D01*
X10498753Y-12960079D02*
X10508277Y-12941031D01*
X10508277Y-12941031D02*
X10517801Y-12931508D01*
X10517801Y-12931508D02*
X10536848Y-12921984D01*
X10784468Y-12921984D02*
X10689229Y-12921984D01*
X10689229Y-12921984D02*
X10679706Y-13017222D01*
X10679706Y-13017222D02*
X10689229Y-13007698D01*
X10689229Y-13007698D02*
X10708277Y-12998174D01*
X10708277Y-12998174D02*
X10755896Y-12998174D01*
X10755896Y-12998174D02*
X10774944Y-13007698D01*
X10774944Y-13007698D02*
X10784468Y-13017222D01*
X10784468Y-13017222D02*
X10793991Y-13036269D01*
X10793991Y-13036269D02*
X10793991Y-13083888D01*
X10793991Y-13083888D02*
X10784468Y-13102936D01*
X10784468Y-13102936D02*
X10774944Y-13112460D01*
X10774944Y-13112460D02*
X10755896Y-13121984D01*
X10755896Y-13121984D02*
X10708277Y-13121984D01*
X10708277Y-13121984D02*
X10689229Y-13112460D01*
X10689229Y-13112460D02*
X10679706Y-13102936D01*
X10984468Y-13121984D02*
X10870182Y-13121984D01*
X10927325Y-13121984D02*
X10927325Y-12921984D01*
X10927325Y-12921984D02*
X10908277Y-12950555D01*
X10908277Y-12950555D02*
X10889229Y-12969603D01*
X10889229Y-12969603D02*
X10870182Y-12979127D01*
X11060658Y-12941031D02*
X11070182Y-12931508D01*
X11070182Y-12931508D02*
X11089229Y-12921984D01*
X11089229Y-12921984D02*
X11136849Y-12921984D01*
X11136849Y-12921984D02*
X11155896Y-12931508D01*
X11155896Y-12931508D02*
X11165420Y-12941031D01*
X11165420Y-12941031D02*
X11174944Y-12960079D01*
X11174944Y-12960079D02*
X11174944Y-12979127D01*
X11174944Y-12979127D02*
X11165420Y-13007698D01*
X11165420Y-13007698D02*
X11051134Y-13121984D01*
X11051134Y-13121984D02*
X11174944Y-13121984D01*
X11251134Y-12921984D02*
X11251134Y-12960079D01*
X11327325Y-12921984D02*
X11327325Y-12960079D01*
X11622563Y-13198174D02*
X11613039Y-13188650D01*
X11613039Y-13188650D02*
X11593991Y-13160079D01*
X11593991Y-13160079D02*
X11584468Y-13141031D01*
X11584468Y-13141031D02*
X11574944Y-13112460D01*
X11574944Y-13112460D02*
X11565420Y-13064841D01*
X11565420Y-13064841D02*
X11565420Y-13026746D01*
X11565420Y-13026746D02*
X11574944Y-12979127D01*
X11574944Y-12979127D02*
X11584468Y-12950555D01*
X11584468Y-12950555D02*
X11593991Y-12931508D01*
X11593991Y-12931508D02*
X11613039Y-12902936D01*
X11613039Y-12902936D02*
X11622563Y-12893412D01*
X11803515Y-13121984D02*
X11689229Y-13121984D01*
X11746372Y-13121984D02*
X11746372Y-12921984D01*
X11746372Y-12921984D02*
X11727325Y-12950555D01*
X11727325Y-12950555D02*
X11708277Y-12969603D01*
X11708277Y-12969603D02*
X11689229Y-12979127D01*
X12041610Y-13121984D02*
X12041610Y-12921984D01*
X12127325Y-13121984D02*
X12127325Y-13017222D01*
X12127325Y-13017222D02*
X12117801Y-12998174D01*
X12117801Y-12998174D02*
X12098753Y-12988650D01*
X12098753Y-12988650D02*
X12070182Y-12988650D01*
X12070182Y-12988650D02*
X12051134Y-12998174D01*
X12051134Y-12998174D02*
X12041610Y-13007698D01*
X12251134Y-13121984D02*
X12232087Y-13112460D01*
X12232087Y-13112460D02*
X12222563Y-13102936D01*
X12222563Y-13102936D02*
X12213039Y-13083888D01*
X12213039Y-13083888D02*
X12213039Y-13026746D01*
X12213039Y-13026746D02*
X12222563Y-13007698D01*
X12222563Y-13007698D02*
X12232087Y-12998174D01*
X12232087Y-12998174D02*
X12251134Y-12988650D01*
X12251134Y-12988650D02*
X12279706Y-12988650D01*
X12279706Y-12988650D02*
X12298753Y-12998174D01*
X12298753Y-12998174D02*
X12308277Y-13007698D01*
X12308277Y-13007698D02*
X12317801Y-13026746D01*
X12317801Y-13026746D02*
X12317801Y-13083888D01*
X12317801Y-13083888D02*
X12308277Y-13102936D01*
X12308277Y-13102936D02*
X12298753Y-13112460D01*
X12298753Y-13112460D02*
X12279706Y-13121984D01*
X12279706Y-13121984D02*
X12251134Y-13121984D01*
X12432087Y-13121984D02*
X12413039Y-13112460D01*
X12413039Y-13112460D02*
X12403515Y-13093412D01*
X12403515Y-13093412D02*
X12403515Y-12921984D01*
X12584468Y-13112460D02*
X12565420Y-13121984D01*
X12565420Y-13121984D02*
X12527325Y-13121984D01*
X12527325Y-13121984D02*
X12508277Y-13112460D01*
X12508277Y-13112460D02*
X12498753Y-13093412D01*
X12498753Y-13093412D02*
X12498753Y-13017222D01*
X12498753Y-13017222D02*
X12508277Y-12998174D01*
X12508277Y-12998174D02*
X12527325Y-12988650D01*
X12527325Y-12988650D02*
X12565420Y-12988650D01*
X12565420Y-12988650D02*
X12584468Y-12998174D01*
X12584468Y-12998174D02*
X12593991Y-13017222D01*
X12593991Y-13017222D02*
X12593991Y-13036269D01*
X12593991Y-13036269D02*
X12498753Y-13055317D01*
X12660658Y-13198174D02*
X12670182Y-13188650D01*
X12670182Y-13188650D02*
X12689230Y-13160079D01*
X12689230Y-13160079D02*
X12698753Y-13141031D01*
X12698753Y-13141031D02*
X12708277Y-13112460D01*
X12708277Y-13112460D02*
X12717801Y-13064841D01*
X12717801Y-13064841D02*
X12717801Y-13026746D01*
X12717801Y-13026746D02*
X12708277Y-12979127D01*
X12708277Y-12979127D02*
X12698753Y-12950555D01*
X12698753Y-12950555D02*
X12689230Y-12931508D01*
X12689230Y-12931508D02*
X12670182Y-12902936D01*
X12670182Y-12902936D02*
X12660658Y-12893412D01*
X13022563Y-13198174D02*
X13013039Y-13188650D01*
X13013039Y-13188650D02*
X12993991Y-13160079D01*
X12993991Y-13160079D02*
X12984468Y-13141031D01*
X12984468Y-13141031D02*
X12974944Y-13112460D01*
X12974944Y-13112460D02*
X12965420Y-13064841D01*
X12965420Y-13064841D02*
X12965420Y-13026746D01*
X12965420Y-13026746D02*
X12974944Y-12979127D01*
X12974944Y-12979127D02*
X12984468Y-12950555D01*
X12984468Y-12950555D02*
X12993991Y-12931508D01*
X12993991Y-12931508D02*
X13013039Y-12902936D01*
X13013039Y-12902936D02*
X13022563Y-12893412D01*
X13098753Y-12988650D02*
X13098753Y-13121984D01*
X13098753Y-13007698D02*
X13108277Y-12998174D01*
X13108277Y-12998174D02*
X13127325Y-12988650D01*
X13127325Y-12988650D02*
X13155896Y-12988650D01*
X13155896Y-12988650D02*
X13174944Y-12998174D01*
X13174944Y-12998174D02*
X13184468Y-13017222D01*
X13184468Y-13017222D02*
X13184468Y-13121984D01*
X13308277Y-13121984D02*
X13289230Y-13112460D01*
X13289230Y-13112460D02*
X13279706Y-13102936D01*
X13279706Y-13102936D02*
X13270182Y-13083888D01*
X13270182Y-13083888D02*
X13270182Y-13026746D01*
X13270182Y-13026746D02*
X13279706Y-13007698D01*
X13279706Y-13007698D02*
X13289230Y-12998174D01*
X13289230Y-12998174D02*
X13308277Y-12988650D01*
X13308277Y-12988650D02*
X13336849Y-12988650D01*
X13336849Y-12988650D02*
X13355896Y-12998174D01*
X13355896Y-12998174D02*
X13365420Y-13007698D01*
X13365420Y-13007698D02*
X13374944Y-13026746D01*
X13374944Y-13026746D02*
X13374944Y-13083888D01*
X13374944Y-13083888D02*
X13365420Y-13102936D01*
X13365420Y-13102936D02*
X13355896Y-13112460D01*
X13355896Y-13112460D02*
X13336849Y-13121984D01*
X13336849Y-13121984D02*
X13308277Y-13121984D01*
X13432087Y-12988650D02*
X13508277Y-12988650D01*
X13460658Y-12921984D02*
X13460658Y-13093412D01*
X13460658Y-13093412D02*
X13470182Y-13112460D01*
X13470182Y-13112460D02*
X13489230Y-13121984D01*
X13489230Y-13121984D02*
X13508277Y-13121984D01*
X13727325Y-12988650D02*
X13727325Y-13188650D01*
X13727325Y-12998174D02*
X13746372Y-12988650D01*
X13746372Y-12988650D02*
X13784468Y-12988650D01*
X13784468Y-12988650D02*
X13803515Y-12998174D01*
X13803515Y-12998174D02*
X13813039Y-13007698D01*
X13813039Y-13007698D02*
X13822563Y-13026746D01*
X13822563Y-13026746D02*
X13822563Y-13083888D01*
X13822563Y-13083888D02*
X13813039Y-13102936D01*
X13813039Y-13102936D02*
X13803515Y-13112460D01*
X13803515Y-13112460D02*
X13784468Y-13121984D01*
X13784468Y-13121984D02*
X13746372Y-13121984D01*
X13746372Y-13121984D02*
X13727325Y-13112460D01*
X13936849Y-13121984D02*
X13917801Y-13112460D01*
X13917801Y-13112460D02*
X13908277Y-13093412D01*
X13908277Y-13093412D02*
X13908277Y-12921984D01*
X14098753Y-13121984D02*
X14098753Y-13017222D01*
X14098753Y-13017222D02*
X14089230Y-12998174D01*
X14089230Y-12998174D02*
X14070182Y-12988650D01*
X14070182Y-12988650D02*
X14032087Y-12988650D01*
X14032087Y-12988650D02*
X14013039Y-12998174D01*
X14098753Y-13112460D02*
X14079706Y-13121984D01*
X14079706Y-13121984D02*
X14032087Y-13121984D01*
X14032087Y-13121984D02*
X14013039Y-13112460D01*
X14013039Y-13112460D02*
X14003515Y-13093412D01*
X14003515Y-13093412D02*
X14003515Y-13074365D01*
X14003515Y-13074365D02*
X14013039Y-13055317D01*
X14013039Y-13055317D02*
X14032087Y-13045793D01*
X14032087Y-13045793D02*
X14079706Y-13045793D01*
X14079706Y-13045793D02*
X14098753Y-13036269D01*
X14165420Y-12988650D02*
X14241611Y-12988650D01*
X14193992Y-12921984D02*
X14193992Y-13093412D01*
X14193992Y-13093412D02*
X14203515Y-13112460D01*
X14203515Y-13112460D02*
X14222563Y-13121984D01*
X14222563Y-13121984D02*
X14241611Y-13121984D01*
X14384468Y-13112460D02*
X14365420Y-13121984D01*
X14365420Y-13121984D02*
X14327325Y-13121984D01*
X14327325Y-13121984D02*
X14308277Y-13112460D01*
X14308277Y-13112460D02*
X14298753Y-13093412D01*
X14298753Y-13093412D02*
X14298753Y-13017222D01*
X14298753Y-13017222D02*
X14308277Y-12998174D01*
X14308277Y-12998174D02*
X14327325Y-12988650D01*
X14327325Y-12988650D02*
X14365420Y-12988650D01*
X14365420Y-12988650D02*
X14384468Y-12998174D01*
X14384468Y-12998174D02*
X14393992Y-13017222D01*
X14393992Y-13017222D02*
X14393992Y-13036269D01*
X14393992Y-13036269D02*
X14298753Y-13055317D01*
X14565420Y-13121984D02*
X14565420Y-12921984D01*
X14565420Y-13112460D02*
X14546373Y-13121984D01*
X14546373Y-13121984D02*
X14508277Y-13121984D01*
X14508277Y-13121984D02*
X14489230Y-13112460D01*
X14489230Y-13112460D02*
X14479706Y-13102936D01*
X14479706Y-13102936D02*
X14470182Y-13083888D01*
X14470182Y-13083888D02*
X14470182Y-13026746D01*
X14470182Y-13026746D02*
X14479706Y-13007698D01*
X14479706Y-13007698D02*
X14489230Y-12998174D01*
X14489230Y-12998174D02*
X14508277Y-12988650D01*
X14508277Y-12988650D02*
X14546373Y-12988650D01*
X14546373Y-12988650D02*
X14565420Y-12998174D01*
X14641611Y-13198174D02*
X14651134Y-13188650D01*
X14651134Y-13188650D02*
X14670182Y-13160079D01*
X14670182Y-13160079D02*
X14679706Y-13141031D01*
X14679706Y-13141031D02*
X14689230Y-13112460D01*
X14689230Y-13112460D02*
X14698753Y-13064841D01*
X14698753Y-13064841D02*
X14698753Y-13026746D01*
X14698753Y-13026746D02*
X14689230Y-12979127D01*
X14689230Y-12979127D02*
X14679706Y-12950555D01*
X14679706Y-12950555D02*
X14670182Y-12931508D01*
X14670182Y-12931508D02*
X14651134Y-12902936D01*
X14651134Y-12902936D02*
X14641611Y-12893412D01*
X8018211Y-13365211D02*
X8018211Y-13223789D01*
X7876789Y-13223789D01*
X7876789Y-13365211D01*
X8018211Y-13365211D01*
X8298753Y-13205031D02*
X8308277Y-13195508D01*
X8308277Y-13195508D02*
X8327324Y-13185984D01*
X8327324Y-13185984D02*
X8374943Y-13185984D01*
X8374943Y-13185984D02*
X8393991Y-13195508D01*
X8393991Y-13195508D02*
X8403515Y-13205031D01*
X8403515Y-13205031D02*
X8413039Y-13224079D01*
X8413039Y-13224079D02*
X8413039Y-13243127D01*
X8413039Y-13243127D02*
X8403515Y-13271698D01*
X8403515Y-13271698D02*
X8289229Y-13385984D01*
X8289229Y-13385984D02*
X8413039Y-13385984D01*
X8498753Y-13366936D02*
X8508277Y-13376460D01*
X8508277Y-13376460D02*
X8498753Y-13385984D01*
X8498753Y-13385984D02*
X8489229Y-13376460D01*
X8489229Y-13376460D02*
X8498753Y-13366936D01*
X8498753Y-13366936D02*
X8498753Y-13385984D01*
X8574944Y-13185984D02*
X8698753Y-13185984D01*
X8698753Y-13185984D02*
X8632086Y-13262174D01*
X8632086Y-13262174D02*
X8660658Y-13262174D01*
X8660658Y-13262174D02*
X8679705Y-13271698D01*
X8679705Y-13271698D02*
X8689229Y-13281222D01*
X8689229Y-13281222D02*
X8698753Y-13300269D01*
X8698753Y-13300269D02*
X8698753Y-13347888D01*
X8698753Y-13347888D02*
X8689229Y-13366936D01*
X8689229Y-13366936D02*
X8679705Y-13376460D01*
X8679705Y-13376460D02*
X8660658Y-13385984D01*
X8660658Y-13385984D02*
X8603515Y-13385984D01*
X8603515Y-13385984D02*
X8584467Y-13376460D01*
X8584467Y-13376460D02*
X8574944Y-13366936D01*
X8879705Y-13185984D02*
X8784467Y-13185984D01*
X8784467Y-13185984D02*
X8774944Y-13281222D01*
X8774944Y-13281222D02*
X8784467Y-13271698D01*
X8784467Y-13271698D02*
X8803515Y-13262174D01*
X8803515Y-13262174D02*
X8851134Y-13262174D01*
X8851134Y-13262174D02*
X8870182Y-13271698D01*
X8870182Y-13271698D02*
X8879705Y-13281222D01*
X8879705Y-13281222D02*
X8889229Y-13300269D01*
X8889229Y-13300269D02*
X8889229Y-13347888D01*
X8889229Y-13347888D02*
X8879705Y-13366936D01*
X8879705Y-13366936D02*
X8870182Y-13376460D01*
X8870182Y-13376460D02*
X8851134Y-13385984D01*
X8851134Y-13385984D02*
X8803515Y-13385984D01*
X8803515Y-13385984D02*
X8784467Y-13376460D01*
X8784467Y-13376460D02*
X8774944Y-13366936D01*
X9013039Y-13185984D02*
X9032086Y-13185984D01*
X9032086Y-13185984D02*
X9051134Y-13195508D01*
X9051134Y-13195508D02*
X9060658Y-13205031D01*
X9060658Y-13205031D02*
X9070182Y-13224079D01*
X9070182Y-13224079D02*
X9079705Y-13262174D01*
X9079705Y-13262174D02*
X9079705Y-13309793D01*
X9079705Y-13309793D02*
X9070182Y-13347888D01*
X9070182Y-13347888D02*
X9060658Y-13366936D01*
X9060658Y-13366936D02*
X9051134Y-13376460D01*
X9051134Y-13376460D02*
X9032086Y-13385984D01*
X9032086Y-13385984D02*
X9013039Y-13385984D01*
X9013039Y-13385984D02*
X8993991Y-13376460D01*
X8993991Y-13376460D02*
X8984467Y-13366936D01*
X8984467Y-13366936D02*
X8974944Y-13347888D01*
X8974944Y-13347888D02*
X8965420Y-13309793D01*
X8965420Y-13309793D02*
X8965420Y-13262174D01*
X8965420Y-13262174D02*
X8974944Y-13224079D01*
X8974944Y-13224079D02*
X8984467Y-13205031D01*
X8984467Y-13205031D02*
X8993991Y-13195508D01*
X8993991Y-13195508D02*
X9013039Y-13185984D01*
X9165420Y-13385984D02*
X9165420Y-13252650D01*
X9165420Y-13271698D02*
X9174944Y-13262174D01*
X9174944Y-13262174D02*
X9193991Y-13252650D01*
X9193991Y-13252650D02*
X9222563Y-13252650D01*
X9222563Y-13252650D02*
X9241610Y-13262174D01*
X9241610Y-13262174D02*
X9251134Y-13281222D01*
X9251134Y-13281222D02*
X9251134Y-13385984D01*
X9251134Y-13281222D02*
X9260658Y-13262174D01*
X9260658Y-13262174D02*
X9279705Y-13252650D01*
X9279705Y-13252650D02*
X9308277Y-13252650D01*
X9308277Y-13252650D02*
X9327325Y-13262174D01*
X9327325Y-13262174D02*
X9336848Y-13281222D01*
X9336848Y-13281222D02*
X9336848Y-13385984D01*
X9432086Y-13385984D02*
X9432086Y-13252650D01*
X9432086Y-13271698D02*
X9441610Y-13262174D01*
X9441610Y-13262174D02*
X9460658Y-13252650D01*
X9460658Y-13252650D02*
X9489229Y-13252650D01*
X9489229Y-13252650D02*
X9508277Y-13262174D01*
X9508277Y-13262174D02*
X9517801Y-13281222D01*
X9517801Y-13281222D02*
X9517801Y-13385984D01*
X9517801Y-13281222D02*
X9527325Y-13262174D01*
X9527325Y-13262174D02*
X9546372Y-13252650D01*
X9546372Y-13252650D02*
X9574944Y-13252650D01*
X9574944Y-13252650D02*
X9593991Y-13262174D01*
X9593991Y-13262174D02*
X9603515Y-13281222D01*
X9603515Y-13281222D02*
X9603515Y-13385984D01*
X9993991Y-13176460D02*
X9822563Y-13433603D01*
X10251134Y-13185984D02*
X10270182Y-13185984D01*
X10270182Y-13185984D02*
X10289229Y-13195508D01*
X10289229Y-13195508D02*
X10298753Y-13205031D01*
X10298753Y-13205031D02*
X10308277Y-13224079D01*
X10308277Y-13224079D02*
X10317801Y-13262174D01*
X10317801Y-13262174D02*
X10317801Y-13309793D01*
X10317801Y-13309793D02*
X10308277Y-13347888D01*
X10308277Y-13347888D02*
X10298753Y-13366936D01*
X10298753Y-13366936D02*
X10289229Y-13376460D01*
X10289229Y-13376460D02*
X10270182Y-13385984D01*
X10270182Y-13385984D02*
X10251134Y-13385984D01*
X10251134Y-13385984D02*
X10232087Y-13376460D01*
X10232087Y-13376460D02*
X10222563Y-13366936D01*
X10222563Y-13366936D02*
X10213039Y-13347888D01*
X10213039Y-13347888D02*
X10203515Y-13309793D01*
X10203515Y-13309793D02*
X10203515Y-13262174D01*
X10203515Y-13262174D02*
X10213039Y-13224079D01*
X10213039Y-13224079D02*
X10222563Y-13205031D01*
X10222563Y-13205031D02*
X10232087Y-13195508D01*
X10232087Y-13195508D02*
X10251134Y-13185984D01*
X10403515Y-13366936D02*
X10413039Y-13376460D01*
X10413039Y-13376460D02*
X10403515Y-13385984D01*
X10403515Y-13385984D02*
X10393991Y-13376460D01*
X10393991Y-13376460D02*
X10403515Y-13366936D01*
X10403515Y-13366936D02*
X10403515Y-13385984D01*
X10536848Y-13185984D02*
X10555896Y-13185984D01*
X10555896Y-13185984D02*
X10574944Y-13195508D01*
X10574944Y-13195508D02*
X10584468Y-13205031D01*
X10584468Y-13205031D02*
X10593991Y-13224079D01*
X10593991Y-13224079D02*
X10603515Y-13262174D01*
X10603515Y-13262174D02*
X10603515Y-13309793D01*
X10603515Y-13309793D02*
X10593991Y-13347888D01*
X10593991Y-13347888D02*
X10584468Y-13366936D01*
X10584468Y-13366936D02*
X10574944Y-13376460D01*
X10574944Y-13376460D02*
X10555896Y-13385984D01*
X10555896Y-13385984D02*
X10536848Y-13385984D01*
X10536848Y-13385984D02*
X10517801Y-13376460D01*
X10517801Y-13376460D02*
X10508277Y-13366936D01*
X10508277Y-13366936D02*
X10498753Y-13347888D01*
X10498753Y-13347888D02*
X10489229Y-13309793D01*
X10489229Y-13309793D02*
X10489229Y-13262174D01*
X10489229Y-13262174D02*
X10498753Y-13224079D01*
X10498753Y-13224079D02*
X10508277Y-13205031D01*
X10508277Y-13205031D02*
X10517801Y-13195508D01*
X10517801Y-13195508D02*
X10536848Y-13185984D01*
X10698753Y-13385984D02*
X10736848Y-13385984D01*
X10736848Y-13385984D02*
X10755896Y-13376460D01*
X10755896Y-13376460D02*
X10765420Y-13366936D01*
X10765420Y-13366936D02*
X10784468Y-13338365D01*
X10784468Y-13338365D02*
X10793991Y-13300269D01*
X10793991Y-13300269D02*
X10793991Y-13224079D01*
X10793991Y-13224079D02*
X10784468Y-13205031D01*
X10784468Y-13205031D02*
X10774944Y-13195508D01*
X10774944Y-13195508D02*
X10755896Y-13185984D01*
X10755896Y-13185984D02*
X10717801Y-13185984D01*
X10717801Y-13185984D02*
X10698753Y-13195508D01*
X10698753Y-13195508D02*
X10689229Y-13205031D01*
X10689229Y-13205031D02*
X10679706Y-13224079D01*
X10679706Y-13224079D02*
X10679706Y-13271698D01*
X10679706Y-13271698D02*
X10689229Y-13290746D01*
X10689229Y-13290746D02*
X10698753Y-13300269D01*
X10698753Y-13300269D02*
X10717801Y-13309793D01*
X10717801Y-13309793D02*
X10755896Y-13309793D01*
X10755896Y-13309793D02*
X10774944Y-13300269D01*
X10774944Y-13300269D02*
X10784468Y-13290746D01*
X10784468Y-13290746D02*
X10793991Y-13271698D01*
X10870182Y-13205031D02*
X10879706Y-13195508D01*
X10879706Y-13195508D02*
X10898753Y-13185984D01*
X10898753Y-13185984D02*
X10946372Y-13185984D01*
X10946372Y-13185984D02*
X10965420Y-13195508D01*
X10965420Y-13195508D02*
X10974944Y-13205031D01*
X10974944Y-13205031D02*
X10984468Y-13224079D01*
X10984468Y-13224079D02*
X10984468Y-13243127D01*
X10984468Y-13243127D02*
X10974944Y-13271698D01*
X10974944Y-13271698D02*
X10860658Y-13385984D01*
X10860658Y-13385984D02*
X10984468Y-13385984D01*
X11165420Y-13185984D02*
X11070182Y-13185984D01*
X11070182Y-13185984D02*
X11060658Y-13281222D01*
X11060658Y-13281222D02*
X11070182Y-13271698D01*
X11070182Y-13271698D02*
X11089229Y-13262174D01*
X11089229Y-13262174D02*
X11136849Y-13262174D01*
X11136849Y-13262174D02*
X11155896Y-13271698D01*
X11155896Y-13271698D02*
X11165420Y-13281222D01*
X11165420Y-13281222D02*
X11174944Y-13300269D01*
X11174944Y-13300269D02*
X11174944Y-13347888D01*
X11174944Y-13347888D02*
X11165420Y-13366936D01*
X11165420Y-13366936D02*
X11155896Y-13376460D01*
X11155896Y-13376460D02*
X11136849Y-13385984D01*
X11136849Y-13385984D02*
X11089229Y-13385984D01*
X11089229Y-13385984D02*
X11070182Y-13376460D01*
X11070182Y-13376460D02*
X11060658Y-13366936D01*
X11251134Y-13185984D02*
X11251134Y-13224079D01*
X11327325Y-13185984D02*
X11327325Y-13224079D01*
X11622563Y-13462174D02*
X11613039Y-13452650D01*
X11613039Y-13452650D02*
X11593991Y-13424079D01*
X11593991Y-13424079D02*
X11584468Y-13405031D01*
X11584468Y-13405031D02*
X11574944Y-13376460D01*
X11574944Y-13376460D02*
X11565420Y-13328841D01*
X11565420Y-13328841D02*
X11565420Y-13290746D01*
X11565420Y-13290746D02*
X11574944Y-13243127D01*
X11574944Y-13243127D02*
X11584468Y-13214555D01*
X11584468Y-13214555D02*
X11593991Y-13195508D01*
X11593991Y-13195508D02*
X11613039Y-13166936D01*
X11613039Y-13166936D02*
X11622563Y-13157412D01*
X11689229Y-13205031D02*
X11698753Y-13195508D01*
X11698753Y-13195508D02*
X11717801Y-13185984D01*
X11717801Y-13185984D02*
X11765420Y-13185984D01*
X11765420Y-13185984D02*
X11784468Y-13195508D01*
X11784468Y-13195508D02*
X11793991Y-13205031D01*
X11793991Y-13205031D02*
X11803515Y-13224079D01*
X11803515Y-13224079D02*
X11803515Y-13243127D01*
X11803515Y-13243127D02*
X11793991Y-13271698D01*
X11793991Y-13271698D02*
X11679706Y-13385984D01*
X11679706Y-13385984D02*
X11803515Y-13385984D01*
X12041610Y-13385984D02*
X12041610Y-13185984D01*
X12127325Y-13385984D02*
X12127325Y-13281222D01*
X12127325Y-13281222D02*
X12117801Y-13262174D01*
X12117801Y-13262174D02*
X12098753Y-13252650D01*
X12098753Y-13252650D02*
X12070182Y-13252650D01*
X12070182Y-13252650D02*
X12051134Y-13262174D01*
X12051134Y-13262174D02*
X12041610Y-13271698D01*
X12251134Y-13385984D02*
X12232087Y-13376460D01*
X12232087Y-13376460D02*
X12222563Y-13366936D01*
X12222563Y-13366936D02*
X12213039Y-13347888D01*
X12213039Y-13347888D02*
X12213039Y-13290746D01*
X12213039Y-13290746D02*
X12222563Y-13271698D01*
X12222563Y-13271698D02*
X12232087Y-13262174D01*
X12232087Y-13262174D02*
X12251134Y-13252650D01*
X12251134Y-13252650D02*
X12279706Y-13252650D01*
X12279706Y-13252650D02*
X12298753Y-13262174D01*
X12298753Y-13262174D02*
X12308277Y-13271698D01*
X12308277Y-13271698D02*
X12317801Y-13290746D01*
X12317801Y-13290746D02*
X12317801Y-13347888D01*
X12317801Y-13347888D02*
X12308277Y-13366936D01*
X12308277Y-13366936D02*
X12298753Y-13376460D01*
X12298753Y-13376460D02*
X12279706Y-13385984D01*
X12279706Y-13385984D02*
X12251134Y-13385984D01*
X12432087Y-13385984D02*
X12413039Y-13376460D01*
X12413039Y-13376460D02*
X12403515Y-13357412D01*
X12403515Y-13357412D02*
X12403515Y-13185984D01*
X12584468Y-13376460D02*
X12565420Y-13385984D01*
X12565420Y-13385984D02*
X12527325Y-13385984D01*
X12527325Y-13385984D02*
X12508277Y-13376460D01*
X12508277Y-13376460D02*
X12498753Y-13357412D01*
X12498753Y-13357412D02*
X12498753Y-13281222D01*
X12498753Y-13281222D02*
X12508277Y-13262174D01*
X12508277Y-13262174D02*
X12527325Y-13252650D01*
X12527325Y-13252650D02*
X12565420Y-13252650D01*
X12565420Y-13252650D02*
X12584468Y-13262174D01*
X12584468Y-13262174D02*
X12593991Y-13281222D01*
X12593991Y-13281222D02*
X12593991Y-13300269D01*
X12593991Y-13300269D02*
X12498753Y-13319317D01*
X12670182Y-13376460D02*
X12689230Y-13385984D01*
X12689230Y-13385984D02*
X12727325Y-13385984D01*
X12727325Y-13385984D02*
X12746372Y-13376460D01*
X12746372Y-13376460D02*
X12755896Y-13357412D01*
X12755896Y-13357412D02*
X12755896Y-13347888D01*
X12755896Y-13347888D02*
X12746372Y-13328841D01*
X12746372Y-13328841D02*
X12727325Y-13319317D01*
X12727325Y-13319317D02*
X12698753Y-13319317D01*
X12698753Y-13319317D02*
X12679706Y-13309793D01*
X12679706Y-13309793D02*
X12670182Y-13290746D01*
X12670182Y-13290746D02*
X12670182Y-13281222D01*
X12670182Y-13281222D02*
X12679706Y-13262174D01*
X12679706Y-13262174D02*
X12698753Y-13252650D01*
X12698753Y-13252650D02*
X12727325Y-13252650D01*
X12727325Y-13252650D02*
X12746372Y-13262174D01*
X12822563Y-13462174D02*
X12832087Y-13452650D01*
X12832087Y-13452650D02*
X12851134Y-13424079D01*
X12851134Y-13424079D02*
X12860658Y-13405031D01*
X12860658Y-13405031D02*
X12870182Y-13376460D01*
X12870182Y-13376460D02*
X12879706Y-13328841D01*
X12879706Y-13328841D02*
X12879706Y-13290746D01*
X12879706Y-13290746D02*
X12870182Y-13243127D01*
X12870182Y-13243127D02*
X12860658Y-13214555D01*
X12860658Y-13214555D02*
X12851134Y-13195508D01*
X12851134Y-13195508D02*
X12832087Y-13166936D01*
X12832087Y-13166936D02*
X12822563Y-13157412D01*
X13184468Y-13462174D02*
X13174944Y-13452650D01*
X13174944Y-13452650D02*
X13155896Y-13424079D01*
X13155896Y-13424079D02*
X13146372Y-13405031D01*
X13146372Y-13405031D02*
X13136849Y-13376460D01*
X13136849Y-13376460D02*
X13127325Y-13328841D01*
X13127325Y-13328841D02*
X13127325Y-13290746D01*
X13127325Y-13290746D02*
X13136849Y-13243127D01*
X13136849Y-13243127D02*
X13146372Y-13214555D01*
X13146372Y-13214555D02*
X13155896Y-13195508D01*
X13155896Y-13195508D02*
X13174944Y-13166936D01*
X13174944Y-13166936D02*
X13184468Y-13157412D01*
X13260658Y-13252650D02*
X13260658Y-13385984D01*
X13260658Y-13271698D02*
X13270182Y-13262174D01*
X13270182Y-13262174D02*
X13289230Y-13252650D01*
X13289230Y-13252650D02*
X13317801Y-13252650D01*
X13317801Y-13252650D02*
X13336849Y-13262174D01*
X13336849Y-13262174D02*
X13346372Y-13281222D01*
X13346372Y-13281222D02*
X13346372Y-13385984D01*
X13470182Y-13385984D02*
X13451134Y-13376460D01*
X13451134Y-13376460D02*
X13441611Y-13366936D01*
X13441611Y-13366936D02*
X13432087Y-13347888D01*
X13432087Y-13347888D02*
X13432087Y-13290746D01*
X13432087Y-13290746D02*
X13441611Y-13271698D01*
X13441611Y-13271698D02*
X13451134Y-13262174D01*
X13451134Y-13262174D02*
X13470182Y-13252650D01*
X13470182Y-13252650D02*
X13498753Y-13252650D01*
X13498753Y-13252650D02*
X13517801Y-13262174D01*
X13517801Y-13262174D02*
X13527325Y-13271698D01*
X13527325Y-13271698D02*
X13536849Y-13290746D01*
X13536849Y-13290746D02*
X13536849Y-13347888D01*
X13536849Y-13347888D02*
X13527325Y-13366936D01*
X13527325Y-13366936D02*
X13517801Y-13376460D01*
X13517801Y-13376460D02*
X13498753Y-13385984D01*
X13498753Y-13385984D02*
X13470182Y-13385984D01*
X13593992Y-13252650D02*
X13670182Y-13252650D01*
X13622563Y-13185984D02*
X13622563Y-13357412D01*
X13622563Y-13357412D02*
X13632087Y-13376460D01*
X13632087Y-13376460D02*
X13651134Y-13385984D01*
X13651134Y-13385984D02*
X13670182Y-13385984D01*
X13889230Y-13252650D02*
X13889230Y-13452650D01*
X13889230Y-13262174D02*
X13908277Y-13252650D01*
X13908277Y-13252650D02*
X13946373Y-13252650D01*
X13946373Y-13252650D02*
X13965420Y-13262174D01*
X13965420Y-13262174D02*
X13974944Y-13271698D01*
X13974944Y-13271698D02*
X13984468Y-13290746D01*
X13984468Y-13290746D02*
X13984468Y-13347888D01*
X13984468Y-13347888D02*
X13974944Y-13366936D01*
X13974944Y-13366936D02*
X13965420Y-13376460D01*
X13965420Y-13376460D02*
X13946373Y-13385984D01*
X13946373Y-13385984D02*
X13908277Y-13385984D01*
X13908277Y-13385984D02*
X13889230Y-13376460D01*
X14098753Y-13385984D02*
X14079706Y-13376460D01*
X14079706Y-13376460D02*
X14070182Y-13357412D01*
X14070182Y-13357412D02*
X14070182Y-13185984D01*
X14260658Y-13385984D02*
X14260658Y-13281222D01*
X14260658Y-13281222D02*
X14251134Y-13262174D01*
X14251134Y-13262174D02*
X14232087Y-13252650D01*
X14232087Y-13252650D02*
X14193992Y-13252650D01*
X14193992Y-13252650D02*
X14174944Y-13262174D01*
X14260658Y-13376460D02*
X14241611Y-13385984D01*
X14241611Y-13385984D02*
X14193992Y-13385984D01*
X14193992Y-13385984D02*
X14174944Y-13376460D01*
X14174944Y-13376460D02*
X14165420Y-13357412D01*
X14165420Y-13357412D02*
X14165420Y-13338365D01*
X14165420Y-13338365D02*
X14174944Y-13319317D01*
X14174944Y-13319317D02*
X14193992Y-13309793D01*
X14193992Y-13309793D02*
X14241611Y-13309793D01*
X14241611Y-13309793D02*
X14260658Y-13300269D01*
X14327325Y-13252650D02*
X14403515Y-13252650D01*
X14355896Y-13185984D02*
X14355896Y-13357412D01*
X14355896Y-13357412D02*
X14365420Y-13376460D01*
X14365420Y-13376460D02*
X14384468Y-13385984D01*
X14384468Y-13385984D02*
X14403515Y-13385984D01*
X14546373Y-13376460D02*
X14527325Y-13385984D01*
X14527325Y-13385984D02*
X14489230Y-13385984D01*
X14489230Y-13385984D02*
X14470182Y-13376460D01*
X14470182Y-13376460D02*
X14460658Y-13357412D01*
X14460658Y-13357412D02*
X14460658Y-13281222D01*
X14460658Y-13281222D02*
X14470182Y-13262174D01*
X14470182Y-13262174D02*
X14489230Y-13252650D01*
X14489230Y-13252650D02*
X14527325Y-13252650D01*
X14527325Y-13252650D02*
X14546373Y-13262174D01*
X14546373Y-13262174D02*
X14555896Y-13281222D01*
X14555896Y-13281222D02*
X14555896Y-13300269D01*
X14555896Y-13300269D02*
X14460658Y-13319317D01*
X14727325Y-13385984D02*
X14727325Y-13185984D01*
X14727325Y-13376460D02*
X14708277Y-13385984D01*
X14708277Y-13385984D02*
X14670182Y-13385984D01*
X14670182Y-13385984D02*
X14651134Y-13376460D01*
X14651134Y-13376460D02*
X14641611Y-13366936D01*
X14641611Y-13366936D02*
X14632087Y-13347888D01*
X14632087Y-13347888D02*
X14632087Y-13290746D01*
X14632087Y-13290746D02*
X14641611Y-13271698D01*
X14641611Y-13271698D02*
X14651134Y-13262174D01*
X14651134Y-13262174D02*
X14670182Y-13252650D01*
X14670182Y-13252650D02*
X14708277Y-13252650D01*
X14708277Y-13252650D02*
X14727325Y-13262174D01*
X14803515Y-13462174D02*
X14813039Y-13452650D01*
X14813039Y-13452650D02*
X14832087Y-13424079D01*
X14832087Y-13424079D02*
X14841611Y-13405031D01*
X14841611Y-13405031D02*
X14851134Y-13376460D01*
X14851134Y-13376460D02*
X14860658Y-13328841D01*
X14860658Y-13328841D02*
X14860658Y-13290746D01*
X14860658Y-13290746D02*
X14851134Y-13243127D01*
X14851134Y-13243127D02*
X14841611Y-13214555D01*
X14841611Y-13214555D02*
X14832087Y-13195508D01*
X14832087Y-13195508D02*
X14813039Y-13166936D01*
X14813039Y-13166936D02*
X14803515Y-13157412D01*
X7947500Y-13714500D02*
X8047500Y-13614500D01*
X7947500Y-13514500D01*
X7847500Y-13614500D01*
X7947500Y-13714500D01*
X8298753Y-13525031D02*
X8308277Y-13515508D01*
X8308277Y-13515508D02*
X8327324Y-13505984D01*
X8327324Y-13505984D02*
X8374943Y-13505984D01*
X8374943Y-13505984D02*
X8393991Y-13515508D01*
X8393991Y-13515508D02*
X8403515Y-13525031D01*
X8403515Y-13525031D02*
X8413039Y-13544079D01*
X8413039Y-13544079D02*
X8413039Y-13563127D01*
X8413039Y-13563127D02*
X8403515Y-13591698D01*
X8403515Y-13591698D02*
X8289229Y-13705984D01*
X8289229Y-13705984D02*
X8413039Y-13705984D01*
X8498753Y-13686936D02*
X8508277Y-13696460D01*
X8508277Y-13696460D02*
X8498753Y-13705984D01*
X8498753Y-13705984D02*
X8489229Y-13696460D01*
X8489229Y-13696460D02*
X8498753Y-13686936D01*
X8498753Y-13686936D02*
X8498753Y-13705984D01*
X8622563Y-13591698D02*
X8603515Y-13582174D01*
X8603515Y-13582174D02*
X8593991Y-13572650D01*
X8593991Y-13572650D02*
X8584467Y-13553603D01*
X8584467Y-13553603D02*
X8584467Y-13544079D01*
X8584467Y-13544079D02*
X8593991Y-13525031D01*
X8593991Y-13525031D02*
X8603515Y-13515508D01*
X8603515Y-13515508D02*
X8622563Y-13505984D01*
X8622563Y-13505984D02*
X8660658Y-13505984D01*
X8660658Y-13505984D02*
X8679705Y-13515508D01*
X8679705Y-13515508D02*
X8689229Y-13525031D01*
X8689229Y-13525031D02*
X8698753Y-13544079D01*
X8698753Y-13544079D02*
X8698753Y-13553603D01*
X8698753Y-13553603D02*
X8689229Y-13572650D01*
X8689229Y-13572650D02*
X8679705Y-13582174D01*
X8679705Y-13582174D02*
X8660658Y-13591698D01*
X8660658Y-13591698D02*
X8622563Y-13591698D01*
X8622563Y-13591698D02*
X8603515Y-13601222D01*
X8603515Y-13601222D02*
X8593991Y-13610746D01*
X8593991Y-13610746D02*
X8584467Y-13629793D01*
X8584467Y-13629793D02*
X8584467Y-13667888D01*
X8584467Y-13667888D02*
X8593991Y-13686936D01*
X8593991Y-13686936D02*
X8603515Y-13696460D01*
X8603515Y-13696460D02*
X8622563Y-13705984D01*
X8622563Y-13705984D02*
X8660658Y-13705984D01*
X8660658Y-13705984D02*
X8679705Y-13696460D01*
X8679705Y-13696460D02*
X8689229Y-13686936D01*
X8689229Y-13686936D02*
X8698753Y-13667888D01*
X8698753Y-13667888D02*
X8698753Y-13629793D01*
X8698753Y-13629793D02*
X8689229Y-13610746D01*
X8689229Y-13610746D02*
X8679705Y-13601222D01*
X8679705Y-13601222D02*
X8660658Y-13591698D01*
X8879705Y-13505984D02*
X8784467Y-13505984D01*
X8784467Y-13505984D02*
X8774944Y-13601222D01*
X8774944Y-13601222D02*
X8784467Y-13591698D01*
X8784467Y-13591698D02*
X8803515Y-13582174D01*
X8803515Y-13582174D02*
X8851134Y-13582174D01*
X8851134Y-13582174D02*
X8870182Y-13591698D01*
X8870182Y-13591698D02*
X8879705Y-13601222D01*
X8879705Y-13601222D02*
X8889229Y-13620269D01*
X8889229Y-13620269D02*
X8889229Y-13667888D01*
X8889229Y-13667888D02*
X8879705Y-13686936D01*
X8879705Y-13686936D02*
X8870182Y-13696460D01*
X8870182Y-13696460D02*
X8851134Y-13705984D01*
X8851134Y-13705984D02*
X8803515Y-13705984D01*
X8803515Y-13705984D02*
X8784467Y-13696460D01*
X8784467Y-13696460D02*
X8774944Y-13686936D01*
X9013039Y-13505984D02*
X9032086Y-13505984D01*
X9032086Y-13505984D02*
X9051134Y-13515508D01*
X9051134Y-13515508D02*
X9060658Y-13525031D01*
X9060658Y-13525031D02*
X9070182Y-13544079D01*
X9070182Y-13544079D02*
X9079705Y-13582174D01*
X9079705Y-13582174D02*
X9079705Y-13629793D01*
X9079705Y-13629793D02*
X9070182Y-13667888D01*
X9070182Y-13667888D02*
X9060658Y-13686936D01*
X9060658Y-13686936D02*
X9051134Y-13696460D01*
X9051134Y-13696460D02*
X9032086Y-13705984D01*
X9032086Y-13705984D02*
X9013039Y-13705984D01*
X9013039Y-13705984D02*
X8993991Y-13696460D01*
X8993991Y-13696460D02*
X8984467Y-13686936D01*
X8984467Y-13686936D02*
X8974944Y-13667888D01*
X8974944Y-13667888D02*
X8965420Y-13629793D01*
X8965420Y-13629793D02*
X8965420Y-13582174D01*
X8965420Y-13582174D02*
X8974944Y-13544079D01*
X8974944Y-13544079D02*
X8984467Y-13525031D01*
X8984467Y-13525031D02*
X8993991Y-13515508D01*
X8993991Y-13515508D02*
X9013039Y-13505984D01*
X9165420Y-13705984D02*
X9165420Y-13572650D01*
X9165420Y-13591698D02*
X9174944Y-13582174D01*
X9174944Y-13582174D02*
X9193991Y-13572650D01*
X9193991Y-13572650D02*
X9222563Y-13572650D01*
X9222563Y-13572650D02*
X9241610Y-13582174D01*
X9241610Y-13582174D02*
X9251134Y-13601222D01*
X9251134Y-13601222D02*
X9251134Y-13705984D01*
X9251134Y-13601222D02*
X9260658Y-13582174D01*
X9260658Y-13582174D02*
X9279705Y-13572650D01*
X9279705Y-13572650D02*
X9308277Y-13572650D01*
X9308277Y-13572650D02*
X9327325Y-13582174D01*
X9327325Y-13582174D02*
X9336848Y-13601222D01*
X9336848Y-13601222D02*
X9336848Y-13705984D01*
X9432086Y-13705984D02*
X9432086Y-13572650D01*
X9432086Y-13591698D02*
X9441610Y-13582174D01*
X9441610Y-13582174D02*
X9460658Y-13572650D01*
X9460658Y-13572650D02*
X9489229Y-13572650D01*
X9489229Y-13572650D02*
X9508277Y-13582174D01*
X9508277Y-13582174D02*
X9517801Y-13601222D01*
X9517801Y-13601222D02*
X9517801Y-13705984D01*
X9517801Y-13601222D02*
X9527325Y-13582174D01*
X9527325Y-13582174D02*
X9546372Y-13572650D01*
X9546372Y-13572650D02*
X9574944Y-13572650D01*
X9574944Y-13572650D02*
X9593991Y-13582174D01*
X9593991Y-13582174D02*
X9603515Y-13601222D01*
X9603515Y-13601222D02*
X9603515Y-13705984D01*
X9993991Y-13496460D02*
X9822563Y-13753603D01*
X10251134Y-13505984D02*
X10270182Y-13505984D01*
X10270182Y-13505984D02*
X10289229Y-13515508D01*
X10289229Y-13515508D02*
X10298753Y-13525031D01*
X10298753Y-13525031D02*
X10308277Y-13544079D01*
X10308277Y-13544079D02*
X10317801Y-13582174D01*
X10317801Y-13582174D02*
X10317801Y-13629793D01*
X10317801Y-13629793D02*
X10308277Y-13667888D01*
X10308277Y-13667888D02*
X10298753Y-13686936D01*
X10298753Y-13686936D02*
X10289229Y-13696460D01*
X10289229Y-13696460D02*
X10270182Y-13705984D01*
X10270182Y-13705984D02*
X10251134Y-13705984D01*
X10251134Y-13705984D02*
X10232087Y-13696460D01*
X10232087Y-13696460D02*
X10222563Y-13686936D01*
X10222563Y-13686936D02*
X10213039Y-13667888D01*
X10213039Y-13667888D02*
X10203515Y-13629793D01*
X10203515Y-13629793D02*
X10203515Y-13582174D01*
X10203515Y-13582174D02*
X10213039Y-13544079D01*
X10213039Y-13544079D02*
X10222563Y-13525031D01*
X10222563Y-13525031D02*
X10232087Y-13515508D01*
X10232087Y-13515508D02*
X10251134Y-13505984D01*
X10403515Y-13686936D02*
X10413039Y-13696460D01*
X10413039Y-13696460D02*
X10403515Y-13705984D01*
X10403515Y-13705984D02*
X10393991Y-13696460D01*
X10393991Y-13696460D02*
X10403515Y-13686936D01*
X10403515Y-13686936D02*
X10403515Y-13705984D01*
X10603515Y-13705984D02*
X10489229Y-13705984D01*
X10546372Y-13705984D02*
X10546372Y-13505984D01*
X10546372Y-13505984D02*
X10527325Y-13534555D01*
X10527325Y-13534555D02*
X10508277Y-13553603D01*
X10508277Y-13553603D02*
X10489229Y-13563127D01*
X10793991Y-13705984D02*
X10679706Y-13705984D01*
X10736848Y-13705984D02*
X10736848Y-13505984D01*
X10736848Y-13505984D02*
X10717801Y-13534555D01*
X10717801Y-13534555D02*
X10698753Y-13553603D01*
X10698753Y-13553603D02*
X10679706Y-13563127D01*
X10870182Y-13525031D02*
X10879706Y-13515508D01*
X10879706Y-13515508D02*
X10898753Y-13505984D01*
X10898753Y-13505984D02*
X10946372Y-13505984D01*
X10946372Y-13505984D02*
X10965420Y-13515508D01*
X10965420Y-13515508D02*
X10974944Y-13525031D01*
X10974944Y-13525031D02*
X10984468Y-13544079D01*
X10984468Y-13544079D02*
X10984468Y-13563127D01*
X10984468Y-13563127D02*
X10974944Y-13591698D01*
X10974944Y-13591698D02*
X10860658Y-13705984D01*
X10860658Y-13705984D02*
X10984468Y-13705984D01*
X11060658Y-13525031D02*
X11070182Y-13515508D01*
X11070182Y-13515508D02*
X11089229Y-13505984D01*
X11089229Y-13505984D02*
X11136849Y-13505984D01*
X11136849Y-13505984D02*
X11155896Y-13515508D01*
X11155896Y-13515508D02*
X11165420Y-13525031D01*
X11165420Y-13525031D02*
X11174944Y-13544079D01*
X11174944Y-13544079D02*
X11174944Y-13563127D01*
X11174944Y-13563127D02*
X11165420Y-13591698D01*
X11165420Y-13591698D02*
X11051134Y-13705984D01*
X11051134Y-13705984D02*
X11174944Y-13705984D01*
X11251134Y-13505984D02*
X11251134Y-13544079D01*
X11327325Y-13505984D02*
X11327325Y-13544079D01*
X11622563Y-13782174D02*
X11613039Y-13772650D01*
X11613039Y-13772650D02*
X11593991Y-13744079D01*
X11593991Y-13744079D02*
X11584468Y-13725031D01*
X11584468Y-13725031D02*
X11574944Y-13696460D01*
X11574944Y-13696460D02*
X11565420Y-13648841D01*
X11565420Y-13648841D02*
X11565420Y-13610746D01*
X11565420Y-13610746D02*
X11574944Y-13563127D01*
X11574944Y-13563127D02*
X11584468Y-13534555D01*
X11584468Y-13534555D02*
X11593991Y-13515508D01*
X11593991Y-13515508D02*
X11613039Y-13486936D01*
X11613039Y-13486936D02*
X11622563Y-13477412D01*
X11689229Y-13525031D02*
X11698753Y-13515508D01*
X11698753Y-13515508D02*
X11717801Y-13505984D01*
X11717801Y-13505984D02*
X11765420Y-13505984D01*
X11765420Y-13505984D02*
X11784468Y-13515508D01*
X11784468Y-13515508D02*
X11793991Y-13525031D01*
X11793991Y-13525031D02*
X11803515Y-13544079D01*
X11803515Y-13544079D02*
X11803515Y-13563127D01*
X11803515Y-13563127D02*
X11793991Y-13591698D01*
X11793991Y-13591698D02*
X11679706Y-13705984D01*
X11679706Y-13705984D02*
X11803515Y-13705984D01*
X12041610Y-13705984D02*
X12041610Y-13505984D01*
X12127325Y-13705984D02*
X12127325Y-13601222D01*
X12127325Y-13601222D02*
X12117801Y-13582174D01*
X12117801Y-13582174D02*
X12098753Y-13572650D01*
X12098753Y-13572650D02*
X12070182Y-13572650D01*
X12070182Y-13572650D02*
X12051134Y-13582174D01*
X12051134Y-13582174D02*
X12041610Y-13591698D01*
X12251134Y-13705984D02*
X12232087Y-13696460D01*
X12232087Y-13696460D02*
X12222563Y-13686936D01*
X12222563Y-13686936D02*
X12213039Y-13667888D01*
X12213039Y-13667888D02*
X12213039Y-13610746D01*
X12213039Y-13610746D02*
X12222563Y-13591698D01*
X12222563Y-13591698D02*
X12232087Y-13582174D01*
X12232087Y-13582174D02*
X12251134Y-13572650D01*
X12251134Y-13572650D02*
X12279706Y-13572650D01*
X12279706Y-13572650D02*
X12298753Y-13582174D01*
X12298753Y-13582174D02*
X12308277Y-13591698D01*
X12308277Y-13591698D02*
X12317801Y-13610746D01*
X12317801Y-13610746D02*
X12317801Y-13667888D01*
X12317801Y-13667888D02*
X12308277Y-13686936D01*
X12308277Y-13686936D02*
X12298753Y-13696460D01*
X12298753Y-13696460D02*
X12279706Y-13705984D01*
X12279706Y-13705984D02*
X12251134Y-13705984D01*
X12432087Y-13705984D02*
X12413039Y-13696460D01*
X12413039Y-13696460D02*
X12403515Y-13677412D01*
X12403515Y-13677412D02*
X12403515Y-13505984D01*
X12584468Y-13696460D02*
X12565420Y-13705984D01*
X12565420Y-13705984D02*
X12527325Y-13705984D01*
X12527325Y-13705984D02*
X12508277Y-13696460D01*
X12508277Y-13696460D02*
X12498753Y-13677412D01*
X12498753Y-13677412D02*
X12498753Y-13601222D01*
X12498753Y-13601222D02*
X12508277Y-13582174D01*
X12508277Y-13582174D02*
X12527325Y-13572650D01*
X12527325Y-13572650D02*
X12565420Y-13572650D01*
X12565420Y-13572650D02*
X12584468Y-13582174D01*
X12584468Y-13582174D02*
X12593991Y-13601222D01*
X12593991Y-13601222D02*
X12593991Y-13620269D01*
X12593991Y-13620269D02*
X12498753Y-13639317D01*
X12670182Y-13696460D02*
X12689230Y-13705984D01*
X12689230Y-13705984D02*
X12727325Y-13705984D01*
X12727325Y-13705984D02*
X12746372Y-13696460D01*
X12746372Y-13696460D02*
X12755896Y-13677412D01*
X12755896Y-13677412D02*
X12755896Y-13667888D01*
X12755896Y-13667888D02*
X12746372Y-13648841D01*
X12746372Y-13648841D02*
X12727325Y-13639317D01*
X12727325Y-13639317D02*
X12698753Y-13639317D01*
X12698753Y-13639317D02*
X12679706Y-13629793D01*
X12679706Y-13629793D02*
X12670182Y-13610746D01*
X12670182Y-13610746D02*
X12670182Y-13601222D01*
X12670182Y-13601222D02*
X12679706Y-13582174D01*
X12679706Y-13582174D02*
X12698753Y-13572650D01*
X12698753Y-13572650D02*
X12727325Y-13572650D01*
X12727325Y-13572650D02*
X12746372Y-13582174D01*
X12822563Y-13782174D02*
X12832087Y-13772650D01*
X12832087Y-13772650D02*
X12851134Y-13744079D01*
X12851134Y-13744079D02*
X12860658Y-13725031D01*
X12860658Y-13725031D02*
X12870182Y-13696460D01*
X12870182Y-13696460D02*
X12879706Y-13648841D01*
X12879706Y-13648841D02*
X12879706Y-13610746D01*
X12879706Y-13610746D02*
X12870182Y-13563127D01*
X12870182Y-13563127D02*
X12860658Y-13534555D01*
X12860658Y-13534555D02*
X12851134Y-13515508D01*
X12851134Y-13515508D02*
X12832087Y-13486936D01*
X12832087Y-13486936D02*
X12822563Y-13477412D01*
X13184468Y-13782174D02*
X13174944Y-13772650D01*
X13174944Y-13772650D02*
X13155896Y-13744079D01*
X13155896Y-13744079D02*
X13146372Y-13725031D01*
X13146372Y-13725031D02*
X13136849Y-13696460D01*
X13136849Y-13696460D02*
X13127325Y-13648841D01*
X13127325Y-13648841D02*
X13127325Y-13610746D01*
X13127325Y-13610746D02*
X13136849Y-13563127D01*
X13136849Y-13563127D02*
X13146372Y-13534555D01*
X13146372Y-13534555D02*
X13155896Y-13515508D01*
X13155896Y-13515508D02*
X13174944Y-13486936D01*
X13174944Y-13486936D02*
X13184468Y-13477412D01*
X13260658Y-13572650D02*
X13260658Y-13705984D01*
X13260658Y-13591698D02*
X13270182Y-13582174D01*
X13270182Y-13582174D02*
X13289230Y-13572650D01*
X13289230Y-13572650D02*
X13317801Y-13572650D01*
X13317801Y-13572650D02*
X13336849Y-13582174D01*
X13336849Y-13582174D02*
X13346372Y-13601222D01*
X13346372Y-13601222D02*
X13346372Y-13705984D01*
X13470182Y-13705984D02*
X13451134Y-13696460D01*
X13451134Y-13696460D02*
X13441611Y-13686936D01*
X13441611Y-13686936D02*
X13432087Y-13667888D01*
X13432087Y-13667888D02*
X13432087Y-13610746D01*
X13432087Y-13610746D02*
X13441611Y-13591698D01*
X13441611Y-13591698D02*
X13451134Y-13582174D01*
X13451134Y-13582174D02*
X13470182Y-13572650D01*
X13470182Y-13572650D02*
X13498753Y-13572650D01*
X13498753Y-13572650D02*
X13517801Y-13582174D01*
X13517801Y-13582174D02*
X13527325Y-13591698D01*
X13527325Y-13591698D02*
X13536849Y-13610746D01*
X13536849Y-13610746D02*
X13536849Y-13667888D01*
X13536849Y-13667888D02*
X13527325Y-13686936D01*
X13527325Y-13686936D02*
X13517801Y-13696460D01*
X13517801Y-13696460D02*
X13498753Y-13705984D01*
X13498753Y-13705984D02*
X13470182Y-13705984D01*
X13593992Y-13572650D02*
X13670182Y-13572650D01*
X13622563Y-13505984D02*
X13622563Y-13677412D01*
X13622563Y-13677412D02*
X13632087Y-13696460D01*
X13632087Y-13696460D02*
X13651134Y-13705984D01*
X13651134Y-13705984D02*
X13670182Y-13705984D01*
X13889230Y-13572650D02*
X13889230Y-13772650D01*
X13889230Y-13582174D02*
X13908277Y-13572650D01*
X13908277Y-13572650D02*
X13946373Y-13572650D01*
X13946373Y-13572650D02*
X13965420Y-13582174D01*
X13965420Y-13582174D02*
X13974944Y-13591698D01*
X13974944Y-13591698D02*
X13984468Y-13610746D01*
X13984468Y-13610746D02*
X13984468Y-13667888D01*
X13984468Y-13667888D02*
X13974944Y-13686936D01*
X13974944Y-13686936D02*
X13965420Y-13696460D01*
X13965420Y-13696460D02*
X13946373Y-13705984D01*
X13946373Y-13705984D02*
X13908277Y-13705984D01*
X13908277Y-13705984D02*
X13889230Y-13696460D01*
X14098753Y-13705984D02*
X14079706Y-13696460D01*
X14079706Y-13696460D02*
X14070182Y-13677412D01*
X14070182Y-13677412D02*
X14070182Y-13505984D01*
X14260658Y-13705984D02*
X14260658Y-13601222D01*
X14260658Y-13601222D02*
X14251134Y-13582174D01*
X14251134Y-13582174D02*
X14232087Y-13572650D01*
X14232087Y-13572650D02*
X14193992Y-13572650D01*
X14193992Y-13572650D02*
X14174944Y-13582174D01*
X14260658Y-13696460D02*
X14241611Y-13705984D01*
X14241611Y-13705984D02*
X14193992Y-13705984D01*
X14193992Y-13705984D02*
X14174944Y-13696460D01*
X14174944Y-13696460D02*
X14165420Y-13677412D01*
X14165420Y-13677412D02*
X14165420Y-13658365D01*
X14165420Y-13658365D02*
X14174944Y-13639317D01*
X14174944Y-13639317D02*
X14193992Y-13629793D01*
X14193992Y-13629793D02*
X14241611Y-13629793D01*
X14241611Y-13629793D02*
X14260658Y-13620269D01*
X14327325Y-13572650D02*
X14403515Y-13572650D01*
X14355896Y-13505984D02*
X14355896Y-13677412D01*
X14355896Y-13677412D02*
X14365420Y-13696460D01*
X14365420Y-13696460D02*
X14384468Y-13705984D01*
X14384468Y-13705984D02*
X14403515Y-13705984D01*
X14546373Y-13696460D02*
X14527325Y-13705984D01*
X14527325Y-13705984D02*
X14489230Y-13705984D01*
X14489230Y-13705984D02*
X14470182Y-13696460D01*
X14470182Y-13696460D02*
X14460658Y-13677412D01*
X14460658Y-13677412D02*
X14460658Y-13601222D01*
X14460658Y-13601222D02*
X14470182Y-13582174D01*
X14470182Y-13582174D02*
X14489230Y-13572650D01*
X14489230Y-13572650D02*
X14527325Y-13572650D01*
X14527325Y-13572650D02*
X14546373Y-13582174D01*
X14546373Y-13582174D02*
X14555896Y-13601222D01*
X14555896Y-13601222D02*
X14555896Y-13620269D01*
X14555896Y-13620269D02*
X14460658Y-13639317D01*
X14727325Y-13705984D02*
X14727325Y-13505984D01*
X14727325Y-13696460D02*
X14708277Y-13705984D01*
X14708277Y-13705984D02*
X14670182Y-13705984D01*
X14670182Y-13705984D02*
X14651134Y-13696460D01*
X14651134Y-13696460D02*
X14641611Y-13686936D01*
X14641611Y-13686936D02*
X14632087Y-13667888D01*
X14632087Y-13667888D02*
X14632087Y-13610746D01*
X14632087Y-13610746D02*
X14641611Y-13591698D01*
X14641611Y-13591698D02*
X14651134Y-13582174D01*
X14651134Y-13582174D02*
X14670182Y-13572650D01*
X14670182Y-13572650D02*
X14708277Y-13572650D01*
X14708277Y-13572650D02*
X14727325Y-13582174D01*
X14803515Y-13782174D02*
X14813039Y-13772650D01*
X14813039Y-13772650D02*
X14832087Y-13744079D01*
X14832087Y-13744079D02*
X14841611Y-13725031D01*
X14841611Y-13725031D02*
X14851134Y-13696460D01*
X14851134Y-13696460D02*
X14860658Y-13648841D01*
X14860658Y-13648841D02*
X14860658Y-13610746D01*
X14860658Y-13610746D02*
X14851134Y-13563127D01*
X14851134Y-13563127D02*
X14841611Y-13534555D01*
X14841611Y-13534555D02*
X14832087Y-13515508D01*
X14832087Y-13515508D02*
X14813039Y-13486936D01*
X14813039Y-13486936D02*
X14803515Y-13477412D01*
M02*
