%TF.GenerationSoftware,KiCad,Pcbnew,8.0.5*%
%TF.CreationDate,2024-10-22T02:20:09+09:00*%
%TF.ProjectId,fsk-energymeter,66736b2d-656e-4657-9267-796d65746572,v0.0.1*%
%TF.SameCoordinates,Original*%
%TF.FileFunction,Soldermask,Bot*%
%TF.FilePolarity,Negative*%
%FSLAX46Y46*%
G04 Gerber Fmt 4.6, Leading zero omitted, Abs format (unit mm)*
G04 Created by KiCad (PCBNEW 8.0.5) date 2024-10-22 02:20:09*
%MOMM*%
%LPD*%
G01*
G04 APERTURE LIST*
%ADD10C,1.050000*%
%ADD11C,1.300000*%
%ADD12C,3.400000*%
%ADD13C,6.000000*%
%ADD14C,2.350000*%
%ADD15C,2.850000*%
%ADD16C,2.025000*%
%ADD17C,1.000000*%
%ADD18R,2.150000X2.150000*%
%ADD19C,2.150000*%
%ADD20C,4.800000*%
%ADD21R,1.700000X1.700000*%
%ADD22O,1.700000X1.700000*%
%ADD23C,2.000000*%
%ADD24C,1.524000*%
G04 APERTURE END LIST*
D10*
%TO.C,BT1*%
X161000000Y-84900000D03*
D11*
X153550000Y-84900000D03*
%TD*%
D12*
%TO.C,H5*%
X165500000Y-113600000D03*
D13*
X165500000Y-113600000D03*
%TD*%
D12*
%TO.C,H2*%
X95800000Y-49600000D03*
D13*
X95800000Y-49600000D03*
%TD*%
D14*
%TO.C,J2*%
X106640000Y-109295000D03*
D15*
X106640000Y-113295000D03*
D14*
X121640000Y-109295000D03*
D15*
X121640000Y-113295000D03*
D16*
X112370000Y-107525000D03*
X115910000Y-107525000D03*
X115910000Y-111065000D03*
X112370000Y-111065000D03*
X114140000Y-109295000D03*
%TD*%
D17*
%TO.C,J4*%
X163000000Y-105850000D03*
X163000000Y-97850000D03*
%TD*%
D12*
%TO.C,H3*%
X126800000Y-49600000D03*
D13*
X126800000Y-49600000D03*
%TD*%
D18*
%TO.C,J1*%
X88650000Y-109950000D03*
D19*
X88650000Y-104450000D03*
D20*
X93150000Y-114150000D03*
X84150000Y-114150000D03*
%TD*%
D21*
%TO.C,J3*%
X149170000Y-114900000D03*
D22*
X151710000Y-114900000D03*
X154250000Y-114900000D03*
X156790000Y-114900000D03*
X149170000Y-112360000D03*
X151710000Y-112360000D03*
X154250000Y-112360000D03*
X156790000Y-112360000D03*
%TD*%
D23*
%TO.C,U2*%
X105000000Y-76700000D03*
X117000000Y-47700000D03*
D24*
X122200000Y-80000000D03*
X122200000Y-77500000D03*
X122200000Y-75000000D03*
%TD*%
D12*
%TO.C,H4*%
X165500000Y-77100000D03*
D13*
X165500000Y-77100000D03*
%TD*%
D12*
%TO.C,H1*%
X85500000Y-77100000D03*
D13*
X85500000Y-77100000D03*
%TD*%
M02*
