%TF.GenerationSoftware,KiCad,Pcbnew,8.0.5*%
%TF.CreationDate,2024-10-07T01:52:40+09:00*%
%TF.ProjectId,fsk-energymeter,66736b2d-656e-4657-9267-796d65746572,v0.0.1*%
%TF.SameCoordinates,Original*%
%TF.FileFunction,Soldermask,Top*%
%TF.FilePolarity,Negative*%
%FSLAX46Y46*%
G04 Gerber Fmt 4.6, Leading zero omitted, Abs format (unit mm)*
G04 Created by KiCad (PCBNEW 8.0.5) date 2024-10-07 01:52:40*
%MOMM*%
%LPD*%
G01*
G04 APERTURE LIST*
G04 Aperture macros list*
%AMRoundRect*
0 Rectangle with rounded corners*
0 $1 Rounding radius*
0 $2 $3 $4 $5 $6 $7 $8 $9 X,Y pos of 4 corners*
0 Add a 4 corners polygon primitive as box body*
4,1,4,$2,$3,$4,$5,$6,$7,$8,$9,$2,$3,0*
0 Add four circle primitives for the rounded corners*
1,1,$1+$1,$2,$3*
1,1,$1+$1,$4,$5*
1,1,$1+$1,$6,$7*
1,1,$1+$1,$8,$9*
0 Add four rect primitives between the rounded corners*
20,1,$1+$1,$2,$3,$4,$5,0*
20,1,$1+$1,$4,$5,$6,$7,0*
20,1,$1+$1,$6,$7,$8,$9,0*
20,1,$1+$1,$8,$9,$2,$3,0*%
G04 Aperture macros list end*
%ADD10RoundRect,0.225000X-0.225000X-0.250000X0.225000X-0.250000X0.225000X0.250000X-0.225000X0.250000X0*%
%ADD11RoundRect,0.225000X0.250000X-0.225000X0.250000X0.225000X-0.250000X0.225000X-0.250000X-0.225000X0*%
%ADD12RoundRect,0.200000X-0.200000X-0.275000X0.200000X-0.275000X0.200000X0.275000X-0.200000X0.275000X0*%
%ADD13RoundRect,0.225000X0.225000X0.250000X-0.225000X0.250000X-0.225000X-0.250000X0.225000X-0.250000X0*%
%ADD14C,3.400000*%
%ADD15C,6.000000*%
%ADD16RoundRect,0.200000X-0.275000X0.200000X-0.275000X-0.200000X0.275000X-0.200000X0.275000X0.200000X0*%
%ADD17RoundRect,0.200000X0.053033X-0.335876X0.335876X-0.053033X-0.053033X0.335876X-0.335876X0.053033X0*%
%ADD18C,1.050000*%
%ADD19C,1.300000*%
%ADD20R,2.300000X4.500000*%
%ADD21RoundRect,0.225000X-0.250000X0.225000X-0.250000X-0.225000X0.250000X-0.225000X0.250000X0.225000X0*%
%ADD22R,0.550000X1.300000*%
%ADD23R,0.800000X1.475000*%
%ADD24R,1.850000X3.125000*%
%ADD25RoundRect,0.250000X0.787500X1.025000X-0.787500X1.025000X-0.787500X-1.025000X0.787500X-1.025000X0*%
%ADD26RoundRect,0.250000X1.025000X-0.787500X1.025000X0.787500X-1.025000X0.787500X-1.025000X-0.787500X0*%
%ADD27C,2.900000*%
%ADD28C,5.000000*%
%ADD29RoundRect,0.075000X0.700000X0.075000X-0.700000X0.075000X-0.700000X-0.075000X0.700000X-0.075000X0*%
%ADD30RoundRect,0.075000X0.075000X0.700000X-0.075000X0.700000X-0.075000X-0.700000X0.075000X-0.700000X0*%
%ADD31R,0.600000X1.000000*%
%ADD32RoundRect,0.250000X0.312500X0.625000X-0.312500X0.625000X-0.312500X-0.625000X0.312500X-0.625000X0*%
%ADD33RoundRect,0.200000X0.275000X-0.200000X0.275000X0.200000X-0.275000X0.200000X-0.275000X-0.200000X0*%
%ADD34RoundRect,0.218750X-0.256250X0.218750X-0.256250X-0.218750X0.256250X-0.218750X0.256250X0.218750X0*%
%ADD35RoundRect,0.250000X-0.625000X0.312500X-0.625000X-0.312500X0.625000X-0.312500X0.625000X0.312500X0*%
%ADD36C,2.000000*%
%ADD37C,1.524000*%
%ADD38RoundRect,0.250000X1.000000X0.650000X-1.000000X0.650000X-1.000000X-0.650000X1.000000X-0.650000X0*%
%ADD39R,0.900000X1.000000*%
%ADD40RoundRect,0.150000X-0.587500X-0.150000X0.587500X-0.150000X0.587500X0.150000X-0.587500X0.150000X0*%
%ADD41RoundRect,0.500000X-0.500000X-1.400000X0.500000X-1.400000X0.500000X1.400000X-0.500000X1.400000X0*%
%ADD42RoundRect,0.375000X-0.625000X-0.375000X0.625000X-0.375000X0.625000X0.375000X-0.625000X0.375000X0*%
%ADD43R,1.700000X1.700000*%
%ADD44O,1.700000X1.700000*%
%ADD45C,2.350000*%
%ADD46C,2.850000*%
%ADD47C,2.025000*%
%ADD48R,1.528000X0.650000*%
%ADD49RoundRect,0.200000X0.200000X0.275000X-0.200000X0.275000X-0.200000X-0.275000X0.200000X-0.275000X0*%
%ADD50R,2.550000X3.050000*%
%ADD51RoundRect,0.250000X-0.312500X-0.625000X0.312500X-0.625000X0.312500X0.625000X-0.312500X0.625000X0*%
%ADD52R,1.000000X0.500000*%
%ADD53R,1.050000X0.650000*%
%ADD54R,1.925000X0.650000*%
%ADD55C,1.000000*%
G04 APERTURE END LIST*
D10*
%TO.C,C16*%
X141975000Y-76775000D03*
X143525000Y-76775000D03*
%TD*%
D11*
%TO.C,C3*%
X139600000Y-78875000D03*
X139600000Y-77325000D03*
%TD*%
D12*
%TO.C,R23*%
X148175000Y-93700000D03*
X149825000Y-93700000D03*
%TD*%
D11*
%TO.C,C24*%
X122250000Y-107825000D03*
X122250000Y-106275000D03*
%TD*%
D13*
%TO.C,C2*%
X127900000Y-82600000D03*
X126350000Y-82600000D03*
%TD*%
%TO.C,C23*%
X134775000Y-97100000D03*
X133225000Y-97100000D03*
%TD*%
D14*
%TO.C,H5*%
X126800000Y-49600000D03*
D15*
X126800000Y-49600000D03*
%TD*%
D16*
%TO.C,R18*%
X141200000Y-94375000D03*
X141200000Y-96025000D03*
%TD*%
D17*
%TO.C,R12*%
X131116637Y-90683363D03*
X132283363Y-89516637D03*
%TD*%
D13*
%TO.C,C19*%
X138575000Y-88100000D03*
X137025000Y-88100000D03*
%TD*%
%TO.C,C14*%
X156650000Y-88775000D03*
X155100000Y-88775000D03*
%TD*%
D18*
%TO.C,BT1*%
X153400000Y-111100000D03*
D19*
X153400000Y-103650000D03*
D20*
X153400000Y-99175000D03*
X153400000Y-115575000D03*
%TD*%
D21*
%TO.C,C8*%
X91000000Y-94125000D03*
X91000000Y-95675000D03*
%TD*%
%TO.C,C13*%
X134500000Y-76050000D03*
X134500000Y-77600000D03*
%TD*%
D22*
%TO.C,IC1*%
X125700000Y-79100000D03*
D23*
X127200000Y-79012000D03*
D22*
X128700000Y-79100000D03*
D24*
X127200000Y-76712000D03*
%TD*%
D25*
%TO.C,C25*%
X111975000Y-108100000D03*
X105750000Y-108100000D03*
%TD*%
D14*
%TO.C,H7*%
X165500000Y-113600000D03*
D15*
X165500000Y-113600000D03*
%TD*%
D10*
%TO.C,C28*%
X119425000Y-91600000D03*
X120975000Y-91600000D03*
%TD*%
D26*
%TO.C,C26*%
X126900000Y-101712500D03*
X126900000Y-95487500D03*
%TD*%
D21*
%TO.C,C33*%
X154800000Y-93450000D03*
X154800000Y-95000000D03*
%TD*%
D11*
%TO.C,C29*%
X114300000Y-100075000D03*
X114300000Y-98525000D03*
%TD*%
D21*
%TO.C,C20*%
X154400000Y-78325000D03*
X154400000Y-79875000D03*
%TD*%
D27*
%TO.C,H1*%
X85500000Y-77100000D03*
D28*
X85500000Y-77100000D03*
%TD*%
D29*
%TO.C,U3*%
X151975000Y-88350000D03*
X151975000Y-87850000D03*
X151975000Y-87350000D03*
X151975000Y-86850000D03*
X151975000Y-86350000D03*
X151975000Y-85850000D03*
X151975000Y-85350000D03*
X151975000Y-84850000D03*
X151975000Y-84350000D03*
X151975000Y-83850000D03*
X151975000Y-83350000D03*
X151975000Y-82850000D03*
X151975000Y-82350000D03*
X151975000Y-81850000D03*
X151975000Y-81350000D03*
X151975000Y-80850000D03*
D30*
X150050000Y-78925000D03*
X149550000Y-78925000D03*
X149050000Y-78925000D03*
X148550000Y-78925000D03*
X148050000Y-78925000D03*
X147550000Y-78925000D03*
X147050000Y-78925000D03*
X146550000Y-78925000D03*
X146050000Y-78925000D03*
X145550000Y-78925000D03*
X145050000Y-78925000D03*
X144550000Y-78925000D03*
X144050000Y-78925000D03*
X143550000Y-78925000D03*
X143050000Y-78925000D03*
X142550000Y-78925000D03*
D29*
X140625000Y-80850000D03*
X140625000Y-81350000D03*
X140625000Y-81850000D03*
X140625000Y-82350000D03*
X140625000Y-82850000D03*
X140625000Y-83350000D03*
X140625000Y-83850000D03*
X140625000Y-84350000D03*
X140625000Y-84850000D03*
X140625000Y-85350000D03*
X140625000Y-85850000D03*
X140625000Y-86350000D03*
X140625000Y-86850000D03*
X140625000Y-87350000D03*
X140625000Y-87850000D03*
X140625000Y-88350000D03*
D30*
X142550000Y-90275000D03*
X143050000Y-90275000D03*
X143550000Y-90275000D03*
X144050000Y-90275000D03*
X144550000Y-90275000D03*
X145050000Y-90275000D03*
X145550000Y-90275000D03*
X146050000Y-90275000D03*
X146550000Y-90275000D03*
X147050000Y-90275000D03*
X147550000Y-90275000D03*
X148050000Y-90275000D03*
X148550000Y-90275000D03*
X149050000Y-90275000D03*
X149550000Y-90275000D03*
X150050000Y-90275000D03*
%TD*%
D31*
%TO.C,IC3*%
X156245000Y-78300000D03*
X158155000Y-78300000D03*
X157200000Y-75900000D03*
%TD*%
D32*
%TO.C,R4*%
X88062500Y-82300000D03*
X85137500Y-82300000D03*
%TD*%
D12*
%TO.C,R1*%
X126300000Y-84300000D03*
X127950000Y-84300000D03*
%TD*%
D16*
%TO.C,R10*%
X136200000Y-75950000D03*
X136200000Y-77600000D03*
%TD*%
D21*
%TO.C,C31*%
X161200000Y-83125000D03*
X161200000Y-84675000D03*
%TD*%
D33*
%TO.C,R2*%
X137900000Y-78925000D03*
X137900000Y-77275000D03*
%TD*%
D21*
%TO.C,C7*%
X92800000Y-94150000D03*
X92800000Y-95700000D03*
%TD*%
D11*
%TO.C,C5*%
X90912000Y-87430000D03*
X90912000Y-85880000D03*
%TD*%
D34*
%TO.C,D3*%
X136900000Y-90312500D03*
X136900000Y-91887500D03*
%TD*%
D16*
%TO.C,R17*%
X139400000Y-94375000D03*
X139400000Y-96025000D03*
%TD*%
D10*
%TO.C,C12*%
X110250000Y-91500000D03*
X111800000Y-91500000D03*
%TD*%
D14*
%TO.C,H3*%
X85500000Y-113600000D03*
D15*
X85500000Y-113600000D03*
%TD*%
D14*
%TO.C,H6*%
X165500000Y-77100000D03*
D15*
X165500000Y-77100000D03*
%TD*%
D35*
%TO.C,R5*%
X82700000Y-84537500D03*
X82700000Y-87462500D03*
%TD*%
D10*
%TO.C,C9*%
X110250000Y-94900000D03*
X111800000Y-94900000D03*
%TD*%
D21*
%TO.C,C4*%
X92612000Y-85855000D03*
X92612000Y-87405000D03*
%TD*%
D10*
%TO.C,C15*%
X148525000Y-75100000D03*
X150075000Y-75100000D03*
%TD*%
D12*
%TO.C,R14*%
X136975000Y-86400000D03*
X138625000Y-86400000D03*
%TD*%
D11*
%TO.C,C30*%
X112500000Y-100075000D03*
X112500000Y-98525000D03*
%TD*%
D36*
%TO.C,U1*%
X105000000Y-77700000D03*
X117000000Y-48700000D03*
D37*
X122200000Y-81000000D03*
X122200000Y-78500000D03*
X122200000Y-76000000D03*
%TD*%
D16*
%TO.C,R11*%
X124700000Y-82650000D03*
X124700000Y-84300000D03*
%TD*%
D38*
%TO.C,D2*%
X111500000Y-112600000D03*
X107500000Y-112600000D03*
%TD*%
D39*
%TO.C,X1*%
X156700000Y-84425000D03*
X154600000Y-84425000D03*
X154600000Y-86325000D03*
X156700000Y-86325000D03*
%TD*%
D13*
%TO.C,C18*%
X150600000Y-92100000D03*
X149050000Y-92100000D03*
%TD*%
D40*
%TO.C,D1*%
X132725000Y-93600000D03*
X132725000Y-95500000D03*
X134600000Y-94550000D03*
%TD*%
D12*
%TO.C,R8*%
X131175000Y-76700000D03*
X132825000Y-76700000D03*
%TD*%
D41*
%TO.C,U2*%
X122850000Y-97800000D03*
D42*
X116550000Y-95500000D03*
X116550000Y-97800000D03*
X116550000Y-100100000D03*
%TD*%
D10*
%TO.C,C27*%
X119425000Y-93400000D03*
X120975000Y-93400000D03*
%TD*%
%TO.C,C10*%
X110225000Y-96500000D03*
X111775000Y-96500000D03*
%TD*%
D43*
%TO.C,J2*%
X163800000Y-89000000D03*
D44*
X163800000Y-91540000D03*
X163800000Y-94080000D03*
X163800000Y-96620000D03*
X166340000Y-89000000D03*
X166340000Y-91540000D03*
X166340000Y-94080000D03*
X166340000Y-96620000D03*
%TD*%
D10*
%TO.C,C11*%
X110250000Y-93200000D03*
X111800000Y-93200000D03*
%TD*%
D21*
%TO.C,C21*%
X156400000Y-80150000D03*
X156400000Y-81700000D03*
%TD*%
D45*
%TO.C,J1*%
X127100000Y-108300000D03*
D46*
X127100000Y-112300000D03*
D45*
X142100000Y-108300000D03*
D46*
X142100000Y-112300000D03*
D47*
X132830000Y-106530000D03*
X136370000Y-106530000D03*
X136370000Y-110070000D03*
X132830000Y-110070000D03*
X134600000Y-108300000D03*
%TD*%
D48*
%TO.C,IC4*%
X120172000Y-107705000D03*
X120172000Y-106435000D03*
X120172000Y-105165000D03*
X120172000Y-103895000D03*
X114750000Y-103895000D03*
X114750000Y-105165000D03*
X114750000Y-106435000D03*
X114750000Y-107705000D03*
%TD*%
D49*
%TO.C,R16*%
X154325000Y-76400000D03*
X152675000Y-76400000D03*
%TD*%
D35*
%TO.C,R3*%
X90400000Y-77137500D03*
X90400000Y-80062500D03*
%TD*%
D49*
%TO.C,R13*%
X138625000Y-84700000D03*
X136975000Y-84700000D03*
%TD*%
D21*
%TO.C,C1*%
X131250000Y-78150000D03*
X131250000Y-79700000D03*
%TD*%
D50*
%TO.C,L1*%
X121100000Y-112600000D03*
X115200000Y-112600000D03*
%TD*%
D27*
%TO.C,H2*%
X85500000Y-98800000D03*
D28*
X85500000Y-98800000D03*
%TD*%
D33*
%TO.C,R21*%
X144700000Y-97025000D03*
X144700000Y-95375000D03*
%TD*%
D16*
%TO.C,R7*%
X90900000Y-89075000D03*
X90900000Y-90725000D03*
%TD*%
D33*
%TO.C,R22*%
X143000000Y-97000000D03*
X143000000Y-95350000D03*
%TD*%
D14*
%TO.C,H4*%
X95800000Y-49900000D03*
D15*
X95800000Y-49900000D03*
%TD*%
D51*
%TO.C,R6*%
X85137500Y-89700000D03*
X88062500Y-89700000D03*
%TD*%
D12*
%TO.C,R9*%
X131175000Y-74900000D03*
X132825000Y-74900000D03*
%TD*%
D10*
%TO.C,C17*%
X148500000Y-76800000D03*
X150050000Y-76800000D03*
%TD*%
D52*
%TO.C,JP1*%
X160100000Y-78350000D03*
X160100000Y-79650000D03*
%TD*%
D53*
%TO.C,SW1*%
X163025000Y-83125000D03*
X167175000Y-83125000D03*
X163025000Y-85275000D03*
X167175000Y-85275000D03*
%TD*%
D13*
%TO.C,C32*%
X146775000Y-76800000D03*
X145225000Y-76800000D03*
%TD*%
D33*
%TO.C,R20*%
X146437500Y-97012500D03*
X146437500Y-95362500D03*
%TD*%
D11*
%TO.C,C6*%
X92600000Y-90675000D03*
X92600000Y-89125000D03*
%TD*%
D54*
%TO.C,IC2*%
X95088000Y-86555000D03*
X95088000Y-87825000D03*
X95088000Y-89095000D03*
X95088000Y-90365000D03*
X95088000Y-91635000D03*
X95088000Y-92905000D03*
X95088000Y-94175000D03*
X95088000Y-95445000D03*
X104512000Y-95445000D03*
X104512000Y-94175000D03*
X104512000Y-92905000D03*
X104512000Y-91635000D03*
X104512000Y-90365000D03*
X104512000Y-89095000D03*
X104512000Y-87825000D03*
X104512000Y-86555000D03*
%TD*%
D21*
%TO.C,C22*%
X158200000Y-80175000D03*
X158200000Y-81725000D03*
%TD*%
D49*
%TO.C,R15*%
X135125000Y-91900000D03*
X133475000Y-91900000D03*
%TD*%
%TO.C,R19*%
X149825000Y-95500000D03*
X148175000Y-95500000D03*
%TD*%
D55*
%TO.C,J3*%
X158700000Y-109000000D03*
X150700000Y-109000000D03*
%TD*%
M02*
