%TF.GenerationSoftware,KiCad,Pcbnew,8.0.5*%
%TF.CreationDate,2024-10-07T02:43:23+09:00*%
%TF.ProjectId,fsk-energymeter,66736b2d-656e-4657-9267-796d65746572,v0.0.1*%
%TF.SameCoordinates,Original*%
%TF.FileFunction,Legend,Top*%
%TF.FilePolarity,Positive*%
%FSLAX46Y46*%
G04 Gerber Fmt 4.6, Leading zero omitted, Abs format (unit mm)*
G04 Created by KiCad (PCBNEW 8.0.5) date 2024-10-07 02:43:23*
%MOMM*%
%LPD*%
G01*
G04 APERTURE LIST*
G04 Aperture macros list*
%AMRoundRect*
0 Rectangle with rounded corners*
0 $1 Rounding radius*
0 $2 $3 $4 $5 $6 $7 $8 $9 X,Y pos of 4 corners*
0 Add a 4 corners polygon primitive as box body*
4,1,4,$2,$3,$4,$5,$6,$7,$8,$9,$2,$3,0*
0 Add four circle primitives for the rounded corners*
1,1,$1+$1,$2,$3*
1,1,$1+$1,$4,$5*
1,1,$1+$1,$6,$7*
1,1,$1+$1,$8,$9*
0 Add four rect primitives between the rounded corners*
20,1,$1+$1,$2,$3,$4,$5,0*
20,1,$1+$1,$4,$5,$6,$7,0*
20,1,$1+$1,$6,$7,$8,$9,0*
20,1,$1+$1,$8,$9,$2,$3,0*%
G04 Aperture macros list end*
%ADD10C,0.100000*%
%ADD11C,0.200000*%
%ADD12C,0.150000*%
%ADD13C,0.500000*%
%ADD14C,0.120000*%
%ADD15C,0.000000*%
%ADD16R,0.570000X1.400000*%
%ADD17R,0.650000X1.900000*%
%ADD18R,2.000000X2.450000*%
%ADD19RoundRect,0.225000X-0.225000X-0.250000X0.225000X-0.250000X0.225000X0.250000X-0.225000X0.250000X0*%
%ADD20RoundRect,0.225000X0.250000X-0.225000X0.250000X0.225000X-0.250000X0.225000X-0.250000X-0.225000X0*%
%ADD21RoundRect,0.200000X-0.200000X-0.275000X0.200000X-0.275000X0.200000X0.275000X-0.200000X0.275000X0*%
%ADD22RoundRect,0.225000X0.225000X0.250000X-0.225000X0.250000X-0.225000X-0.250000X0.225000X-0.250000X0*%
%ADD23C,3.400000*%
%ADD24C,6.000000*%
%ADD25RoundRect,0.200000X-0.275000X0.200000X-0.275000X-0.200000X0.275000X-0.200000X0.275000X0.200000X0*%
%ADD26RoundRect,0.200000X0.053033X-0.335876X0.335876X-0.053033X-0.053033X0.335876X-0.335876X0.053033X0*%
%ADD27C,1.050000*%
%ADD28C,1.300000*%
%ADD29R,2.300000X4.500000*%
%ADD30RoundRect,0.225000X-0.250000X0.225000X-0.250000X-0.225000X0.250000X-0.225000X0.250000X0.225000X0*%
%ADD31RoundRect,0.250000X0.787500X1.025000X-0.787500X1.025000X-0.787500X-1.025000X0.787500X-1.025000X0*%
%ADD32RoundRect,0.250000X1.025000X-0.787500X1.025000X0.787500X-1.025000X0.787500X-1.025000X-0.787500X0*%
%ADD33C,2.900000*%
%ADD34C,5.000000*%
%ADD35RoundRect,0.075000X0.700000X0.075000X-0.700000X0.075000X-0.700000X-0.075000X0.700000X-0.075000X0*%
%ADD36RoundRect,0.075000X0.075000X0.700000X-0.075000X0.700000X-0.075000X-0.700000X0.075000X-0.700000X0*%
%ADD37R,0.600000X1.000000*%
%ADD38RoundRect,0.250000X0.312500X0.625000X-0.312500X0.625000X-0.312500X-0.625000X0.312500X-0.625000X0*%
%ADD39RoundRect,0.200000X0.275000X-0.200000X0.275000X0.200000X-0.275000X0.200000X-0.275000X-0.200000X0*%
%ADD40RoundRect,0.218750X-0.256250X0.218750X-0.256250X-0.218750X0.256250X-0.218750X0.256250X0.218750X0*%
%ADD41RoundRect,0.250000X-0.625000X0.312500X-0.625000X-0.312500X0.625000X-0.312500X0.625000X0.312500X0*%
%ADD42C,2.000000*%
%ADD43C,1.524000*%
%ADD44RoundRect,0.250000X1.000000X0.650000X-1.000000X0.650000X-1.000000X-0.650000X1.000000X-0.650000X0*%
%ADD45R,0.900000X1.000000*%
%ADD46RoundRect,0.150000X-0.587500X-0.150000X0.587500X-0.150000X0.587500X0.150000X-0.587500X0.150000X0*%
%ADD47RoundRect,0.500000X-0.500000X-1.400000X0.500000X-1.400000X0.500000X1.400000X-0.500000X1.400000X0*%
%ADD48RoundRect,0.375000X-0.625000X-0.375000X0.625000X-0.375000X0.625000X0.375000X-0.625000X0.375000X0*%
%ADD49R,1.700000X1.700000*%
%ADD50O,1.700000X1.700000*%
%ADD51C,2.350000*%
%ADD52C,2.850000*%
%ADD53C,2.025000*%
%ADD54R,1.528000X0.650000*%
%ADD55RoundRect,0.200000X0.200000X0.275000X-0.200000X0.275000X-0.200000X-0.275000X0.200000X-0.275000X0*%
%ADD56R,2.550000X3.050000*%
%ADD57RoundRect,0.250000X-0.312500X-0.625000X0.312500X-0.625000X0.312500X0.625000X-0.312500X0.625000X0*%
%ADD58R,1.000000X0.500000*%
%ADD59R,1.050000X0.650000*%
%ADD60R,1.925000X0.650000*%
%ADD61C,1.000000*%
G04 APERTURE END LIST*
D10*
X96400000Y-96300000D02*
X96400000Y-118500000D01*
X103200000Y-118500000D02*
X103200000Y-96300000D01*
X168061371Y-89828496D02*
X168061371Y-89457068D01*
X168061371Y-89457068D02*
X168289942Y-89657068D01*
X168289942Y-89657068D02*
X168289942Y-89571353D01*
X168289942Y-89571353D02*
X168318514Y-89514211D01*
X168318514Y-89514211D02*
X168347085Y-89485639D01*
X168347085Y-89485639D02*
X168404228Y-89457068D01*
X168404228Y-89457068D02*
X168547085Y-89457068D01*
X168547085Y-89457068D02*
X168604228Y-89485639D01*
X168604228Y-89485639D02*
X168632800Y-89514211D01*
X168632800Y-89514211D02*
X168661371Y-89571353D01*
X168661371Y-89571353D02*
X168661371Y-89742782D01*
X168661371Y-89742782D02*
X168632800Y-89799925D01*
X168632800Y-89799925D02*
X168604228Y-89828496D01*
X168061371Y-89285639D02*
X168661371Y-89085639D01*
X168661371Y-89085639D02*
X168061371Y-88885639D01*
X168061371Y-88742781D02*
X168061371Y-88371353D01*
X168061371Y-88371353D02*
X168289942Y-88571353D01*
X168289942Y-88571353D02*
X168289942Y-88485638D01*
X168289942Y-88485638D02*
X168318514Y-88428496D01*
X168318514Y-88428496D02*
X168347085Y-88399924D01*
X168347085Y-88399924D02*
X168404228Y-88371353D01*
X168404228Y-88371353D02*
X168547085Y-88371353D01*
X168547085Y-88371353D02*
X168604228Y-88399924D01*
X168604228Y-88399924D02*
X168632800Y-88428496D01*
X168632800Y-88428496D02*
X168661371Y-88485638D01*
X168661371Y-88485638D02*
X168661371Y-88657067D01*
X168661371Y-88657067D02*
X168632800Y-88714210D01*
X168632800Y-88714210D02*
X168604228Y-88742781D01*
D11*
X100031578Y-82479600D02*
X97745863Y-82479600D01*
X98317292Y-83051028D02*
X97745863Y-82479600D01*
X97745863Y-82479600D02*
X98317292Y-81908171D01*
D10*
X161489942Y-97057068D02*
X161461371Y-97114211D01*
X161461371Y-97114211D02*
X161461371Y-97199925D01*
X161461371Y-97199925D02*
X161489942Y-97285639D01*
X161489942Y-97285639D02*
X161547085Y-97342782D01*
X161547085Y-97342782D02*
X161604228Y-97371353D01*
X161604228Y-97371353D02*
X161718514Y-97399925D01*
X161718514Y-97399925D02*
X161804228Y-97399925D01*
X161804228Y-97399925D02*
X161918514Y-97371353D01*
X161918514Y-97371353D02*
X161975657Y-97342782D01*
X161975657Y-97342782D02*
X162032800Y-97285639D01*
X162032800Y-97285639D02*
X162061371Y-97199925D01*
X162061371Y-97199925D02*
X162061371Y-97142782D01*
X162061371Y-97142782D02*
X162032800Y-97057068D01*
X162032800Y-97057068D02*
X162004228Y-97028496D01*
X162004228Y-97028496D02*
X161804228Y-97028496D01*
X161804228Y-97028496D02*
X161804228Y-97142782D01*
X162061371Y-96771353D02*
X161461371Y-96771353D01*
X161461371Y-96771353D02*
X162061371Y-96428496D01*
X162061371Y-96428496D02*
X161461371Y-96428496D01*
X162061371Y-96142782D02*
X161461371Y-96142782D01*
X161461371Y-96142782D02*
X161461371Y-95999925D01*
X161461371Y-95999925D02*
X161489942Y-95914211D01*
X161489942Y-95914211D02*
X161547085Y-95857068D01*
X161547085Y-95857068D02*
X161604228Y-95828497D01*
X161604228Y-95828497D02*
X161718514Y-95799925D01*
X161718514Y-95799925D02*
X161804228Y-95799925D01*
X161804228Y-95799925D02*
X161918514Y-95828497D01*
X161918514Y-95828497D02*
X161975657Y-95857068D01*
X161975657Y-95857068D02*
X162032800Y-95914211D01*
X162032800Y-95914211D02*
X162061371Y-95999925D01*
X162061371Y-95999925D02*
X162061371Y-96142782D01*
X161461371Y-91957068D02*
X161461371Y-91614211D01*
X162061371Y-91785639D02*
X161461371Y-91785639D01*
X161461371Y-91471353D02*
X162061371Y-91071353D01*
X161461371Y-91071353D02*
X162061371Y-91471353D01*
X168661371Y-94771353D02*
X168061371Y-94771353D01*
X168061371Y-94771353D02*
X168061371Y-94628496D01*
X168061371Y-94628496D02*
X168089942Y-94542782D01*
X168089942Y-94542782D02*
X168147085Y-94485639D01*
X168147085Y-94485639D02*
X168204228Y-94457068D01*
X168204228Y-94457068D02*
X168318514Y-94428496D01*
X168318514Y-94428496D02*
X168404228Y-94428496D01*
X168404228Y-94428496D02*
X168518514Y-94457068D01*
X168518514Y-94457068D02*
X168575657Y-94485639D01*
X168575657Y-94485639D02*
X168632800Y-94542782D01*
X168632800Y-94542782D02*
X168661371Y-94628496D01*
X168661371Y-94628496D02*
X168661371Y-94771353D01*
X168661371Y-94171353D02*
X168061371Y-94171353D01*
X168061371Y-93771354D02*
X168061371Y-93657068D01*
X168061371Y-93657068D02*
X168089942Y-93599925D01*
X168089942Y-93599925D02*
X168147085Y-93542782D01*
X168147085Y-93542782D02*
X168261371Y-93514211D01*
X168261371Y-93514211D02*
X168461371Y-93514211D01*
X168461371Y-93514211D02*
X168575657Y-93542782D01*
X168575657Y-93542782D02*
X168632800Y-93599925D01*
X168632800Y-93599925D02*
X168661371Y-93657068D01*
X168661371Y-93657068D02*
X168661371Y-93771354D01*
X168661371Y-93771354D02*
X168632800Y-93828497D01*
X168632800Y-93828497D02*
X168575657Y-93885639D01*
X168575657Y-93885639D02*
X168461371Y-93914211D01*
X168461371Y-93914211D02*
X168261371Y-93914211D01*
X168261371Y-93914211D02*
X168147085Y-93885639D01*
X168147085Y-93885639D02*
X168089942Y-93828497D01*
X168089942Y-93828497D02*
X168061371Y-93771354D01*
D11*
X110092292Y-88514171D02*
X109692292Y-88514171D01*
X109692292Y-89142742D02*
X109692292Y-87942742D01*
X109692292Y-87942742D02*
X110263720Y-87942742D01*
X110663720Y-89085600D02*
X110835149Y-89142742D01*
X110835149Y-89142742D02*
X111120863Y-89142742D01*
X111120863Y-89142742D02*
X111235149Y-89085600D01*
X111235149Y-89085600D02*
X111292291Y-89028457D01*
X111292291Y-89028457D02*
X111349434Y-88914171D01*
X111349434Y-88914171D02*
X111349434Y-88799885D01*
X111349434Y-88799885D02*
X111292291Y-88685600D01*
X111292291Y-88685600D02*
X111235149Y-88628457D01*
X111235149Y-88628457D02*
X111120863Y-88571314D01*
X111120863Y-88571314D02*
X110892291Y-88514171D01*
X110892291Y-88514171D02*
X110778006Y-88457028D01*
X110778006Y-88457028D02*
X110720863Y-88399885D01*
X110720863Y-88399885D02*
X110663720Y-88285600D01*
X110663720Y-88285600D02*
X110663720Y-88171314D01*
X110663720Y-88171314D02*
X110720863Y-88057028D01*
X110720863Y-88057028D02*
X110778006Y-87999885D01*
X110778006Y-87999885D02*
X110892291Y-87942742D01*
X110892291Y-87942742D02*
X111178006Y-87942742D01*
X111178006Y-87942742D02*
X111349434Y-87999885D01*
X111863720Y-89142742D02*
X111863720Y-87942742D01*
X112549434Y-89142742D02*
X112035148Y-88457028D01*
X112549434Y-87942742D02*
X111863720Y-88628457D01*
X113978006Y-88514171D02*
X114378006Y-88514171D01*
X114549434Y-89142742D02*
X113978006Y-89142742D01*
X113978006Y-89142742D02*
X113978006Y-87942742D01*
X113978006Y-87942742D02*
X114549434Y-87942742D01*
X115063720Y-88342742D02*
X115063720Y-89142742D01*
X115063720Y-88457028D02*
X115120863Y-88399885D01*
X115120863Y-88399885D02*
X115235148Y-88342742D01*
X115235148Y-88342742D02*
X115406577Y-88342742D01*
X115406577Y-88342742D02*
X115520863Y-88399885D01*
X115520863Y-88399885D02*
X115578006Y-88514171D01*
X115578006Y-88514171D02*
X115578006Y-89142742D01*
X116606577Y-89085600D02*
X116492291Y-89142742D01*
X116492291Y-89142742D02*
X116263720Y-89142742D01*
X116263720Y-89142742D02*
X116149434Y-89085600D01*
X116149434Y-89085600D02*
X116092291Y-88971314D01*
X116092291Y-88971314D02*
X116092291Y-88514171D01*
X116092291Y-88514171D02*
X116149434Y-88399885D01*
X116149434Y-88399885D02*
X116263720Y-88342742D01*
X116263720Y-88342742D02*
X116492291Y-88342742D01*
X116492291Y-88342742D02*
X116606577Y-88399885D01*
X116606577Y-88399885D02*
X116663720Y-88514171D01*
X116663720Y-88514171D02*
X116663720Y-88628457D01*
X116663720Y-88628457D02*
X116092291Y-88742742D01*
X117178005Y-89142742D02*
X117178005Y-88342742D01*
X117178005Y-88571314D02*
X117235148Y-88457028D01*
X117235148Y-88457028D02*
X117292291Y-88399885D01*
X117292291Y-88399885D02*
X117406576Y-88342742D01*
X117406576Y-88342742D02*
X117520862Y-88342742D01*
X118435148Y-88342742D02*
X118435148Y-89314171D01*
X118435148Y-89314171D02*
X118378005Y-89428457D01*
X118378005Y-89428457D02*
X118320862Y-89485600D01*
X118320862Y-89485600D02*
X118206576Y-89542742D01*
X118206576Y-89542742D02*
X118035148Y-89542742D01*
X118035148Y-89542742D02*
X117920862Y-89485600D01*
X118435148Y-89085600D02*
X118320862Y-89142742D01*
X118320862Y-89142742D02*
X118092290Y-89142742D01*
X118092290Y-89142742D02*
X117978005Y-89085600D01*
X117978005Y-89085600D02*
X117920862Y-89028457D01*
X117920862Y-89028457D02*
X117863719Y-88914171D01*
X117863719Y-88914171D02*
X117863719Y-88571314D01*
X117863719Y-88571314D02*
X117920862Y-88457028D01*
X117920862Y-88457028D02*
X117978005Y-88399885D01*
X117978005Y-88399885D02*
X118092290Y-88342742D01*
X118092290Y-88342742D02*
X118320862Y-88342742D01*
X118320862Y-88342742D02*
X118435148Y-88399885D01*
X118892290Y-88342742D02*
X119178004Y-89142742D01*
X119463719Y-88342742D02*
X119178004Y-89142742D01*
X119178004Y-89142742D02*
X119063719Y-89428457D01*
X119063719Y-89428457D02*
X119006576Y-89485600D01*
X119006576Y-89485600D02*
X118892290Y-89542742D01*
X120835148Y-89142742D02*
X120835148Y-87942742D01*
X120835148Y-87942742D02*
X121235148Y-88799885D01*
X121235148Y-88799885D02*
X121635148Y-87942742D01*
X121635148Y-87942742D02*
X121635148Y-89142742D01*
X122663720Y-89085600D02*
X122549434Y-89142742D01*
X122549434Y-89142742D02*
X122320863Y-89142742D01*
X122320863Y-89142742D02*
X122206577Y-89085600D01*
X122206577Y-89085600D02*
X122149434Y-88971314D01*
X122149434Y-88971314D02*
X122149434Y-88514171D01*
X122149434Y-88514171D02*
X122206577Y-88399885D01*
X122206577Y-88399885D02*
X122320863Y-88342742D01*
X122320863Y-88342742D02*
X122549434Y-88342742D01*
X122549434Y-88342742D02*
X122663720Y-88399885D01*
X122663720Y-88399885D02*
X122720863Y-88514171D01*
X122720863Y-88514171D02*
X122720863Y-88628457D01*
X122720863Y-88628457D02*
X122149434Y-88742742D01*
X123063719Y-88342742D02*
X123520862Y-88342742D01*
X123235148Y-87942742D02*
X123235148Y-88971314D01*
X123235148Y-88971314D02*
X123292291Y-89085600D01*
X123292291Y-89085600D02*
X123406576Y-89142742D01*
X123406576Y-89142742D02*
X123520862Y-89142742D01*
X124378005Y-89085600D02*
X124263719Y-89142742D01*
X124263719Y-89142742D02*
X124035148Y-89142742D01*
X124035148Y-89142742D02*
X123920862Y-89085600D01*
X123920862Y-89085600D02*
X123863719Y-88971314D01*
X123863719Y-88971314D02*
X123863719Y-88514171D01*
X123863719Y-88514171D02*
X123920862Y-88399885D01*
X123920862Y-88399885D02*
X124035148Y-88342742D01*
X124035148Y-88342742D02*
X124263719Y-88342742D01*
X124263719Y-88342742D02*
X124378005Y-88399885D01*
X124378005Y-88399885D02*
X124435148Y-88514171D01*
X124435148Y-88514171D02*
X124435148Y-88628457D01*
X124435148Y-88628457D02*
X123863719Y-88742742D01*
X124949433Y-89142742D02*
X124949433Y-88342742D01*
X124949433Y-88571314D02*
X125006576Y-88457028D01*
X125006576Y-88457028D02*
X125063719Y-88399885D01*
X125063719Y-88399885D02*
X125178004Y-88342742D01*
X125178004Y-88342742D02*
X125292290Y-88342742D01*
D12*
X124936779Y-104569819D02*
X124936779Y-103569819D01*
X124936779Y-103569819D02*
X125270112Y-104284104D01*
X125270112Y-104284104D02*
X125603445Y-103569819D01*
X125603445Y-103569819D02*
X125603445Y-104569819D01*
X126032017Y-104284104D02*
X126508207Y-104284104D01*
X125936779Y-104569819D02*
X126270112Y-103569819D01*
X126270112Y-103569819D02*
X126603445Y-104569819D01*
X126936779Y-104569819D02*
X126936779Y-103569819D01*
X127412969Y-104569819D02*
X127412969Y-103569819D01*
X127412969Y-103569819D02*
X127984397Y-104569819D01*
X127984397Y-104569819D02*
X127984397Y-103569819D01*
X129222493Y-104569819D02*
X129222493Y-103569819D01*
X130412968Y-103522200D02*
X129555826Y-104807914D01*
X130936778Y-103569819D02*
X131127254Y-103569819D01*
X131127254Y-103569819D02*
X131222492Y-103617438D01*
X131222492Y-103617438D02*
X131317730Y-103712676D01*
X131317730Y-103712676D02*
X131365349Y-103903152D01*
X131365349Y-103903152D02*
X131365349Y-104236485D01*
X131365349Y-104236485D02*
X131317730Y-104426961D01*
X131317730Y-104426961D02*
X131222492Y-104522200D01*
X131222492Y-104522200D02*
X131127254Y-104569819D01*
X131127254Y-104569819D02*
X130936778Y-104569819D01*
X130936778Y-104569819D02*
X130841540Y-104522200D01*
X130841540Y-104522200D02*
X130746302Y-104426961D01*
X130746302Y-104426961D02*
X130698683Y-104236485D01*
X130698683Y-104236485D02*
X130698683Y-103903152D01*
X130698683Y-103903152D02*
X130746302Y-103712676D01*
X130746302Y-103712676D02*
X130841540Y-103617438D01*
X130841540Y-103617438D02*
X130936778Y-103569819D01*
D10*
X161461371Y-89628496D02*
X161461371Y-89257068D01*
X161461371Y-89257068D02*
X161689942Y-89457068D01*
X161689942Y-89457068D02*
X161689942Y-89371353D01*
X161689942Y-89371353D02*
X161718514Y-89314211D01*
X161718514Y-89314211D02*
X161747085Y-89285639D01*
X161747085Y-89285639D02*
X161804228Y-89257068D01*
X161804228Y-89257068D02*
X161947085Y-89257068D01*
X161947085Y-89257068D02*
X162004228Y-89285639D01*
X162004228Y-89285639D02*
X162032800Y-89314211D01*
X162032800Y-89314211D02*
X162061371Y-89371353D01*
X162061371Y-89371353D02*
X162061371Y-89542782D01*
X162061371Y-89542782D02*
X162032800Y-89599925D01*
X162032800Y-89599925D02*
X162004228Y-89628496D01*
X161461371Y-89085639D02*
X162061371Y-88885639D01*
X162061371Y-88885639D02*
X161461371Y-88685639D01*
X161461371Y-88542781D02*
X161461371Y-88171353D01*
X161461371Y-88171353D02*
X161689942Y-88371353D01*
X161689942Y-88371353D02*
X161689942Y-88285638D01*
X161689942Y-88285638D02*
X161718514Y-88228496D01*
X161718514Y-88228496D02*
X161747085Y-88199924D01*
X161747085Y-88199924D02*
X161804228Y-88171353D01*
X161804228Y-88171353D02*
X161947085Y-88171353D01*
X161947085Y-88171353D02*
X162004228Y-88199924D01*
X162004228Y-88199924D02*
X162032800Y-88228496D01*
X162032800Y-88228496D02*
X162061371Y-88285638D01*
X162061371Y-88285638D02*
X162061371Y-88457067D01*
X162061371Y-88457067D02*
X162032800Y-88514210D01*
X162032800Y-88514210D02*
X162004228Y-88542781D01*
X168089942Y-97057068D02*
X168061371Y-97114211D01*
X168061371Y-97114211D02*
X168061371Y-97199925D01*
X168061371Y-97199925D02*
X168089942Y-97285639D01*
X168089942Y-97285639D02*
X168147085Y-97342782D01*
X168147085Y-97342782D02*
X168204228Y-97371353D01*
X168204228Y-97371353D02*
X168318514Y-97399925D01*
X168318514Y-97399925D02*
X168404228Y-97399925D01*
X168404228Y-97399925D02*
X168518514Y-97371353D01*
X168518514Y-97371353D02*
X168575657Y-97342782D01*
X168575657Y-97342782D02*
X168632800Y-97285639D01*
X168632800Y-97285639D02*
X168661371Y-97199925D01*
X168661371Y-97199925D02*
X168661371Y-97142782D01*
X168661371Y-97142782D02*
X168632800Y-97057068D01*
X168632800Y-97057068D02*
X168604228Y-97028496D01*
X168604228Y-97028496D02*
X168404228Y-97028496D01*
X168404228Y-97028496D02*
X168404228Y-97142782D01*
X168661371Y-96771353D02*
X168061371Y-96771353D01*
X168061371Y-96771353D02*
X168661371Y-96428496D01*
X168661371Y-96428496D02*
X168061371Y-96428496D01*
X168661371Y-96142782D02*
X168061371Y-96142782D01*
X168061371Y-96142782D02*
X168061371Y-95999925D01*
X168061371Y-95999925D02*
X168089942Y-95914211D01*
X168089942Y-95914211D02*
X168147085Y-95857068D01*
X168147085Y-95857068D02*
X168204228Y-95828497D01*
X168204228Y-95828497D02*
X168318514Y-95799925D01*
X168318514Y-95799925D02*
X168404228Y-95799925D01*
X168404228Y-95799925D02*
X168518514Y-95828497D01*
X168518514Y-95828497D02*
X168575657Y-95857068D01*
X168575657Y-95857068D02*
X168632800Y-95914211D01*
X168632800Y-95914211D02*
X168661371Y-95999925D01*
X168661371Y-95999925D02*
X168661371Y-96142782D01*
X162061371Y-94128496D02*
X161775657Y-94328496D01*
X162061371Y-94471353D02*
X161461371Y-94471353D01*
X161461371Y-94471353D02*
X161461371Y-94242782D01*
X161461371Y-94242782D02*
X161489942Y-94185639D01*
X161489942Y-94185639D02*
X161518514Y-94157068D01*
X161518514Y-94157068D02*
X161575657Y-94128496D01*
X161575657Y-94128496D02*
X161661371Y-94128496D01*
X161661371Y-94128496D02*
X161718514Y-94157068D01*
X161718514Y-94157068D02*
X161747085Y-94185639D01*
X161747085Y-94185639D02*
X161775657Y-94242782D01*
X161775657Y-94242782D02*
X161775657Y-94471353D01*
X161461371Y-93928496D02*
X162061371Y-93528496D01*
X161461371Y-93528496D02*
X162061371Y-93928496D01*
X156251503Y-98164228D02*
X156222931Y-98192800D01*
X156222931Y-98192800D02*
X156137217Y-98221371D01*
X156137217Y-98221371D02*
X156080074Y-98221371D01*
X156080074Y-98221371D02*
X155994360Y-98192800D01*
X155994360Y-98192800D02*
X155937217Y-98135657D01*
X155937217Y-98135657D02*
X155908646Y-98078514D01*
X155908646Y-98078514D02*
X155880074Y-97964228D01*
X155880074Y-97964228D02*
X155880074Y-97878514D01*
X155880074Y-97878514D02*
X155908646Y-97764228D01*
X155908646Y-97764228D02*
X155937217Y-97707085D01*
X155937217Y-97707085D02*
X155994360Y-97649942D01*
X155994360Y-97649942D02*
X156080074Y-97621371D01*
X156080074Y-97621371D02*
X156137217Y-97621371D01*
X156137217Y-97621371D02*
X156222931Y-97649942D01*
X156222931Y-97649942D02*
X156251503Y-97678514D01*
X156851503Y-98221371D02*
X156651503Y-97935657D01*
X156508646Y-98221371D02*
X156508646Y-97621371D01*
X156508646Y-97621371D02*
X156737217Y-97621371D01*
X156737217Y-97621371D02*
X156794360Y-97649942D01*
X156794360Y-97649942D02*
X156822931Y-97678514D01*
X156822931Y-97678514D02*
X156851503Y-97735657D01*
X156851503Y-97735657D02*
X156851503Y-97821371D01*
X156851503Y-97821371D02*
X156822931Y-97878514D01*
X156822931Y-97878514D02*
X156794360Y-97907085D01*
X156794360Y-97907085D02*
X156737217Y-97935657D01*
X156737217Y-97935657D02*
X156508646Y-97935657D01*
X157422931Y-98221371D02*
X157080074Y-98221371D01*
X157251503Y-98221371D02*
X157251503Y-97621371D01*
X157251503Y-97621371D02*
X157194360Y-97707085D01*
X157194360Y-97707085D02*
X157137217Y-97764228D01*
X157137217Y-97764228D02*
X157080074Y-97792800D01*
X157651503Y-97678514D02*
X157680075Y-97649942D01*
X157680075Y-97649942D02*
X157737218Y-97621371D01*
X157737218Y-97621371D02*
X157880075Y-97621371D01*
X157880075Y-97621371D02*
X157937218Y-97649942D01*
X157937218Y-97649942D02*
X157965789Y-97678514D01*
X157965789Y-97678514D02*
X157994360Y-97735657D01*
X157994360Y-97735657D02*
X157994360Y-97792800D01*
X157994360Y-97792800D02*
X157965789Y-97878514D01*
X157965789Y-97878514D02*
X157622932Y-98221371D01*
X157622932Y-98221371D02*
X157994360Y-98221371D01*
X158222932Y-97678514D02*
X158251504Y-97649942D01*
X158251504Y-97649942D02*
X158308647Y-97621371D01*
X158308647Y-97621371D02*
X158451504Y-97621371D01*
X158451504Y-97621371D02*
X158508647Y-97649942D01*
X158508647Y-97649942D02*
X158537218Y-97678514D01*
X158537218Y-97678514D02*
X158565789Y-97735657D01*
X158565789Y-97735657D02*
X158565789Y-97792800D01*
X158565789Y-97792800D02*
X158537218Y-97878514D01*
X158537218Y-97878514D02*
X158194361Y-98221371D01*
X158194361Y-98221371D02*
X158565789Y-98221371D01*
X158937218Y-97621371D02*
X158994361Y-97621371D01*
X158994361Y-97621371D02*
X159051504Y-97649942D01*
X159051504Y-97649942D02*
X159080076Y-97678514D01*
X159080076Y-97678514D02*
X159108647Y-97735657D01*
X159108647Y-97735657D02*
X159137218Y-97849942D01*
X159137218Y-97849942D02*
X159137218Y-97992800D01*
X159137218Y-97992800D02*
X159108647Y-98107085D01*
X159108647Y-98107085D02*
X159080076Y-98164228D01*
X159080076Y-98164228D02*
X159051504Y-98192800D01*
X159051504Y-98192800D02*
X158994361Y-98221371D01*
X158994361Y-98221371D02*
X158937218Y-98221371D01*
X158937218Y-98221371D02*
X158880076Y-98192800D01*
X158880076Y-98192800D02*
X158851504Y-98164228D01*
X158851504Y-98164228D02*
X158822933Y-98107085D01*
X158822933Y-98107085D02*
X158794361Y-97992800D01*
X158794361Y-97992800D02*
X158794361Y-97849942D01*
X158794361Y-97849942D02*
X158822933Y-97735657D01*
X158822933Y-97735657D02*
X158851504Y-97678514D01*
X158851504Y-97678514D02*
X158880076Y-97649942D01*
X158880076Y-97649942D02*
X158937218Y-97621371D01*
D11*
X99799999Y-99487088D02*
X99799999Y-98187088D01*
X99428572Y-101518111D02*
X99614286Y-101580015D01*
X99614286Y-101580015D02*
X99923810Y-101580015D01*
X99923810Y-101580015D02*
X100047619Y-101518111D01*
X100047619Y-101518111D02*
X100109524Y-101456206D01*
X100109524Y-101456206D02*
X100171429Y-101332396D01*
X100171429Y-101332396D02*
X100171429Y-101208587D01*
X100171429Y-101208587D02*
X100109524Y-101084777D01*
X100109524Y-101084777D02*
X100047619Y-101022872D01*
X100047619Y-101022872D02*
X99923810Y-100960968D01*
X99923810Y-100960968D02*
X99676191Y-100899063D01*
X99676191Y-100899063D02*
X99552381Y-100837158D01*
X99552381Y-100837158D02*
X99490476Y-100775253D01*
X99490476Y-100775253D02*
X99428572Y-100651444D01*
X99428572Y-100651444D02*
X99428572Y-100527634D01*
X99428572Y-100527634D02*
X99490476Y-100403825D01*
X99490476Y-100403825D02*
X99552381Y-100341920D01*
X99552381Y-100341920D02*
X99676191Y-100280015D01*
X99676191Y-100280015D02*
X99985714Y-100280015D01*
X99985714Y-100280015D02*
X100171429Y-100341920D01*
X99676190Y-102372942D02*
X99923809Y-102372942D01*
X99923809Y-102372942D02*
X100047619Y-102434847D01*
X100047619Y-102434847D02*
X100171428Y-102558657D01*
X100171428Y-102558657D02*
X100233333Y-102806276D01*
X100233333Y-102806276D02*
X100233333Y-103239609D01*
X100233333Y-103239609D02*
X100171428Y-103487228D01*
X100171428Y-103487228D02*
X100047619Y-103611038D01*
X100047619Y-103611038D02*
X99923809Y-103672942D01*
X99923809Y-103672942D02*
X99676190Y-103672942D01*
X99676190Y-103672942D02*
X99552381Y-103611038D01*
X99552381Y-103611038D02*
X99428571Y-103487228D01*
X99428571Y-103487228D02*
X99366667Y-103239609D01*
X99366667Y-103239609D02*
X99366667Y-102806276D01*
X99366667Y-102806276D02*
X99428571Y-102558657D01*
X99428571Y-102558657D02*
X99552381Y-102434847D01*
X99552381Y-102434847D02*
X99676190Y-102372942D01*
X100202381Y-105765869D02*
X99583333Y-105765869D01*
X99583333Y-105765869D02*
X99583333Y-104465869D01*
X99490476Y-107487368D02*
X100109523Y-107487368D01*
X99366666Y-107858796D02*
X99799999Y-106558796D01*
X99799999Y-106558796D02*
X100233333Y-107858796D01*
X99428571Y-108651723D02*
X100171428Y-108651723D01*
X99800000Y-109951723D02*
X99800000Y-108651723D01*
X99799999Y-112044650D02*
X99799999Y-110744650D01*
X99676190Y-112837577D02*
X99923809Y-112837577D01*
X99923809Y-112837577D02*
X100047619Y-112899482D01*
X100047619Y-112899482D02*
X100171428Y-113023292D01*
X100171428Y-113023292D02*
X100233333Y-113270911D01*
X100233333Y-113270911D02*
X100233333Y-113704244D01*
X100233333Y-113704244D02*
X100171428Y-113951863D01*
X100171428Y-113951863D02*
X100047619Y-114075673D01*
X100047619Y-114075673D02*
X99923809Y-114137577D01*
X99923809Y-114137577D02*
X99676190Y-114137577D01*
X99676190Y-114137577D02*
X99552381Y-114075673D01*
X99552381Y-114075673D02*
X99428571Y-113951863D01*
X99428571Y-113951863D02*
X99366667Y-113704244D01*
X99366667Y-113704244D02*
X99366667Y-113270911D01*
X99366667Y-113270911D02*
X99428571Y-113023292D01*
X99428571Y-113023292D02*
X99552381Y-112899482D01*
X99552381Y-112899482D02*
X99676190Y-112837577D01*
X99428571Y-116230504D02*
X99428571Y-114930504D01*
X99428571Y-114930504D02*
X100171428Y-116230504D01*
X100171428Y-116230504D02*
X100171428Y-114930504D01*
D10*
X168604228Y-91928496D02*
X168632800Y-91957068D01*
X168632800Y-91957068D02*
X168661371Y-92042782D01*
X168661371Y-92042782D02*
X168661371Y-92099925D01*
X168661371Y-92099925D02*
X168632800Y-92185639D01*
X168632800Y-92185639D02*
X168575657Y-92242782D01*
X168575657Y-92242782D02*
X168518514Y-92271353D01*
X168518514Y-92271353D02*
X168404228Y-92299925D01*
X168404228Y-92299925D02*
X168318514Y-92299925D01*
X168318514Y-92299925D02*
X168204228Y-92271353D01*
X168204228Y-92271353D02*
X168147085Y-92242782D01*
X168147085Y-92242782D02*
X168089942Y-92185639D01*
X168089942Y-92185639D02*
X168061371Y-92099925D01*
X168061371Y-92099925D02*
X168061371Y-92042782D01*
X168061371Y-92042782D02*
X168089942Y-91957068D01*
X168089942Y-91957068D02*
X168118514Y-91928496D01*
X168661371Y-91385639D02*
X168661371Y-91671353D01*
X168661371Y-91671353D02*
X168061371Y-91671353D01*
X168661371Y-91185639D02*
X168061371Y-91185639D01*
X168661371Y-90842782D02*
X168318514Y-91099925D01*
X168061371Y-90842782D02*
X168404228Y-91185639D01*
X126614286Y-74873371D02*
X126614286Y-74273371D01*
X127242857Y-74816228D02*
X127214285Y-74844800D01*
X127214285Y-74844800D02*
X127128571Y-74873371D01*
X127128571Y-74873371D02*
X127071428Y-74873371D01*
X127071428Y-74873371D02*
X126985714Y-74844800D01*
X126985714Y-74844800D02*
X126928571Y-74787657D01*
X126928571Y-74787657D02*
X126900000Y-74730514D01*
X126900000Y-74730514D02*
X126871428Y-74616228D01*
X126871428Y-74616228D02*
X126871428Y-74530514D01*
X126871428Y-74530514D02*
X126900000Y-74416228D01*
X126900000Y-74416228D02*
X126928571Y-74359085D01*
X126928571Y-74359085D02*
X126985714Y-74301942D01*
X126985714Y-74301942D02*
X127071428Y-74273371D01*
X127071428Y-74273371D02*
X127128571Y-74273371D01*
X127128571Y-74273371D02*
X127214285Y-74301942D01*
X127214285Y-74301942D02*
X127242857Y-74330514D01*
X127814285Y-74873371D02*
X127471428Y-74873371D01*
X127642857Y-74873371D02*
X127642857Y-74273371D01*
X127642857Y-74273371D02*
X127585714Y-74359085D01*
X127585714Y-74359085D02*
X127528571Y-74416228D01*
X127528571Y-74416228D02*
X127471428Y-74444800D01*
X142364285Y-75715228D02*
X142335713Y-75743800D01*
X142335713Y-75743800D02*
X142249999Y-75772371D01*
X142249999Y-75772371D02*
X142192856Y-75772371D01*
X142192856Y-75772371D02*
X142107142Y-75743800D01*
X142107142Y-75743800D02*
X142049999Y-75686657D01*
X142049999Y-75686657D02*
X142021428Y-75629514D01*
X142021428Y-75629514D02*
X141992856Y-75515228D01*
X141992856Y-75515228D02*
X141992856Y-75429514D01*
X141992856Y-75429514D02*
X142021428Y-75315228D01*
X142021428Y-75315228D02*
X142049999Y-75258085D01*
X142049999Y-75258085D02*
X142107142Y-75200942D01*
X142107142Y-75200942D02*
X142192856Y-75172371D01*
X142192856Y-75172371D02*
X142249999Y-75172371D01*
X142249999Y-75172371D02*
X142335713Y-75200942D01*
X142335713Y-75200942D02*
X142364285Y-75229514D01*
X142935713Y-75772371D02*
X142592856Y-75772371D01*
X142764285Y-75772371D02*
X142764285Y-75172371D01*
X142764285Y-75172371D02*
X142707142Y-75258085D01*
X142707142Y-75258085D02*
X142649999Y-75315228D01*
X142649999Y-75315228D02*
X142592856Y-75343800D01*
X143450000Y-75172371D02*
X143335714Y-75172371D01*
X143335714Y-75172371D02*
X143278571Y-75200942D01*
X143278571Y-75200942D02*
X143250000Y-75229514D01*
X143250000Y-75229514D02*
X143192857Y-75315228D01*
X143192857Y-75315228D02*
X143164285Y-75429514D01*
X143164285Y-75429514D02*
X143164285Y-75658085D01*
X143164285Y-75658085D02*
X143192857Y-75715228D01*
X143192857Y-75715228D02*
X143221428Y-75743800D01*
X143221428Y-75743800D02*
X143278571Y-75772371D01*
X143278571Y-75772371D02*
X143392857Y-75772371D01*
X143392857Y-75772371D02*
X143450000Y-75743800D01*
X143450000Y-75743800D02*
X143478571Y-75715228D01*
X143478571Y-75715228D02*
X143507142Y-75658085D01*
X143507142Y-75658085D02*
X143507142Y-75515228D01*
X143507142Y-75515228D02*
X143478571Y-75458085D01*
X143478571Y-75458085D02*
X143450000Y-75429514D01*
X143450000Y-75429514D02*
X143392857Y-75400942D01*
X143392857Y-75400942D02*
X143278571Y-75400942D01*
X143278571Y-75400942D02*
X143221428Y-75429514D01*
X143221428Y-75429514D02*
X143192857Y-75458085D01*
X143192857Y-75458085D02*
X143164285Y-75515228D01*
X139500000Y-76315228D02*
X139471428Y-76343800D01*
X139471428Y-76343800D02*
X139385714Y-76372371D01*
X139385714Y-76372371D02*
X139328571Y-76372371D01*
X139328571Y-76372371D02*
X139242857Y-76343800D01*
X139242857Y-76343800D02*
X139185714Y-76286657D01*
X139185714Y-76286657D02*
X139157143Y-76229514D01*
X139157143Y-76229514D02*
X139128571Y-76115228D01*
X139128571Y-76115228D02*
X139128571Y-76029514D01*
X139128571Y-76029514D02*
X139157143Y-75915228D01*
X139157143Y-75915228D02*
X139185714Y-75858085D01*
X139185714Y-75858085D02*
X139242857Y-75800942D01*
X139242857Y-75800942D02*
X139328571Y-75772371D01*
X139328571Y-75772371D02*
X139385714Y-75772371D01*
X139385714Y-75772371D02*
X139471428Y-75800942D01*
X139471428Y-75800942D02*
X139500000Y-75829514D01*
X139700000Y-75772371D02*
X140071428Y-75772371D01*
X140071428Y-75772371D02*
X139871428Y-76000942D01*
X139871428Y-76000942D02*
X139957143Y-76000942D01*
X139957143Y-76000942D02*
X140014286Y-76029514D01*
X140014286Y-76029514D02*
X140042857Y-76058085D01*
X140042857Y-76058085D02*
X140071428Y-76115228D01*
X140071428Y-76115228D02*
X140071428Y-76258085D01*
X140071428Y-76258085D02*
X140042857Y-76315228D01*
X140042857Y-76315228D02*
X140014286Y-76343800D01*
X140014286Y-76343800D02*
X139957143Y-76372371D01*
X139957143Y-76372371D02*
X139785714Y-76372371D01*
X139785714Y-76372371D02*
X139728571Y-76343800D01*
X139728571Y-76343800D02*
X139700000Y-76315228D01*
X151014285Y-93972371D02*
X150814285Y-93686657D01*
X150671428Y-93972371D02*
X150671428Y-93372371D01*
X150671428Y-93372371D02*
X150899999Y-93372371D01*
X150899999Y-93372371D02*
X150957142Y-93400942D01*
X150957142Y-93400942D02*
X150985713Y-93429514D01*
X150985713Y-93429514D02*
X151014285Y-93486657D01*
X151014285Y-93486657D02*
X151014285Y-93572371D01*
X151014285Y-93572371D02*
X150985713Y-93629514D01*
X150985713Y-93629514D02*
X150957142Y-93658085D01*
X150957142Y-93658085D02*
X150899999Y-93686657D01*
X150899999Y-93686657D02*
X150671428Y-93686657D01*
X151242856Y-93429514D02*
X151271428Y-93400942D01*
X151271428Y-93400942D02*
X151328571Y-93372371D01*
X151328571Y-93372371D02*
X151471428Y-93372371D01*
X151471428Y-93372371D02*
X151528571Y-93400942D01*
X151528571Y-93400942D02*
X151557142Y-93429514D01*
X151557142Y-93429514D02*
X151585713Y-93486657D01*
X151585713Y-93486657D02*
X151585713Y-93543800D01*
X151585713Y-93543800D02*
X151557142Y-93629514D01*
X151557142Y-93629514D02*
X151214285Y-93972371D01*
X151214285Y-93972371D02*
X151585713Y-93972371D01*
X151785714Y-93372371D02*
X152157142Y-93372371D01*
X152157142Y-93372371D02*
X151957142Y-93600942D01*
X151957142Y-93600942D02*
X152042857Y-93600942D01*
X152042857Y-93600942D02*
X152100000Y-93629514D01*
X152100000Y-93629514D02*
X152128571Y-93658085D01*
X152128571Y-93658085D02*
X152157142Y-93715228D01*
X152157142Y-93715228D02*
X152157142Y-93858085D01*
X152157142Y-93858085D02*
X152128571Y-93915228D01*
X152128571Y-93915228D02*
X152100000Y-93943800D01*
X152100000Y-93943800D02*
X152042857Y-93972371D01*
X152042857Y-93972371D02*
X151871428Y-93972371D01*
X151871428Y-93972371D02*
X151814285Y-93943800D01*
X151814285Y-93943800D02*
X151785714Y-93915228D01*
X121864285Y-105265228D02*
X121835713Y-105293800D01*
X121835713Y-105293800D02*
X121749999Y-105322371D01*
X121749999Y-105322371D02*
X121692856Y-105322371D01*
X121692856Y-105322371D02*
X121607142Y-105293800D01*
X121607142Y-105293800D02*
X121549999Y-105236657D01*
X121549999Y-105236657D02*
X121521428Y-105179514D01*
X121521428Y-105179514D02*
X121492856Y-105065228D01*
X121492856Y-105065228D02*
X121492856Y-104979514D01*
X121492856Y-104979514D02*
X121521428Y-104865228D01*
X121521428Y-104865228D02*
X121549999Y-104808085D01*
X121549999Y-104808085D02*
X121607142Y-104750942D01*
X121607142Y-104750942D02*
X121692856Y-104722371D01*
X121692856Y-104722371D02*
X121749999Y-104722371D01*
X121749999Y-104722371D02*
X121835713Y-104750942D01*
X121835713Y-104750942D02*
X121864285Y-104779514D01*
X122092856Y-104779514D02*
X122121428Y-104750942D01*
X122121428Y-104750942D02*
X122178571Y-104722371D01*
X122178571Y-104722371D02*
X122321428Y-104722371D01*
X122321428Y-104722371D02*
X122378571Y-104750942D01*
X122378571Y-104750942D02*
X122407142Y-104779514D01*
X122407142Y-104779514D02*
X122435713Y-104836657D01*
X122435713Y-104836657D02*
X122435713Y-104893800D01*
X122435713Y-104893800D02*
X122407142Y-104979514D01*
X122407142Y-104979514D02*
X122064285Y-105322371D01*
X122064285Y-105322371D02*
X122435713Y-105322371D01*
X122950000Y-104922371D02*
X122950000Y-105322371D01*
X122807142Y-104693800D02*
X122664285Y-105122371D01*
X122664285Y-105122371D02*
X123035714Y-105122371D01*
X129200000Y-82815228D02*
X129171428Y-82843800D01*
X129171428Y-82843800D02*
X129085714Y-82872371D01*
X129085714Y-82872371D02*
X129028571Y-82872371D01*
X129028571Y-82872371D02*
X128942857Y-82843800D01*
X128942857Y-82843800D02*
X128885714Y-82786657D01*
X128885714Y-82786657D02*
X128857143Y-82729514D01*
X128857143Y-82729514D02*
X128828571Y-82615228D01*
X128828571Y-82615228D02*
X128828571Y-82529514D01*
X128828571Y-82529514D02*
X128857143Y-82415228D01*
X128857143Y-82415228D02*
X128885714Y-82358085D01*
X128885714Y-82358085D02*
X128942857Y-82300942D01*
X128942857Y-82300942D02*
X129028571Y-82272371D01*
X129028571Y-82272371D02*
X129085714Y-82272371D01*
X129085714Y-82272371D02*
X129171428Y-82300942D01*
X129171428Y-82300942D02*
X129200000Y-82329514D01*
X129428571Y-82329514D02*
X129457143Y-82300942D01*
X129457143Y-82300942D02*
X129514286Y-82272371D01*
X129514286Y-82272371D02*
X129657143Y-82272371D01*
X129657143Y-82272371D02*
X129714286Y-82300942D01*
X129714286Y-82300942D02*
X129742857Y-82329514D01*
X129742857Y-82329514D02*
X129771428Y-82386657D01*
X129771428Y-82386657D02*
X129771428Y-82443800D01*
X129771428Y-82443800D02*
X129742857Y-82529514D01*
X129742857Y-82529514D02*
X129400000Y-82872371D01*
X129400000Y-82872371D02*
X129771428Y-82872371D01*
X133614285Y-98715228D02*
X133585713Y-98743800D01*
X133585713Y-98743800D02*
X133499999Y-98772371D01*
X133499999Y-98772371D02*
X133442856Y-98772371D01*
X133442856Y-98772371D02*
X133357142Y-98743800D01*
X133357142Y-98743800D02*
X133299999Y-98686657D01*
X133299999Y-98686657D02*
X133271428Y-98629514D01*
X133271428Y-98629514D02*
X133242856Y-98515228D01*
X133242856Y-98515228D02*
X133242856Y-98429514D01*
X133242856Y-98429514D02*
X133271428Y-98315228D01*
X133271428Y-98315228D02*
X133299999Y-98258085D01*
X133299999Y-98258085D02*
X133357142Y-98200942D01*
X133357142Y-98200942D02*
X133442856Y-98172371D01*
X133442856Y-98172371D02*
X133499999Y-98172371D01*
X133499999Y-98172371D02*
X133585713Y-98200942D01*
X133585713Y-98200942D02*
X133614285Y-98229514D01*
X133842856Y-98229514D02*
X133871428Y-98200942D01*
X133871428Y-98200942D02*
X133928571Y-98172371D01*
X133928571Y-98172371D02*
X134071428Y-98172371D01*
X134071428Y-98172371D02*
X134128571Y-98200942D01*
X134128571Y-98200942D02*
X134157142Y-98229514D01*
X134157142Y-98229514D02*
X134185713Y-98286657D01*
X134185713Y-98286657D02*
X134185713Y-98343800D01*
X134185713Y-98343800D02*
X134157142Y-98429514D01*
X134157142Y-98429514D02*
X133814285Y-98772371D01*
X133814285Y-98772371D02*
X134185713Y-98772371D01*
X134385714Y-98172371D02*
X134757142Y-98172371D01*
X134757142Y-98172371D02*
X134557142Y-98400942D01*
X134557142Y-98400942D02*
X134642857Y-98400942D01*
X134642857Y-98400942D02*
X134700000Y-98429514D01*
X134700000Y-98429514D02*
X134728571Y-98458085D01*
X134728571Y-98458085D02*
X134757142Y-98515228D01*
X134757142Y-98515228D02*
X134757142Y-98658085D01*
X134757142Y-98658085D02*
X134728571Y-98715228D01*
X134728571Y-98715228D02*
X134700000Y-98743800D01*
X134700000Y-98743800D02*
X134642857Y-98772371D01*
X134642857Y-98772371D02*
X134471428Y-98772371D01*
X134471428Y-98772371D02*
X134414285Y-98743800D01*
X134414285Y-98743800D02*
X134385714Y-98715228D01*
X140814285Y-97472371D02*
X140614285Y-97186657D01*
X140471428Y-97472371D02*
X140471428Y-96872371D01*
X140471428Y-96872371D02*
X140699999Y-96872371D01*
X140699999Y-96872371D02*
X140757142Y-96900942D01*
X140757142Y-96900942D02*
X140785713Y-96929514D01*
X140785713Y-96929514D02*
X140814285Y-96986657D01*
X140814285Y-96986657D02*
X140814285Y-97072371D01*
X140814285Y-97072371D02*
X140785713Y-97129514D01*
X140785713Y-97129514D02*
X140757142Y-97158085D01*
X140757142Y-97158085D02*
X140699999Y-97186657D01*
X140699999Y-97186657D02*
X140471428Y-97186657D01*
X141385713Y-97472371D02*
X141042856Y-97472371D01*
X141214285Y-97472371D02*
X141214285Y-96872371D01*
X141214285Y-96872371D02*
X141157142Y-96958085D01*
X141157142Y-96958085D02*
X141099999Y-97015228D01*
X141099999Y-97015228D02*
X141042856Y-97043800D01*
X141728571Y-97129514D02*
X141671428Y-97100942D01*
X141671428Y-97100942D02*
X141642857Y-97072371D01*
X141642857Y-97072371D02*
X141614285Y-97015228D01*
X141614285Y-97015228D02*
X141614285Y-96986657D01*
X141614285Y-96986657D02*
X141642857Y-96929514D01*
X141642857Y-96929514D02*
X141671428Y-96900942D01*
X141671428Y-96900942D02*
X141728571Y-96872371D01*
X141728571Y-96872371D02*
X141842857Y-96872371D01*
X141842857Y-96872371D02*
X141900000Y-96900942D01*
X141900000Y-96900942D02*
X141928571Y-96929514D01*
X141928571Y-96929514D02*
X141957142Y-96986657D01*
X141957142Y-96986657D02*
X141957142Y-97015228D01*
X141957142Y-97015228D02*
X141928571Y-97072371D01*
X141928571Y-97072371D02*
X141900000Y-97100942D01*
X141900000Y-97100942D02*
X141842857Y-97129514D01*
X141842857Y-97129514D02*
X141728571Y-97129514D01*
X141728571Y-97129514D02*
X141671428Y-97158085D01*
X141671428Y-97158085D02*
X141642857Y-97186657D01*
X141642857Y-97186657D02*
X141614285Y-97243800D01*
X141614285Y-97243800D02*
X141614285Y-97358085D01*
X141614285Y-97358085D02*
X141642857Y-97415228D01*
X141642857Y-97415228D02*
X141671428Y-97443800D01*
X141671428Y-97443800D02*
X141728571Y-97472371D01*
X141728571Y-97472371D02*
X141842857Y-97472371D01*
X141842857Y-97472371D02*
X141900000Y-97443800D01*
X141900000Y-97443800D02*
X141928571Y-97415228D01*
X141928571Y-97415228D02*
X141957142Y-97358085D01*
X141957142Y-97358085D02*
X141957142Y-97243800D01*
X141957142Y-97243800D02*
X141928571Y-97186657D01*
X141928571Y-97186657D02*
X141900000Y-97158085D01*
X141900000Y-97158085D02*
X141842857Y-97129514D01*
X130719854Y-89665337D02*
X130376402Y-89604728D01*
X130477417Y-89907773D02*
X130053153Y-89483509D01*
X130053153Y-89483509D02*
X130214777Y-89321885D01*
X130214777Y-89321885D02*
X130275387Y-89301682D01*
X130275387Y-89301682D02*
X130315793Y-89301682D01*
X130315793Y-89301682D02*
X130376402Y-89321885D01*
X130376402Y-89321885D02*
X130437011Y-89382494D01*
X130437011Y-89382494D02*
X130457214Y-89443103D01*
X130457214Y-89443103D02*
X130457214Y-89483509D01*
X130457214Y-89483509D02*
X130437011Y-89544118D01*
X130437011Y-89544118D02*
X130275387Y-89705743D01*
X131123915Y-89261276D02*
X130881478Y-89503712D01*
X131002696Y-89382494D02*
X130578432Y-88958230D01*
X130578432Y-88958230D02*
X130598635Y-89059245D01*
X130598635Y-89059245D02*
X130598635Y-89140057D01*
X130598635Y-89140057D02*
X130578432Y-89200667D01*
X130901681Y-88715793D02*
X130901681Y-88675387D01*
X130901681Y-88675387D02*
X130921885Y-88614778D01*
X130921885Y-88614778D02*
X131022900Y-88513762D01*
X131022900Y-88513762D02*
X131083509Y-88493559D01*
X131083509Y-88493559D02*
X131123915Y-88493559D01*
X131123915Y-88493559D02*
X131184524Y-88513762D01*
X131184524Y-88513762D02*
X131224930Y-88554169D01*
X131224930Y-88554169D02*
X131265336Y-88634981D01*
X131265336Y-88634981D02*
X131265336Y-89119854D01*
X131265336Y-89119854D02*
X131527976Y-88857214D01*
X134914285Y-88315228D02*
X134885713Y-88343800D01*
X134885713Y-88343800D02*
X134799999Y-88372371D01*
X134799999Y-88372371D02*
X134742856Y-88372371D01*
X134742856Y-88372371D02*
X134657142Y-88343800D01*
X134657142Y-88343800D02*
X134599999Y-88286657D01*
X134599999Y-88286657D02*
X134571428Y-88229514D01*
X134571428Y-88229514D02*
X134542856Y-88115228D01*
X134542856Y-88115228D02*
X134542856Y-88029514D01*
X134542856Y-88029514D02*
X134571428Y-87915228D01*
X134571428Y-87915228D02*
X134599999Y-87858085D01*
X134599999Y-87858085D02*
X134657142Y-87800942D01*
X134657142Y-87800942D02*
X134742856Y-87772371D01*
X134742856Y-87772371D02*
X134799999Y-87772371D01*
X134799999Y-87772371D02*
X134885713Y-87800942D01*
X134885713Y-87800942D02*
X134914285Y-87829514D01*
X135485713Y-88372371D02*
X135142856Y-88372371D01*
X135314285Y-88372371D02*
X135314285Y-87772371D01*
X135314285Y-87772371D02*
X135257142Y-87858085D01*
X135257142Y-87858085D02*
X135199999Y-87915228D01*
X135199999Y-87915228D02*
X135142856Y-87943800D01*
X135771428Y-88372371D02*
X135885714Y-88372371D01*
X135885714Y-88372371D02*
X135942857Y-88343800D01*
X135942857Y-88343800D02*
X135971428Y-88315228D01*
X135971428Y-88315228D02*
X136028571Y-88229514D01*
X136028571Y-88229514D02*
X136057142Y-88115228D01*
X136057142Y-88115228D02*
X136057142Y-87886657D01*
X136057142Y-87886657D02*
X136028571Y-87829514D01*
X136028571Y-87829514D02*
X136000000Y-87800942D01*
X136000000Y-87800942D02*
X135942857Y-87772371D01*
X135942857Y-87772371D02*
X135828571Y-87772371D01*
X135828571Y-87772371D02*
X135771428Y-87800942D01*
X135771428Y-87800942D02*
X135742857Y-87829514D01*
X135742857Y-87829514D02*
X135714285Y-87886657D01*
X135714285Y-87886657D02*
X135714285Y-88029514D01*
X135714285Y-88029514D02*
X135742857Y-88086657D01*
X135742857Y-88086657D02*
X135771428Y-88115228D01*
X135771428Y-88115228D02*
X135828571Y-88143800D01*
X135828571Y-88143800D02*
X135942857Y-88143800D01*
X135942857Y-88143800D02*
X136000000Y-88115228D01*
X136000000Y-88115228D02*
X136028571Y-88086657D01*
X136028571Y-88086657D02*
X136057142Y-88029514D01*
X155514285Y-87715228D02*
X155485713Y-87743800D01*
X155485713Y-87743800D02*
X155399999Y-87772371D01*
X155399999Y-87772371D02*
X155342856Y-87772371D01*
X155342856Y-87772371D02*
X155257142Y-87743800D01*
X155257142Y-87743800D02*
X155199999Y-87686657D01*
X155199999Y-87686657D02*
X155171428Y-87629514D01*
X155171428Y-87629514D02*
X155142856Y-87515228D01*
X155142856Y-87515228D02*
X155142856Y-87429514D01*
X155142856Y-87429514D02*
X155171428Y-87315228D01*
X155171428Y-87315228D02*
X155199999Y-87258085D01*
X155199999Y-87258085D02*
X155257142Y-87200942D01*
X155257142Y-87200942D02*
X155342856Y-87172371D01*
X155342856Y-87172371D02*
X155399999Y-87172371D01*
X155399999Y-87172371D02*
X155485713Y-87200942D01*
X155485713Y-87200942D02*
X155514285Y-87229514D01*
X156085713Y-87772371D02*
X155742856Y-87772371D01*
X155914285Y-87772371D02*
X155914285Y-87172371D01*
X155914285Y-87172371D02*
X155857142Y-87258085D01*
X155857142Y-87258085D02*
X155799999Y-87315228D01*
X155799999Y-87315228D02*
X155742856Y-87343800D01*
X156600000Y-87372371D02*
X156600000Y-87772371D01*
X156457142Y-87143800D02*
X156314285Y-87572371D01*
X156314285Y-87572371D02*
X156685714Y-87572371D01*
X90912000Y-97320228D02*
X90883428Y-97348800D01*
X90883428Y-97348800D02*
X90797714Y-97377371D01*
X90797714Y-97377371D02*
X90740571Y-97377371D01*
X90740571Y-97377371D02*
X90654857Y-97348800D01*
X90654857Y-97348800D02*
X90597714Y-97291657D01*
X90597714Y-97291657D02*
X90569143Y-97234514D01*
X90569143Y-97234514D02*
X90540571Y-97120228D01*
X90540571Y-97120228D02*
X90540571Y-97034514D01*
X90540571Y-97034514D02*
X90569143Y-96920228D01*
X90569143Y-96920228D02*
X90597714Y-96863085D01*
X90597714Y-96863085D02*
X90654857Y-96805942D01*
X90654857Y-96805942D02*
X90740571Y-96777371D01*
X90740571Y-96777371D02*
X90797714Y-96777371D01*
X90797714Y-96777371D02*
X90883428Y-96805942D01*
X90883428Y-96805942D02*
X90912000Y-96834514D01*
X91254857Y-97034514D02*
X91197714Y-97005942D01*
X91197714Y-97005942D02*
X91169143Y-96977371D01*
X91169143Y-96977371D02*
X91140571Y-96920228D01*
X91140571Y-96920228D02*
X91140571Y-96891657D01*
X91140571Y-96891657D02*
X91169143Y-96834514D01*
X91169143Y-96834514D02*
X91197714Y-96805942D01*
X91197714Y-96805942D02*
X91254857Y-96777371D01*
X91254857Y-96777371D02*
X91369143Y-96777371D01*
X91369143Y-96777371D02*
X91426286Y-96805942D01*
X91426286Y-96805942D02*
X91454857Y-96834514D01*
X91454857Y-96834514D02*
X91483428Y-96891657D01*
X91483428Y-96891657D02*
X91483428Y-96920228D01*
X91483428Y-96920228D02*
X91454857Y-96977371D01*
X91454857Y-96977371D02*
X91426286Y-97005942D01*
X91426286Y-97005942D02*
X91369143Y-97034514D01*
X91369143Y-97034514D02*
X91254857Y-97034514D01*
X91254857Y-97034514D02*
X91197714Y-97063085D01*
X91197714Y-97063085D02*
X91169143Y-97091657D01*
X91169143Y-97091657D02*
X91140571Y-97148800D01*
X91140571Y-97148800D02*
X91140571Y-97263085D01*
X91140571Y-97263085D02*
X91169143Y-97320228D01*
X91169143Y-97320228D02*
X91197714Y-97348800D01*
X91197714Y-97348800D02*
X91254857Y-97377371D01*
X91254857Y-97377371D02*
X91369143Y-97377371D01*
X91369143Y-97377371D02*
X91426286Y-97348800D01*
X91426286Y-97348800D02*
X91454857Y-97320228D01*
X91454857Y-97320228D02*
X91483428Y-97263085D01*
X91483428Y-97263085D02*
X91483428Y-97148800D01*
X91483428Y-97148800D02*
X91454857Y-97091657D01*
X91454857Y-97091657D02*
X91426286Y-97063085D01*
X91426286Y-97063085D02*
X91369143Y-97034514D01*
X134114285Y-75040228D02*
X134085713Y-75068800D01*
X134085713Y-75068800D02*
X133999999Y-75097371D01*
X133999999Y-75097371D02*
X133942856Y-75097371D01*
X133942856Y-75097371D02*
X133857142Y-75068800D01*
X133857142Y-75068800D02*
X133799999Y-75011657D01*
X133799999Y-75011657D02*
X133771428Y-74954514D01*
X133771428Y-74954514D02*
X133742856Y-74840228D01*
X133742856Y-74840228D02*
X133742856Y-74754514D01*
X133742856Y-74754514D02*
X133771428Y-74640228D01*
X133771428Y-74640228D02*
X133799999Y-74583085D01*
X133799999Y-74583085D02*
X133857142Y-74525942D01*
X133857142Y-74525942D02*
X133942856Y-74497371D01*
X133942856Y-74497371D02*
X133999999Y-74497371D01*
X133999999Y-74497371D02*
X134085713Y-74525942D01*
X134085713Y-74525942D02*
X134114285Y-74554514D01*
X134685713Y-75097371D02*
X134342856Y-75097371D01*
X134514285Y-75097371D02*
X134514285Y-74497371D01*
X134514285Y-74497371D02*
X134457142Y-74583085D01*
X134457142Y-74583085D02*
X134399999Y-74640228D01*
X134399999Y-74640228D02*
X134342856Y-74668800D01*
X134885714Y-74497371D02*
X135257142Y-74497371D01*
X135257142Y-74497371D02*
X135057142Y-74725942D01*
X135057142Y-74725942D02*
X135142857Y-74725942D01*
X135142857Y-74725942D02*
X135200000Y-74754514D01*
X135200000Y-74754514D02*
X135228571Y-74783085D01*
X135228571Y-74783085D02*
X135257142Y-74840228D01*
X135257142Y-74840228D02*
X135257142Y-74983085D01*
X135257142Y-74983085D02*
X135228571Y-75040228D01*
X135228571Y-75040228D02*
X135200000Y-75068800D01*
X135200000Y-75068800D02*
X135142857Y-75097371D01*
X135142857Y-75097371D02*
X134971428Y-75097371D01*
X134971428Y-75097371D02*
X134914285Y-75068800D01*
X134914285Y-75068800D02*
X134885714Y-75040228D01*
X105276785Y-105415228D02*
X105248213Y-105443800D01*
X105248213Y-105443800D02*
X105162499Y-105472371D01*
X105162499Y-105472371D02*
X105105356Y-105472371D01*
X105105356Y-105472371D02*
X105019642Y-105443800D01*
X105019642Y-105443800D02*
X104962499Y-105386657D01*
X104962499Y-105386657D02*
X104933928Y-105329514D01*
X104933928Y-105329514D02*
X104905356Y-105215228D01*
X104905356Y-105215228D02*
X104905356Y-105129514D01*
X104905356Y-105129514D02*
X104933928Y-105015228D01*
X104933928Y-105015228D02*
X104962499Y-104958085D01*
X104962499Y-104958085D02*
X105019642Y-104900942D01*
X105019642Y-104900942D02*
X105105356Y-104872371D01*
X105105356Y-104872371D02*
X105162499Y-104872371D01*
X105162499Y-104872371D02*
X105248213Y-104900942D01*
X105248213Y-104900942D02*
X105276785Y-104929514D01*
X105505356Y-104929514D02*
X105533928Y-104900942D01*
X105533928Y-104900942D02*
X105591071Y-104872371D01*
X105591071Y-104872371D02*
X105733928Y-104872371D01*
X105733928Y-104872371D02*
X105791071Y-104900942D01*
X105791071Y-104900942D02*
X105819642Y-104929514D01*
X105819642Y-104929514D02*
X105848213Y-104986657D01*
X105848213Y-104986657D02*
X105848213Y-105043800D01*
X105848213Y-105043800D02*
X105819642Y-105129514D01*
X105819642Y-105129514D02*
X105476785Y-105472371D01*
X105476785Y-105472371D02*
X105848213Y-105472371D01*
X106391071Y-104872371D02*
X106105357Y-104872371D01*
X106105357Y-104872371D02*
X106076785Y-105158085D01*
X106076785Y-105158085D02*
X106105357Y-105129514D01*
X106105357Y-105129514D02*
X106162500Y-105100942D01*
X106162500Y-105100942D02*
X106305357Y-105100942D01*
X106305357Y-105100942D02*
X106362500Y-105129514D01*
X106362500Y-105129514D02*
X106391071Y-105158085D01*
X106391071Y-105158085D02*
X106419642Y-105215228D01*
X106419642Y-105215228D02*
X106419642Y-105358085D01*
X106419642Y-105358085D02*
X106391071Y-105415228D01*
X106391071Y-105415228D02*
X106362500Y-105443800D01*
X106362500Y-105443800D02*
X106305357Y-105472371D01*
X106305357Y-105472371D02*
X106162500Y-105472371D01*
X106162500Y-105472371D02*
X106105357Y-105443800D01*
X106105357Y-105443800D02*
X106076785Y-105415228D01*
X122415228Y-92005714D02*
X122443800Y-92034286D01*
X122443800Y-92034286D02*
X122472371Y-92120000D01*
X122472371Y-92120000D02*
X122472371Y-92177143D01*
X122472371Y-92177143D02*
X122443800Y-92262857D01*
X122443800Y-92262857D02*
X122386657Y-92320000D01*
X122386657Y-92320000D02*
X122329514Y-92348571D01*
X122329514Y-92348571D02*
X122215228Y-92377143D01*
X122215228Y-92377143D02*
X122129514Y-92377143D01*
X122129514Y-92377143D02*
X122015228Y-92348571D01*
X122015228Y-92348571D02*
X121958085Y-92320000D01*
X121958085Y-92320000D02*
X121900942Y-92262857D01*
X121900942Y-92262857D02*
X121872371Y-92177143D01*
X121872371Y-92177143D02*
X121872371Y-92120000D01*
X121872371Y-92120000D02*
X121900942Y-92034286D01*
X121900942Y-92034286D02*
X121929514Y-92005714D01*
X121929514Y-91777143D02*
X121900942Y-91748571D01*
X121900942Y-91748571D02*
X121872371Y-91691429D01*
X121872371Y-91691429D02*
X121872371Y-91548571D01*
X121872371Y-91548571D02*
X121900942Y-91491429D01*
X121900942Y-91491429D02*
X121929514Y-91462857D01*
X121929514Y-91462857D02*
X121986657Y-91434286D01*
X121986657Y-91434286D02*
X122043800Y-91434286D01*
X122043800Y-91434286D02*
X122129514Y-91462857D01*
X122129514Y-91462857D02*
X122472371Y-91805714D01*
X122472371Y-91805714D02*
X122472371Y-91434286D01*
X122129514Y-91091428D02*
X122100942Y-91148571D01*
X122100942Y-91148571D02*
X122072371Y-91177142D01*
X122072371Y-91177142D02*
X122015228Y-91205714D01*
X122015228Y-91205714D02*
X121986657Y-91205714D01*
X121986657Y-91205714D02*
X121929514Y-91177142D01*
X121929514Y-91177142D02*
X121900942Y-91148571D01*
X121900942Y-91148571D02*
X121872371Y-91091428D01*
X121872371Y-91091428D02*
X121872371Y-90977142D01*
X121872371Y-90977142D02*
X121900942Y-90920000D01*
X121900942Y-90920000D02*
X121929514Y-90891428D01*
X121929514Y-90891428D02*
X121986657Y-90862857D01*
X121986657Y-90862857D02*
X122015228Y-90862857D01*
X122015228Y-90862857D02*
X122072371Y-90891428D01*
X122072371Y-90891428D02*
X122100942Y-90920000D01*
X122100942Y-90920000D02*
X122129514Y-90977142D01*
X122129514Y-90977142D02*
X122129514Y-91091428D01*
X122129514Y-91091428D02*
X122158085Y-91148571D01*
X122158085Y-91148571D02*
X122186657Y-91177142D01*
X122186657Y-91177142D02*
X122243800Y-91205714D01*
X122243800Y-91205714D02*
X122358085Y-91205714D01*
X122358085Y-91205714D02*
X122415228Y-91177142D01*
X122415228Y-91177142D02*
X122443800Y-91148571D01*
X122443800Y-91148571D02*
X122472371Y-91091428D01*
X122472371Y-91091428D02*
X122472371Y-90977142D01*
X122472371Y-90977142D02*
X122443800Y-90920000D01*
X122443800Y-90920000D02*
X122415228Y-90891428D01*
X122415228Y-90891428D02*
X122358085Y-90862857D01*
X122358085Y-90862857D02*
X122243800Y-90862857D01*
X122243800Y-90862857D02*
X122186657Y-90891428D01*
X122186657Y-90891428D02*
X122158085Y-90920000D01*
X122158085Y-90920000D02*
X122129514Y-90977142D01*
X126514285Y-93727728D02*
X126485713Y-93756300D01*
X126485713Y-93756300D02*
X126399999Y-93784871D01*
X126399999Y-93784871D02*
X126342856Y-93784871D01*
X126342856Y-93784871D02*
X126257142Y-93756300D01*
X126257142Y-93756300D02*
X126199999Y-93699157D01*
X126199999Y-93699157D02*
X126171428Y-93642014D01*
X126171428Y-93642014D02*
X126142856Y-93527728D01*
X126142856Y-93527728D02*
X126142856Y-93442014D01*
X126142856Y-93442014D02*
X126171428Y-93327728D01*
X126171428Y-93327728D02*
X126199999Y-93270585D01*
X126199999Y-93270585D02*
X126257142Y-93213442D01*
X126257142Y-93213442D02*
X126342856Y-93184871D01*
X126342856Y-93184871D02*
X126399999Y-93184871D01*
X126399999Y-93184871D02*
X126485713Y-93213442D01*
X126485713Y-93213442D02*
X126514285Y-93242014D01*
X126742856Y-93242014D02*
X126771428Y-93213442D01*
X126771428Y-93213442D02*
X126828571Y-93184871D01*
X126828571Y-93184871D02*
X126971428Y-93184871D01*
X126971428Y-93184871D02*
X127028571Y-93213442D01*
X127028571Y-93213442D02*
X127057142Y-93242014D01*
X127057142Y-93242014D02*
X127085713Y-93299157D01*
X127085713Y-93299157D02*
X127085713Y-93356300D01*
X127085713Y-93356300D02*
X127057142Y-93442014D01*
X127057142Y-93442014D02*
X126714285Y-93784871D01*
X126714285Y-93784871D02*
X127085713Y-93784871D01*
X127600000Y-93184871D02*
X127485714Y-93184871D01*
X127485714Y-93184871D02*
X127428571Y-93213442D01*
X127428571Y-93213442D02*
X127400000Y-93242014D01*
X127400000Y-93242014D02*
X127342857Y-93327728D01*
X127342857Y-93327728D02*
X127314285Y-93442014D01*
X127314285Y-93442014D02*
X127314285Y-93670585D01*
X127314285Y-93670585D02*
X127342857Y-93727728D01*
X127342857Y-93727728D02*
X127371428Y-93756300D01*
X127371428Y-93756300D02*
X127428571Y-93784871D01*
X127428571Y-93784871D02*
X127542857Y-93784871D01*
X127542857Y-93784871D02*
X127600000Y-93756300D01*
X127600000Y-93756300D02*
X127628571Y-93727728D01*
X127628571Y-93727728D02*
X127657142Y-93670585D01*
X127657142Y-93670585D02*
X127657142Y-93527728D01*
X127657142Y-93527728D02*
X127628571Y-93470585D01*
X127628571Y-93470585D02*
X127600000Y-93442014D01*
X127600000Y-93442014D02*
X127542857Y-93413442D01*
X127542857Y-93413442D02*
X127428571Y-93413442D01*
X127428571Y-93413442D02*
X127371428Y-93442014D01*
X127371428Y-93442014D02*
X127342857Y-93470585D01*
X127342857Y-93470585D02*
X127314285Y-93527728D01*
X154414285Y-92415228D02*
X154385713Y-92443800D01*
X154385713Y-92443800D02*
X154299999Y-92472371D01*
X154299999Y-92472371D02*
X154242856Y-92472371D01*
X154242856Y-92472371D02*
X154157142Y-92443800D01*
X154157142Y-92443800D02*
X154099999Y-92386657D01*
X154099999Y-92386657D02*
X154071428Y-92329514D01*
X154071428Y-92329514D02*
X154042856Y-92215228D01*
X154042856Y-92215228D02*
X154042856Y-92129514D01*
X154042856Y-92129514D02*
X154071428Y-92015228D01*
X154071428Y-92015228D02*
X154099999Y-91958085D01*
X154099999Y-91958085D02*
X154157142Y-91900942D01*
X154157142Y-91900942D02*
X154242856Y-91872371D01*
X154242856Y-91872371D02*
X154299999Y-91872371D01*
X154299999Y-91872371D02*
X154385713Y-91900942D01*
X154385713Y-91900942D02*
X154414285Y-91929514D01*
X154614285Y-91872371D02*
X154985713Y-91872371D01*
X154985713Y-91872371D02*
X154785713Y-92100942D01*
X154785713Y-92100942D02*
X154871428Y-92100942D01*
X154871428Y-92100942D02*
X154928571Y-92129514D01*
X154928571Y-92129514D02*
X154957142Y-92158085D01*
X154957142Y-92158085D02*
X154985713Y-92215228D01*
X154985713Y-92215228D02*
X154985713Y-92358085D01*
X154985713Y-92358085D02*
X154957142Y-92415228D01*
X154957142Y-92415228D02*
X154928571Y-92443800D01*
X154928571Y-92443800D02*
X154871428Y-92472371D01*
X154871428Y-92472371D02*
X154699999Y-92472371D01*
X154699999Y-92472371D02*
X154642856Y-92443800D01*
X154642856Y-92443800D02*
X154614285Y-92415228D01*
X155185714Y-91872371D02*
X155557142Y-91872371D01*
X155557142Y-91872371D02*
X155357142Y-92100942D01*
X155357142Y-92100942D02*
X155442857Y-92100942D01*
X155442857Y-92100942D02*
X155500000Y-92129514D01*
X155500000Y-92129514D02*
X155528571Y-92158085D01*
X155528571Y-92158085D02*
X155557142Y-92215228D01*
X155557142Y-92215228D02*
X155557142Y-92358085D01*
X155557142Y-92358085D02*
X155528571Y-92415228D01*
X155528571Y-92415228D02*
X155500000Y-92443800D01*
X155500000Y-92443800D02*
X155442857Y-92472371D01*
X155442857Y-92472371D02*
X155271428Y-92472371D01*
X155271428Y-92472371D02*
X155214285Y-92443800D01*
X155214285Y-92443800D02*
X155185714Y-92415228D01*
X113914285Y-101565228D02*
X113885713Y-101593800D01*
X113885713Y-101593800D02*
X113799999Y-101622371D01*
X113799999Y-101622371D02*
X113742856Y-101622371D01*
X113742856Y-101622371D02*
X113657142Y-101593800D01*
X113657142Y-101593800D02*
X113599999Y-101536657D01*
X113599999Y-101536657D02*
X113571428Y-101479514D01*
X113571428Y-101479514D02*
X113542856Y-101365228D01*
X113542856Y-101365228D02*
X113542856Y-101279514D01*
X113542856Y-101279514D02*
X113571428Y-101165228D01*
X113571428Y-101165228D02*
X113599999Y-101108085D01*
X113599999Y-101108085D02*
X113657142Y-101050942D01*
X113657142Y-101050942D02*
X113742856Y-101022371D01*
X113742856Y-101022371D02*
X113799999Y-101022371D01*
X113799999Y-101022371D02*
X113885713Y-101050942D01*
X113885713Y-101050942D02*
X113914285Y-101079514D01*
X114142856Y-101079514D02*
X114171428Y-101050942D01*
X114171428Y-101050942D02*
X114228571Y-101022371D01*
X114228571Y-101022371D02*
X114371428Y-101022371D01*
X114371428Y-101022371D02*
X114428571Y-101050942D01*
X114428571Y-101050942D02*
X114457142Y-101079514D01*
X114457142Y-101079514D02*
X114485713Y-101136657D01*
X114485713Y-101136657D02*
X114485713Y-101193800D01*
X114485713Y-101193800D02*
X114457142Y-101279514D01*
X114457142Y-101279514D02*
X114114285Y-101622371D01*
X114114285Y-101622371D02*
X114485713Y-101622371D01*
X114771428Y-101622371D02*
X114885714Y-101622371D01*
X114885714Y-101622371D02*
X114942857Y-101593800D01*
X114942857Y-101593800D02*
X114971428Y-101565228D01*
X114971428Y-101565228D02*
X115028571Y-101479514D01*
X115028571Y-101479514D02*
X115057142Y-101365228D01*
X115057142Y-101365228D02*
X115057142Y-101136657D01*
X115057142Y-101136657D02*
X115028571Y-101079514D01*
X115028571Y-101079514D02*
X115000000Y-101050942D01*
X115000000Y-101050942D02*
X114942857Y-101022371D01*
X114942857Y-101022371D02*
X114828571Y-101022371D01*
X114828571Y-101022371D02*
X114771428Y-101050942D01*
X114771428Y-101050942D02*
X114742857Y-101079514D01*
X114742857Y-101079514D02*
X114714285Y-101136657D01*
X114714285Y-101136657D02*
X114714285Y-101279514D01*
X114714285Y-101279514D02*
X114742857Y-101336657D01*
X114742857Y-101336657D02*
X114771428Y-101365228D01*
X114771428Y-101365228D02*
X114828571Y-101393800D01*
X114828571Y-101393800D02*
X114942857Y-101393800D01*
X114942857Y-101393800D02*
X115000000Y-101365228D01*
X115000000Y-101365228D02*
X115028571Y-101336657D01*
X115028571Y-101336657D02*
X115057142Y-101279514D01*
X154014285Y-81215228D02*
X153985713Y-81243800D01*
X153985713Y-81243800D02*
X153899999Y-81272371D01*
X153899999Y-81272371D02*
X153842856Y-81272371D01*
X153842856Y-81272371D02*
X153757142Y-81243800D01*
X153757142Y-81243800D02*
X153699999Y-81186657D01*
X153699999Y-81186657D02*
X153671428Y-81129514D01*
X153671428Y-81129514D02*
X153642856Y-81015228D01*
X153642856Y-81015228D02*
X153642856Y-80929514D01*
X153642856Y-80929514D02*
X153671428Y-80815228D01*
X153671428Y-80815228D02*
X153699999Y-80758085D01*
X153699999Y-80758085D02*
X153757142Y-80700942D01*
X153757142Y-80700942D02*
X153842856Y-80672371D01*
X153842856Y-80672371D02*
X153899999Y-80672371D01*
X153899999Y-80672371D02*
X153985713Y-80700942D01*
X153985713Y-80700942D02*
X154014285Y-80729514D01*
X154242856Y-80729514D02*
X154271428Y-80700942D01*
X154271428Y-80700942D02*
X154328571Y-80672371D01*
X154328571Y-80672371D02*
X154471428Y-80672371D01*
X154471428Y-80672371D02*
X154528571Y-80700942D01*
X154528571Y-80700942D02*
X154557142Y-80729514D01*
X154557142Y-80729514D02*
X154585713Y-80786657D01*
X154585713Y-80786657D02*
X154585713Y-80843800D01*
X154585713Y-80843800D02*
X154557142Y-80929514D01*
X154557142Y-80929514D02*
X154214285Y-81272371D01*
X154214285Y-81272371D02*
X154585713Y-81272371D01*
X154957142Y-80672371D02*
X155014285Y-80672371D01*
X155014285Y-80672371D02*
X155071428Y-80700942D01*
X155071428Y-80700942D02*
X155100000Y-80729514D01*
X155100000Y-80729514D02*
X155128571Y-80786657D01*
X155128571Y-80786657D02*
X155157142Y-80900942D01*
X155157142Y-80900942D02*
X155157142Y-81043800D01*
X155157142Y-81043800D02*
X155128571Y-81158085D01*
X155128571Y-81158085D02*
X155100000Y-81215228D01*
X155100000Y-81215228D02*
X155071428Y-81243800D01*
X155071428Y-81243800D02*
X155014285Y-81272371D01*
X155014285Y-81272371D02*
X154957142Y-81272371D01*
X154957142Y-81272371D02*
X154900000Y-81243800D01*
X154900000Y-81243800D02*
X154871428Y-81215228D01*
X154871428Y-81215228D02*
X154842857Y-81158085D01*
X154842857Y-81158085D02*
X154814285Y-81043800D01*
X154814285Y-81043800D02*
X154814285Y-80900942D01*
X154814285Y-80900942D02*
X154842857Y-80786657D01*
X154842857Y-80786657D02*
X154871428Y-80729514D01*
X154871428Y-80729514D02*
X154900000Y-80700942D01*
X154900000Y-80700942D02*
X154957142Y-80672371D01*
D12*
X84366667Y-74004819D02*
X84366667Y-73004819D01*
X84366667Y-73481009D02*
X84938095Y-73481009D01*
X84938095Y-74004819D02*
X84938095Y-73004819D01*
X85271429Y-73004819D02*
X85604762Y-74004819D01*
X85604762Y-74004819D02*
X85938095Y-73004819D01*
X86271429Y-73623866D02*
X87033334Y-73623866D01*
X86652381Y-74004819D02*
X86652381Y-73242914D01*
D10*
X151842857Y-90072371D02*
X151842857Y-90558085D01*
X151842857Y-90558085D02*
X151871428Y-90615228D01*
X151871428Y-90615228D02*
X151900000Y-90643800D01*
X151900000Y-90643800D02*
X151957142Y-90672371D01*
X151957142Y-90672371D02*
X152071428Y-90672371D01*
X152071428Y-90672371D02*
X152128571Y-90643800D01*
X152128571Y-90643800D02*
X152157142Y-90615228D01*
X152157142Y-90615228D02*
X152185714Y-90558085D01*
X152185714Y-90558085D02*
X152185714Y-90072371D01*
X152414285Y-90072371D02*
X152785713Y-90072371D01*
X152785713Y-90072371D02*
X152585713Y-90300942D01*
X152585713Y-90300942D02*
X152671428Y-90300942D01*
X152671428Y-90300942D02*
X152728571Y-90329514D01*
X152728571Y-90329514D02*
X152757142Y-90358085D01*
X152757142Y-90358085D02*
X152785713Y-90415228D01*
X152785713Y-90415228D02*
X152785713Y-90558085D01*
X152785713Y-90558085D02*
X152757142Y-90615228D01*
X152757142Y-90615228D02*
X152728571Y-90643800D01*
X152728571Y-90643800D02*
X152671428Y-90672371D01*
X152671428Y-90672371D02*
X152499999Y-90672371D01*
X152499999Y-90672371D02*
X152442856Y-90643800D01*
X152442856Y-90643800D02*
X152414285Y-90615228D01*
X156614286Y-74872371D02*
X156614286Y-74272371D01*
X157242857Y-74815228D02*
X157214285Y-74843800D01*
X157214285Y-74843800D02*
X157128571Y-74872371D01*
X157128571Y-74872371D02*
X157071428Y-74872371D01*
X157071428Y-74872371D02*
X156985714Y-74843800D01*
X156985714Y-74843800D02*
X156928571Y-74786657D01*
X156928571Y-74786657D02*
X156900000Y-74729514D01*
X156900000Y-74729514D02*
X156871428Y-74615228D01*
X156871428Y-74615228D02*
X156871428Y-74529514D01*
X156871428Y-74529514D02*
X156900000Y-74415228D01*
X156900000Y-74415228D02*
X156928571Y-74358085D01*
X156928571Y-74358085D02*
X156985714Y-74300942D01*
X156985714Y-74300942D02*
X157071428Y-74272371D01*
X157071428Y-74272371D02*
X157128571Y-74272371D01*
X157128571Y-74272371D02*
X157214285Y-74300942D01*
X157214285Y-74300942D02*
X157242857Y-74329514D01*
X157442857Y-74272371D02*
X157814285Y-74272371D01*
X157814285Y-74272371D02*
X157614285Y-74500942D01*
X157614285Y-74500942D02*
X157700000Y-74500942D01*
X157700000Y-74500942D02*
X157757143Y-74529514D01*
X157757143Y-74529514D02*
X157785714Y-74558085D01*
X157785714Y-74558085D02*
X157814285Y-74615228D01*
X157814285Y-74615228D02*
X157814285Y-74758085D01*
X157814285Y-74758085D02*
X157785714Y-74815228D01*
X157785714Y-74815228D02*
X157757143Y-74843800D01*
X157757143Y-74843800D02*
X157700000Y-74872371D01*
X157700000Y-74872371D02*
X157528571Y-74872371D01*
X157528571Y-74872371D02*
X157471428Y-74843800D01*
X157471428Y-74843800D02*
X157442857Y-74815228D01*
D12*
X86433333Y-84574819D02*
X86100000Y-84098628D01*
X85861905Y-84574819D02*
X85861905Y-83574819D01*
X85861905Y-83574819D02*
X86242857Y-83574819D01*
X86242857Y-83574819D02*
X86338095Y-83622438D01*
X86338095Y-83622438D02*
X86385714Y-83670057D01*
X86385714Y-83670057D02*
X86433333Y-83765295D01*
X86433333Y-83765295D02*
X86433333Y-83908152D01*
X86433333Y-83908152D02*
X86385714Y-84003390D01*
X86385714Y-84003390D02*
X86338095Y-84051009D01*
X86338095Y-84051009D02*
X86242857Y-84098628D01*
X86242857Y-84098628D02*
X85861905Y-84098628D01*
X87290476Y-83908152D02*
X87290476Y-84574819D01*
X87052381Y-83527200D02*
X86814286Y-84241485D01*
X86814286Y-84241485D02*
X87433333Y-84241485D01*
D10*
X129200000Y-84572371D02*
X129000000Y-84286657D01*
X128857143Y-84572371D02*
X128857143Y-83972371D01*
X128857143Y-83972371D02*
X129085714Y-83972371D01*
X129085714Y-83972371D02*
X129142857Y-84000942D01*
X129142857Y-84000942D02*
X129171428Y-84029514D01*
X129171428Y-84029514D02*
X129200000Y-84086657D01*
X129200000Y-84086657D02*
X129200000Y-84172371D01*
X129200000Y-84172371D02*
X129171428Y-84229514D01*
X129171428Y-84229514D02*
X129142857Y-84258085D01*
X129142857Y-84258085D02*
X129085714Y-84286657D01*
X129085714Y-84286657D02*
X128857143Y-84286657D01*
X129771428Y-84572371D02*
X129428571Y-84572371D01*
X129600000Y-84572371D02*
X129600000Y-83972371D01*
X129600000Y-83972371D02*
X129542857Y-84058085D01*
X129542857Y-84058085D02*
X129485714Y-84115228D01*
X129485714Y-84115228D02*
X129428571Y-84143800D01*
X135814285Y-75072371D02*
X135614285Y-74786657D01*
X135471428Y-75072371D02*
X135471428Y-74472371D01*
X135471428Y-74472371D02*
X135699999Y-74472371D01*
X135699999Y-74472371D02*
X135757142Y-74500942D01*
X135757142Y-74500942D02*
X135785713Y-74529514D01*
X135785713Y-74529514D02*
X135814285Y-74586657D01*
X135814285Y-74586657D02*
X135814285Y-74672371D01*
X135814285Y-74672371D02*
X135785713Y-74729514D01*
X135785713Y-74729514D02*
X135757142Y-74758085D01*
X135757142Y-74758085D02*
X135699999Y-74786657D01*
X135699999Y-74786657D02*
X135471428Y-74786657D01*
X136385713Y-75072371D02*
X136042856Y-75072371D01*
X136214285Y-75072371D02*
X136214285Y-74472371D01*
X136214285Y-74472371D02*
X136157142Y-74558085D01*
X136157142Y-74558085D02*
X136099999Y-74615228D01*
X136099999Y-74615228D02*
X136042856Y-74643800D01*
X136757142Y-74472371D02*
X136814285Y-74472371D01*
X136814285Y-74472371D02*
X136871428Y-74500942D01*
X136871428Y-74500942D02*
X136900000Y-74529514D01*
X136900000Y-74529514D02*
X136928571Y-74586657D01*
X136928571Y-74586657D02*
X136957142Y-74700942D01*
X136957142Y-74700942D02*
X136957142Y-74843800D01*
X136957142Y-74843800D02*
X136928571Y-74958085D01*
X136928571Y-74958085D02*
X136900000Y-75015228D01*
X136900000Y-75015228D02*
X136871428Y-75043800D01*
X136871428Y-75043800D02*
X136814285Y-75072371D01*
X136814285Y-75072371D02*
X136757142Y-75072371D01*
X136757142Y-75072371D02*
X136700000Y-75043800D01*
X136700000Y-75043800D02*
X136671428Y-75015228D01*
X136671428Y-75015228D02*
X136642857Y-74958085D01*
X136642857Y-74958085D02*
X136614285Y-74843800D01*
X136614285Y-74843800D02*
X136614285Y-74700942D01*
X136614285Y-74700942D02*
X136642857Y-74586657D01*
X136642857Y-74586657D02*
X136671428Y-74529514D01*
X136671428Y-74529514D02*
X136700000Y-74500942D01*
X136700000Y-74500942D02*
X136757142Y-74472371D01*
X160215228Y-84285714D02*
X160243800Y-84314286D01*
X160243800Y-84314286D02*
X160272371Y-84400000D01*
X160272371Y-84400000D02*
X160272371Y-84457143D01*
X160272371Y-84457143D02*
X160243800Y-84542857D01*
X160243800Y-84542857D02*
X160186657Y-84600000D01*
X160186657Y-84600000D02*
X160129514Y-84628571D01*
X160129514Y-84628571D02*
X160015228Y-84657143D01*
X160015228Y-84657143D02*
X159929514Y-84657143D01*
X159929514Y-84657143D02*
X159815228Y-84628571D01*
X159815228Y-84628571D02*
X159758085Y-84600000D01*
X159758085Y-84600000D02*
X159700942Y-84542857D01*
X159700942Y-84542857D02*
X159672371Y-84457143D01*
X159672371Y-84457143D02*
X159672371Y-84400000D01*
X159672371Y-84400000D02*
X159700942Y-84314286D01*
X159700942Y-84314286D02*
X159729514Y-84285714D01*
X159672371Y-84085714D02*
X159672371Y-83714286D01*
X159672371Y-83714286D02*
X159900942Y-83914286D01*
X159900942Y-83914286D02*
X159900942Y-83828571D01*
X159900942Y-83828571D02*
X159929514Y-83771429D01*
X159929514Y-83771429D02*
X159958085Y-83742857D01*
X159958085Y-83742857D02*
X160015228Y-83714286D01*
X160015228Y-83714286D02*
X160158085Y-83714286D01*
X160158085Y-83714286D02*
X160215228Y-83742857D01*
X160215228Y-83742857D02*
X160243800Y-83771429D01*
X160243800Y-83771429D02*
X160272371Y-83828571D01*
X160272371Y-83828571D02*
X160272371Y-84000000D01*
X160272371Y-84000000D02*
X160243800Y-84057143D01*
X160243800Y-84057143D02*
X160215228Y-84085714D01*
X160272371Y-83142857D02*
X160272371Y-83485714D01*
X160272371Y-83314285D02*
X159672371Y-83314285D01*
X159672371Y-83314285D02*
X159758085Y-83371428D01*
X159758085Y-83371428D02*
X159815228Y-83428571D01*
X159815228Y-83428571D02*
X159843800Y-83485714D01*
X137800000Y-76372371D02*
X137600000Y-76086657D01*
X137457143Y-76372371D02*
X137457143Y-75772371D01*
X137457143Y-75772371D02*
X137685714Y-75772371D01*
X137685714Y-75772371D02*
X137742857Y-75800942D01*
X137742857Y-75800942D02*
X137771428Y-75829514D01*
X137771428Y-75829514D02*
X137800000Y-75886657D01*
X137800000Y-75886657D02*
X137800000Y-75972371D01*
X137800000Y-75972371D02*
X137771428Y-76029514D01*
X137771428Y-76029514D02*
X137742857Y-76058085D01*
X137742857Y-76058085D02*
X137685714Y-76086657D01*
X137685714Y-76086657D02*
X137457143Y-76086657D01*
X138028571Y-75829514D02*
X138057143Y-75800942D01*
X138057143Y-75800942D02*
X138114286Y-75772371D01*
X138114286Y-75772371D02*
X138257143Y-75772371D01*
X138257143Y-75772371D02*
X138314286Y-75800942D01*
X138314286Y-75800942D02*
X138342857Y-75829514D01*
X138342857Y-75829514D02*
X138371428Y-75886657D01*
X138371428Y-75886657D02*
X138371428Y-75943800D01*
X138371428Y-75943800D02*
X138342857Y-76029514D01*
X138342857Y-76029514D02*
X138000000Y-76372371D01*
X138000000Y-76372371D02*
X138371428Y-76372371D01*
X92712000Y-97320228D02*
X92683428Y-97348800D01*
X92683428Y-97348800D02*
X92597714Y-97377371D01*
X92597714Y-97377371D02*
X92540571Y-97377371D01*
X92540571Y-97377371D02*
X92454857Y-97348800D01*
X92454857Y-97348800D02*
X92397714Y-97291657D01*
X92397714Y-97291657D02*
X92369143Y-97234514D01*
X92369143Y-97234514D02*
X92340571Y-97120228D01*
X92340571Y-97120228D02*
X92340571Y-97034514D01*
X92340571Y-97034514D02*
X92369143Y-96920228D01*
X92369143Y-96920228D02*
X92397714Y-96863085D01*
X92397714Y-96863085D02*
X92454857Y-96805942D01*
X92454857Y-96805942D02*
X92540571Y-96777371D01*
X92540571Y-96777371D02*
X92597714Y-96777371D01*
X92597714Y-96777371D02*
X92683428Y-96805942D01*
X92683428Y-96805942D02*
X92712000Y-96834514D01*
X92912000Y-96777371D02*
X93312000Y-96777371D01*
X93312000Y-96777371D02*
X93054857Y-97377371D01*
X90812000Y-84820228D02*
X90783428Y-84848800D01*
X90783428Y-84848800D02*
X90697714Y-84877371D01*
X90697714Y-84877371D02*
X90640571Y-84877371D01*
X90640571Y-84877371D02*
X90554857Y-84848800D01*
X90554857Y-84848800D02*
X90497714Y-84791657D01*
X90497714Y-84791657D02*
X90469143Y-84734514D01*
X90469143Y-84734514D02*
X90440571Y-84620228D01*
X90440571Y-84620228D02*
X90440571Y-84534514D01*
X90440571Y-84534514D02*
X90469143Y-84420228D01*
X90469143Y-84420228D02*
X90497714Y-84363085D01*
X90497714Y-84363085D02*
X90554857Y-84305942D01*
X90554857Y-84305942D02*
X90640571Y-84277371D01*
X90640571Y-84277371D02*
X90697714Y-84277371D01*
X90697714Y-84277371D02*
X90783428Y-84305942D01*
X90783428Y-84305942D02*
X90812000Y-84334514D01*
X91354857Y-84277371D02*
X91069143Y-84277371D01*
X91069143Y-84277371D02*
X91040571Y-84563085D01*
X91040571Y-84563085D02*
X91069143Y-84534514D01*
X91069143Y-84534514D02*
X91126286Y-84505942D01*
X91126286Y-84505942D02*
X91269143Y-84505942D01*
X91269143Y-84505942D02*
X91326286Y-84534514D01*
X91326286Y-84534514D02*
X91354857Y-84563085D01*
X91354857Y-84563085D02*
X91383428Y-84620228D01*
X91383428Y-84620228D02*
X91383428Y-84763085D01*
X91383428Y-84763085D02*
X91354857Y-84820228D01*
X91354857Y-84820228D02*
X91326286Y-84848800D01*
X91326286Y-84848800D02*
X91269143Y-84877371D01*
X91269143Y-84877371D02*
X91126286Y-84877371D01*
X91126286Y-84877371D02*
X91069143Y-84848800D01*
X91069143Y-84848800D02*
X91040571Y-84820228D01*
X136457143Y-93472371D02*
X136457143Y-92872371D01*
X136457143Y-92872371D02*
X136600000Y-92872371D01*
X136600000Y-92872371D02*
X136685714Y-92900942D01*
X136685714Y-92900942D02*
X136742857Y-92958085D01*
X136742857Y-92958085D02*
X136771428Y-93015228D01*
X136771428Y-93015228D02*
X136800000Y-93129514D01*
X136800000Y-93129514D02*
X136800000Y-93215228D01*
X136800000Y-93215228D02*
X136771428Y-93329514D01*
X136771428Y-93329514D02*
X136742857Y-93386657D01*
X136742857Y-93386657D02*
X136685714Y-93443800D01*
X136685714Y-93443800D02*
X136600000Y-93472371D01*
X136600000Y-93472371D02*
X136457143Y-93472371D01*
X137000000Y-92872371D02*
X137371428Y-92872371D01*
X137371428Y-92872371D02*
X137171428Y-93100942D01*
X137171428Y-93100942D02*
X137257143Y-93100942D01*
X137257143Y-93100942D02*
X137314286Y-93129514D01*
X137314286Y-93129514D02*
X137342857Y-93158085D01*
X137342857Y-93158085D02*
X137371428Y-93215228D01*
X137371428Y-93215228D02*
X137371428Y-93358085D01*
X137371428Y-93358085D02*
X137342857Y-93415228D01*
X137342857Y-93415228D02*
X137314286Y-93443800D01*
X137314286Y-93443800D02*
X137257143Y-93472371D01*
X137257143Y-93472371D02*
X137085714Y-93472371D01*
X137085714Y-93472371D02*
X137028571Y-93443800D01*
X137028571Y-93443800D02*
X137000000Y-93415228D01*
X139014285Y-97472371D02*
X138814285Y-97186657D01*
X138671428Y-97472371D02*
X138671428Y-96872371D01*
X138671428Y-96872371D02*
X138899999Y-96872371D01*
X138899999Y-96872371D02*
X138957142Y-96900942D01*
X138957142Y-96900942D02*
X138985713Y-96929514D01*
X138985713Y-96929514D02*
X139014285Y-96986657D01*
X139014285Y-96986657D02*
X139014285Y-97072371D01*
X139014285Y-97072371D02*
X138985713Y-97129514D01*
X138985713Y-97129514D02*
X138957142Y-97158085D01*
X138957142Y-97158085D02*
X138899999Y-97186657D01*
X138899999Y-97186657D02*
X138671428Y-97186657D01*
X139585713Y-97472371D02*
X139242856Y-97472371D01*
X139414285Y-97472371D02*
X139414285Y-96872371D01*
X139414285Y-96872371D02*
X139357142Y-96958085D01*
X139357142Y-96958085D02*
X139299999Y-97015228D01*
X139299999Y-97015228D02*
X139242856Y-97043800D01*
X139785714Y-96872371D02*
X140185714Y-96872371D01*
X140185714Y-96872371D02*
X139928571Y-97472371D01*
X109215228Y-91885714D02*
X109243800Y-91914286D01*
X109243800Y-91914286D02*
X109272371Y-92000000D01*
X109272371Y-92000000D02*
X109272371Y-92057143D01*
X109272371Y-92057143D02*
X109243800Y-92142857D01*
X109243800Y-92142857D02*
X109186657Y-92200000D01*
X109186657Y-92200000D02*
X109129514Y-92228571D01*
X109129514Y-92228571D02*
X109015228Y-92257143D01*
X109015228Y-92257143D02*
X108929514Y-92257143D01*
X108929514Y-92257143D02*
X108815228Y-92228571D01*
X108815228Y-92228571D02*
X108758085Y-92200000D01*
X108758085Y-92200000D02*
X108700942Y-92142857D01*
X108700942Y-92142857D02*
X108672371Y-92057143D01*
X108672371Y-92057143D02*
X108672371Y-92000000D01*
X108672371Y-92000000D02*
X108700942Y-91914286D01*
X108700942Y-91914286D02*
X108729514Y-91885714D01*
X109272371Y-91314286D02*
X109272371Y-91657143D01*
X109272371Y-91485714D02*
X108672371Y-91485714D01*
X108672371Y-91485714D02*
X108758085Y-91542857D01*
X108758085Y-91542857D02*
X108815228Y-91600000D01*
X108815228Y-91600000D02*
X108843800Y-91657143D01*
X108729514Y-91085714D02*
X108700942Y-91057142D01*
X108700942Y-91057142D02*
X108672371Y-91000000D01*
X108672371Y-91000000D02*
X108672371Y-90857142D01*
X108672371Y-90857142D02*
X108700942Y-90800000D01*
X108700942Y-90800000D02*
X108729514Y-90771428D01*
X108729514Y-90771428D02*
X108786657Y-90742857D01*
X108786657Y-90742857D02*
X108843800Y-90742857D01*
X108843800Y-90742857D02*
X108929514Y-90771428D01*
X108929514Y-90771428D02*
X109272371Y-91114285D01*
X109272371Y-91114285D02*
X109272371Y-90742857D01*
D12*
X84974819Y-86166666D02*
X84498628Y-86499999D01*
X84974819Y-86738094D02*
X83974819Y-86738094D01*
X83974819Y-86738094D02*
X83974819Y-86357142D01*
X83974819Y-86357142D02*
X84022438Y-86261904D01*
X84022438Y-86261904D02*
X84070057Y-86214285D01*
X84070057Y-86214285D02*
X84165295Y-86166666D01*
X84165295Y-86166666D02*
X84308152Y-86166666D01*
X84308152Y-86166666D02*
X84403390Y-86214285D01*
X84403390Y-86214285D02*
X84451009Y-86261904D01*
X84451009Y-86261904D02*
X84498628Y-86357142D01*
X84498628Y-86357142D02*
X84498628Y-86738094D01*
X83974819Y-85261904D02*
X83974819Y-85738094D01*
X83974819Y-85738094D02*
X84451009Y-85785713D01*
X84451009Y-85785713D02*
X84403390Y-85738094D01*
X84403390Y-85738094D02*
X84355771Y-85642856D01*
X84355771Y-85642856D02*
X84355771Y-85404761D01*
X84355771Y-85404761D02*
X84403390Y-85309523D01*
X84403390Y-85309523D02*
X84451009Y-85261904D01*
X84451009Y-85261904D02*
X84546247Y-85214285D01*
X84546247Y-85214285D02*
X84784342Y-85214285D01*
X84784342Y-85214285D02*
X84879580Y-85261904D01*
X84879580Y-85261904D02*
X84927200Y-85309523D01*
X84927200Y-85309523D02*
X84974819Y-85404761D01*
X84974819Y-85404761D02*
X84974819Y-85642856D01*
X84974819Y-85642856D02*
X84927200Y-85738094D01*
X84927200Y-85738094D02*
X84879580Y-85785713D01*
D10*
X109215228Y-94999999D02*
X109243800Y-95028571D01*
X109243800Y-95028571D02*
X109272371Y-95114285D01*
X109272371Y-95114285D02*
X109272371Y-95171428D01*
X109272371Y-95171428D02*
X109243800Y-95257142D01*
X109243800Y-95257142D02*
X109186657Y-95314285D01*
X109186657Y-95314285D02*
X109129514Y-95342856D01*
X109129514Y-95342856D02*
X109015228Y-95371428D01*
X109015228Y-95371428D02*
X108929514Y-95371428D01*
X108929514Y-95371428D02*
X108815228Y-95342856D01*
X108815228Y-95342856D02*
X108758085Y-95314285D01*
X108758085Y-95314285D02*
X108700942Y-95257142D01*
X108700942Y-95257142D02*
X108672371Y-95171428D01*
X108672371Y-95171428D02*
X108672371Y-95114285D01*
X108672371Y-95114285D02*
X108700942Y-95028571D01*
X108700942Y-95028571D02*
X108729514Y-94999999D01*
X109272371Y-94714285D02*
X109272371Y-94599999D01*
X109272371Y-94599999D02*
X109243800Y-94542856D01*
X109243800Y-94542856D02*
X109215228Y-94514285D01*
X109215228Y-94514285D02*
X109129514Y-94457142D01*
X109129514Y-94457142D02*
X109015228Y-94428571D01*
X109015228Y-94428571D02*
X108786657Y-94428571D01*
X108786657Y-94428571D02*
X108729514Y-94457142D01*
X108729514Y-94457142D02*
X108700942Y-94485714D01*
X108700942Y-94485714D02*
X108672371Y-94542856D01*
X108672371Y-94542856D02*
X108672371Y-94657142D01*
X108672371Y-94657142D02*
X108700942Y-94714285D01*
X108700942Y-94714285D02*
X108729514Y-94742856D01*
X108729514Y-94742856D02*
X108786657Y-94771428D01*
X108786657Y-94771428D02*
X108929514Y-94771428D01*
X108929514Y-94771428D02*
X108986657Y-94742856D01*
X108986657Y-94742856D02*
X109015228Y-94714285D01*
X109015228Y-94714285D02*
X109043800Y-94657142D01*
X109043800Y-94657142D02*
X109043800Y-94542856D01*
X109043800Y-94542856D02*
X109015228Y-94485714D01*
X109015228Y-94485714D02*
X108986657Y-94457142D01*
X108986657Y-94457142D02*
X108929514Y-94428571D01*
X92467000Y-84820228D02*
X92438428Y-84848800D01*
X92438428Y-84848800D02*
X92352714Y-84877371D01*
X92352714Y-84877371D02*
X92295571Y-84877371D01*
X92295571Y-84877371D02*
X92209857Y-84848800D01*
X92209857Y-84848800D02*
X92152714Y-84791657D01*
X92152714Y-84791657D02*
X92124143Y-84734514D01*
X92124143Y-84734514D02*
X92095571Y-84620228D01*
X92095571Y-84620228D02*
X92095571Y-84534514D01*
X92095571Y-84534514D02*
X92124143Y-84420228D01*
X92124143Y-84420228D02*
X92152714Y-84363085D01*
X92152714Y-84363085D02*
X92209857Y-84305942D01*
X92209857Y-84305942D02*
X92295571Y-84277371D01*
X92295571Y-84277371D02*
X92352714Y-84277371D01*
X92352714Y-84277371D02*
X92438428Y-84305942D01*
X92438428Y-84305942D02*
X92467000Y-84334514D01*
X92981286Y-84477371D02*
X92981286Y-84877371D01*
X92838428Y-84248800D02*
X92695571Y-84677371D01*
X92695571Y-84677371D02*
X93067000Y-84677371D01*
X151314285Y-75315228D02*
X151285713Y-75343800D01*
X151285713Y-75343800D02*
X151199999Y-75372371D01*
X151199999Y-75372371D02*
X151142856Y-75372371D01*
X151142856Y-75372371D02*
X151057142Y-75343800D01*
X151057142Y-75343800D02*
X150999999Y-75286657D01*
X150999999Y-75286657D02*
X150971428Y-75229514D01*
X150971428Y-75229514D02*
X150942856Y-75115228D01*
X150942856Y-75115228D02*
X150942856Y-75029514D01*
X150942856Y-75029514D02*
X150971428Y-74915228D01*
X150971428Y-74915228D02*
X150999999Y-74858085D01*
X150999999Y-74858085D02*
X151057142Y-74800942D01*
X151057142Y-74800942D02*
X151142856Y-74772371D01*
X151142856Y-74772371D02*
X151199999Y-74772371D01*
X151199999Y-74772371D02*
X151285713Y-74800942D01*
X151285713Y-74800942D02*
X151314285Y-74829514D01*
X151885713Y-75372371D02*
X151542856Y-75372371D01*
X151714285Y-75372371D02*
X151714285Y-74772371D01*
X151714285Y-74772371D02*
X151657142Y-74858085D01*
X151657142Y-74858085D02*
X151599999Y-74915228D01*
X151599999Y-74915228D02*
X151542856Y-74943800D01*
X152428571Y-74772371D02*
X152142857Y-74772371D01*
X152142857Y-74772371D02*
X152114285Y-75058085D01*
X152114285Y-75058085D02*
X152142857Y-75029514D01*
X152142857Y-75029514D02*
X152200000Y-75000942D01*
X152200000Y-75000942D02*
X152342857Y-75000942D01*
X152342857Y-75000942D02*
X152400000Y-75029514D01*
X152400000Y-75029514D02*
X152428571Y-75058085D01*
X152428571Y-75058085D02*
X152457142Y-75115228D01*
X152457142Y-75115228D02*
X152457142Y-75258085D01*
X152457142Y-75258085D02*
X152428571Y-75315228D01*
X152428571Y-75315228D02*
X152400000Y-75343800D01*
X152400000Y-75343800D02*
X152342857Y-75372371D01*
X152342857Y-75372371D02*
X152200000Y-75372371D01*
X152200000Y-75372371D02*
X152142857Y-75343800D01*
X152142857Y-75343800D02*
X152114285Y-75315228D01*
X134914285Y-86672371D02*
X134714285Y-86386657D01*
X134571428Y-86672371D02*
X134571428Y-86072371D01*
X134571428Y-86072371D02*
X134799999Y-86072371D01*
X134799999Y-86072371D02*
X134857142Y-86100942D01*
X134857142Y-86100942D02*
X134885713Y-86129514D01*
X134885713Y-86129514D02*
X134914285Y-86186657D01*
X134914285Y-86186657D02*
X134914285Y-86272371D01*
X134914285Y-86272371D02*
X134885713Y-86329514D01*
X134885713Y-86329514D02*
X134857142Y-86358085D01*
X134857142Y-86358085D02*
X134799999Y-86386657D01*
X134799999Y-86386657D02*
X134571428Y-86386657D01*
X135485713Y-86672371D02*
X135142856Y-86672371D01*
X135314285Y-86672371D02*
X135314285Y-86072371D01*
X135314285Y-86072371D02*
X135257142Y-86158085D01*
X135257142Y-86158085D02*
X135199999Y-86215228D01*
X135199999Y-86215228D02*
X135142856Y-86243800D01*
X136000000Y-86272371D02*
X136000000Y-86672371D01*
X135857142Y-86043800D02*
X135714285Y-86472371D01*
X135714285Y-86472371D02*
X136085714Y-86472371D01*
X112114285Y-101565228D02*
X112085713Y-101593800D01*
X112085713Y-101593800D02*
X111999999Y-101622371D01*
X111999999Y-101622371D02*
X111942856Y-101622371D01*
X111942856Y-101622371D02*
X111857142Y-101593800D01*
X111857142Y-101593800D02*
X111799999Y-101536657D01*
X111799999Y-101536657D02*
X111771428Y-101479514D01*
X111771428Y-101479514D02*
X111742856Y-101365228D01*
X111742856Y-101365228D02*
X111742856Y-101279514D01*
X111742856Y-101279514D02*
X111771428Y-101165228D01*
X111771428Y-101165228D02*
X111799999Y-101108085D01*
X111799999Y-101108085D02*
X111857142Y-101050942D01*
X111857142Y-101050942D02*
X111942856Y-101022371D01*
X111942856Y-101022371D02*
X111999999Y-101022371D01*
X111999999Y-101022371D02*
X112085713Y-101050942D01*
X112085713Y-101050942D02*
X112114285Y-101079514D01*
X112314285Y-101022371D02*
X112685713Y-101022371D01*
X112685713Y-101022371D02*
X112485713Y-101250942D01*
X112485713Y-101250942D02*
X112571428Y-101250942D01*
X112571428Y-101250942D02*
X112628571Y-101279514D01*
X112628571Y-101279514D02*
X112657142Y-101308085D01*
X112657142Y-101308085D02*
X112685713Y-101365228D01*
X112685713Y-101365228D02*
X112685713Y-101508085D01*
X112685713Y-101508085D02*
X112657142Y-101565228D01*
X112657142Y-101565228D02*
X112628571Y-101593800D01*
X112628571Y-101593800D02*
X112571428Y-101622371D01*
X112571428Y-101622371D02*
X112399999Y-101622371D01*
X112399999Y-101622371D02*
X112342856Y-101593800D01*
X112342856Y-101593800D02*
X112314285Y-101565228D01*
X113057142Y-101022371D02*
X113114285Y-101022371D01*
X113114285Y-101022371D02*
X113171428Y-101050942D01*
X113171428Y-101050942D02*
X113200000Y-101079514D01*
X113200000Y-101079514D02*
X113228571Y-101136657D01*
X113228571Y-101136657D02*
X113257142Y-101250942D01*
X113257142Y-101250942D02*
X113257142Y-101393800D01*
X113257142Y-101393800D02*
X113228571Y-101508085D01*
X113228571Y-101508085D02*
X113200000Y-101565228D01*
X113200000Y-101565228D02*
X113171428Y-101593800D01*
X113171428Y-101593800D02*
X113114285Y-101622371D01*
X113114285Y-101622371D02*
X113057142Y-101622371D01*
X113057142Y-101622371D02*
X113000000Y-101593800D01*
X113000000Y-101593800D02*
X112971428Y-101565228D01*
X112971428Y-101565228D02*
X112942857Y-101508085D01*
X112942857Y-101508085D02*
X112914285Y-101393800D01*
X112914285Y-101393800D02*
X112914285Y-101250942D01*
X112914285Y-101250942D02*
X112942857Y-101136657D01*
X112942857Y-101136657D02*
X112971428Y-101079514D01*
X112971428Y-101079514D02*
X113000000Y-101050942D01*
X113000000Y-101050942D02*
X113057142Y-101022371D01*
D12*
X98138095Y-80054819D02*
X98138095Y-80864342D01*
X98138095Y-80864342D02*
X98185714Y-80959580D01*
X98185714Y-80959580D02*
X98233333Y-81007200D01*
X98233333Y-81007200D02*
X98328571Y-81054819D01*
X98328571Y-81054819D02*
X98519047Y-81054819D01*
X98519047Y-81054819D02*
X98614285Y-81007200D01*
X98614285Y-81007200D02*
X98661904Y-80959580D01*
X98661904Y-80959580D02*
X98709523Y-80864342D01*
X98709523Y-80864342D02*
X98709523Y-80054819D01*
X99709523Y-81054819D02*
X99138095Y-81054819D01*
X99423809Y-81054819D02*
X99423809Y-80054819D01*
X99423809Y-80054819D02*
X99328571Y-80197676D01*
X99328571Y-80197676D02*
X99233333Y-80292914D01*
X99233333Y-80292914D02*
X99138095Y-80340533D01*
D13*
X115150190Y-62980576D02*
X107531142Y-62980576D01*
X109435904Y-64885338D02*
X107531142Y-62980576D01*
X107531142Y-62980576D02*
X109435904Y-61075814D01*
D10*
X123672371Y-83785714D02*
X123386657Y-83985714D01*
X123672371Y-84128571D02*
X123072371Y-84128571D01*
X123072371Y-84128571D02*
X123072371Y-83900000D01*
X123072371Y-83900000D02*
X123100942Y-83842857D01*
X123100942Y-83842857D02*
X123129514Y-83814286D01*
X123129514Y-83814286D02*
X123186657Y-83785714D01*
X123186657Y-83785714D02*
X123272371Y-83785714D01*
X123272371Y-83785714D02*
X123329514Y-83814286D01*
X123329514Y-83814286D02*
X123358085Y-83842857D01*
X123358085Y-83842857D02*
X123386657Y-83900000D01*
X123386657Y-83900000D02*
X123386657Y-84128571D01*
X123672371Y-83214286D02*
X123672371Y-83557143D01*
X123672371Y-83385714D02*
X123072371Y-83385714D01*
X123072371Y-83385714D02*
X123158085Y-83442857D01*
X123158085Y-83442857D02*
X123215228Y-83500000D01*
X123215228Y-83500000D02*
X123243800Y-83557143D01*
X123672371Y-82642857D02*
X123672371Y-82985714D01*
X123672371Y-82814285D02*
X123072371Y-82814285D01*
X123072371Y-82814285D02*
X123158085Y-82871428D01*
X123158085Y-82871428D02*
X123215228Y-82928571D01*
X123215228Y-82928571D02*
X123243800Y-82985714D01*
X109057143Y-115272371D02*
X109057143Y-114672371D01*
X109057143Y-114672371D02*
X109200000Y-114672371D01*
X109200000Y-114672371D02*
X109285714Y-114700942D01*
X109285714Y-114700942D02*
X109342857Y-114758085D01*
X109342857Y-114758085D02*
X109371428Y-114815228D01*
X109371428Y-114815228D02*
X109400000Y-114929514D01*
X109400000Y-114929514D02*
X109400000Y-115015228D01*
X109400000Y-115015228D02*
X109371428Y-115129514D01*
X109371428Y-115129514D02*
X109342857Y-115186657D01*
X109342857Y-115186657D02*
X109285714Y-115243800D01*
X109285714Y-115243800D02*
X109200000Y-115272371D01*
X109200000Y-115272371D02*
X109057143Y-115272371D01*
X109628571Y-114729514D02*
X109657143Y-114700942D01*
X109657143Y-114700942D02*
X109714286Y-114672371D01*
X109714286Y-114672371D02*
X109857143Y-114672371D01*
X109857143Y-114672371D02*
X109914286Y-114700942D01*
X109914286Y-114700942D02*
X109942857Y-114729514D01*
X109942857Y-114729514D02*
X109971428Y-114786657D01*
X109971428Y-114786657D02*
X109971428Y-114843800D01*
X109971428Y-114843800D02*
X109942857Y-114929514D01*
X109942857Y-114929514D02*
X109600000Y-115272371D01*
X109600000Y-115272371D02*
X109971428Y-115272371D01*
X158414285Y-85072371D02*
X158814285Y-85672371D01*
X158814285Y-85072371D02*
X158414285Y-85672371D01*
X159357142Y-85672371D02*
X159014285Y-85672371D01*
X159185714Y-85672371D02*
X159185714Y-85072371D01*
X159185714Y-85072371D02*
X159128571Y-85158085D01*
X159128571Y-85158085D02*
X159071428Y-85215228D01*
X159071428Y-85215228D02*
X159014285Y-85243800D01*
X147014285Y-92315228D02*
X146985713Y-92343800D01*
X146985713Y-92343800D02*
X146899999Y-92372371D01*
X146899999Y-92372371D02*
X146842856Y-92372371D01*
X146842856Y-92372371D02*
X146757142Y-92343800D01*
X146757142Y-92343800D02*
X146699999Y-92286657D01*
X146699999Y-92286657D02*
X146671428Y-92229514D01*
X146671428Y-92229514D02*
X146642856Y-92115228D01*
X146642856Y-92115228D02*
X146642856Y-92029514D01*
X146642856Y-92029514D02*
X146671428Y-91915228D01*
X146671428Y-91915228D02*
X146699999Y-91858085D01*
X146699999Y-91858085D02*
X146757142Y-91800942D01*
X146757142Y-91800942D02*
X146842856Y-91772371D01*
X146842856Y-91772371D02*
X146899999Y-91772371D01*
X146899999Y-91772371D02*
X146985713Y-91800942D01*
X146985713Y-91800942D02*
X147014285Y-91829514D01*
X147585713Y-92372371D02*
X147242856Y-92372371D01*
X147414285Y-92372371D02*
X147414285Y-91772371D01*
X147414285Y-91772371D02*
X147357142Y-91858085D01*
X147357142Y-91858085D02*
X147299999Y-91915228D01*
X147299999Y-91915228D02*
X147242856Y-91943800D01*
X147928571Y-92029514D02*
X147871428Y-92000942D01*
X147871428Y-92000942D02*
X147842857Y-91972371D01*
X147842857Y-91972371D02*
X147814285Y-91915228D01*
X147814285Y-91915228D02*
X147814285Y-91886657D01*
X147814285Y-91886657D02*
X147842857Y-91829514D01*
X147842857Y-91829514D02*
X147871428Y-91800942D01*
X147871428Y-91800942D02*
X147928571Y-91772371D01*
X147928571Y-91772371D02*
X148042857Y-91772371D01*
X148042857Y-91772371D02*
X148100000Y-91800942D01*
X148100000Y-91800942D02*
X148128571Y-91829514D01*
X148128571Y-91829514D02*
X148157142Y-91886657D01*
X148157142Y-91886657D02*
X148157142Y-91915228D01*
X148157142Y-91915228D02*
X148128571Y-91972371D01*
X148128571Y-91972371D02*
X148100000Y-92000942D01*
X148100000Y-92000942D02*
X148042857Y-92029514D01*
X148042857Y-92029514D02*
X147928571Y-92029514D01*
X147928571Y-92029514D02*
X147871428Y-92058085D01*
X147871428Y-92058085D02*
X147842857Y-92086657D01*
X147842857Y-92086657D02*
X147814285Y-92143800D01*
X147814285Y-92143800D02*
X147814285Y-92258085D01*
X147814285Y-92258085D02*
X147842857Y-92315228D01*
X147842857Y-92315228D02*
X147871428Y-92343800D01*
X147871428Y-92343800D02*
X147928571Y-92372371D01*
X147928571Y-92372371D02*
X148042857Y-92372371D01*
X148042857Y-92372371D02*
X148100000Y-92343800D01*
X148100000Y-92343800D02*
X148128571Y-92315228D01*
X148128571Y-92315228D02*
X148157142Y-92258085D01*
X148157142Y-92258085D02*
X148157142Y-92143800D01*
X148157142Y-92143800D02*
X148128571Y-92086657D01*
X148128571Y-92086657D02*
X148100000Y-92058085D01*
X148100000Y-92058085D02*
X148042857Y-92029514D01*
X135857143Y-94872371D02*
X135857143Y-94272371D01*
X135857143Y-94272371D02*
X136000000Y-94272371D01*
X136000000Y-94272371D02*
X136085714Y-94300942D01*
X136085714Y-94300942D02*
X136142857Y-94358085D01*
X136142857Y-94358085D02*
X136171428Y-94415228D01*
X136171428Y-94415228D02*
X136200000Y-94529514D01*
X136200000Y-94529514D02*
X136200000Y-94615228D01*
X136200000Y-94615228D02*
X136171428Y-94729514D01*
X136171428Y-94729514D02*
X136142857Y-94786657D01*
X136142857Y-94786657D02*
X136085714Y-94843800D01*
X136085714Y-94843800D02*
X136000000Y-94872371D01*
X136000000Y-94872371D02*
X135857143Y-94872371D01*
X136771428Y-94872371D02*
X136428571Y-94872371D01*
X136600000Y-94872371D02*
X136600000Y-94272371D01*
X136600000Y-94272371D02*
X136542857Y-94358085D01*
X136542857Y-94358085D02*
X136485714Y-94415228D01*
X136485714Y-94415228D02*
X136428571Y-94443800D01*
X130272371Y-76799999D02*
X129986657Y-76999999D01*
X130272371Y-77142856D02*
X129672371Y-77142856D01*
X129672371Y-77142856D02*
X129672371Y-76914285D01*
X129672371Y-76914285D02*
X129700942Y-76857142D01*
X129700942Y-76857142D02*
X129729514Y-76828571D01*
X129729514Y-76828571D02*
X129786657Y-76799999D01*
X129786657Y-76799999D02*
X129872371Y-76799999D01*
X129872371Y-76799999D02*
X129929514Y-76828571D01*
X129929514Y-76828571D02*
X129958085Y-76857142D01*
X129958085Y-76857142D02*
X129986657Y-76914285D01*
X129986657Y-76914285D02*
X129986657Y-77142856D01*
X129929514Y-76457142D02*
X129900942Y-76514285D01*
X129900942Y-76514285D02*
X129872371Y-76542856D01*
X129872371Y-76542856D02*
X129815228Y-76571428D01*
X129815228Y-76571428D02*
X129786657Y-76571428D01*
X129786657Y-76571428D02*
X129729514Y-76542856D01*
X129729514Y-76542856D02*
X129700942Y-76514285D01*
X129700942Y-76514285D02*
X129672371Y-76457142D01*
X129672371Y-76457142D02*
X129672371Y-76342856D01*
X129672371Y-76342856D02*
X129700942Y-76285714D01*
X129700942Y-76285714D02*
X129729514Y-76257142D01*
X129729514Y-76257142D02*
X129786657Y-76228571D01*
X129786657Y-76228571D02*
X129815228Y-76228571D01*
X129815228Y-76228571D02*
X129872371Y-76257142D01*
X129872371Y-76257142D02*
X129900942Y-76285714D01*
X129900942Y-76285714D02*
X129929514Y-76342856D01*
X129929514Y-76342856D02*
X129929514Y-76457142D01*
X129929514Y-76457142D02*
X129958085Y-76514285D01*
X129958085Y-76514285D02*
X129986657Y-76542856D01*
X129986657Y-76542856D02*
X130043800Y-76571428D01*
X130043800Y-76571428D02*
X130158085Y-76571428D01*
X130158085Y-76571428D02*
X130215228Y-76542856D01*
X130215228Y-76542856D02*
X130243800Y-76514285D01*
X130243800Y-76514285D02*
X130272371Y-76457142D01*
X130272371Y-76457142D02*
X130272371Y-76342856D01*
X130272371Y-76342856D02*
X130243800Y-76285714D01*
X130243800Y-76285714D02*
X130215228Y-76257142D01*
X130215228Y-76257142D02*
X130158085Y-76228571D01*
X130158085Y-76228571D02*
X130043800Y-76228571D01*
X130043800Y-76228571D02*
X129986657Y-76257142D01*
X129986657Y-76257142D02*
X129958085Y-76285714D01*
X129958085Y-76285714D02*
X129929514Y-76342856D01*
X122092857Y-100522371D02*
X122092857Y-101008085D01*
X122092857Y-101008085D02*
X122121428Y-101065228D01*
X122121428Y-101065228D02*
X122150000Y-101093800D01*
X122150000Y-101093800D02*
X122207142Y-101122371D01*
X122207142Y-101122371D02*
X122321428Y-101122371D01*
X122321428Y-101122371D02*
X122378571Y-101093800D01*
X122378571Y-101093800D02*
X122407142Y-101065228D01*
X122407142Y-101065228D02*
X122435714Y-101008085D01*
X122435714Y-101008085D02*
X122435714Y-100522371D01*
X122692856Y-100579514D02*
X122721428Y-100550942D01*
X122721428Y-100550942D02*
X122778571Y-100522371D01*
X122778571Y-100522371D02*
X122921428Y-100522371D01*
X122921428Y-100522371D02*
X122978571Y-100550942D01*
X122978571Y-100550942D02*
X123007142Y-100579514D01*
X123007142Y-100579514D02*
X123035713Y-100636657D01*
X123035713Y-100636657D02*
X123035713Y-100693800D01*
X123035713Y-100693800D02*
X123007142Y-100779514D01*
X123007142Y-100779514D02*
X122664285Y-101122371D01*
X122664285Y-101122371D02*
X123035713Y-101122371D01*
X122415228Y-93785714D02*
X122443800Y-93814286D01*
X122443800Y-93814286D02*
X122472371Y-93900000D01*
X122472371Y-93900000D02*
X122472371Y-93957143D01*
X122472371Y-93957143D02*
X122443800Y-94042857D01*
X122443800Y-94042857D02*
X122386657Y-94100000D01*
X122386657Y-94100000D02*
X122329514Y-94128571D01*
X122329514Y-94128571D02*
X122215228Y-94157143D01*
X122215228Y-94157143D02*
X122129514Y-94157143D01*
X122129514Y-94157143D02*
X122015228Y-94128571D01*
X122015228Y-94128571D02*
X121958085Y-94100000D01*
X121958085Y-94100000D02*
X121900942Y-94042857D01*
X121900942Y-94042857D02*
X121872371Y-93957143D01*
X121872371Y-93957143D02*
X121872371Y-93900000D01*
X121872371Y-93900000D02*
X121900942Y-93814286D01*
X121900942Y-93814286D02*
X121929514Y-93785714D01*
X121929514Y-93557143D02*
X121900942Y-93528571D01*
X121900942Y-93528571D02*
X121872371Y-93471429D01*
X121872371Y-93471429D02*
X121872371Y-93328571D01*
X121872371Y-93328571D02*
X121900942Y-93271429D01*
X121900942Y-93271429D02*
X121929514Y-93242857D01*
X121929514Y-93242857D02*
X121986657Y-93214286D01*
X121986657Y-93214286D02*
X122043800Y-93214286D01*
X122043800Y-93214286D02*
X122129514Y-93242857D01*
X122129514Y-93242857D02*
X122472371Y-93585714D01*
X122472371Y-93585714D02*
X122472371Y-93214286D01*
X121872371Y-93014285D02*
X121872371Y-92614285D01*
X121872371Y-92614285D02*
X122472371Y-92871428D01*
X109215228Y-96885714D02*
X109243800Y-96914286D01*
X109243800Y-96914286D02*
X109272371Y-97000000D01*
X109272371Y-97000000D02*
X109272371Y-97057143D01*
X109272371Y-97057143D02*
X109243800Y-97142857D01*
X109243800Y-97142857D02*
X109186657Y-97200000D01*
X109186657Y-97200000D02*
X109129514Y-97228571D01*
X109129514Y-97228571D02*
X109015228Y-97257143D01*
X109015228Y-97257143D02*
X108929514Y-97257143D01*
X108929514Y-97257143D02*
X108815228Y-97228571D01*
X108815228Y-97228571D02*
X108758085Y-97200000D01*
X108758085Y-97200000D02*
X108700942Y-97142857D01*
X108700942Y-97142857D02*
X108672371Y-97057143D01*
X108672371Y-97057143D02*
X108672371Y-97000000D01*
X108672371Y-97000000D02*
X108700942Y-96914286D01*
X108700942Y-96914286D02*
X108729514Y-96885714D01*
X109272371Y-96314286D02*
X109272371Y-96657143D01*
X109272371Y-96485714D02*
X108672371Y-96485714D01*
X108672371Y-96485714D02*
X108758085Y-96542857D01*
X108758085Y-96542857D02*
X108815228Y-96600000D01*
X108815228Y-96600000D02*
X108843800Y-96657143D01*
X108672371Y-95942857D02*
X108672371Y-95885714D01*
X108672371Y-95885714D02*
X108700942Y-95828571D01*
X108700942Y-95828571D02*
X108729514Y-95800000D01*
X108729514Y-95800000D02*
X108786657Y-95771428D01*
X108786657Y-95771428D02*
X108900942Y-95742857D01*
X108900942Y-95742857D02*
X109043800Y-95742857D01*
X109043800Y-95742857D02*
X109158085Y-95771428D01*
X109158085Y-95771428D02*
X109215228Y-95800000D01*
X109215228Y-95800000D02*
X109243800Y-95828571D01*
X109243800Y-95828571D02*
X109272371Y-95885714D01*
X109272371Y-95885714D02*
X109272371Y-95942857D01*
X109272371Y-95942857D02*
X109243800Y-96000000D01*
X109243800Y-96000000D02*
X109215228Y-96028571D01*
X109215228Y-96028571D02*
X109158085Y-96057142D01*
X109158085Y-96057142D02*
X109043800Y-96085714D01*
X109043800Y-96085714D02*
X108900942Y-96085714D01*
X108900942Y-96085714D02*
X108786657Y-96057142D01*
X108786657Y-96057142D02*
X108729514Y-96028571D01*
X108729514Y-96028571D02*
X108700942Y-96000000D01*
X108700942Y-96000000D02*
X108672371Y-95942857D01*
X109215228Y-93585714D02*
X109243800Y-93614286D01*
X109243800Y-93614286D02*
X109272371Y-93700000D01*
X109272371Y-93700000D02*
X109272371Y-93757143D01*
X109272371Y-93757143D02*
X109243800Y-93842857D01*
X109243800Y-93842857D02*
X109186657Y-93900000D01*
X109186657Y-93900000D02*
X109129514Y-93928571D01*
X109129514Y-93928571D02*
X109015228Y-93957143D01*
X109015228Y-93957143D02*
X108929514Y-93957143D01*
X108929514Y-93957143D02*
X108815228Y-93928571D01*
X108815228Y-93928571D02*
X108758085Y-93900000D01*
X108758085Y-93900000D02*
X108700942Y-93842857D01*
X108700942Y-93842857D02*
X108672371Y-93757143D01*
X108672371Y-93757143D02*
X108672371Y-93700000D01*
X108672371Y-93700000D02*
X108700942Y-93614286D01*
X108700942Y-93614286D02*
X108729514Y-93585714D01*
X109272371Y-93014286D02*
X109272371Y-93357143D01*
X109272371Y-93185714D02*
X108672371Y-93185714D01*
X108672371Y-93185714D02*
X108758085Y-93242857D01*
X108758085Y-93242857D02*
X108815228Y-93300000D01*
X108815228Y-93300000D02*
X108843800Y-93357143D01*
X109272371Y-92442857D02*
X109272371Y-92785714D01*
X109272371Y-92614285D02*
X108672371Y-92614285D01*
X108672371Y-92614285D02*
X108758085Y-92671428D01*
X108758085Y-92671428D02*
X108815228Y-92728571D01*
X108815228Y-92728571D02*
X108843800Y-92785714D01*
X156114285Y-83015228D02*
X156085713Y-83043800D01*
X156085713Y-83043800D02*
X155999999Y-83072371D01*
X155999999Y-83072371D02*
X155942856Y-83072371D01*
X155942856Y-83072371D02*
X155857142Y-83043800D01*
X155857142Y-83043800D02*
X155799999Y-82986657D01*
X155799999Y-82986657D02*
X155771428Y-82929514D01*
X155771428Y-82929514D02*
X155742856Y-82815228D01*
X155742856Y-82815228D02*
X155742856Y-82729514D01*
X155742856Y-82729514D02*
X155771428Y-82615228D01*
X155771428Y-82615228D02*
X155799999Y-82558085D01*
X155799999Y-82558085D02*
X155857142Y-82500942D01*
X155857142Y-82500942D02*
X155942856Y-82472371D01*
X155942856Y-82472371D02*
X155999999Y-82472371D01*
X155999999Y-82472371D02*
X156085713Y-82500942D01*
X156085713Y-82500942D02*
X156114285Y-82529514D01*
X156342856Y-82529514D02*
X156371428Y-82500942D01*
X156371428Y-82500942D02*
X156428571Y-82472371D01*
X156428571Y-82472371D02*
X156571428Y-82472371D01*
X156571428Y-82472371D02*
X156628571Y-82500942D01*
X156628571Y-82500942D02*
X156657142Y-82529514D01*
X156657142Y-82529514D02*
X156685713Y-82586657D01*
X156685713Y-82586657D02*
X156685713Y-82643800D01*
X156685713Y-82643800D02*
X156657142Y-82729514D01*
X156657142Y-82729514D02*
X156314285Y-83072371D01*
X156314285Y-83072371D02*
X156685713Y-83072371D01*
X157257142Y-83072371D02*
X156914285Y-83072371D01*
X157085714Y-83072371D02*
X157085714Y-82472371D01*
X157085714Y-82472371D02*
X157028571Y-82558085D01*
X157028571Y-82558085D02*
X156971428Y-82615228D01*
X156971428Y-82615228D02*
X156914285Y-82643800D01*
X116886286Y-102772371D02*
X116886286Y-102172371D01*
X117514857Y-102715228D02*
X117486285Y-102743800D01*
X117486285Y-102743800D02*
X117400571Y-102772371D01*
X117400571Y-102772371D02*
X117343428Y-102772371D01*
X117343428Y-102772371D02*
X117257714Y-102743800D01*
X117257714Y-102743800D02*
X117200571Y-102686657D01*
X117200571Y-102686657D02*
X117172000Y-102629514D01*
X117172000Y-102629514D02*
X117143428Y-102515228D01*
X117143428Y-102515228D02*
X117143428Y-102429514D01*
X117143428Y-102429514D02*
X117172000Y-102315228D01*
X117172000Y-102315228D02*
X117200571Y-102258085D01*
X117200571Y-102258085D02*
X117257714Y-102200942D01*
X117257714Y-102200942D02*
X117343428Y-102172371D01*
X117343428Y-102172371D02*
X117400571Y-102172371D01*
X117400571Y-102172371D02*
X117486285Y-102200942D01*
X117486285Y-102200942D02*
X117514857Y-102229514D01*
X118029143Y-102372371D02*
X118029143Y-102772371D01*
X117886285Y-102143800D02*
X117743428Y-102572371D01*
X117743428Y-102572371D02*
X118114857Y-102572371D01*
X153714285Y-75472371D02*
X153514285Y-75186657D01*
X153371428Y-75472371D02*
X153371428Y-74872371D01*
X153371428Y-74872371D02*
X153599999Y-74872371D01*
X153599999Y-74872371D02*
X153657142Y-74900942D01*
X153657142Y-74900942D02*
X153685713Y-74929514D01*
X153685713Y-74929514D02*
X153714285Y-74986657D01*
X153714285Y-74986657D02*
X153714285Y-75072371D01*
X153714285Y-75072371D02*
X153685713Y-75129514D01*
X153685713Y-75129514D02*
X153657142Y-75158085D01*
X153657142Y-75158085D02*
X153599999Y-75186657D01*
X153599999Y-75186657D02*
X153371428Y-75186657D01*
X154285713Y-75472371D02*
X153942856Y-75472371D01*
X154114285Y-75472371D02*
X154114285Y-74872371D01*
X154114285Y-74872371D02*
X154057142Y-74958085D01*
X154057142Y-74958085D02*
X153999999Y-75015228D01*
X153999999Y-75015228D02*
X153942856Y-75043800D01*
X154800000Y-74872371D02*
X154685714Y-74872371D01*
X154685714Y-74872371D02*
X154628571Y-74900942D01*
X154628571Y-74900942D02*
X154600000Y-74929514D01*
X154600000Y-74929514D02*
X154542857Y-75015228D01*
X154542857Y-75015228D02*
X154514285Y-75129514D01*
X154514285Y-75129514D02*
X154514285Y-75358085D01*
X154514285Y-75358085D02*
X154542857Y-75415228D01*
X154542857Y-75415228D02*
X154571428Y-75443800D01*
X154571428Y-75443800D02*
X154628571Y-75472371D01*
X154628571Y-75472371D02*
X154742857Y-75472371D01*
X154742857Y-75472371D02*
X154800000Y-75443800D01*
X154800000Y-75443800D02*
X154828571Y-75415228D01*
X154828571Y-75415228D02*
X154857142Y-75358085D01*
X154857142Y-75358085D02*
X154857142Y-75215228D01*
X154857142Y-75215228D02*
X154828571Y-75158085D01*
X154828571Y-75158085D02*
X154800000Y-75129514D01*
X154800000Y-75129514D02*
X154742857Y-75100942D01*
X154742857Y-75100942D02*
X154628571Y-75100942D01*
X154628571Y-75100942D02*
X154571428Y-75129514D01*
X154571428Y-75129514D02*
X154542857Y-75158085D01*
X154542857Y-75158085D02*
X154514285Y-75215228D01*
D12*
X92674819Y-78766666D02*
X92198628Y-79099999D01*
X92674819Y-79338094D02*
X91674819Y-79338094D01*
X91674819Y-79338094D02*
X91674819Y-78957142D01*
X91674819Y-78957142D02*
X91722438Y-78861904D01*
X91722438Y-78861904D02*
X91770057Y-78814285D01*
X91770057Y-78814285D02*
X91865295Y-78766666D01*
X91865295Y-78766666D02*
X92008152Y-78766666D01*
X92008152Y-78766666D02*
X92103390Y-78814285D01*
X92103390Y-78814285D02*
X92151009Y-78861904D01*
X92151009Y-78861904D02*
X92198628Y-78957142D01*
X92198628Y-78957142D02*
X92198628Y-79338094D01*
X91674819Y-78433332D02*
X91674819Y-77814285D01*
X91674819Y-77814285D02*
X92055771Y-78147618D01*
X92055771Y-78147618D02*
X92055771Y-78004761D01*
X92055771Y-78004761D02*
X92103390Y-77909523D01*
X92103390Y-77909523D02*
X92151009Y-77861904D01*
X92151009Y-77861904D02*
X92246247Y-77814285D01*
X92246247Y-77814285D02*
X92484342Y-77814285D01*
X92484342Y-77814285D02*
X92579580Y-77861904D01*
X92579580Y-77861904D02*
X92627200Y-77909523D01*
X92627200Y-77909523D02*
X92674819Y-78004761D01*
X92674819Y-78004761D02*
X92674819Y-78290475D01*
X92674819Y-78290475D02*
X92627200Y-78385713D01*
X92627200Y-78385713D02*
X92579580Y-78433332D01*
D10*
X134914285Y-84972371D02*
X134714285Y-84686657D01*
X134571428Y-84972371D02*
X134571428Y-84372371D01*
X134571428Y-84372371D02*
X134799999Y-84372371D01*
X134799999Y-84372371D02*
X134857142Y-84400942D01*
X134857142Y-84400942D02*
X134885713Y-84429514D01*
X134885713Y-84429514D02*
X134914285Y-84486657D01*
X134914285Y-84486657D02*
X134914285Y-84572371D01*
X134914285Y-84572371D02*
X134885713Y-84629514D01*
X134885713Y-84629514D02*
X134857142Y-84658085D01*
X134857142Y-84658085D02*
X134799999Y-84686657D01*
X134799999Y-84686657D02*
X134571428Y-84686657D01*
X135485713Y-84972371D02*
X135142856Y-84972371D01*
X135314285Y-84972371D02*
X135314285Y-84372371D01*
X135314285Y-84372371D02*
X135257142Y-84458085D01*
X135257142Y-84458085D02*
X135199999Y-84515228D01*
X135199999Y-84515228D02*
X135142856Y-84543800D01*
X135685714Y-84372371D02*
X136057142Y-84372371D01*
X136057142Y-84372371D02*
X135857142Y-84600942D01*
X135857142Y-84600942D02*
X135942857Y-84600942D01*
X135942857Y-84600942D02*
X136000000Y-84629514D01*
X136000000Y-84629514D02*
X136028571Y-84658085D01*
X136028571Y-84658085D02*
X136057142Y-84715228D01*
X136057142Y-84715228D02*
X136057142Y-84858085D01*
X136057142Y-84858085D02*
X136028571Y-84915228D01*
X136028571Y-84915228D02*
X136000000Y-84943800D01*
X136000000Y-84943800D02*
X135942857Y-84972371D01*
X135942857Y-84972371D02*
X135771428Y-84972371D01*
X135771428Y-84972371D02*
X135714285Y-84943800D01*
X135714285Y-84943800D02*
X135685714Y-84915228D01*
X132715228Y-78999999D02*
X132743800Y-79028571D01*
X132743800Y-79028571D02*
X132772371Y-79114285D01*
X132772371Y-79114285D02*
X132772371Y-79171428D01*
X132772371Y-79171428D02*
X132743800Y-79257142D01*
X132743800Y-79257142D02*
X132686657Y-79314285D01*
X132686657Y-79314285D02*
X132629514Y-79342856D01*
X132629514Y-79342856D02*
X132515228Y-79371428D01*
X132515228Y-79371428D02*
X132429514Y-79371428D01*
X132429514Y-79371428D02*
X132315228Y-79342856D01*
X132315228Y-79342856D02*
X132258085Y-79314285D01*
X132258085Y-79314285D02*
X132200942Y-79257142D01*
X132200942Y-79257142D02*
X132172371Y-79171428D01*
X132172371Y-79171428D02*
X132172371Y-79114285D01*
X132172371Y-79114285D02*
X132200942Y-79028571D01*
X132200942Y-79028571D02*
X132229514Y-78999999D01*
X132772371Y-78428571D02*
X132772371Y-78771428D01*
X132772371Y-78599999D02*
X132172371Y-78599999D01*
X132172371Y-78599999D02*
X132258085Y-78657142D01*
X132258085Y-78657142D02*
X132315228Y-78714285D01*
X132315228Y-78714285D02*
X132343800Y-78771428D01*
X122450000Y-115872371D02*
X122164286Y-115872371D01*
X122164286Y-115872371D02*
X122164286Y-115272371D01*
X122964285Y-115872371D02*
X122621428Y-115872371D01*
X122792857Y-115872371D02*
X122792857Y-115272371D01*
X122792857Y-115272371D02*
X122735714Y-115358085D01*
X122735714Y-115358085D02*
X122678571Y-115415228D01*
X122678571Y-115415228D02*
X122621428Y-115443800D01*
D12*
X84366667Y-95704819D02*
X84366667Y-94704819D01*
X84366667Y-95181009D02*
X84938095Y-95181009D01*
X84938095Y-95704819D02*
X84938095Y-94704819D01*
X85271429Y-94704819D02*
X85604762Y-95704819D01*
X85604762Y-95704819D02*
X85938095Y-94704819D01*
X86271429Y-95323866D02*
X87033334Y-95323866D01*
D10*
X144314285Y-94509871D02*
X144114285Y-94224157D01*
X143971428Y-94509871D02*
X143971428Y-93909871D01*
X143971428Y-93909871D02*
X144199999Y-93909871D01*
X144199999Y-93909871D02*
X144257142Y-93938442D01*
X144257142Y-93938442D02*
X144285713Y-93967014D01*
X144285713Y-93967014D02*
X144314285Y-94024157D01*
X144314285Y-94024157D02*
X144314285Y-94109871D01*
X144314285Y-94109871D02*
X144285713Y-94167014D01*
X144285713Y-94167014D02*
X144257142Y-94195585D01*
X144257142Y-94195585D02*
X144199999Y-94224157D01*
X144199999Y-94224157D02*
X143971428Y-94224157D01*
X144542856Y-93967014D02*
X144571428Y-93938442D01*
X144571428Y-93938442D02*
X144628571Y-93909871D01*
X144628571Y-93909871D02*
X144771428Y-93909871D01*
X144771428Y-93909871D02*
X144828571Y-93938442D01*
X144828571Y-93938442D02*
X144857142Y-93967014D01*
X144857142Y-93967014D02*
X144885713Y-94024157D01*
X144885713Y-94024157D02*
X144885713Y-94081300D01*
X144885713Y-94081300D02*
X144857142Y-94167014D01*
X144857142Y-94167014D02*
X144514285Y-94509871D01*
X144514285Y-94509871D02*
X144885713Y-94509871D01*
X145457142Y-94509871D02*
X145114285Y-94509871D01*
X145285714Y-94509871D02*
X145285714Y-93909871D01*
X145285714Y-93909871D02*
X145228571Y-93995585D01*
X145228571Y-93995585D02*
X145171428Y-94052728D01*
X145171428Y-94052728D02*
X145114285Y-94081300D01*
X90812000Y-92277371D02*
X90612000Y-91991657D01*
X90469143Y-92277371D02*
X90469143Y-91677371D01*
X90469143Y-91677371D02*
X90697714Y-91677371D01*
X90697714Y-91677371D02*
X90754857Y-91705942D01*
X90754857Y-91705942D02*
X90783428Y-91734514D01*
X90783428Y-91734514D02*
X90812000Y-91791657D01*
X90812000Y-91791657D02*
X90812000Y-91877371D01*
X90812000Y-91877371D02*
X90783428Y-91934514D01*
X90783428Y-91934514D02*
X90754857Y-91963085D01*
X90754857Y-91963085D02*
X90697714Y-91991657D01*
X90697714Y-91991657D02*
X90469143Y-91991657D01*
X91012000Y-91677371D02*
X91412000Y-91677371D01*
X91412000Y-91677371D02*
X91154857Y-92277371D01*
X142614285Y-94472371D02*
X142414285Y-94186657D01*
X142271428Y-94472371D02*
X142271428Y-93872371D01*
X142271428Y-93872371D02*
X142499999Y-93872371D01*
X142499999Y-93872371D02*
X142557142Y-93900942D01*
X142557142Y-93900942D02*
X142585713Y-93929514D01*
X142585713Y-93929514D02*
X142614285Y-93986657D01*
X142614285Y-93986657D02*
X142614285Y-94072371D01*
X142614285Y-94072371D02*
X142585713Y-94129514D01*
X142585713Y-94129514D02*
X142557142Y-94158085D01*
X142557142Y-94158085D02*
X142499999Y-94186657D01*
X142499999Y-94186657D02*
X142271428Y-94186657D01*
X142842856Y-93929514D02*
X142871428Y-93900942D01*
X142871428Y-93900942D02*
X142928571Y-93872371D01*
X142928571Y-93872371D02*
X143071428Y-93872371D01*
X143071428Y-93872371D02*
X143128571Y-93900942D01*
X143128571Y-93900942D02*
X143157142Y-93929514D01*
X143157142Y-93929514D02*
X143185713Y-93986657D01*
X143185713Y-93986657D02*
X143185713Y-94043800D01*
X143185713Y-94043800D02*
X143157142Y-94129514D01*
X143157142Y-94129514D02*
X142814285Y-94472371D01*
X142814285Y-94472371D02*
X143185713Y-94472371D01*
X143414285Y-93929514D02*
X143442857Y-93900942D01*
X143442857Y-93900942D02*
X143500000Y-93872371D01*
X143500000Y-93872371D02*
X143642857Y-93872371D01*
X143642857Y-93872371D02*
X143700000Y-93900942D01*
X143700000Y-93900942D02*
X143728571Y-93929514D01*
X143728571Y-93929514D02*
X143757142Y-93986657D01*
X143757142Y-93986657D02*
X143757142Y-94043800D01*
X143757142Y-94043800D02*
X143728571Y-94129514D01*
X143728571Y-94129514D02*
X143385714Y-94472371D01*
X143385714Y-94472371D02*
X143757142Y-94472371D01*
D12*
X86433333Y-88334819D02*
X86100000Y-87858628D01*
X85861905Y-88334819D02*
X85861905Y-87334819D01*
X85861905Y-87334819D02*
X86242857Y-87334819D01*
X86242857Y-87334819D02*
X86338095Y-87382438D01*
X86338095Y-87382438D02*
X86385714Y-87430057D01*
X86385714Y-87430057D02*
X86433333Y-87525295D01*
X86433333Y-87525295D02*
X86433333Y-87668152D01*
X86433333Y-87668152D02*
X86385714Y-87763390D01*
X86385714Y-87763390D02*
X86338095Y-87811009D01*
X86338095Y-87811009D02*
X86242857Y-87858628D01*
X86242857Y-87858628D02*
X85861905Y-87858628D01*
X87290476Y-87334819D02*
X87100000Y-87334819D01*
X87100000Y-87334819D02*
X87004762Y-87382438D01*
X87004762Y-87382438D02*
X86957143Y-87430057D01*
X86957143Y-87430057D02*
X86861905Y-87572914D01*
X86861905Y-87572914D02*
X86814286Y-87763390D01*
X86814286Y-87763390D02*
X86814286Y-88144342D01*
X86814286Y-88144342D02*
X86861905Y-88239580D01*
X86861905Y-88239580D02*
X86909524Y-88287200D01*
X86909524Y-88287200D02*
X87004762Y-88334819D01*
X87004762Y-88334819D02*
X87195238Y-88334819D01*
X87195238Y-88334819D02*
X87290476Y-88287200D01*
X87290476Y-88287200D02*
X87338095Y-88239580D01*
X87338095Y-88239580D02*
X87385714Y-88144342D01*
X87385714Y-88144342D02*
X87385714Y-87906247D01*
X87385714Y-87906247D02*
X87338095Y-87811009D01*
X87338095Y-87811009D02*
X87290476Y-87763390D01*
X87290476Y-87763390D02*
X87195238Y-87715771D01*
X87195238Y-87715771D02*
X87004762Y-87715771D01*
X87004762Y-87715771D02*
X86909524Y-87763390D01*
X86909524Y-87763390D02*
X86861905Y-87811009D01*
X86861905Y-87811009D02*
X86814286Y-87906247D01*
D10*
X130272371Y-74999999D02*
X129986657Y-75199999D01*
X130272371Y-75342856D02*
X129672371Y-75342856D01*
X129672371Y-75342856D02*
X129672371Y-75114285D01*
X129672371Y-75114285D02*
X129700942Y-75057142D01*
X129700942Y-75057142D02*
X129729514Y-75028571D01*
X129729514Y-75028571D02*
X129786657Y-74999999D01*
X129786657Y-74999999D02*
X129872371Y-74999999D01*
X129872371Y-74999999D02*
X129929514Y-75028571D01*
X129929514Y-75028571D02*
X129958085Y-75057142D01*
X129958085Y-75057142D02*
X129986657Y-75114285D01*
X129986657Y-75114285D02*
X129986657Y-75342856D01*
X130272371Y-74714285D02*
X130272371Y-74599999D01*
X130272371Y-74599999D02*
X130243800Y-74542856D01*
X130243800Y-74542856D02*
X130215228Y-74514285D01*
X130215228Y-74514285D02*
X130129514Y-74457142D01*
X130129514Y-74457142D02*
X130015228Y-74428571D01*
X130015228Y-74428571D02*
X129786657Y-74428571D01*
X129786657Y-74428571D02*
X129729514Y-74457142D01*
X129729514Y-74457142D02*
X129700942Y-74485714D01*
X129700942Y-74485714D02*
X129672371Y-74542856D01*
X129672371Y-74542856D02*
X129672371Y-74657142D01*
X129672371Y-74657142D02*
X129700942Y-74714285D01*
X129700942Y-74714285D02*
X129729514Y-74742856D01*
X129729514Y-74742856D02*
X129786657Y-74771428D01*
X129786657Y-74771428D02*
X129929514Y-74771428D01*
X129929514Y-74771428D02*
X129986657Y-74742856D01*
X129986657Y-74742856D02*
X130015228Y-74714285D01*
X130015228Y-74714285D02*
X130043800Y-74657142D01*
X130043800Y-74657142D02*
X130043800Y-74542856D01*
X130043800Y-74542856D02*
X130015228Y-74485714D01*
X130015228Y-74485714D02*
X129986657Y-74457142D01*
X129986657Y-74457142D02*
X129929514Y-74428571D01*
X151515228Y-77185714D02*
X151543800Y-77214286D01*
X151543800Y-77214286D02*
X151572371Y-77300000D01*
X151572371Y-77300000D02*
X151572371Y-77357143D01*
X151572371Y-77357143D02*
X151543800Y-77442857D01*
X151543800Y-77442857D02*
X151486657Y-77500000D01*
X151486657Y-77500000D02*
X151429514Y-77528571D01*
X151429514Y-77528571D02*
X151315228Y-77557143D01*
X151315228Y-77557143D02*
X151229514Y-77557143D01*
X151229514Y-77557143D02*
X151115228Y-77528571D01*
X151115228Y-77528571D02*
X151058085Y-77500000D01*
X151058085Y-77500000D02*
X151000942Y-77442857D01*
X151000942Y-77442857D02*
X150972371Y-77357143D01*
X150972371Y-77357143D02*
X150972371Y-77300000D01*
X150972371Y-77300000D02*
X151000942Y-77214286D01*
X151000942Y-77214286D02*
X151029514Y-77185714D01*
X151572371Y-76614286D02*
X151572371Y-76957143D01*
X151572371Y-76785714D02*
X150972371Y-76785714D01*
X150972371Y-76785714D02*
X151058085Y-76842857D01*
X151058085Y-76842857D02*
X151115228Y-76900000D01*
X151115228Y-76900000D02*
X151143800Y-76957143D01*
X150972371Y-76414285D02*
X150972371Y-76014285D01*
X150972371Y-76014285D02*
X151572371Y-76271428D01*
X164228571Y-82072371D02*
X164028571Y-81786657D01*
X163885714Y-82072371D02*
X163885714Y-81472371D01*
X163885714Y-81472371D02*
X164114285Y-81472371D01*
X164114285Y-81472371D02*
X164171428Y-81500942D01*
X164171428Y-81500942D02*
X164199999Y-81529514D01*
X164199999Y-81529514D02*
X164228571Y-81586657D01*
X164228571Y-81586657D02*
X164228571Y-81672371D01*
X164228571Y-81672371D02*
X164199999Y-81729514D01*
X164199999Y-81729514D02*
X164171428Y-81758085D01*
X164171428Y-81758085D02*
X164114285Y-81786657D01*
X164114285Y-81786657D02*
X163885714Y-81786657D01*
X164485714Y-81758085D02*
X164685714Y-81758085D01*
X164771428Y-82072371D02*
X164485714Y-82072371D01*
X164485714Y-82072371D02*
X164485714Y-81472371D01*
X164485714Y-81472371D02*
X164771428Y-81472371D01*
X164999999Y-82043800D02*
X165085714Y-82072371D01*
X165085714Y-82072371D02*
X165228571Y-82072371D01*
X165228571Y-82072371D02*
X165285714Y-82043800D01*
X165285714Y-82043800D02*
X165314285Y-82015228D01*
X165314285Y-82015228D02*
X165342856Y-81958085D01*
X165342856Y-81958085D02*
X165342856Y-81900942D01*
X165342856Y-81900942D02*
X165314285Y-81843800D01*
X165314285Y-81843800D02*
X165285714Y-81815228D01*
X165285714Y-81815228D02*
X165228571Y-81786657D01*
X165228571Y-81786657D02*
X165114285Y-81758085D01*
X165114285Y-81758085D02*
X165057142Y-81729514D01*
X165057142Y-81729514D02*
X165028571Y-81700942D01*
X165028571Y-81700942D02*
X164999999Y-81643800D01*
X164999999Y-81643800D02*
X164999999Y-81586657D01*
X164999999Y-81586657D02*
X165028571Y-81529514D01*
X165028571Y-81529514D02*
X165057142Y-81500942D01*
X165057142Y-81500942D02*
X165114285Y-81472371D01*
X165114285Y-81472371D02*
X165257142Y-81472371D01*
X165257142Y-81472371D02*
X165342856Y-81500942D01*
X165600000Y-81758085D02*
X165800000Y-81758085D01*
X165885714Y-82072371D02*
X165600000Y-82072371D01*
X165600000Y-82072371D02*
X165600000Y-81472371D01*
X165600000Y-81472371D02*
X165885714Y-81472371D01*
X166057142Y-81472371D02*
X166400000Y-81472371D01*
X166228571Y-82072371D02*
X166228571Y-81472371D01*
X145614285Y-75715228D02*
X145585713Y-75743800D01*
X145585713Y-75743800D02*
X145499999Y-75772371D01*
X145499999Y-75772371D02*
X145442856Y-75772371D01*
X145442856Y-75772371D02*
X145357142Y-75743800D01*
X145357142Y-75743800D02*
X145299999Y-75686657D01*
X145299999Y-75686657D02*
X145271428Y-75629514D01*
X145271428Y-75629514D02*
X145242856Y-75515228D01*
X145242856Y-75515228D02*
X145242856Y-75429514D01*
X145242856Y-75429514D02*
X145271428Y-75315228D01*
X145271428Y-75315228D02*
X145299999Y-75258085D01*
X145299999Y-75258085D02*
X145357142Y-75200942D01*
X145357142Y-75200942D02*
X145442856Y-75172371D01*
X145442856Y-75172371D02*
X145499999Y-75172371D01*
X145499999Y-75172371D02*
X145585713Y-75200942D01*
X145585713Y-75200942D02*
X145614285Y-75229514D01*
X145814285Y-75172371D02*
X146185713Y-75172371D01*
X146185713Y-75172371D02*
X145985713Y-75400942D01*
X145985713Y-75400942D02*
X146071428Y-75400942D01*
X146071428Y-75400942D02*
X146128571Y-75429514D01*
X146128571Y-75429514D02*
X146157142Y-75458085D01*
X146157142Y-75458085D02*
X146185713Y-75515228D01*
X146185713Y-75515228D02*
X146185713Y-75658085D01*
X146185713Y-75658085D02*
X146157142Y-75715228D01*
X146157142Y-75715228D02*
X146128571Y-75743800D01*
X146128571Y-75743800D02*
X146071428Y-75772371D01*
X146071428Y-75772371D02*
X145899999Y-75772371D01*
X145899999Y-75772371D02*
X145842856Y-75743800D01*
X145842856Y-75743800D02*
X145814285Y-75715228D01*
X146414285Y-75229514D02*
X146442857Y-75200942D01*
X146442857Y-75200942D02*
X146500000Y-75172371D01*
X146500000Y-75172371D02*
X146642857Y-75172371D01*
X146642857Y-75172371D02*
X146700000Y-75200942D01*
X146700000Y-75200942D02*
X146728571Y-75229514D01*
X146728571Y-75229514D02*
X146757142Y-75286657D01*
X146757142Y-75286657D02*
X146757142Y-75343800D01*
X146757142Y-75343800D02*
X146728571Y-75429514D01*
X146728571Y-75429514D02*
X146385714Y-75772371D01*
X146385714Y-75772371D02*
X146757142Y-75772371D01*
X146051785Y-94522371D02*
X145851785Y-94236657D01*
X145708928Y-94522371D02*
X145708928Y-93922371D01*
X145708928Y-93922371D02*
X145937499Y-93922371D01*
X145937499Y-93922371D02*
X145994642Y-93950942D01*
X145994642Y-93950942D02*
X146023213Y-93979514D01*
X146023213Y-93979514D02*
X146051785Y-94036657D01*
X146051785Y-94036657D02*
X146051785Y-94122371D01*
X146051785Y-94122371D02*
X146023213Y-94179514D01*
X146023213Y-94179514D02*
X145994642Y-94208085D01*
X145994642Y-94208085D02*
X145937499Y-94236657D01*
X145937499Y-94236657D02*
X145708928Y-94236657D01*
X146280356Y-93979514D02*
X146308928Y-93950942D01*
X146308928Y-93950942D02*
X146366071Y-93922371D01*
X146366071Y-93922371D02*
X146508928Y-93922371D01*
X146508928Y-93922371D02*
X146566071Y-93950942D01*
X146566071Y-93950942D02*
X146594642Y-93979514D01*
X146594642Y-93979514D02*
X146623213Y-94036657D01*
X146623213Y-94036657D02*
X146623213Y-94093800D01*
X146623213Y-94093800D02*
X146594642Y-94179514D01*
X146594642Y-94179514D02*
X146251785Y-94522371D01*
X146251785Y-94522371D02*
X146623213Y-94522371D01*
X146994642Y-93922371D02*
X147051785Y-93922371D01*
X147051785Y-93922371D02*
X147108928Y-93950942D01*
X147108928Y-93950942D02*
X147137500Y-93979514D01*
X147137500Y-93979514D02*
X147166071Y-94036657D01*
X147166071Y-94036657D02*
X147194642Y-94150942D01*
X147194642Y-94150942D02*
X147194642Y-94293800D01*
X147194642Y-94293800D02*
X147166071Y-94408085D01*
X147166071Y-94408085D02*
X147137500Y-94465228D01*
X147137500Y-94465228D02*
X147108928Y-94493800D01*
X147108928Y-94493800D02*
X147051785Y-94522371D01*
X147051785Y-94522371D02*
X146994642Y-94522371D01*
X146994642Y-94522371D02*
X146937500Y-94493800D01*
X146937500Y-94493800D02*
X146908928Y-94465228D01*
X146908928Y-94465228D02*
X146880357Y-94408085D01*
X146880357Y-94408085D02*
X146851785Y-94293800D01*
X146851785Y-94293800D02*
X146851785Y-94150942D01*
X146851785Y-94150942D02*
X146880357Y-94036657D01*
X146880357Y-94036657D02*
X146908928Y-93979514D01*
X146908928Y-93979514D02*
X146937500Y-93950942D01*
X146937500Y-93950942D02*
X146994642Y-93922371D01*
X92500000Y-92220228D02*
X92471428Y-92248800D01*
X92471428Y-92248800D02*
X92385714Y-92277371D01*
X92385714Y-92277371D02*
X92328571Y-92277371D01*
X92328571Y-92277371D02*
X92242857Y-92248800D01*
X92242857Y-92248800D02*
X92185714Y-92191657D01*
X92185714Y-92191657D02*
X92157143Y-92134514D01*
X92157143Y-92134514D02*
X92128571Y-92020228D01*
X92128571Y-92020228D02*
X92128571Y-91934514D01*
X92128571Y-91934514D02*
X92157143Y-91820228D01*
X92157143Y-91820228D02*
X92185714Y-91763085D01*
X92185714Y-91763085D02*
X92242857Y-91705942D01*
X92242857Y-91705942D02*
X92328571Y-91677371D01*
X92328571Y-91677371D02*
X92385714Y-91677371D01*
X92385714Y-91677371D02*
X92471428Y-91705942D01*
X92471428Y-91705942D02*
X92500000Y-91734514D01*
X93014286Y-91677371D02*
X92900000Y-91677371D01*
X92900000Y-91677371D02*
X92842857Y-91705942D01*
X92842857Y-91705942D02*
X92814286Y-91734514D01*
X92814286Y-91734514D02*
X92757143Y-91820228D01*
X92757143Y-91820228D02*
X92728571Y-91934514D01*
X92728571Y-91934514D02*
X92728571Y-92163085D01*
X92728571Y-92163085D02*
X92757143Y-92220228D01*
X92757143Y-92220228D02*
X92785714Y-92248800D01*
X92785714Y-92248800D02*
X92842857Y-92277371D01*
X92842857Y-92277371D02*
X92957143Y-92277371D01*
X92957143Y-92277371D02*
X93014286Y-92248800D01*
X93014286Y-92248800D02*
X93042857Y-92220228D01*
X93042857Y-92220228D02*
X93071428Y-92163085D01*
X93071428Y-92163085D02*
X93071428Y-92020228D01*
X93071428Y-92020228D02*
X93042857Y-91963085D01*
X93042857Y-91963085D02*
X93014286Y-91934514D01*
X93014286Y-91934514D02*
X92957143Y-91905942D01*
X92957143Y-91905942D02*
X92842857Y-91905942D01*
X92842857Y-91905942D02*
X92785714Y-91934514D01*
X92785714Y-91934514D02*
X92757143Y-91963085D01*
X92757143Y-91963085D02*
X92728571Y-92020228D01*
X99214286Y-85172371D02*
X99214286Y-84572371D01*
X99842857Y-85115228D02*
X99814285Y-85143800D01*
X99814285Y-85143800D02*
X99728571Y-85172371D01*
X99728571Y-85172371D02*
X99671428Y-85172371D01*
X99671428Y-85172371D02*
X99585714Y-85143800D01*
X99585714Y-85143800D02*
X99528571Y-85086657D01*
X99528571Y-85086657D02*
X99500000Y-85029514D01*
X99500000Y-85029514D02*
X99471428Y-84915228D01*
X99471428Y-84915228D02*
X99471428Y-84829514D01*
X99471428Y-84829514D02*
X99500000Y-84715228D01*
X99500000Y-84715228D02*
X99528571Y-84658085D01*
X99528571Y-84658085D02*
X99585714Y-84600942D01*
X99585714Y-84600942D02*
X99671428Y-84572371D01*
X99671428Y-84572371D02*
X99728571Y-84572371D01*
X99728571Y-84572371D02*
X99814285Y-84600942D01*
X99814285Y-84600942D02*
X99842857Y-84629514D01*
X100071428Y-84629514D02*
X100100000Y-84600942D01*
X100100000Y-84600942D02*
X100157143Y-84572371D01*
X100157143Y-84572371D02*
X100300000Y-84572371D01*
X100300000Y-84572371D02*
X100357143Y-84600942D01*
X100357143Y-84600942D02*
X100385714Y-84629514D01*
X100385714Y-84629514D02*
X100414285Y-84686657D01*
X100414285Y-84686657D02*
X100414285Y-84743800D01*
X100414285Y-84743800D02*
X100385714Y-84829514D01*
X100385714Y-84829514D02*
X100042857Y-85172371D01*
X100042857Y-85172371D02*
X100414285Y-85172371D01*
X157814285Y-83015228D02*
X157785713Y-83043800D01*
X157785713Y-83043800D02*
X157699999Y-83072371D01*
X157699999Y-83072371D02*
X157642856Y-83072371D01*
X157642856Y-83072371D02*
X157557142Y-83043800D01*
X157557142Y-83043800D02*
X157499999Y-82986657D01*
X157499999Y-82986657D02*
X157471428Y-82929514D01*
X157471428Y-82929514D02*
X157442856Y-82815228D01*
X157442856Y-82815228D02*
X157442856Y-82729514D01*
X157442856Y-82729514D02*
X157471428Y-82615228D01*
X157471428Y-82615228D02*
X157499999Y-82558085D01*
X157499999Y-82558085D02*
X157557142Y-82500942D01*
X157557142Y-82500942D02*
X157642856Y-82472371D01*
X157642856Y-82472371D02*
X157699999Y-82472371D01*
X157699999Y-82472371D02*
X157785713Y-82500942D01*
X157785713Y-82500942D02*
X157814285Y-82529514D01*
X158042856Y-82529514D02*
X158071428Y-82500942D01*
X158071428Y-82500942D02*
X158128571Y-82472371D01*
X158128571Y-82472371D02*
X158271428Y-82472371D01*
X158271428Y-82472371D02*
X158328571Y-82500942D01*
X158328571Y-82500942D02*
X158357142Y-82529514D01*
X158357142Y-82529514D02*
X158385713Y-82586657D01*
X158385713Y-82586657D02*
X158385713Y-82643800D01*
X158385713Y-82643800D02*
X158357142Y-82729514D01*
X158357142Y-82729514D02*
X158014285Y-83072371D01*
X158014285Y-83072371D02*
X158385713Y-83072371D01*
X158614285Y-82529514D02*
X158642857Y-82500942D01*
X158642857Y-82500942D02*
X158700000Y-82472371D01*
X158700000Y-82472371D02*
X158842857Y-82472371D01*
X158842857Y-82472371D02*
X158900000Y-82500942D01*
X158900000Y-82500942D02*
X158928571Y-82529514D01*
X158928571Y-82529514D02*
X158957142Y-82586657D01*
X158957142Y-82586657D02*
X158957142Y-82643800D01*
X158957142Y-82643800D02*
X158928571Y-82729514D01*
X158928571Y-82729514D02*
X158585714Y-83072371D01*
X158585714Y-83072371D02*
X158957142Y-83072371D01*
X133914285Y-90972371D02*
X133714285Y-90686657D01*
X133571428Y-90972371D02*
X133571428Y-90372371D01*
X133571428Y-90372371D02*
X133799999Y-90372371D01*
X133799999Y-90372371D02*
X133857142Y-90400942D01*
X133857142Y-90400942D02*
X133885713Y-90429514D01*
X133885713Y-90429514D02*
X133914285Y-90486657D01*
X133914285Y-90486657D02*
X133914285Y-90572371D01*
X133914285Y-90572371D02*
X133885713Y-90629514D01*
X133885713Y-90629514D02*
X133857142Y-90658085D01*
X133857142Y-90658085D02*
X133799999Y-90686657D01*
X133799999Y-90686657D02*
X133571428Y-90686657D01*
X134485713Y-90972371D02*
X134142856Y-90972371D01*
X134314285Y-90972371D02*
X134314285Y-90372371D01*
X134314285Y-90372371D02*
X134257142Y-90458085D01*
X134257142Y-90458085D02*
X134199999Y-90515228D01*
X134199999Y-90515228D02*
X134142856Y-90543800D01*
X135028571Y-90372371D02*
X134742857Y-90372371D01*
X134742857Y-90372371D02*
X134714285Y-90658085D01*
X134714285Y-90658085D02*
X134742857Y-90629514D01*
X134742857Y-90629514D02*
X134800000Y-90600942D01*
X134800000Y-90600942D02*
X134942857Y-90600942D01*
X134942857Y-90600942D02*
X135000000Y-90629514D01*
X135000000Y-90629514D02*
X135028571Y-90658085D01*
X135028571Y-90658085D02*
X135057142Y-90715228D01*
X135057142Y-90715228D02*
X135057142Y-90858085D01*
X135057142Y-90858085D02*
X135028571Y-90915228D01*
X135028571Y-90915228D02*
X135000000Y-90943800D01*
X135000000Y-90943800D02*
X134942857Y-90972371D01*
X134942857Y-90972371D02*
X134800000Y-90972371D01*
X134800000Y-90972371D02*
X134742857Y-90943800D01*
X134742857Y-90943800D02*
X134714285Y-90915228D01*
X151014285Y-95772371D02*
X150814285Y-95486657D01*
X150671428Y-95772371D02*
X150671428Y-95172371D01*
X150671428Y-95172371D02*
X150899999Y-95172371D01*
X150899999Y-95172371D02*
X150957142Y-95200942D01*
X150957142Y-95200942D02*
X150985713Y-95229514D01*
X150985713Y-95229514D02*
X151014285Y-95286657D01*
X151014285Y-95286657D02*
X151014285Y-95372371D01*
X151014285Y-95372371D02*
X150985713Y-95429514D01*
X150985713Y-95429514D02*
X150957142Y-95458085D01*
X150957142Y-95458085D02*
X150899999Y-95486657D01*
X150899999Y-95486657D02*
X150671428Y-95486657D01*
X151585713Y-95772371D02*
X151242856Y-95772371D01*
X151414285Y-95772371D02*
X151414285Y-95172371D01*
X151414285Y-95172371D02*
X151357142Y-95258085D01*
X151357142Y-95258085D02*
X151299999Y-95315228D01*
X151299999Y-95315228D02*
X151242856Y-95343800D01*
X151871428Y-95772371D02*
X151985714Y-95772371D01*
X151985714Y-95772371D02*
X152042857Y-95743800D01*
X152042857Y-95743800D02*
X152071428Y-95715228D01*
X152071428Y-95715228D02*
X152128571Y-95629514D01*
X152128571Y-95629514D02*
X152157142Y-95515228D01*
X152157142Y-95515228D02*
X152157142Y-95286657D01*
X152157142Y-95286657D02*
X152128571Y-95229514D01*
X152128571Y-95229514D02*
X152100000Y-95200942D01*
X152100000Y-95200942D02*
X152042857Y-95172371D01*
X152042857Y-95172371D02*
X151928571Y-95172371D01*
X151928571Y-95172371D02*
X151871428Y-95200942D01*
X151871428Y-95200942D02*
X151842857Y-95229514D01*
X151842857Y-95229514D02*
X151814285Y-95286657D01*
X151814285Y-95286657D02*
X151814285Y-95429514D01*
X151814285Y-95429514D02*
X151842857Y-95486657D01*
X151842857Y-95486657D02*
X151871428Y-95515228D01*
X151871428Y-95515228D02*
X151928571Y-95543800D01*
X151928571Y-95543800D02*
X152042857Y-95543800D01*
X152042857Y-95543800D02*
X152100000Y-95515228D01*
X152100000Y-95515228D02*
X152128571Y-95486657D01*
X152128571Y-95486657D02*
X152157142Y-95429514D01*
D11*
%TO.C,IC1*%
X128700000Y-76059000D02*
X129450000Y-76059000D01*
X129450000Y-76059000D02*
X129450000Y-78503000D01*
X125700000Y-76059000D02*
X124950000Y-76059000D01*
X124950000Y-76059000D02*
X124950000Y-78503000D01*
D10*
X125600000Y-80151000D02*
X125600000Y-80151000D01*
X125700000Y-80151000D02*
X125700000Y-80151000D01*
X125700000Y-80151000D02*
G75*
G02*
X125600000Y-80151000I-50000J0D01*
G01*
X125600000Y-80151000D02*
G75*
G02*
X125700000Y-80151000I50000J0D01*
G01*
D14*
%TO.C,C16*%
X142609420Y-76265000D02*
X142890580Y-76265000D01*
X142609420Y-77285000D02*
X142890580Y-77285000D01*
%TO.C,C3*%
X139090000Y-78240580D02*
X139090000Y-77959420D01*
X140110000Y-78240580D02*
X140110000Y-77959420D01*
%TO.C,R23*%
X148762742Y-93177500D02*
X149237258Y-93177500D01*
X148762742Y-94222500D02*
X149237258Y-94222500D01*
%TO.C,C24*%
X121740000Y-107190580D02*
X121740000Y-106909420D01*
X122760000Y-107190580D02*
X122760000Y-106909420D01*
%TO.C,C2*%
X127265580Y-83110000D02*
X126984420Y-83110000D01*
X127265580Y-82090000D02*
X126984420Y-82090000D01*
%TO.C,C23*%
X134140580Y-96590000D02*
X133859420Y-96590000D01*
X134140580Y-97610000D02*
X133859420Y-97610000D01*
%TO.C,R18*%
X140677500Y-94962742D02*
X140677500Y-95437258D01*
X141722500Y-94962742D02*
X141722500Y-95437258D01*
%TO.C,R12*%
X131162770Y-89898303D02*
X131498303Y-89562770D01*
X131901697Y-90637230D02*
X132237230Y-90301697D01*
%TO.C,C19*%
X137940580Y-87590000D02*
X137659420Y-87590000D01*
X137940580Y-88610000D02*
X137659420Y-88610000D01*
%TO.C,C14*%
X156015580Y-88265000D02*
X155734420Y-88265000D01*
X156015580Y-89285000D02*
X155734420Y-89285000D01*
D10*
%TO.C,BT1*%
X146568000Y-99068000D02*
X146568000Y-100750000D01*
X146568000Y-99068000D02*
X151910000Y-99068000D01*
X146568000Y-100750000D02*
X150104000Y-100750000D01*
X160232000Y-99068000D02*
X154953000Y-99068000D01*
X160232000Y-99068000D02*
X160232000Y-100750000D01*
X160232000Y-100750000D02*
X156670000Y-100750000D01*
X150104713Y-114000787D02*
G75*
G02*
X150103130Y-100750000I3295293J6625787D01*
G01*
X156695295Y-100749217D02*
G75*
G02*
X156696870Y-114000000I-3295295J-6625783D01*
G01*
D14*
%TO.C,C8*%
X90490000Y-94759420D02*
X90490000Y-95040580D01*
X91510000Y-94759420D02*
X91510000Y-95040580D01*
%TO.C,C13*%
X133990000Y-76684420D02*
X133990000Y-76965580D01*
X135010000Y-76684420D02*
X135010000Y-76965580D01*
%TO.C,C25*%
X105212500Y-110360000D02*
X113272500Y-110360000D01*
X113272500Y-105840000D02*
X105212500Y-105840000D01*
X113272500Y-110360000D02*
X113272500Y-105840000D01*
%TO.C,C28*%
X120059420Y-91090000D02*
X120340580Y-91090000D01*
X120059420Y-92110000D02*
X120340580Y-92110000D01*
%TO.C,C26*%
X124640000Y-94950000D02*
X124640000Y-103010000D01*
X124640000Y-103010000D02*
X129160000Y-103010000D01*
X129160000Y-103010000D02*
X129160000Y-94950000D01*
%TO.C,C33*%
X154290000Y-94084420D02*
X154290000Y-94365580D01*
X155310000Y-94084420D02*
X155310000Y-94365580D01*
%TO.C,C29*%
X113790000Y-99440580D02*
X113790000Y-99159420D01*
X114810000Y-99440580D02*
X114810000Y-99159420D01*
%TO.C,C20*%
X153890000Y-78959420D02*
X153890000Y-79240580D01*
X154910000Y-78959420D02*
X154910000Y-79240580D01*
%TO.C,U3*%
X141190000Y-79490000D02*
X141190000Y-80440000D01*
X141190000Y-89710000D02*
X141190000Y-88760000D01*
X142140000Y-79490000D02*
X141190000Y-79490000D01*
X142140000Y-89710000D02*
X141190000Y-89710000D01*
X150460000Y-79490000D02*
X151410000Y-79490000D01*
X150460000Y-89710000D02*
X151410000Y-89710000D01*
X151410000Y-79490000D02*
X151410000Y-80440000D01*
X151410000Y-89710000D02*
X151410000Y-88760000D01*
X152365000Y-89230000D02*
X151685000Y-89230000D01*
X152025000Y-88760000D01*
X152365000Y-89230000D01*
G36*
X152365000Y-89230000D02*
G01*
X151685000Y-89230000D01*
X152025000Y-88760000D01*
X152365000Y-89230000D01*
G37*
D11*
%TO.C,IC3*%
X155695000Y-78800000D02*
X155695000Y-77800000D01*
X155740000Y-76750000D02*
X158660000Y-76750000D01*
X155740000Y-77450000D02*
X155740000Y-76750000D01*
X158660000Y-76750000D02*
X158660000Y-77450000D01*
X158660000Y-77450000D02*
X155740000Y-77450000D01*
D14*
%TO.C,R4*%
X87327064Y-81390000D02*
X85872936Y-81390000D01*
X87327064Y-83210000D02*
X85872936Y-83210000D01*
%TO.C,R1*%
X126887742Y-83777500D02*
X127362258Y-83777500D01*
X126887742Y-84822500D02*
X127362258Y-84822500D01*
%TO.C,R10*%
X135677500Y-76537742D02*
X135677500Y-77012258D01*
X136722500Y-76537742D02*
X136722500Y-77012258D01*
%TO.C,C31*%
X160690000Y-83759420D02*
X160690000Y-84040580D01*
X161710000Y-83759420D02*
X161710000Y-84040580D01*
%TO.C,R2*%
X137377500Y-78337258D02*
X137377500Y-77862742D01*
X138422500Y-78337258D02*
X138422500Y-77862742D01*
%TO.C,C7*%
X92290000Y-94784420D02*
X92290000Y-95065580D01*
X93310000Y-94784420D02*
X93310000Y-95065580D01*
%TO.C,C5*%
X90402000Y-86795580D02*
X90402000Y-86514420D01*
X91422000Y-86795580D02*
X91422000Y-86514420D01*
%TO.C,D3*%
X136165000Y-89615000D02*
X136165000Y-91900000D01*
X137635000Y-89615000D02*
X136165000Y-89615000D01*
X137635000Y-91900000D02*
X137635000Y-89615000D01*
%TO.C,R17*%
X138877500Y-94962742D02*
X138877500Y-95437258D01*
X139922500Y-94962742D02*
X139922500Y-95437258D01*
%TO.C,C12*%
X110884420Y-90990000D02*
X111165580Y-90990000D01*
X110884420Y-92010000D02*
X111165580Y-92010000D01*
%TO.C,R5*%
X81790000Y-85272936D02*
X81790000Y-86727064D01*
X83610000Y-85272936D02*
X83610000Y-86727064D01*
%TO.C,C9*%
X110884420Y-94390000D02*
X111165580Y-94390000D01*
X110884420Y-95410000D02*
X111165580Y-95410000D01*
%TO.C,C4*%
X92102000Y-86489420D02*
X92102000Y-86770580D01*
X93122000Y-86489420D02*
X93122000Y-86770580D01*
%TO.C,C15*%
X149159420Y-74590000D02*
X149440580Y-74590000D01*
X149159420Y-75610000D02*
X149440580Y-75610000D01*
D15*
%TO.C,G\u002A\u002A\u002A*%
G36*
X90066676Y-103080844D02*
G01*
X90168239Y-103083193D01*
X90248464Y-103086770D01*
X90301126Y-103091296D01*
X90320000Y-103096482D01*
X90313075Y-103117867D01*
X90293204Y-103172998D01*
X90261738Y-103258264D01*
X90220032Y-103370053D01*
X90169438Y-103504756D01*
X90111310Y-103658760D01*
X90047000Y-103828456D01*
X89977861Y-104010233D01*
X89962139Y-104051482D01*
X89892342Y-104235053D01*
X89827331Y-104407057D01*
X89768425Y-104563929D01*
X89716945Y-104702103D01*
X89674211Y-104818013D01*
X89641544Y-104908095D01*
X89620264Y-104968783D01*
X89611692Y-104996510D01*
X89611656Y-104997850D01*
X89631514Y-104993153D01*
X89684481Y-104976206D01*
X89766115Y-104948548D01*
X89871978Y-104911719D01*
X89997630Y-104867257D01*
X90138629Y-104816703D01*
X90240000Y-104779999D01*
X90388908Y-104726233D01*
X90525538Y-104677587D01*
X90645437Y-104635591D01*
X90744151Y-104601780D01*
X90817225Y-104577685D01*
X90860207Y-104564837D01*
X90869956Y-104563289D01*
X90863812Y-104582725D01*
X90843004Y-104635644D01*
X90808874Y-104718872D01*
X90762762Y-104829235D01*
X90706011Y-104963557D01*
X90639962Y-105118664D01*
X90565957Y-105291383D01*
X90485337Y-105478537D01*
X90399445Y-105676954D01*
X90393288Y-105691140D01*
X89907629Y-106810000D01*
X90105242Y-106815715D01*
X90187779Y-106819630D01*
X90252048Y-106825607D01*
X90289896Y-106832712D01*
X90296428Y-106837607D01*
X90282332Y-106857968D01*
X90247242Y-106904145D01*
X90194948Y-106971392D01*
X90129245Y-107054964D01*
X90053923Y-107150117D01*
X89972776Y-107252106D01*
X89889597Y-107356186D01*
X89808177Y-107457612D01*
X89732309Y-107551640D01*
X89665786Y-107633525D01*
X89612400Y-107698522D01*
X89575944Y-107741886D01*
X89560209Y-107758873D01*
X89560000Y-107758950D01*
X89553683Y-107740384D01*
X89540635Y-107687383D01*
X89521913Y-107604744D01*
X89498569Y-107497268D01*
X89471658Y-107369753D01*
X89442236Y-107226999D01*
X89431668Y-107174959D01*
X89401415Y-107025748D01*
X89373356Y-106888006D01*
X89348567Y-106766968D01*
X89328125Y-106667867D01*
X89313107Y-106595938D01*
X89304590Y-106556416D01*
X89303462Y-106551660D01*
X89309684Y-106541532D01*
X89340777Y-106555386D01*
X89398558Y-106594235D01*
X89455613Y-106636660D01*
X89524132Y-106688196D01*
X89580160Y-106729163D01*
X89616570Y-106754420D01*
X89626541Y-106760000D01*
X89635605Y-106741983D01*
X89656547Y-106691083D01*
X89687616Y-106612020D01*
X89727061Y-106509516D01*
X89773129Y-106388293D01*
X89824069Y-106253072D01*
X89878130Y-106108577D01*
X89933560Y-105959527D01*
X89988608Y-105810646D01*
X90041521Y-105666655D01*
X90090550Y-105532275D01*
X90133941Y-105412229D01*
X90169944Y-105311238D01*
X90196806Y-105234025D01*
X90212777Y-105185310D01*
X90216433Y-105169766D01*
X90196129Y-105173958D01*
X90143028Y-105190026D01*
X90061986Y-105216359D01*
X89957864Y-105251344D01*
X89835517Y-105293368D01*
X89699807Y-105340819D01*
X89678960Y-105348176D01*
X89541951Y-105396467D01*
X89417905Y-105439947D01*
X89311624Y-105476955D01*
X89227909Y-105505825D01*
X89171561Y-105524895D01*
X89147383Y-105532501D01*
X89146826Y-105532549D01*
X89149713Y-105512969D01*
X89159124Y-105457397D01*
X89174462Y-105369203D01*
X89195130Y-105251759D01*
X89220530Y-105108432D01*
X89250066Y-104942593D01*
X89283139Y-104757612D01*
X89319152Y-104556858D01*
X89357508Y-104343701D01*
X89361780Y-104320000D01*
X89400449Y-104105261D01*
X89436930Y-103902221D01*
X89470614Y-103714295D01*
X89500893Y-103544900D01*
X89527159Y-103397452D01*
X89548802Y-103275367D01*
X89565216Y-103182062D01*
X89575791Y-103120952D01*
X89579919Y-103095453D01*
X89579953Y-103095000D01*
X89598930Y-103090269D01*
X89651679Y-103086152D01*
X89731975Y-103082899D01*
X89833591Y-103080765D01*
X89950000Y-103080000D01*
X90066676Y-103080844D01*
G37*
G36*
X90134452Y-101412914D02*
G01*
X90249251Y-101458829D01*
X90347448Y-101539849D01*
X90358362Y-101552416D01*
X90375509Y-101578527D01*
X90410904Y-101637230D01*
X90463331Y-101726370D01*
X90531572Y-101843789D01*
X90614409Y-101987331D01*
X90710624Y-102154839D01*
X90819000Y-102344156D01*
X90938319Y-102553126D01*
X91067364Y-102779593D01*
X91204915Y-103021399D01*
X91349757Y-103276388D01*
X91500670Y-103542403D01*
X91656438Y-103817288D01*
X91815842Y-104098886D01*
X91977666Y-104385040D01*
X92140690Y-104673595D01*
X92303698Y-104962392D01*
X92465471Y-105249275D01*
X92624792Y-105532089D01*
X92780444Y-105808675D01*
X92931208Y-106076879D01*
X93075866Y-106334542D01*
X93213202Y-106579508D01*
X93341997Y-106809621D01*
X93461034Y-107022724D01*
X93569094Y-107216660D01*
X93664961Y-107389273D01*
X93747416Y-107538406D01*
X93815241Y-107661902D01*
X93867220Y-107757605D01*
X93902133Y-107823358D01*
X93918765Y-107857005D01*
X93919882Y-107860000D01*
X93939973Y-107994591D01*
X93922564Y-108118750D01*
X93869242Y-108228640D01*
X93781596Y-108320427D01*
X93710000Y-108366946D01*
X93630000Y-108410000D01*
X90040000Y-108413391D01*
X89663404Y-108413662D01*
X89297201Y-108413760D01*
X88943425Y-108413691D01*
X88604114Y-108413462D01*
X88281303Y-108413080D01*
X87977028Y-108412551D01*
X87693324Y-108411882D01*
X87432228Y-108411080D01*
X87195776Y-108410151D01*
X86986004Y-108409103D01*
X86804947Y-108407941D01*
X86654641Y-108406673D01*
X86537123Y-108405305D01*
X86454428Y-108403844D01*
X86408593Y-108402297D01*
X86399870Y-108401423D01*
X86297941Y-108358633D01*
X86211376Y-108300716D01*
X86185954Y-108276627D01*
X86123033Y-108181644D01*
X86088273Y-108067789D01*
X86085548Y-107995000D01*
X86480288Y-107995000D01*
X86487374Y-107998231D01*
X86509698Y-108001190D01*
X86548742Y-108003886D01*
X86605986Y-108006331D01*
X86682913Y-108008535D01*
X86781004Y-108010507D01*
X86901741Y-108012260D01*
X87046606Y-108013802D01*
X87217079Y-108015145D01*
X87414643Y-108016300D01*
X87640779Y-108017276D01*
X87896968Y-108018084D01*
X88184694Y-108018735D01*
X88505436Y-108019239D01*
X88860676Y-108019606D01*
X89251897Y-108019848D01*
X89680579Y-108019974D01*
X90010000Y-108020000D01*
X90464233Y-108019952D01*
X90879988Y-108019803D01*
X91258785Y-108019541D01*
X91602145Y-108019155D01*
X91911588Y-108018634D01*
X92188636Y-108017967D01*
X92434810Y-108017144D01*
X92651630Y-108016152D01*
X92840618Y-108014982D01*
X93003294Y-108013622D01*
X93141179Y-108012061D01*
X93255795Y-108010288D01*
X93348662Y-108008292D01*
X93421300Y-108006063D01*
X93475232Y-108003589D01*
X93511978Y-108000859D01*
X93533058Y-107997862D01*
X93539994Y-107994587D01*
X93539999Y-107994486D01*
X93530355Y-107974982D01*
X93502227Y-107922807D01*
X93456825Y-107840110D01*
X93395358Y-107729035D01*
X93319034Y-107591732D01*
X93229063Y-107430345D01*
X93126653Y-107247023D01*
X93013015Y-107043911D01*
X92889355Y-106823157D01*
X92756885Y-106586908D01*
X92616812Y-106337310D01*
X92470345Y-106076511D01*
X92318694Y-105806657D01*
X92163068Y-105529894D01*
X92004675Y-105248370D01*
X91844724Y-104964232D01*
X91684425Y-104679626D01*
X91524986Y-104396700D01*
X91367616Y-104117599D01*
X91213525Y-103844472D01*
X91063921Y-103579464D01*
X90920014Y-103324723D01*
X90783012Y-103082395D01*
X90654124Y-102854628D01*
X90534559Y-102643567D01*
X90425526Y-102451361D01*
X90328235Y-102280155D01*
X90243894Y-102132096D01*
X90173712Y-102009333D01*
X90118898Y-101914010D01*
X90080661Y-101848275D01*
X90060210Y-101814276D01*
X90057239Y-101810000D01*
X90032781Y-101804742D01*
X90019068Y-101820000D01*
X89995770Y-101859056D01*
X89954632Y-101929345D01*
X89896876Y-102028734D01*
X89823723Y-102155095D01*
X89736393Y-102306297D01*
X89636107Y-102480209D01*
X89524086Y-102674702D01*
X89401551Y-102887645D01*
X89269721Y-103116909D01*
X89129819Y-103360363D01*
X88983065Y-103615877D01*
X88830679Y-103881321D01*
X88673883Y-104154565D01*
X88513897Y-104433478D01*
X88351941Y-104715931D01*
X88189237Y-104999793D01*
X88027005Y-105282934D01*
X87866467Y-105563224D01*
X87708842Y-105838532D01*
X87555352Y-106106730D01*
X87407217Y-106365686D01*
X87265658Y-106613270D01*
X87131896Y-106847353D01*
X87007152Y-107065803D01*
X86892646Y-107266491D01*
X86789599Y-107447288D01*
X86699232Y-107606061D01*
X86622766Y-107740683D01*
X86561421Y-107849021D01*
X86516418Y-107928947D01*
X86488977Y-107978329D01*
X86480288Y-107995000D01*
X86085548Y-107995000D01*
X86083732Y-107946502D01*
X86107348Y-107840000D01*
X86119611Y-107816228D01*
X86150608Y-107759948D01*
X86199103Y-107673309D01*
X86263865Y-107558463D01*
X86343658Y-107417561D01*
X86437249Y-107252754D01*
X86543406Y-107066193D01*
X86660893Y-106860028D01*
X86788478Y-106636412D01*
X86924926Y-106397495D01*
X87069005Y-106145428D01*
X87219480Y-105882362D01*
X87375118Y-105610448D01*
X87534685Y-105331837D01*
X87696947Y-105048681D01*
X87860672Y-104763130D01*
X88024625Y-104477336D01*
X88187573Y-104193448D01*
X88348282Y-103913620D01*
X88505518Y-103640000D01*
X88658048Y-103374742D01*
X88804638Y-103119995D01*
X88944054Y-102877910D01*
X89075064Y-102650639D01*
X89196432Y-102440333D01*
X89306926Y-102249143D01*
X89405313Y-102079219D01*
X89490357Y-101932714D01*
X89560826Y-101811777D01*
X89615486Y-101718560D01*
X89653104Y-101655214D01*
X89671536Y-101625265D01*
X89762050Y-101515338D01*
X89865685Y-101442845D01*
X89983528Y-101407072D01*
X90008270Y-101404312D01*
X90134452Y-101412914D01*
G37*
D14*
%TO.C,R14*%
X137562742Y-85877500D02*
X138037258Y-85877500D01*
X137562742Y-86922500D02*
X138037258Y-86922500D01*
%TO.C,C30*%
X111990000Y-99440580D02*
X111990000Y-99159420D01*
X113010000Y-99440580D02*
X113010000Y-99159420D01*
%TO.C,U1*%
D10*
X102000000Y-70600000D02*
X120500000Y-70600000D01*
X120500000Y-55600000D01*
X102000000Y-55600000D01*
X102000000Y-70600000D01*
X102000000Y-84600000D02*
X120500000Y-84600000D01*
X120500000Y-46600000D01*
X102000000Y-46600000D01*
X102000000Y-84600000D01*
D14*
%TO.C,R11*%
X124177500Y-83237742D02*
X124177500Y-83712258D01*
X125222500Y-83237742D02*
X125222500Y-83712258D01*
%TO.C,D2*%
X113010000Y-110950000D02*
X107500000Y-110950000D01*
X113010000Y-114250000D02*
X107500000Y-114250000D01*
X113010000Y-114250000D02*
X113010000Y-110950000D01*
D10*
%TO.C,X1*%
X156700000Y-83475000D02*
X156700000Y-83475000D01*
X156700000Y-83575000D02*
X156700000Y-83575000D01*
X156700000Y-83475000D02*
G75*
G02*
X156700000Y-83575000I0J-50000D01*
G01*
X156700000Y-83575000D02*
G75*
G02*
X156700000Y-83475000I0J50000D01*
G01*
D14*
%TO.C,C18*%
X149965580Y-91590000D02*
X149684420Y-91590000D01*
X149965580Y-92610000D02*
X149684420Y-92610000D01*
%TO.C,D1*%
X133662500Y-92990000D02*
X133012500Y-92990000D01*
X133662500Y-92990000D02*
X134312500Y-92990000D01*
X133662500Y-96110000D02*
X133012500Y-96110000D01*
X133662500Y-96110000D02*
X134312500Y-96110000D01*
X132500000Y-93040000D02*
X132260000Y-92710000D01*
X132740000Y-92710000D01*
X132500000Y-93040000D01*
G36*
X132500000Y-93040000D02*
G01*
X132260000Y-92710000D01*
X132740000Y-92710000D01*
X132500000Y-93040000D01*
G37*
%TO.C,R8*%
X131762742Y-76177500D02*
X132237258Y-76177500D01*
X131762742Y-77222500D02*
X132237258Y-77222500D01*
%TO.C,U2*%
X117850000Y-94390000D02*
X121610000Y-94390000D01*
X117850000Y-101210000D02*
X121610000Y-101210000D01*
X121610000Y-94390000D02*
X121610000Y-95650000D01*
X121610000Y-101210000D02*
X121610000Y-99950000D01*
X116570000Y-94490000D02*
X116330000Y-94160000D01*
X116810000Y-94160000D01*
X116570000Y-94490000D01*
G36*
X116570000Y-94490000D02*
G01*
X116330000Y-94160000D01*
X116810000Y-94160000D01*
X116570000Y-94490000D01*
G37*
%TO.C,C27*%
X120059420Y-92890000D02*
X120340580Y-92890000D01*
X120059420Y-93910000D02*
X120340580Y-93910000D01*
%TO.C,C10*%
X110859420Y-95990000D02*
X111140580Y-95990000D01*
X110859420Y-97010000D02*
X111140580Y-97010000D01*
%TO.C,J2*%
X162470000Y-87670000D02*
X163800000Y-87670000D01*
X162470000Y-89000000D02*
X162470000Y-87670000D01*
X162470000Y-90270000D02*
X162470000Y-97950000D01*
X162470000Y-90270000D02*
X165070000Y-90270000D01*
X162470000Y-97950000D02*
X167670000Y-97950000D01*
X165070000Y-87670000D02*
X167670000Y-87670000D01*
X165070000Y-90270000D02*
X165070000Y-87670000D01*
X167670000Y-87670000D02*
X167670000Y-97950000D01*
%TO.C,C11*%
X110884420Y-92690000D02*
X111165580Y-92690000D01*
X110884420Y-93710000D02*
X111165580Y-93710000D01*
%TO.C,C21*%
X155890000Y-80784420D02*
X155890000Y-81065580D01*
X156910000Y-80784420D02*
X156910000Y-81065580D01*
D11*
%TO.C,J1*%
X132510000Y-104530000D02*
X132510000Y-104530000D01*
X132610000Y-104530000D02*
X132610000Y-104530000D01*
D10*
X144370000Y-105530000D02*
X137370000Y-105530000D01*
D11*
X132510000Y-104530000D02*
G75*
G02*
X132610000Y-104530000I50000J0D01*
G01*
X132610000Y-104530000D02*
G75*
G02*
X132510000Y-104530000I-50000J0D01*
G01*
%TO.C,IC4*%
X115863000Y-103348000D02*
X119059000Y-103348000D01*
X115863000Y-108252000D02*
X115863000Y-103348000D01*
X119059000Y-103348000D02*
X119059000Y-108252000D01*
X119059000Y-108252000D02*
X115863000Y-108252000D01*
X120936000Y-108380000D02*
X119409000Y-108380000D01*
D14*
%TO.C,R16*%
X153737258Y-75877500D02*
X153262742Y-75877500D01*
X153737258Y-76922500D02*
X153262742Y-76922500D01*
%TO.C,R3*%
X89490000Y-77872936D02*
X89490000Y-79327064D01*
X91310000Y-77872936D02*
X91310000Y-79327064D01*
%TO.C,R13*%
X138037258Y-84177500D02*
X137562742Y-84177500D01*
X138037258Y-85222500D02*
X137562742Y-85222500D01*
%TO.C,C1*%
X130740000Y-78784420D02*
X130740000Y-79065580D01*
X131760000Y-78784420D02*
X131760000Y-79065580D01*
D11*
%TO.C,L1*%
X114600000Y-115900000D02*
X121700000Y-115900000D01*
X121700000Y-109300000D02*
X114600000Y-109300000D01*
D14*
%TO.C,R21*%
X144177500Y-96437258D02*
X144177500Y-95962742D01*
X145222500Y-96437258D02*
X145222500Y-95962742D01*
%TO.C,R7*%
X90377500Y-89662742D02*
X90377500Y-90137258D01*
X91422500Y-89662742D02*
X91422500Y-90137258D01*
%TO.C,R22*%
X142477500Y-96412258D02*
X142477500Y-95937742D01*
X143522500Y-96412258D02*
X143522500Y-95937742D01*
%TO.C,R6*%
X85872936Y-88790000D02*
X87327064Y-88790000D01*
X85872936Y-90610000D02*
X87327064Y-90610000D01*
%TO.C,R9*%
X131762742Y-74377500D02*
X132237258Y-74377500D01*
X131762742Y-75422500D02*
X132237258Y-75422500D01*
%TO.C,C17*%
X149134420Y-76290000D02*
X149415580Y-76290000D01*
X149134420Y-77310000D02*
X149415580Y-77310000D01*
%TO.C,JP1*%
X159450000Y-77960000D02*
X160750000Y-77960000D01*
X159450000Y-80050000D02*
X159450000Y-77960000D01*
X160750000Y-77960000D02*
X160750000Y-80050000D01*
X160750000Y-80050000D02*
X159450000Y-80050000D01*
%TO.C,SW1*%
X162900000Y-82500000D02*
X162900000Y-82620000D01*
X162900000Y-83630000D02*
X162900000Y-84770000D01*
X162900000Y-85780000D02*
X162900000Y-85900000D01*
X162900000Y-85900000D02*
X167300000Y-85900000D01*
X167300000Y-82500000D02*
X162900000Y-82500000D01*
X167300000Y-82620000D02*
X167300000Y-82500000D01*
X167300000Y-84770000D02*
X167300000Y-83630000D01*
X167300000Y-85900000D02*
X167300000Y-85780000D01*
%TO.C,C32*%
X146140580Y-76290000D02*
X145859420Y-76290000D01*
X146140580Y-77310000D02*
X145859420Y-77310000D01*
%TO.C,R20*%
X145915000Y-96424758D02*
X145915000Y-95950242D01*
X146960000Y-96424758D02*
X146960000Y-95950242D01*
%TO.C,C6*%
X92090000Y-90040580D02*
X92090000Y-89759420D01*
X93110000Y-90040580D02*
X93110000Y-89759420D01*
D11*
%TO.C,IC2*%
X94125000Y-85880000D02*
X96050000Y-85880000D01*
X96400000Y-85850000D02*
X103200000Y-85850000D01*
X96400000Y-96150000D02*
X96400000Y-85850000D01*
X103200000Y-85850000D02*
X103200000Y-96150000D01*
X103200000Y-96150000D02*
X96400000Y-96150000D01*
D14*
%TO.C,C22*%
X157690000Y-80809420D02*
X157690000Y-81090580D01*
X158710000Y-80809420D02*
X158710000Y-81090580D01*
%TO.C,R15*%
X134537258Y-91377500D02*
X134062742Y-91377500D01*
X134537258Y-92422500D02*
X134062742Y-92422500D01*
%TO.C,R19*%
X149237258Y-94977500D02*
X148762742Y-94977500D01*
X149237258Y-96022500D02*
X148762742Y-96022500D01*
%TD*%
%LPC*%
D16*
%TO.C,IC1*%
X125700000Y-79025000D03*
D17*
X127200000Y-78775000D03*
D16*
X128700000Y-79025000D03*
D18*
X127200000Y-76600000D03*
%TD*%
D19*
%TO.C,C16*%
X141975000Y-76775000D03*
X143525000Y-76775000D03*
%TD*%
D20*
%TO.C,C3*%
X139600000Y-78875000D03*
X139600000Y-77325000D03*
%TD*%
D21*
%TO.C,R23*%
X148175000Y-93700000D03*
X149825000Y-93700000D03*
%TD*%
D20*
%TO.C,C24*%
X122250000Y-107825000D03*
X122250000Y-106275000D03*
%TD*%
D22*
%TO.C,C2*%
X126350000Y-82600000D03*
X127900000Y-82600000D03*
%TD*%
%TO.C,C23*%
X134775000Y-97100000D03*
X133225000Y-97100000D03*
%TD*%
D23*
%TO.C,H5*%
X126800000Y-49600000D03*
D24*
X126800000Y-49600000D03*
%TD*%
D25*
%TO.C,R18*%
X141200000Y-94375000D03*
X141200000Y-96025000D03*
%TD*%
D26*
%TO.C,R12*%
X131116637Y-90683363D03*
X132283363Y-89516637D03*
%TD*%
D22*
%TO.C,C19*%
X138575000Y-88100000D03*
X137025000Y-88100000D03*
%TD*%
%TO.C,C14*%
X156650000Y-88775000D03*
X155100000Y-88775000D03*
%TD*%
D27*
%TO.C,BT1*%
X153400000Y-111100000D03*
D28*
X153400000Y-103650000D03*
D29*
X153400000Y-99175000D03*
X153400000Y-115575000D03*
%TD*%
D30*
%TO.C,C8*%
X91000000Y-94125000D03*
X91000000Y-95675000D03*
%TD*%
%TO.C,C13*%
X134500000Y-76050000D03*
X134500000Y-77600000D03*
%TD*%
D31*
%TO.C,C25*%
X111975000Y-108100000D03*
X105750000Y-108100000D03*
%TD*%
D23*
%TO.C,H7*%
X165500000Y-113600000D03*
D24*
X165500000Y-113600000D03*
%TD*%
D19*
%TO.C,C28*%
X119425000Y-91600000D03*
X120975000Y-91600000D03*
%TD*%
D32*
%TO.C,C26*%
X126900000Y-101712500D03*
X126900000Y-95487500D03*
%TD*%
D30*
%TO.C,C33*%
X154800000Y-93450000D03*
X154800000Y-95000000D03*
%TD*%
D20*
%TO.C,C29*%
X114300000Y-100075000D03*
X114300000Y-98525000D03*
%TD*%
D30*
%TO.C,C20*%
X154400000Y-78325000D03*
X154400000Y-79875000D03*
%TD*%
D33*
%TO.C,H1*%
X85500000Y-77100000D03*
D34*
X85500000Y-77100000D03*
%TD*%
D35*
%TO.C,U3*%
X151975000Y-88350000D03*
X151975000Y-87850000D03*
X151975000Y-87350000D03*
X151975000Y-86850000D03*
X151975000Y-86350000D03*
X151975000Y-85850000D03*
X151975000Y-85350000D03*
X151975000Y-84850000D03*
X151975000Y-84350000D03*
X151975000Y-83850000D03*
X151975000Y-83350000D03*
X151975000Y-82850000D03*
X151975000Y-82350000D03*
X151975000Y-81850000D03*
X151975000Y-81350000D03*
X151975000Y-80850000D03*
D36*
X150050000Y-78925000D03*
X149550000Y-78925000D03*
X149050000Y-78925000D03*
X148550000Y-78925000D03*
X148050000Y-78925000D03*
X147550000Y-78925000D03*
X147050000Y-78925000D03*
X146550000Y-78925000D03*
X146050000Y-78925000D03*
X145550000Y-78925000D03*
X145050000Y-78925000D03*
X144550000Y-78925000D03*
X144050000Y-78925000D03*
X143550000Y-78925000D03*
X143050000Y-78925000D03*
X142550000Y-78925000D03*
D35*
X140625000Y-80850000D03*
X140625000Y-81350000D03*
X140625000Y-81850000D03*
X140625000Y-82350000D03*
X140625000Y-82850000D03*
X140625000Y-83350000D03*
X140625000Y-83850000D03*
X140625000Y-84350000D03*
X140625000Y-84850000D03*
X140625000Y-85350000D03*
X140625000Y-85850000D03*
X140625000Y-86350000D03*
X140625000Y-86850000D03*
X140625000Y-87350000D03*
X140625000Y-87850000D03*
X140625000Y-88350000D03*
D36*
X142550000Y-90275000D03*
X143050000Y-90275000D03*
X143550000Y-90275000D03*
X144050000Y-90275000D03*
X144550000Y-90275000D03*
X145050000Y-90275000D03*
X145550000Y-90275000D03*
X146050000Y-90275000D03*
X146550000Y-90275000D03*
X147050000Y-90275000D03*
X147550000Y-90275000D03*
X148050000Y-90275000D03*
X148550000Y-90275000D03*
X149050000Y-90275000D03*
X149550000Y-90275000D03*
X150050000Y-90275000D03*
%TD*%
D37*
%TO.C,IC3*%
X156245000Y-78300000D03*
X158155000Y-78300000D03*
X157200000Y-75900000D03*
%TD*%
D38*
%TO.C,R4*%
X88062500Y-82300000D03*
X85137500Y-82300000D03*
%TD*%
D21*
%TO.C,R1*%
X126300000Y-84300000D03*
X127950000Y-84300000D03*
%TD*%
D25*
%TO.C,R10*%
X136200000Y-75950000D03*
X136200000Y-77600000D03*
%TD*%
D30*
%TO.C,C31*%
X161200000Y-83125000D03*
X161200000Y-84675000D03*
%TD*%
D39*
%TO.C,R2*%
X137900000Y-78925000D03*
X137900000Y-77275000D03*
%TD*%
D30*
%TO.C,C7*%
X92800000Y-94150000D03*
X92800000Y-95700000D03*
%TD*%
D20*
%TO.C,C5*%
X90912000Y-87430000D03*
X90912000Y-85880000D03*
%TD*%
D40*
%TO.C,D3*%
X136900000Y-90312500D03*
X136900000Y-91887500D03*
%TD*%
D25*
%TO.C,R17*%
X139400000Y-94375000D03*
X139400000Y-96025000D03*
%TD*%
D19*
%TO.C,C12*%
X110250000Y-91500000D03*
X111800000Y-91500000D03*
%TD*%
D23*
%TO.C,H3*%
X85500000Y-113600000D03*
D24*
X85500000Y-113600000D03*
%TD*%
D23*
%TO.C,H6*%
X165500000Y-77100000D03*
D24*
X165500000Y-77100000D03*
%TD*%
D41*
%TO.C,R5*%
X82700000Y-84537500D03*
X82700000Y-87462500D03*
%TD*%
D19*
%TO.C,C9*%
X110250000Y-94900000D03*
X111800000Y-94900000D03*
%TD*%
D30*
%TO.C,C4*%
X92612000Y-85855000D03*
X92612000Y-87405000D03*
%TD*%
D19*
%TO.C,C15*%
X148525000Y-75100000D03*
X150075000Y-75100000D03*
%TD*%
D21*
%TO.C,R14*%
X136975000Y-86400000D03*
X138625000Y-86400000D03*
%TD*%
D20*
%TO.C,C30*%
X112500000Y-100075000D03*
X112500000Y-98525000D03*
%TD*%
D42*
%TO.C,U1*%
X105000000Y-77700000D03*
X117000000Y-48700000D03*
D43*
X122200000Y-81000000D03*
X122200000Y-78500000D03*
X122200000Y-76000000D03*
%TD*%
D25*
%TO.C,R11*%
X124700000Y-82650000D03*
X124700000Y-84300000D03*
%TD*%
D44*
%TO.C,D2*%
X111500000Y-112600000D03*
X107500000Y-112600000D03*
%TD*%
D45*
%TO.C,X1*%
X156700000Y-84425000D03*
X154600000Y-84425000D03*
X154600000Y-86325000D03*
X156700000Y-86325000D03*
%TD*%
D22*
%TO.C,C18*%
X150600000Y-92100000D03*
X149050000Y-92100000D03*
%TD*%
D46*
%TO.C,D1*%
X132725000Y-93600000D03*
X132725000Y-95500000D03*
X134600000Y-94550000D03*
%TD*%
D21*
%TO.C,R8*%
X131175000Y-76700000D03*
X132825000Y-76700000D03*
%TD*%
D47*
%TO.C,U2*%
X122850000Y-97800000D03*
D48*
X116550000Y-95500000D03*
X116550000Y-97800000D03*
X116550000Y-100100000D03*
%TD*%
D19*
%TO.C,C27*%
X119425000Y-93400000D03*
X120975000Y-93400000D03*
%TD*%
%TO.C,C10*%
X110225000Y-96500000D03*
X111775000Y-96500000D03*
%TD*%
D49*
%TO.C,J2*%
X163800000Y-89000000D03*
D50*
X163800000Y-91540000D03*
X163800000Y-94080000D03*
X163800000Y-96620000D03*
X166340000Y-89000000D03*
X166340000Y-91540000D03*
X166340000Y-94080000D03*
X166340000Y-96620000D03*
%TD*%
D19*
%TO.C,C11*%
X110250000Y-93200000D03*
X111800000Y-93200000D03*
%TD*%
D30*
%TO.C,C21*%
X156400000Y-80150000D03*
X156400000Y-81700000D03*
%TD*%
D51*
%TO.C,J1*%
X127100000Y-108300000D03*
D52*
X127100000Y-112300000D03*
D51*
X142100000Y-108300000D03*
D52*
X142100000Y-112300000D03*
D53*
X132830000Y-106530000D03*
X136370000Y-106530000D03*
X136370000Y-110070000D03*
X132830000Y-110070000D03*
X134600000Y-108300000D03*
%TD*%
D54*
%TO.C,IC4*%
X120172000Y-107705000D03*
X120172000Y-106435000D03*
X120172000Y-105165000D03*
X120172000Y-103895000D03*
X114750000Y-103895000D03*
X114750000Y-105165000D03*
X114750000Y-106435000D03*
X114750000Y-107705000D03*
%TD*%
D55*
%TO.C,R16*%
X154325000Y-76400000D03*
X152675000Y-76400000D03*
%TD*%
D41*
%TO.C,R3*%
X90400000Y-77137500D03*
X90400000Y-80062500D03*
%TD*%
D55*
%TO.C,R13*%
X138625000Y-84700000D03*
X136975000Y-84700000D03*
%TD*%
D30*
%TO.C,C1*%
X131250000Y-78150000D03*
X131250000Y-79700000D03*
%TD*%
D56*
%TO.C,L1*%
X121100000Y-112600000D03*
X115200000Y-112600000D03*
%TD*%
D33*
%TO.C,H2*%
X85500000Y-98800000D03*
D34*
X85500000Y-98800000D03*
%TD*%
D39*
%TO.C,R21*%
X144700000Y-97025000D03*
X144700000Y-95375000D03*
%TD*%
D25*
%TO.C,R7*%
X90900000Y-89075000D03*
X90900000Y-90725000D03*
%TD*%
D39*
%TO.C,R22*%
X143000000Y-97000000D03*
X143000000Y-95350000D03*
%TD*%
D23*
%TO.C,H4*%
X95800000Y-49900000D03*
D24*
X95800000Y-49900000D03*
%TD*%
D57*
%TO.C,R6*%
X85137500Y-89700000D03*
X88062500Y-89700000D03*
%TD*%
D21*
%TO.C,R9*%
X131175000Y-74900000D03*
X132825000Y-74900000D03*
%TD*%
D19*
%TO.C,C17*%
X148500000Y-76800000D03*
X150050000Y-76800000D03*
%TD*%
D58*
%TO.C,JP1*%
X160100000Y-78350000D03*
X160100000Y-79650000D03*
%TD*%
D59*
%TO.C,SW1*%
X163025000Y-83125000D03*
X167175000Y-83125000D03*
X163025000Y-85275000D03*
X167175000Y-85275000D03*
%TD*%
D22*
%TO.C,C32*%
X146775000Y-76800000D03*
X145225000Y-76800000D03*
%TD*%
D39*
%TO.C,R20*%
X146437500Y-97012500D03*
X146437500Y-95362500D03*
%TD*%
D20*
%TO.C,C6*%
X92600000Y-90675000D03*
X92600000Y-89125000D03*
%TD*%
D60*
%TO.C,IC2*%
X95088000Y-86555000D03*
X95088000Y-87825000D03*
X95088000Y-89095000D03*
X95088000Y-90365000D03*
X95088000Y-91635000D03*
X95088000Y-92905000D03*
X95088000Y-94175000D03*
X95088000Y-95445000D03*
X104512000Y-95445000D03*
X104512000Y-94175000D03*
X104512000Y-92905000D03*
X104512000Y-91635000D03*
X104512000Y-90365000D03*
X104512000Y-89095000D03*
X104512000Y-87825000D03*
X104512000Y-86555000D03*
%TD*%
D30*
%TO.C,C22*%
X158200000Y-80175000D03*
X158200000Y-81725000D03*
%TD*%
D55*
%TO.C,R15*%
X135125000Y-91900000D03*
X133475000Y-91900000D03*
%TD*%
%TO.C,R19*%
X149825000Y-95500000D03*
X148175000Y-95500000D03*
%TD*%
D61*
%TO.C,J3*%
X158700000Y-109000000D03*
X150700000Y-109000000D03*
%TD*%
%LPD*%
M02*
