%TF.GenerationSoftware,KiCad,Pcbnew,8.0.6*%
%TF.CreationDate,2025-01-24T04:36:41+09:00*%
%TF.ProjectId,fsk-energymeter,66736b2d-656e-4657-9267-796d65746572,v0.0.1*%
%TF.SameCoordinates,Original*%
%TF.FileFunction,Copper,L2,Bot*%
%TF.FilePolarity,Positive*%
%FSLAX46Y46*%
G04 Gerber Fmt 4.6, Leading zero omitted, Abs format (unit mm)*
G04 Created by KiCad (PCBNEW 8.0.6) date 2025-01-24 04:36:41*
%MOMM*%
%LPD*%
G01*
G04 APERTURE LIST*
%TA.AperFunction,ComponentPad*%
%ADD10C,3.400000*%
%TD*%
%TA.AperFunction,ConnectorPad*%
%ADD11C,6.000000*%
%TD*%
%TA.AperFunction,ComponentPad*%
%ADD12C,2.025000*%
%TD*%
%TA.AperFunction,ComponentPad*%
%ADD13R,2.150000X2.150000*%
%TD*%
%TA.AperFunction,ComponentPad*%
%ADD14C,2.150000*%
%TD*%
%TA.AperFunction,ComponentPad*%
%ADD15C,4.800000*%
%TD*%
%TA.AperFunction,ComponentPad*%
%ADD16R,1.700000X1.700000*%
%TD*%
%TA.AperFunction,ComponentPad*%
%ADD17O,1.700000X1.700000*%
%TD*%
%TA.AperFunction,ComponentPad*%
%ADD18C,2.000000*%
%TD*%
%TA.AperFunction,ComponentPad*%
%ADD19C,1.524000*%
%TD*%
%TA.AperFunction,ViaPad*%
%ADD20C,0.600000*%
%TD*%
%TA.AperFunction,ViaPad*%
%ADD21C,0.500000*%
%TD*%
%TA.AperFunction,Conductor*%
%ADD22C,0.300000*%
%TD*%
%TA.AperFunction,Conductor*%
%ADD23C,0.200000*%
%TD*%
%TA.AperFunction,Conductor*%
%ADD24C,0.400000*%
%TD*%
%TA.AperFunction,Conductor*%
%ADD25C,0.600000*%
%TD*%
%TA.AperFunction,Conductor*%
%ADD26C,0.650000*%
%TD*%
G04 APERTURE END LIST*
D10*
%TO.P,H5,1,1*%
%TO.N,GND*%
X165500000Y-113600000D03*
D11*
X165500000Y-113600000D03*
%TD*%
D10*
%TO.P,H2,1*%
%TO.N,N/C*%
X95800000Y-49600000D03*
D11*
X95800000Y-49600000D03*
%TD*%
D12*
%TO.P,J2,1,1*%
%TO.N,Net-(J2-Pad1)*%
X112370000Y-107525000D03*
%TO.P,J2,2,2*%
%TO.N,Net-(J2-Pad2)*%
X115910000Y-107525000D03*
%TO.P,J2,3,3*%
%TO.N,+5V*%
X115910000Y-111065000D03*
%TO.P,J2,4,4*%
%TO.N,VBUS*%
X112370000Y-111065000D03*
%TO.P,J2,5,5*%
%TO.N,GND*%
X114140000Y-109295000D03*
%TD*%
D10*
%TO.P,H3,1*%
%TO.N,N/C*%
X126800000Y-49600000D03*
D11*
X126800000Y-49600000D03*
%TD*%
D13*
%TO.P,J1,1,1*%
%TO.N,HV+*%
X88650000Y-109950000D03*
D14*
%TO.P,J1,2,2*%
%TO.N,HV-*%
X88650000Y-104450000D03*
D15*
%TO.P,J1,3,3*%
%TO.N,unconnected-(J1-Pad3)*%
X93150000Y-114150000D03*
%TO.P,J1,4,4*%
%TO.N,unconnected-(J1-Pad4)*%
X84150000Y-114150000D03*
%TD*%
D16*
%TO.P,J3,1,Pin_1*%
%TO.N,+3V3*%
X149170000Y-114900000D03*
D17*
%TO.P,J3,2,Pin_2*%
%TO.N,/USART1_RX*%
X151710000Y-114900000D03*
%TO.P,J3,3,Pin_3*%
%TO.N,/USART1_TX*%
X154250000Y-114900000D03*
%TO.P,J3,4,Pin_4*%
%TO.N,GND*%
X156790000Y-114900000D03*
%TO.P,J3,5,Pin_5*%
%TO.N,+3V3*%
X149170000Y-112360000D03*
%TO.P,J3,6,Pin_6*%
%TO.N,/SWCLK*%
X151710000Y-112360000D03*
%TO.P,J3,7,Pin_7*%
%TO.N,/SWDIO*%
X154250000Y-112360000D03*
%TO.P,J3,8,Pin_8*%
%TO.N,GND*%
X156790000Y-112360000D03*
%TD*%
D18*
%TO.P,U2,*%
%TO.N,*%
X105000000Y-76700000D03*
X117000000Y-47700000D03*
D19*
%TO.P,U2,1,VOUT*%
%TO.N,Net-(U1B-+)*%
X122200000Y-80000000D03*
%TO.P,U2,2,GND*%
%TO.N,GND*%
X122200000Y-77500000D03*
%TO.P,U2,3,VCC*%
%TO.N,Net-(IC2-VOUT)*%
X122200000Y-75000000D03*
%TD*%
D10*
%TO.P,H4,1,1*%
%TO.N,GND*%
X165500000Y-77100000D03*
D11*
X165500000Y-77100000D03*
%TD*%
D10*
%TO.P,H1,1*%
%TO.N,N/C*%
X85500000Y-77100000D03*
D11*
X85500000Y-77100000D03*
%TD*%
D20*
%TO.N,/SDIO_D3*%
X147125000Y-96825000D03*
X144800000Y-99150000D03*
%TO.N,/SDIO_D2*%
X149100000Y-96600000D03*
X145200000Y-100450000D03*
%TO.N,GND*%
X119200000Y-100350000D03*
D21*
X135825000Y-84050000D03*
D20*
X122500000Y-93100000D03*
D21*
X135825000Y-88150000D03*
X140975000Y-87600000D03*
D20*
X110560000Y-96990000D03*
X112550000Y-90050000D03*
D21*
X139825000Y-87600000D03*
D20*
X128050000Y-92750000D03*
X131500000Y-108000000D03*
D21*
X138875000Y-84050000D03*
X135825000Y-86850000D03*
X142075000Y-85850000D03*
X142075000Y-87600000D03*
D20*
X115800000Y-93950000D03*
X150200000Y-104150000D03*
D21*
X138100000Y-88150000D03*
D20*
X140950000Y-92125000D03*
D21*
X136825000Y-88150000D03*
D20*
X144800000Y-86250000D03*
D21*
X137375000Y-84050000D03*
D20*
X143350000Y-103950000D03*
D21*
X139400000Y-88150000D03*
D20*
X107470000Y-90050000D03*
D21*
X142075000Y-84050000D03*
X135825000Y-85450000D03*
X140575000Y-84050000D03*
D20*
X125850000Y-97200000D03*
X142225000Y-111625000D03*
%TO.N,+3V3*%
X150500000Y-101950000D03*
X118600000Y-84100000D03*
X146350000Y-106100000D03*
X129700000Y-99550000D03*
X147700000Y-109000000D03*
X146300000Y-101450000D03*
D21*
X139900000Y-85050000D03*
D20*
X121100000Y-84100000D03*
X121500000Y-101100000D03*
X135300000Y-96150000D03*
X139900000Y-82850000D03*
%TO.N,VBUS*%
X130150000Y-106850000D03*
X128900000Y-82200000D03*
%TO.N,/USB_DETECT*%
X137450000Y-99650000D03*
X136100000Y-102900000D03*
%TO.N,/SWCLK*%
X139750000Y-97650000D03*
%TO.N,/SWDIO*%
X140493140Y-103091157D03*
%TO.N,/RST*%
X135900000Y-82350000D03*
X137750000Y-91700000D03*
%TO.N,/USART1_TX*%
X139000000Y-94800000D03*
%TO.N,/USART1_RX*%
X138300000Y-94200000D03*
%TO.N,Net-(IC1-DCDC_OUT)*%
X93350000Y-87300000D03*
X93350000Y-89840000D03*
%TO.N,Net-(IC2-VOUT)*%
X128150000Y-87100000D03*
X134150000Y-76550000D03*
%TO.N,Net-(IC1-IN)*%
X93380000Y-93650000D03*
X88400000Y-93650000D03*
%TO.N,Net-(J2-Pad2)*%
X138100000Y-105700000D03*
%TO.N,Net-(J2-Pad1)*%
X136450000Y-104600000D03*
%TD*%
D22*
%TO.N,/SDIO_D3*%
X147125000Y-96825000D02*
X144800000Y-99150000D01*
%TO.N,/SDIO_D2*%
X145200000Y-100400000D02*
X145200000Y-100450000D01*
X149000000Y-96600000D02*
X145200000Y-100400000D01*
X149100000Y-96600000D02*
X149000000Y-96600000D01*
D23*
%TO.N,GND*%
X140900000Y-87675000D02*
X140975000Y-87600000D01*
D24*
X140950000Y-92125000D02*
X140950000Y-87625000D01*
D23*
X141050000Y-87675000D02*
X140975000Y-87600000D01*
D24*
X140950000Y-87625000D02*
X140975000Y-87600000D01*
D23*
%TO.N,+3V3*%
X139900000Y-85050000D02*
X139900000Y-82850000D01*
D22*
X150500000Y-101950000D02*
X146350000Y-106100000D01*
X146350000Y-106100000D02*
X146300000Y-106050000D01*
D25*
X121100000Y-84100000D02*
X118600000Y-84100000D01*
D23*
X129700000Y-99550000D02*
X131900000Y-99550000D01*
D22*
X146350000Y-107650000D02*
X147700000Y-109000000D01*
X128150000Y-101100000D02*
X121500000Y-101100000D01*
D23*
X131900000Y-99550000D02*
X135300000Y-96150000D01*
D22*
X129700000Y-99550000D02*
X128150000Y-101100000D01*
X146300000Y-106050000D02*
X146300000Y-101450000D01*
X146350000Y-106100000D02*
X146350000Y-107650000D01*
D23*
%TO.N,VBUS*%
X128900000Y-82200000D02*
X128900000Y-82261029D01*
D25*
X118600000Y-108600000D02*
X118600000Y-111900000D01*
D24*
X109750000Y-108445000D02*
X112370000Y-111065000D01*
D25*
X117200000Y-113300000D02*
X114605000Y-113300000D01*
D24*
X128900000Y-82261029D02*
X109750000Y-101411029D01*
D25*
X120350000Y-106850000D02*
X118600000Y-108600000D01*
X130150000Y-106850000D02*
X120350000Y-106850000D01*
X114605000Y-113300000D02*
X112370000Y-111065000D01*
D24*
X109750000Y-101411029D02*
X109750000Y-108445000D01*
D25*
X118600000Y-111900000D02*
X117200000Y-113300000D01*
D23*
%TO.N,/USB_DETECT*%
X137450000Y-99650000D02*
X136100000Y-101000000D01*
X136100000Y-101000000D02*
X136100000Y-102900000D01*
%TO.N,/SWCLK*%
X139750000Y-103600000D02*
X146500000Y-110350000D01*
X146500000Y-110350000D02*
X149700000Y-110350000D01*
X139750000Y-97650000D02*
X139750000Y-103600000D01*
X149700000Y-110350000D02*
X151710000Y-112360000D01*
%TO.N,/SWDIO*%
X151640000Y-109750000D02*
X154250000Y-112360000D01*
X147151983Y-109750000D02*
X151640000Y-109750000D01*
X140493140Y-103091157D02*
X147151983Y-109750000D01*
%TO.N,/RST*%
X135300000Y-91700000D02*
X134850000Y-91250000D01*
X134850000Y-83400000D02*
X135900000Y-82350000D01*
X137750000Y-91700000D02*
X135300000Y-91700000D01*
X134850000Y-91250000D02*
X134850000Y-83400000D01*
%TO.N,/USART1_TX*%
X139000000Y-104100000D02*
X148550000Y-113650000D01*
X148550000Y-113650000D02*
X153000000Y-113650000D01*
X153000000Y-113650000D02*
X154250000Y-114900000D01*
X139000000Y-94800000D02*
X139000000Y-104100000D01*
%TO.N,/USART1_RX*%
X138300000Y-94200000D02*
X138300000Y-104500000D01*
X138300000Y-104500000D02*
X147100000Y-113300000D01*
X150110000Y-116500000D02*
X151710000Y-114900000D01*
X147100000Y-113300000D02*
X147100000Y-116500000D01*
X147100000Y-116500000D02*
X150110000Y-116500000D01*
D26*
%TO.N,Net-(IC1-DCDC_OUT)*%
X93350000Y-87300000D02*
X93350000Y-89840000D01*
D24*
%TO.N,Net-(IC2-VOUT)*%
X128150000Y-87100000D02*
X134150000Y-81100000D01*
X134150000Y-81100000D02*
X134150000Y-76550000D01*
D25*
%TO.N,Net-(IC1-IN)*%
X93380000Y-93650000D02*
X88400000Y-93650000D01*
D22*
%TO.N,Net-(J2-Pad2)*%
X138100000Y-105700000D02*
X117735000Y-105700000D01*
X117735000Y-105700000D02*
X115910000Y-107525000D01*
%TO.N,Net-(J2-Pad1)*%
X115295000Y-104600000D02*
X112370000Y-107525000D01*
X136450000Y-104600000D02*
X115295000Y-104600000D01*
%TD*%
%TA.AperFunction,Conductor*%
%TO.N,GND*%
G36*
X139542539Y-83869685D02*
G01*
X139588294Y-83922489D01*
X139599500Y-83974000D01*
X139599500Y-84662611D01*
X139579815Y-84729650D01*
X139569214Y-84743812D01*
X139517120Y-84803932D01*
X139517117Y-84803938D01*
X139463302Y-84921774D01*
X139444867Y-85050000D01*
X139463302Y-85178225D01*
X139503998Y-85267334D01*
X139517118Y-85296063D01*
X139601951Y-85393967D01*
X139710931Y-85464004D01*
X139745105Y-85474038D01*
X139835225Y-85500499D01*
X139835227Y-85500500D01*
X139835228Y-85500500D01*
X139964773Y-85500500D01*
X139964773Y-85500499D01*
X140089069Y-85464004D01*
X140198049Y-85393967D01*
X140282882Y-85296063D01*
X140336697Y-85178226D01*
X140355133Y-85050000D01*
X140336697Y-84921774D01*
X140282882Y-84803937D01*
X140282880Y-84803935D01*
X140282879Y-84803932D01*
X140230786Y-84743812D01*
X140201762Y-84680256D01*
X140200500Y-84662611D01*
X140200500Y-83974000D01*
X140220185Y-83906961D01*
X140272989Y-83861206D01*
X140324500Y-83850000D01*
X142146000Y-83850000D01*
X142213039Y-83869685D01*
X142258794Y-83922489D01*
X142270000Y-83974000D01*
X142270000Y-87676000D01*
X142250315Y-87743039D01*
X142197511Y-87788794D01*
X142146000Y-87800000D01*
X140020000Y-87800000D01*
X140020000Y-90527100D01*
X140000315Y-90594139D01*
X139947511Y-90639894D01*
X139896258Y-90651100D01*
X135744258Y-90659741D01*
X135677178Y-90640196D01*
X135631313Y-90587487D01*
X135620000Y-90535741D01*
X135620000Y-83974000D01*
X135639685Y-83906961D01*
X135692489Y-83861206D01*
X135744000Y-83850000D01*
X139475500Y-83850000D01*
X139542539Y-83869685D01*
G37*
%TD.AperFunction*%
%TA.AperFunction,Conductor*%
G36*
X121906431Y-73869685D02*
G01*
X121952186Y-73922489D01*
X121962130Y-73991647D01*
X121933105Y-74055203D01*
X121875388Y-74092659D01*
X121829885Y-74106463D01*
X121829882Y-74106464D01*
X121829880Y-74106465D01*
X121829877Y-74106466D01*
X121662681Y-74195834D01*
X121662674Y-74195838D01*
X121516116Y-74316116D01*
X121395838Y-74462674D01*
X121395834Y-74462681D01*
X121306466Y-74629877D01*
X121306465Y-74629880D01*
X121251426Y-74811318D01*
X121232843Y-75000000D01*
X121251426Y-75188681D01*
X121251427Y-75188683D01*
X121306463Y-75370115D01*
X121306464Y-75370118D01*
X121306465Y-75370119D01*
X121306466Y-75370122D01*
X121395834Y-75537318D01*
X121395838Y-75537325D01*
X121516116Y-75683883D01*
X121662674Y-75804161D01*
X121662681Y-75804165D01*
X121829877Y-75893533D01*
X121829878Y-75893533D01*
X121829885Y-75893537D01*
X122011317Y-75948573D01*
X122011316Y-75948573D01*
X122028233Y-75950239D01*
X122200000Y-75967157D01*
X122388683Y-75948573D01*
X122570115Y-75893537D01*
X122737324Y-75804162D01*
X122883883Y-75683883D01*
X123004162Y-75537324D01*
X123093537Y-75370115D01*
X123148573Y-75188683D01*
X123167157Y-75000000D01*
X123148573Y-74811317D01*
X123093537Y-74629885D01*
X123004162Y-74462676D01*
X123004161Y-74462674D01*
X122883883Y-74316116D01*
X122737325Y-74195838D01*
X122737318Y-74195834D01*
X122570122Y-74106466D01*
X122570119Y-74106465D01*
X122570118Y-74106464D01*
X122570115Y-74106463D01*
X122524611Y-74092659D01*
X122466174Y-74054363D01*
X122437718Y-73990551D01*
X122448278Y-73921484D01*
X122494502Y-73869091D01*
X122560608Y-73850000D01*
X163659670Y-73850000D01*
X163726709Y-73869685D01*
X163772464Y-73922489D01*
X163782408Y-73991647D01*
X163753383Y-74055203D01*
X163727205Y-74077995D01*
X163439924Y-74264557D01*
X163206849Y-74453296D01*
X163206849Y-74453297D01*
X164630893Y-75877341D01*
X164522816Y-75955864D01*
X164355864Y-76122816D01*
X164277341Y-76230893D01*
X162853297Y-74806849D01*
X162853296Y-74806849D01*
X162664557Y-75039924D01*
X162464754Y-75347594D01*
X162298204Y-75674464D01*
X162166736Y-76016948D01*
X162071784Y-76371313D01*
X162071784Y-76371315D01*
X162014397Y-76733646D01*
X161995197Y-77099999D01*
X161995197Y-77100000D01*
X162014397Y-77466353D01*
X162071784Y-77828684D01*
X162071784Y-77828686D01*
X162166736Y-78183051D01*
X162298204Y-78525535D01*
X162464754Y-78852406D01*
X162664553Y-79160070D01*
X162853297Y-79393148D01*
X164277340Y-77969105D01*
X164355864Y-78077184D01*
X164522816Y-78244136D01*
X164630893Y-78322658D01*
X163206850Y-79746701D01*
X163439929Y-79935446D01*
X163747593Y-80135245D01*
X164074464Y-80301795D01*
X164416948Y-80433263D01*
X164771314Y-80528215D01*
X165133646Y-80585602D01*
X165499999Y-80604803D01*
X165500001Y-80604803D01*
X165866353Y-80585602D01*
X166228684Y-80528215D01*
X166228686Y-80528215D01*
X166583051Y-80433263D01*
X166925535Y-80301795D01*
X167252406Y-80135245D01*
X167560064Y-79935450D01*
X167793148Y-79746701D01*
X166369106Y-78322659D01*
X166477184Y-78244136D01*
X166644136Y-78077184D01*
X166722659Y-77969106D01*
X168146701Y-79393148D01*
X168335450Y-79160064D01*
X168522005Y-78872795D01*
X168575026Y-78827292D01*
X168644231Y-78817678D01*
X168707648Y-78847005D01*
X168745142Y-78905962D01*
X168750000Y-78940330D01*
X168750000Y-111759670D01*
X168730315Y-111826709D01*
X168677511Y-111872464D01*
X168608353Y-111882408D01*
X168544797Y-111853383D01*
X168522005Y-111827205D01*
X168335446Y-111539929D01*
X168146701Y-111306850D01*
X166722658Y-112730893D01*
X166644136Y-112622816D01*
X166477184Y-112455864D01*
X166369106Y-112377340D01*
X167793149Y-110953297D01*
X167560070Y-110764553D01*
X167252406Y-110564754D01*
X166925535Y-110398204D01*
X166583051Y-110266736D01*
X166228685Y-110171784D01*
X165866353Y-110114397D01*
X165500001Y-110095197D01*
X165499999Y-110095197D01*
X165133646Y-110114397D01*
X164771315Y-110171784D01*
X164771313Y-110171784D01*
X164416948Y-110266736D01*
X164074464Y-110398204D01*
X163747594Y-110564754D01*
X163439924Y-110764557D01*
X163206849Y-110953296D01*
X163206849Y-110953297D01*
X164630893Y-112377341D01*
X164522816Y-112455864D01*
X164355864Y-112622816D01*
X164277341Y-112730893D01*
X162853297Y-111306849D01*
X162853296Y-111306849D01*
X162664557Y-111539924D01*
X162464754Y-111847594D01*
X162298204Y-112174464D01*
X162166736Y-112516948D01*
X162071784Y-112871313D01*
X162071784Y-112871315D01*
X162014397Y-113233646D01*
X161995197Y-113599999D01*
X161995197Y-113600000D01*
X162014397Y-113966353D01*
X162071784Y-114328684D01*
X162071784Y-114328686D01*
X162166736Y-114683051D01*
X162298204Y-115025535D01*
X162464754Y-115352406D01*
X162664553Y-115660070D01*
X162853297Y-115893148D01*
X164277340Y-114469105D01*
X164355864Y-114577184D01*
X164522816Y-114744136D01*
X164630893Y-114822658D01*
X163206850Y-116246701D01*
X163439929Y-116435446D01*
X163727205Y-116622005D01*
X163772708Y-116675026D01*
X163782322Y-116744231D01*
X163752995Y-116807648D01*
X163694038Y-116845142D01*
X163659670Y-116850000D01*
X150484333Y-116850000D01*
X150417294Y-116830315D01*
X150371539Y-116777511D01*
X150361595Y-116708353D01*
X150390620Y-116644797D01*
X150396652Y-116638319D01*
X150707732Y-116327237D01*
X151145672Y-115889297D01*
X151206995Y-115855813D01*
X151276686Y-115860797D01*
X151291805Y-115867620D01*
X151306046Y-115875232D01*
X151504066Y-115935300D01*
X151504065Y-115935300D01*
X151522529Y-115937118D01*
X151710000Y-115955583D01*
X151915934Y-115935300D01*
X152113954Y-115875232D01*
X152296450Y-115777685D01*
X152456410Y-115646410D01*
X152587685Y-115486450D01*
X152685232Y-115303954D01*
X152745300Y-115105934D01*
X152765583Y-114900000D01*
X152745300Y-114694066D01*
X152685232Y-114496046D01*
X152587685Y-114313550D01*
X152512897Y-114222420D01*
X152456061Y-114153164D01*
X152428749Y-114088854D01*
X152440540Y-114019987D01*
X152487693Y-113968427D01*
X152551915Y-113950500D01*
X152824167Y-113950500D01*
X152891206Y-113970185D01*
X152911848Y-113986819D01*
X153260701Y-114335672D01*
X153294186Y-114396995D01*
X153289202Y-114466687D01*
X153282381Y-114481800D01*
X153274770Y-114496039D01*
X153214699Y-114694067D01*
X153194417Y-114900000D01*
X153214699Y-115105932D01*
X153214700Y-115105934D01*
X153274768Y-115303954D01*
X153372315Y-115486450D01*
X153372317Y-115486452D01*
X153503589Y-115646410D01*
X153600209Y-115725702D01*
X153663550Y-115777685D01*
X153846046Y-115875232D01*
X154044066Y-115935300D01*
X154044065Y-115935300D01*
X154062529Y-115937118D01*
X154250000Y-115955583D01*
X154455934Y-115935300D01*
X154653954Y-115875232D01*
X154836450Y-115777685D01*
X154996410Y-115646410D01*
X155127685Y-115486450D01*
X155225232Y-115303954D01*
X155245406Y-115237446D01*
X155283702Y-115179010D01*
X155347514Y-115150553D01*
X155416581Y-115161112D01*
X155468975Y-115207336D01*
X155483841Y-115241349D01*
X155516567Y-115363486D01*
X155516570Y-115363492D01*
X155616399Y-115577578D01*
X155751894Y-115771082D01*
X155918917Y-115938105D01*
X156112421Y-116073600D01*
X156326507Y-116173429D01*
X156326516Y-116173433D01*
X156540000Y-116230634D01*
X156540000Y-115333012D01*
X156597007Y-115365925D01*
X156724174Y-115400000D01*
X156855826Y-115400000D01*
X156982993Y-115365925D01*
X157040000Y-115333012D01*
X157040000Y-116230633D01*
X157253483Y-116173433D01*
X157253492Y-116173429D01*
X157467578Y-116073600D01*
X157661082Y-115938105D01*
X157828105Y-115771082D01*
X157963600Y-115577578D01*
X158063429Y-115363492D01*
X158063432Y-115363486D01*
X158120636Y-115150000D01*
X157223012Y-115150000D01*
X157255925Y-115092993D01*
X157290000Y-114965826D01*
X157290000Y-114834174D01*
X157255925Y-114707007D01*
X157223012Y-114650000D01*
X158120636Y-114650000D01*
X158120635Y-114649999D01*
X158063432Y-114436513D01*
X158063429Y-114436507D01*
X157963600Y-114222422D01*
X157963599Y-114222420D01*
X157828113Y-114028926D01*
X157828108Y-114028920D01*
X157661082Y-113861894D01*
X157474968Y-113731575D01*
X157431344Y-113676998D01*
X157424151Y-113607499D01*
X157455673Y-113545145D01*
X157474968Y-113528425D01*
X157661082Y-113398105D01*
X157828105Y-113231082D01*
X157963600Y-113037578D01*
X158063429Y-112823492D01*
X158063432Y-112823486D01*
X158120636Y-112610000D01*
X157223012Y-112610000D01*
X157255925Y-112552993D01*
X157290000Y-112425826D01*
X157290000Y-112294174D01*
X157255925Y-112167007D01*
X157223012Y-112110000D01*
X158120636Y-112110000D01*
X158120635Y-112109999D01*
X158063432Y-111896513D01*
X158063429Y-111896507D01*
X157963600Y-111682422D01*
X157963599Y-111682420D01*
X157828113Y-111488926D01*
X157828108Y-111488920D01*
X157661082Y-111321894D01*
X157467578Y-111186399D01*
X157253492Y-111086570D01*
X157253486Y-111086567D01*
X157040000Y-111029364D01*
X157040000Y-111926988D01*
X156982993Y-111894075D01*
X156855826Y-111860000D01*
X156724174Y-111860000D01*
X156597007Y-111894075D01*
X156540000Y-111926988D01*
X156540000Y-111029364D01*
X156539999Y-111029364D01*
X156326513Y-111086567D01*
X156326507Y-111086570D01*
X156112422Y-111186399D01*
X156112420Y-111186400D01*
X155918926Y-111321886D01*
X155918920Y-111321891D01*
X155751891Y-111488920D01*
X155751886Y-111488926D01*
X155616400Y-111682420D01*
X155616399Y-111682422D01*
X155516570Y-111896507D01*
X155516567Y-111896514D01*
X155483841Y-112018650D01*
X155447476Y-112078310D01*
X155384629Y-112108839D01*
X155315253Y-112100544D01*
X155261375Y-112056059D01*
X155245406Y-112022553D01*
X155225232Y-111956046D01*
X155127685Y-111773550D01*
X155045837Y-111673817D01*
X154996410Y-111613589D01*
X154851965Y-111495048D01*
X154836450Y-111482315D01*
X154653954Y-111384768D01*
X154455934Y-111324700D01*
X154455932Y-111324699D01*
X154455934Y-111324699D01*
X154250000Y-111304417D01*
X154044067Y-111324699D01*
X153846039Y-111384770D01*
X153831800Y-111392381D01*
X153763397Y-111406620D01*
X153698154Y-111381616D01*
X153685672Y-111370701D01*
X151824512Y-109509541D01*
X151824507Y-109509537D01*
X151808853Y-109500499D01*
X151808851Y-109500499D01*
X151779297Y-109483436D01*
X151755990Y-109469979D01*
X151730513Y-109463152D01*
X151679562Y-109449500D01*
X151679560Y-109449500D01*
X148237890Y-109449500D01*
X148170851Y-109429815D01*
X148125096Y-109377011D01*
X148115152Y-109307853D01*
X148125096Y-109273988D01*
X148157985Y-109201972D01*
X148185165Y-109142457D01*
X148205647Y-109000000D01*
X148185165Y-108857543D01*
X148125377Y-108726627D01*
X148031128Y-108617857D01*
X147910053Y-108540047D01*
X147910051Y-108540046D01*
X147910049Y-108540045D01*
X147910050Y-108540045D01*
X147771963Y-108499500D01*
X147771961Y-108499500D01*
X147746543Y-108499500D01*
X147679504Y-108479815D01*
X147658862Y-108463181D01*
X146736819Y-107541137D01*
X146703334Y-107479814D01*
X146700500Y-107453456D01*
X146700500Y-106506035D01*
X146720185Y-106438996D01*
X146730782Y-106424837D01*
X146775377Y-106373373D01*
X146835165Y-106242457D01*
X146851447Y-106129208D01*
X146880470Y-106065656D01*
X146886489Y-106059191D01*
X147021760Y-105923920D01*
X162249499Y-105923920D01*
X162278340Y-106068907D01*
X162278343Y-106068917D01*
X162334912Y-106205488D01*
X162334919Y-106205501D01*
X162417048Y-106328415D01*
X162417051Y-106328419D01*
X162521580Y-106432948D01*
X162521584Y-106432951D01*
X162644498Y-106515080D01*
X162644511Y-106515087D01*
X162770595Y-106567312D01*
X162781087Y-106571658D01*
X162781091Y-106571658D01*
X162781092Y-106571659D01*
X162926079Y-106600500D01*
X162926082Y-106600500D01*
X163073920Y-106600500D01*
X163171462Y-106581096D01*
X163218913Y-106571658D01*
X163355495Y-106515084D01*
X163478416Y-106432951D01*
X163582951Y-106328416D01*
X163665084Y-106205495D01*
X163721658Y-106068913D01*
X163740663Y-105973371D01*
X163750500Y-105923920D01*
X163750500Y-105776079D01*
X163721659Y-105631092D01*
X163721658Y-105631091D01*
X163721658Y-105631087D01*
X163685295Y-105543299D01*
X163665087Y-105494511D01*
X163665080Y-105494498D01*
X163582950Y-105371582D01*
X163478419Y-105267051D01*
X163478415Y-105267048D01*
X163355501Y-105184919D01*
X163355488Y-105184912D01*
X163218917Y-105128343D01*
X163218907Y-105128340D01*
X163073920Y-105099500D01*
X163073918Y-105099500D01*
X162926082Y-105099500D01*
X162926080Y-105099500D01*
X162781092Y-105128340D01*
X162781082Y-105128343D01*
X162644511Y-105184912D01*
X162644498Y-105184919D01*
X162521584Y-105267048D01*
X162521580Y-105267051D01*
X162417051Y-105371580D01*
X162417050Y-105371582D01*
X162334919Y-105494498D01*
X162334912Y-105494511D01*
X162278343Y-105631082D01*
X162278340Y-105631092D01*
X162249500Y-105776079D01*
X162249500Y-105776082D01*
X162249500Y-105923918D01*
X162249500Y-105923920D01*
X162249499Y-105923920D01*
X147021760Y-105923920D01*
X150458862Y-102486819D01*
X150520185Y-102453334D01*
X150546543Y-102450500D01*
X150571962Y-102450500D01*
X150571962Y-102450499D01*
X150710053Y-102409953D01*
X150831128Y-102332143D01*
X150925377Y-102223373D01*
X150985165Y-102092457D01*
X151005647Y-101950000D01*
X150985165Y-101807543D01*
X150925377Y-101676627D01*
X150831128Y-101567857D01*
X150710053Y-101490047D01*
X150710051Y-101490046D01*
X150710049Y-101490045D01*
X150710050Y-101490045D01*
X150571963Y-101449500D01*
X150571961Y-101449500D01*
X150428039Y-101449500D01*
X150428036Y-101449500D01*
X150289949Y-101490045D01*
X150168873Y-101567856D01*
X150074623Y-101676626D01*
X150074622Y-101676628D01*
X150014834Y-101807543D01*
X149998552Y-101920789D01*
X149969526Y-101984344D01*
X149963495Y-101990822D01*
X146862181Y-105092137D01*
X146800858Y-105125622D01*
X146731166Y-105120638D01*
X146675233Y-105078766D01*
X146650816Y-105013302D01*
X146650500Y-105004456D01*
X146650500Y-101856035D01*
X146670185Y-101788996D01*
X146680782Y-101774837D01*
X146725377Y-101723373D01*
X146785165Y-101592457D01*
X146805647Y-101450000D01*
X146785165Y-101307543D01*
X146725377Y-101176627D01*
X146631128Y-101067857D01*
X146510053Y-100990047D01*
X146510051Y-100990046D01*
X146510049Y-100990045D01*
X146510050Y-100990045D01*
X146371963Y-100949500D01*
X146371961Y-100949500D01*
X146228039Y-100949500D01*
X146228036Y-100949500D01*
X146089949Y-100990045D01*
X145968873Y-101067856D01*
X145874623Y-101176626D01*
X145874622Y-101176628D01*
X145814834Y-101307543D01*
X145794353Y-101450000D01*
X145814834Y-101592456D01*
X145853275Y-101676628D01*
X145874623Y-101723373D01*
X145919213Y-101774833D01*
X145948238Y-101838388D01*
X145949500Y-101856035D01*
X145949500Y-105751667D01*
X145929815Y-105818706D01*
X145929094Y-105819669D01*
X145924622Y-105826628D01*
X145864834Y-105957543D01*
X145844353Y-106100000D01*
X145864834Y-106242456D01*
X145904093Y-106328419D01*
X145924623Y-106373373D01*
X145969213Y-106424833D01*
X145998238Y-106488388D01*
X145999500Y-106506035D01*
X145999500Y-107696145D01*
X146011307Y-107740211D01*
X146011308Y-107740211D01*
X146023387Y-107785290D01*
X146069527Y-107865208D01*
X146069531Y-107865213D01*
X147163495Y-108959176D01*
X147196980Y-109020499D01*
X147198552Y-109029209D01*
X147203026Y-109060324D01*
X147193083Y-109129482D01*
X147147329Y-109182287D01*
X147080289Y-109201972D01*
X147013250Y-109182288D01*
X146992607Y-109165653D01*
X141032535Y-103205581D01*
X140999050Y-103144258D01*
X140997479Y-103100251D01*
X140998787Y-103091157D01*
X140978305Y-102948700D01*
X140918517Y-102817784D01*
X140824268Y-102709014D01*
X140703193Y-102631204D01*
X140703191Y-102631203D01*
X140703189Y-102631202D01*
X140703190Y-102631202D01*
X140565103Y-102590657D01*
X140565101Y-102590657D01*
X140421179Y-102590657D01*
X140421176Y-102590657D01*
X140283089Y-102631202D01*
X140241539Y-102657905D01*
X140174499Y-102677589D01*
X140107460Y-102657904D01*
X140061705Y-102605100D01*
X140050500Y-102553589D01*
X140050500Y-100450000D01*
X144694353Y-100450000D01*
X144714834Y-100592456D01*
X144772103Y-100717856D01*
X144774623Y-100723373D01*
X144868872Y-100832143D01*
X144989947Y-100909953D01*
X144989950Y-100909954D01*
X144989949Y-100909954D01*
X145097107Y-100941417D01*
X145124633Y-100949500D01*
X145128036Y-100950499D01*
X145128038Y-100950500D01*
X145128039Y-100950500D01*
X145271962Y-100950500D01*
X145271962Y-100950499D01*
X145410053Y-100909953D01*
X145531128Y-100832143D01*
X145625377Y-100723373D01*
X145685165Y-100592457D01*
X145705647Y-100450000D01*
X145705647Y-100449999D01*
X145705647Y-100441396D01*
X145725332Y-100374357D01*
X145741966Y-100353715D01*
X148171761Y-97923920D01*
X162249499Y-97923920D01*
X162278340Y-98068907D01*
X162278343Y-98068917D01*
X162334912Y-98205488D01*
X162334919Y-98205501D01*
X162417048Y-98328415D01*
X162417051Y-98328419D01*
X162521580Y-98432948D01*
X162521584Y-98432951D01*
X162644498Y-98515080D01*
X162644511Y-98515087D01*
X162781082Y-98571656D01*
X162781087Y-98571658D01*
X162781091Y-98571658D01*
X162781092Y-98571659D01*
X162926079Y-98600500D01*
X162926082Y-98600500D01*
X163073920Y-98600500D01*
X163171462Y-98581096D01*
X163218913Y-98571658D01*
X163355495Y-98515084D01*
X163478416Y-98432951D01*
X163582951Y-98328416D01*
X163665084Y-98205495D01*
X163721658Y-98068913D01*
X163750500Y-97923918D01*
X163750500Y-97776082D01*
X163750500Y-97776079D01*
X163721659Y-97631092D01*
X163721658Y-97631091D01*
X163721658Y-97631087D01*
X163670485Y-97507543D01*
X163665087Y-97494511D01*
X163665080Y-97494498D01*
X163582951Y-97371584D01*
X163582948Y-97371580D01*
X163478419Y-97267051D01*
X163478415Y-97267048D01*
X163355501Y-97184919D01*
X163355488Y-97184912D01*
X163218917Y-97128343D01*
X163218907Y-97128340D01*
X163073920Y-97099500D01*
X163073918Y-97099500D01*
X162926082Y-97099500D01*
X162926080Y-97099500D01*
X162781092Y-97128340D01*
X162781082Y-97128343D01*
X162644511Y-97184912D01*
X162644498Y-97184919D01*
X162521584Y-97267048D01*
X162521580Y-97267051D01*
X162417051Y-97371580D01*
X162417048Y-97371584D01*
X162334919Y-97494498D01*
X162334912Y-97494511D01*
X162278343Y-97631082D01*
X162278340Y-97631092D01*
X162249500Y-97776079D01*
X162249500Y-97776082D01*
X162249500Y-97923918D01*
X162249500Y-97923920D01*
X162249499Y-97923920D01*
X148171761Y-97923920D01*
X148958862Y-97136819D01*
X149020185Y-97103334D01*
X149046543Y-97100500D01*
X149171962Y-97100500D01*
X149171962Y-97100499D01*
X149310053Y-97059953D01*
X149431128Y-96982143D01*
X149525377Y-96873373D01*
X149585165Y-96742457D01*
X149605647Y-96600000D01*
X149585165Y-96457543D01*
X149525377Y-96326627D01*
X149431128Y-96217857D01*
X149310053Y-96140047D01*
X149310051Y-96140046D01*
X149310049Y-96140045D01*
X149310050Y-96140045D01*
X149171963Y-96099500D01*
X149171961Y-96099500D01*
X149028039Y-96099500D01*
X149028036Y-96099500D01*
X148889949Y-96140045D01*
X148768873Y-96217856D01*
X148674623Y-96326626D01*
X148674622Y-96326628D01*
X148614835Y-96457542D01*
X148612337Y-96466051D01*
X148610137Y-96465405D01*
X148586306Y-96517565D01*
X148580288Y-96524028D01*
X145188329Y-99915988D01*
X145135583Y-99947284D01*
X144989948Y-99990045D01*
X144868873Y-100067856D01*
X144774623Y-100176626D01*
X144774622Y-100176628D01*
X144714834Y-100307543D01*
X144694353Y-100450000D01*
X140050500Y-100450000D01*
X140050500Y-99150000D01*
X144294353Y-99150000D01*
X144314834Y-99292456D01*
X144374622Y-99423371D01*
X144374623Y-99423373D01*
X144468872Y-99532143D01*
X144589947Y-99609953D01*
X144589950Y-99609954D01*
X144589949Y-99609954D01*
X144697107Y-99641417D01*
X144726336Y-99650000D01*
X144728036Y-99650499D01*
X144728038Y-99650500D01*
X144728039Y-99650500D01*
X144871962Y-99650500D01*
X144871962Y-99650499D01*
X145010053Y-99609953D01*
X145131128Y-99532143D01*
X145225377Y-99423373D01*
X145285165Y-99292457D01*
X145301447Y-99179208D01*
X145330470Y-99115656D01*
X145336489Y-99109191D01*
X147083863Y-97361819D01*
X147145186Y-97328334D01*
X147171544Y-97325500D01*
X147196962Y-97325500D01*
X147196962Y-97325499D01*
X147335053Y-97284953D01*
X147456128Y-97207143D01*
X147550377Y-97098373D01*
X147610165Y-96967457D01*
X147630647Y-96825000D01*
X147610165Y-96682543D01*
X147550377Y-96551627D01*
X147456128Y-96442857D01*
X147335053Y-96365047D01*
X147335051Y-96365046D01*
X147335049Y-96365045D01*
X147335050Y-96365045D01*
X147196963Y-96324500D01*
X147196961Y-96324500D01*
X147053039Y-96324500D01*
X147053036Y-96324500D01*
X146914949Y-96365045D01*
X146793873Y-96442856D01*
X146699623Y-96551626D01*
X146699622Y-96551628D01*
X146639834Y-96682543D01*
X146623552Y-96795788D01*
X146594526Y-96859343D01*
X146588495Y-96865821D01*
X144841137Y-98613181D01*
X144779814Y-98646666D01*
X144753456Y-98649500D01*
X144728036Y-98649500D01*
X144589949Y-98690045D01*
X144468873Y-98767856D01*
X144374623Y-98876626D01*
X144374622Y-98876628D01*
X144314834Y-99007543D01*
X144294353Y-99150000D01*
X140050500Y-99150000D01*
X140050500Y-98113738D01*
X140070185Y-98046699D01*
X140080787Y-98032535D01*
X140081124Y-98032144D01*
X140081128Y-98032143D01*
X140175377Y-97923373D01*
X140235165Y-97792457D01*
X140255647Y-97650000D01*
X140235165Y-97507543D01*
X140175377Y-97376627D01*
X140081128Y-97267857D01*
X139960053Y-97190047D01*
X139960051Y-97190046D01*
X139960049Y-97190045D01*
X139960050Y-97190045D01*
X139821963Y-97149500D01*
X139821961Y-97149500D01*
X139678039Y-97149500D01*
X139678036Y-97149500D01*
X139539949Y-97190045D01*
X139513345Y-97207143D01*
X139491541Y-97221156D01*
X139491539Y-97221157D01*
X139424500Y-97240841D01*
X139357460Y-97221156D01*
X139311706Y-97168352D01*
X139300500Y-97116841D01*
X139300500Y-95263738D01*
X139320185Y-95196699D01*
X139330787Y-95182535D01*
X139331124Y-95182144D01*
X139331128Y-95182143D01*
X139425377Y-95073373D01*
X139485165Y-94942457D01*
X139505647Y-94800000D01*
X139485165Y-94657543D01*
X139425377Y-94526627D01*
X139331128Y-94417857D01*
X139210053Y-94340047D01*
X139210051Y-94340046D01*
X139210049Y-94340045D01*
X139210050Y-94340045D01*
X139071963Y-94299500D01*
X139071961Y-94299500D01*
X138928039Y-94299500D01*
X138927400Y-94299500D01*
X138860361Y-94279815D01*
X138814606Y-94227011D01*
X138804662Y-94193147D01*
X138785165Y-94057543D01*
X138725377Y-93926628D01*
X138725376Y-93926626D01*
X138631128Y-93817857D01*
X138510053Y-93740047D01*
X138510051Y-93740046D01*
X138510049Y-93740045D01*
X138510050Y-93740045D01*
X138371963Y-93699500D01*
X138371961Y-93699500D01*
X138228039Y-93699500D01*
X138228036Y-93699500D01*
X138089949Y-93740045D01*
X137968873Y-93817856D01*
X137874623Y-93926626D01*
X137874622Y-93926628D01*
X137814834Y-94057543D01*
X137794353Y-94200000D01*
X137814834Y-94342456D01*
X137815263Y-94343395D01*
X137874623Y-94473373D01*
X137968872Y-94582143D01*
X137968875Y-94582144D01*
X137969213Y-94582535D01*
X137998238Y-94646091D01*
X137999500Y-94663738D01*
X137999500Y-99187415D01*
X137979815Y-99254454D01*
X137927011Y-99300209D01*
X137857853Y-99310153D01*
X137794297Y-99281128D01*
X137781789Y-99268620D01*
X137781128Y-99267857D01*
X137660053Y-99190047D01*
X137660051Y-99190046D01*
X137660049Y-99190045D01*
X137660050Y-99190045D01*
X137521963Y-99149500D01*
X137521961Y-99149500D01*
X137378039Y-99149500D01*
X137378036Y-99149500D01*
X137239949Y-99190045D01*
X137118873Y-99267856D01*
X137024623Y-99376626D01*
X137024622Y-99376628D01*
X136964834Y-99507543D01*
X136944353Y-99650000D01*
X136944353Y-99650001D01*
X136945661Y-99659103D01*
X136935713Y-99728261D01*
X136910603Y-99764424D01*
X135915489Y-100759540D01*
X135859541Y-100815487D01*
X135859535Y-100815495D01*
X135819982Y-100884004D01*
X135819979Y-100884009D01*
X135799500Y-100960439D01*
X135799500Y-102436260D01*
X135779815Y-102503299D01*
X135769213Y-102517462D01*
X135674625Y-102626622D01*
X135674622Y-102626628D01*
X135614834Y-102757543D01*
X135594353Y-102900000D01*
X135614834Y-103042456D01*
X135641226Y-103100245D01*
X135674623Y-103173373D01*
X135768872Y-103282143D01*
X135889947Y-103359953D01*
X135889950Y-103359954D01*
X135889949Y-103359954D01*
X136028036Y-103400499D01*
X136028038Y-103400500D01*
X136028039Y-103400500D01*
X136171962Y-103400500D01*
X136171962Y-103400499D01*
X136310053Y-103359953D01*
X136431128Y-103282143D01*
X136525377Y-103173373D01*
X136585165Y-103042457D01*
X136605647Y-102900000D01*
X136585165Y-102757543D01*
X136525377Y-102626627D01*
X136525375Y-102626625D01*
X136525374Y-102626622D01*
X136430787Y-102517462D01*
X136401762Y-102453906D01*
X136400500Y-102436260D01*
X136400500Y-101175832D01*
X136420185Y-101108793D01*
X136436815Y-101088155D01*
X137338151Y-100186818D01*
X137399474Y-100153334D01*
X137425832Y-100150500D01*
X137521962Y-100150500D01*
X137521962Y-100150499D01*
X137660053Y-100109953D01*
X137781128Y-100032143D01*
X137781785Y-100031384D01*
X137782628Y-100030842D01*
X137787828Y-100026337D01*
X137788475Y-100027084D01*
X137840560Y-99993608D01*
X137910429Y-99993605D01*
X137969209Y-100031377D01*
X137998237Y-100094931D01*
X137999500Y-100112584D01*
X137999500Y-104539562D01*
X138015695Y-104600000D01*
X138019980Y-104615993D01*
X138019981Y-104615994D01*
X138037388Y-104646143D01*
X138037390Y-104646145D01*
X138059539Y-104684510D01*
X138398336Y-105023307D01*
X138431821Y-105084630D01*
X138426837Y-105154322D01*
X138384965Y-105210255D01*
X138319501Y-105234672D01*
X138275721Y-105229965D01*
X138171964Y-105199500D01*
X138171961Y-105199500D01*
X138028039Y-105199500D01*
X138028036Y-105199500D01*
X137889949Y-105240045D01*
X137768876Y-105317854D01*
X137768874Y-105317855D01*
X137768872Y-105317857D01*
X137768870Y-105317858D01*
X137767312Y-105319210D01*
X137765427Y-105320070D01*
X137761411Y-105322652D01*
X137761039Y-105322074D01*
X137703757Y-105348237D01*
X137686105Y-105349500D01*
X117688856Y-105349500D01*
X117606436Y-105371584D01*
X117606435Y-105371583D01*
X117599716Y-105373384D01*
X117599708Y-105373387D01*
X117519791Y-105419527D01*
X117519786Y-105419531D01*
X116546113Y-106393203D01*
X116484790Y-106426688D01*
X116415098Y-106421704D01*
X116406028Y-106417904D01*
X116326461Y-106380801D01*
X116326447Y-106380796D01*
X116121445Y-106325867D01*
X116121435Y-106325865D01*
X115910001Y-106307367D01*
X115909999Y-106307367D01*
X115698564Y-106325865D01*
X115698554Y-106325867D01*
X115493552Y-106380796D01*
X115493543Y-106380800D01*
X115301184Y-106470498D01*
X115301182Y-106470499D01*
X115127319Y-106592239D01*
X114977239Y-106742319D01*
X114855499Y-106916182D01*
X114855498Y-106916184D01*
X114765800Y-107108543D01*
X114765796Y-107108552D01*
X114710867Y-107313554D01*
X114710865Y-107313564D01*
X114692367Y-107524999D01*
X114692367Y-107525002D01*
X114708376Y-107707990D01*
X114694609Y-107776490D01*
X114645994Y-107826673D01*
X114577965Y-107842606D01*
X114555901Y-107839371D01*
X114377342Y-107796502D01*
X114140000Y-107777823D01*
X113902657Y-107796502D01*
X113724098Y-107839371D01*
X113654316Y-107835880D01*
X113597498Y-107795216D01*
X113571685Y-107730290D01*
X113571623Y-107707989D01*
X113572660Y-107696144D01*
X113587633Y-107525000D01*
X113569134Y-107313560D01*
X113514201Y-107108545D01*
X113477093Y-107028969D01*
X113466602Y-106959894D01*
X113495121Y-106896110D01*
X113501782Y-106888898D01*
X115403863Y-104986819D01*
X115465186Y-104953334D01*
X115491544Y-104950500D01*
X136036105Y-104950500D01*
X136103144Y-104970185D01*
X136117312Y-104980790D01*
X136118866Y-104982137D01*
X136118872Y-104982143D01*
X136239947Y-105059953D01*
X136239950Y-105059954D01*
X136239949Y-105059954D01*
X136323990Y-105084630D01*
X136374633Y-105099500D01*
X136378036Y-105100499D01*
X136378038Y-105100500D01*
X136378039Y-105100500D01*
X136521962Y-105100500D01*
X136521962Y-105100499D01*
X136660053Y-105059953D01*
X136781128Y-104982143D01*
X136875377Y-104873373D01*
X136935165Y-104742457D01*
X136955647Y-104600000D01*
X136935165Y-104457543D01*
X136875377Y-104326627D01*
X136781128Y-104217857D01*
X136660053Y-104140047D01*
X136660051Y-104140046D01*
X136660049Y-104140045D01*
X136660050Y-104140045D01*
X136521963Y-104099500D01*
X136521961Y-104099500D01*
X136378039Y-104099500D01*
X136378036Y-104099500D01*
X136239949Y-104140045D01*
X136118876Y-104217854D01*
X136118874Y-104217855D01*
X136118872Y-104217857D01*
X136118870Y-104217858D01*
X136117312Y-104219210D01*
X136115427Y-104220070D01*
X136111411Y-104222652D01*
X136111039Y-104222074D01*
X136053757Y-104248237D01*
X136036105Y-104249500D01*
X115248856Y-104249500D01*
X115165073Y-104271948D01*
X115165074Y-104271949D01*
X115159712Y-104273385D01*
X115159708Y-104273387D01*
X115079791Y-104319527D01*
X115079786Y-104319531D01*
X113006113Y-106393203D01*
X112944790Y-106426688D01*
X112875098Y-106421704D01*
X112866028Y-106417904D01*
X112786461Y-106380801D01*
X112786447Y-106380796D01*
X112581445Y-106325867D01*
X112581435Y-106325865D01*
X112370001Y-106307367D01*
X112369999Y-106307367D01*
X112158564Y-106325865D01*
X112158554Y-106325867D01*
X111953552Y-106380796D01*
X111953543Y-106380800D01*
X111761184Y-106470498D01*
X111761182Y-106470499D01*
X111587319Y-106592239D01*
X111437239Y-106742319D01*
X111315499Y-106916182D01*
X111315498Y-106916184D01*
X111225800Y-107108543D01*
X111225796Y-107108552D01*
X111170867Y-107313554D01*
X111170865Y-107313564D01*
X111152367Y-107524999D01*
X111152367Y-107525000D01*
X111170865Y-107736435D01*
X111170867Y-107736445D01*
X111225796Y-107941447D01*
X111225798Y-107941451D01*
X111225799Y-107941455D01*
X111288447Y-108075803D01*
X111315499Y-108133817D01*
X111315503Y-108133823D01*
X111417233Y-108279107D01*
X111437239Y-108307679D01*
X111587321Y-108457761D01*
X111761183Y-108579501D01*
X111953545Y-108669201D01*
X112158560Y-108724134D01*
X112327712Y-108738933D01*
X112369999Y-108742633D01*
X112370000Y-108742633D01*
X112370001Y-108742633D01*
X112427000Y-108737645D01*
X112552989Y-108726623D01*
X112621489Y-108740389D01*
X112671672Y-108789005D01*
X112687606Y-108857033D01*
X112684371Y-108879098D01*
X112641502Y-109057657D01*
X112622823Y-109295000D01*
X112641502Y-109532342D01*
X112684371Y-109710901D01*
X112680880Y-109780683D01*
X112640216Y-109837501D01*
X112575290Y-109863314D01*
X112552990Y-109863376D01*
X112370002Y-109847367D01*
X112369999Y-109847367D01*
X112158564Y-109865865D01*
X112158554Y-109865867D01*
X111953552Y-109920796D01*
X111953542Y-109920800D01*
X111922190Y-109935419D01*
X111853112Y-109945908D01*
X111789329Y-109917387D01*
X111782108Y-109910716D01*
X110186819Y-108315426D01*
X110153334Y-108254103D01*
X110150500Y-108227745D01*
X110150500Y-101628282D01*
X110170185Y-101561243D01*
X110186814Y-101540606D01*
X110627420Y-101100000D01*
X120994353Y-101100000D01*
X121014834Y-101242456D01*
X121044559Y-101307543D01*
X121074623Y-101373373D01*
X121168872Y-101482143D01*
X121289947Y-101559953D01*
X121289950Y-101559954D01*
X121289949Y-101559954D01*
X121428036Y-101600499D01*
X121428038Y-101600500D01*
X121428039Y-101600500D01*
X121571962Y-101600500D01*
X121571962Y-101600499D01*
X121710053Y-101559953D01*
X121831128Y-101482143D01*
X121831136Y-101482133D01*
X121832688Y-101480790D01*
X121834572Y-101479929D01*
X121838589Y-101477348D01*
X121838960Y-101477925D01*
X121896243Y-101451763D01*
X121913895Y-101450500D01*
X128196142Y-101450500D01*
X128196144Y-101450500D01*
X128285288Y-101426614D01*
X128365212Y-101380470D01*
X129658863Y-100086819D01*
X129720186Y-100053334D01*
X129746544Y-100050500D01*
X129771962Y-100050500D01*
X129771962Y-100050499D01*
X129910053Y-100009953D01*
X130031128Y-99932143D01*
X130064788Y-99893296D01*
X130123567Y-99855523D01*
X130158501Y-99850500D01*
X131939560Y-99850500D01*
X131939562Y-99850500D01*
X132015989Y-99830021D01*
X132084511Y-99790460D01*
X132140460Y-99734511D01*
X135188151Y-96686818D01*
X135249474Y-96653334D01*
X135275832Y-96650500D01*
X135371962Y-96650500D01*
X135371962Y-96650499D01*
X135510053Y-96609953D01*
X135631128Y-96532143D01*
X135725377Y-96423373D01*
X135785165Y-96292457D01*
X135805647Y-96150000D01*
X135785165Y-96007543D01*
X135725377Y-95876627D01*
X135631128Y-95767857D01*
X135510053Y-95690047D01*
X135510051Y-95690046D01*
X135510049Y-95690045D01*
X135510050Y-95690045D01*
X135371963Y-95649500D01*
X135371961Y-95649500D01*
X135228039Y-95649500D01*
X135228036Y-95649500D01*
X135089949Y-95690045D01*
X134968873Y-95767856D01*
X134874623Y-95876626D01*
X134874622Y-95876628D01*
X134814834Y-96007543D01*
X134794353Y-96150000D01*
X134794353Y-96150001D01*
X134795661Y-96159103D01*
X134785713Y-96228261D01*
X134760603Y-96264424D01*
X131811848Y-99213181D01*
X131750525Y-99246666D01*
X131724167Y-99249500D01*
X130158501Y-99249500D01*
X130091462Y-99229815D01*
X130064788Y-99206703D01*
X130031128Y-99167857D01*
X129910053Y-99090047D01*
X129910051Y-99090046D01*
X129910049Y-99090045D01*
X129910050Y-99090045D01*
X129771963Y-99049500D01*
X129771961Y-99049500D01*
X129628039Y-99049500D01*
X129628036Y-99049500D01*
X129489949Y-99090045D01*
X129368873Y-99167856D01*
X129274623Y-99276626D01*
X129274622Y-99276628D01*
X129214834Y-99407543D01*
X129198552Y-99520788D01*
X129169526Y-99584343D01*
X129163495Y-99590821D01*
X128041137Y-100713181D01*
X127979814Y-100746666D01*
X127953456Y-100749500D01*
X121913895Y-100749500D01*
X121846856Y-100729815D01*
X121832688Y-100719210D01*
X121831132Y-100717862D01*
X121831128Y-100717857D01*
X121710053Y-100640047D01*
X121710051Y-100640046D01*
X121710049Y-100640045D01*
X121710050Y-100640045D01*
X121571963Y-100599500D01*
X121571961Y-100599500D01*
X121428039Y-100599500D01*
X121428036Y-100599500D01*
X121289949Y-100640045D01*
X121168873Y-100717856D01*
X121074623Y-100826626D01*
X121074622Y-100826628D01*
X121014834Y-100957543D01*
X120994353Y-101100000D01*
X110627420Y-101100000D01*
X124627419Y-87100000D01*
X127644353Y-87100000D01*
X127664834Y-87242456D01*
X127724622Y-87373371D01*
X127724623Y-87373373D01*
X127818872Y-87482143D01*
X127939947Y-87559953D01*
X127939950Y-87559954D01*
X127939949Y-87559954D01*
X128078036Y-87600499D01*
X128078038Y-87600500D01*
X128078039Y-87600500D01*
X128221962Y-87600500D01*
X128221962Y-87600499D01*
X128360053Y-87559953D01*
X128481128Y-87482143D01*
X128575377Y-87373373D01*
X128635165Y-87242457D01*
X128639573Y-87211797D01*
X128668597Y-87148241D01*
X128674630Y-87141762D01*
X131555913Y-84260479D01*
X132455954Y-83360438D01*
X134549500Y-83360438D01*
X134549500Y-91289562D01*
X134550059Y-91291647D01*
X134569979Y-91365990D01*
X134569980Y-91365991D01*
X134601150Y-91419979D01*
X134601151Y-91419981D01*
X134609537Y-91434507D01*
X134609539Y-91434510D01*
X134609540Y-91434511D01*
X135059540Y-91884511D01*
X135115489Y-91940460D01*
X135115491Y-91940461D01*
X135115495Y-91940464D01*
X135172493Y-91973371D01*
X135184011Y-91980021D01*
X135260438Y-92000500D01*
X137291499Y-92000500D01*
X137358538Y-92020185D01*
X137385211Y-92043296D01*
X137418872Y-92082143D01*
X137539947Y-92159953D01*
X137539950Y-92159954D01*
X137539949Y-92159954D01*
X137678036Y-92200499D01*
X137678038Y-92200500D01*
X137678039Y-92200500D01*
X137821962Y-92200500D01*
X137821962Y-92200499D01*
X137960053Y-92159953D01*
X138081128Y-92082143D01*
X138175377Y-91973373D01*
X138235165Y-91842457D01*
X138255647Y-91700000D01*
X138235165Y-91557543D01*
X138175377Y-91426627D01*
X138175375Y-91426625D01*
X138175374Y-91426622D01*
X138113488Y-91355202D01*
X138084463Y-91291647D01*
X138094407Y-91222488D01*
X138140162Y-91169684D01*
X138207201Y-91150000D01*
X140425000Y-91150000D01*
X140425000Y-88324000D01*
X140444685Y-88256961D01*
X140497489Y-88211206D01*
X140549000Y-88200000D01*
X142675000Y-88200000D01*
X142675000Y-84811304D01*
X152649500Y-84811304D01*
X152649500Y-84988695D01*
X152684103Y-85162658D01*
X152684106Y-85162667D01*
X152751983Y-85326540D01*
X152751990Y-85326553D01*
X152850535Y-85474034D01*
X152850538Y-85474038D01*
X152975961Y-85599461D01*
X152975965Y-85599464D01*
X153123446Y-85698009D01*
X153123459Y-85698016D01*
X153246363Y-85748923D01*
X153287334Y-85765894D01*
X153287336Y-85765894D01*
X153287341Y-85765896D01*
X153461304Y-85800499D01*
X153461307Y-85800500D01*
X153461309Y-85800500D01*
X153638693Y-85800500D01*
X153638694Y-85800499D01*
X153696682Y-85788964D01*
X153812658Y-85765896D01*
X153812661Y-85765894D01*
X153812666Y-85765894D01*
X153976547Y-85698013D01*
X154124035Y-85599464D01*
X154249464Y-85474035D01*
X154348013Y-85326547D01*
X154415894Y-85162666D01*
X154450500Y-84988691D01*
X154450500Y-84823615D01*
X160224500Y-84823615D01*
X160224500Y-84976384D01*
X160254300Y-85126197D01*
X160254302Y-85126205D01*
X160312759Y-85267334D01*
X160312764Y-85267343D01*
X160397629Y-85394351D01*
X160397632Y-85394355D01*
X160505644Y-85502367D01*
X160505648Y-85502370D01*
X160632656Y-85587235D01*
X160632662Y-85587238D01*
X160632663Y-85587239D01*
X160773795Y-85645698D01*
X160923615Y-85675499D01*
X160923619Y-85675500D01*
X160923620Y-85675500D01*
X161076381Y-85675500D01*
X161076382Y-85675499D01*
X161226205Y-85645698D01*
X161367337Y-85587239D01*
X161494352Y-85502370D01*
X161602370Y-85394352D01*
X161687239Y-85267337D01*
X161745698Y-85126205D01*
X161775500Y-84976380D01*
X161775500Y-84823620D01*
X161745698Y-84673795D01*
X161687239Y-84532663D01*
X161687238Y-84532662D01*
X161687235Y-84532656D01*
X161602370Y-84405648D01*
X161602367Y-84405644D01*
X161494355Y-84297632D01*
X161494351Y-84297629D01*
X161367343Y-84212764D01*
X161367334Y-84212759D01*
X161226205Y-84154302D01*
X161226197Y-84154300D01*
X161076384Y-84124500D01*
X161076380Y-84124500D01*
X160923620Y-84124500D01*
X160923615Y-84124500D01*
X160773802Y-84154300D01*
X160773794Y-84154302D01*
X160632665Y-84212759D01*
X160632656Y-84212764D01*
X160505648Y-84297629D01*
X160505644Y-84297632D01*
X160397632Y-84405644D01*
X160397629Y-84405648D01*
X160312764Y-84532656D01*
X160312759Y-84532665D01*
X160254302Y-84673794D01*
X160254300Y-84673802D01*
X160224500Y-84823615D01*
X154450500Y-84823615D01*
X154450500Y-84811309D01*
X154450500Y-84811306D01*
X154450499Y-84811304D01*
X154415896Y-84637341D01*
X154415893Y-84637332D01*
X154348016Y-84473459D01*
X154348009Y-84473446D01*
X154249464Y-84325965D01*
X154249461Y-84325961D01*
X154124038Y-84200538D01*
X154124034Y-84200535D01*
X153976553Y-84101990D01*
X153976540Y-84101983D01*
X153812667Y-84034106D01*
X153812658Y-84034103D01*
X153638694Y-83999500D01*
X153638691Y-83999500D01*
X153461309Y-83999500D01*
X153461306Y-83999500D01*
X153287341Y-84034103D01*
X153287332Y-84034106D01*
X153123459Y-84101983D01*
X153123446Y-84101990D01*
X152975965Y-84200535D01*
X152975961Y-84200538D01*
X152850538Y-84325961D01*
X152850535Y-84325965D01*
X152751990Y-84473446D01*
X152751983Y-84473459D01*
X152684106Y-84637332D01*
X152684103Y-84637341D01*
X152649500Y-84811304D01*
X142675000Y-84811304D01*
X142675000Y-83450000D01*
X140324500Y-83450000D01*
X140257461Y-83430315D01*
X140211706Y-83377511D01*
X140200500Y-83326000D01*
X140200500Y-83313738D01*
X140220185Y-83246699D01*
X140230787Y-83232535D01*
X140231124Y-83232144D01*
X140231128Y-83232143D01*
X140325377Y-83123373D01*
X140385165Y-82992457D01*
X140405647Y-82850000D01*
X140385165Y-82707543D01*
X140325377Y-82576627D01*
X140231128Y-82467857D01*
X140110053Y-82390047D01*
X140110051Y-82390046D01*
X140110049Y-82390045D01*
X140110050Y-82390045D01*
X139971963Y-82349500D01*
X139971961Y-82349500D01*
X139828039Y-82349500D01*
X139828036Y-82349500D01*
X139689949Y-82390045D01*
X139568873Y-82467856D01*
X139474623Y-82576626D01*
X139474622Y-82576628D01*
X139414834Y-82707543D01*
X139394353Y-82850000D01*
X139414834Y-82992456D01*
X139474622Y-83123371D01*
X139474623Y-83123373D01*
X139568872Y-83232143D01*
X139568875Y-83232144D01*
X139569213Y-83232535D01*
X139598238Y-83296091D01*
X139599500Y-83313738D01*
X139599500Y-83326000D01*
X139579815Y-83393039D01*
X139527011Y-83438794D01*
X139475500Y-83450000D01*
X135524333Y-83450000D01*
X135457294Y-83430315D01*
X135411539Y-83377511D01*
X135401595Y-83308353D01*
X135430620Y-83244797D01*
X135436652Y-83238319D01*
X135788151Y-82886819D01*
X135849474Y-82853334D01*
X135875832Y-82850500D01*
X135971962Y-82850500D01*
X135971962Y-82850499D01*
X136110053Y-82809953D01*
X136231128Y-82732143D01*
X136325377Y-82623373D01*
X136385165Y-82492457D01*
X136405647Y-82350000D01*
X136385165Y-82207543D01*
X136325377Y-82076627D01*
X136231128Y-81967857D01*
X136110053Y-81890047D01*
X136110051Y-81890046D01*
X136110049Y-81890045D01*
X136110050Y-81890045D01*
X135971963Y-81849500D01*
X135971961Y-81849500D01*
X135828039Y-81849500D01*
X135828036Y-81849500D01*
X135689949Y-81890045D01*
X135568873Y-81967856D01*
X135474623Y-82076626D01*
X135474622Y-82076628D01*
X135414834Y-82207543D01*
X135394353Y-82350000D01*
X135394353Y-82350001D01*
X135395661Y-82359103D01*
X135385713Y-82428261D01*
X135360603Y-82464424D01*
X134665489Y-83159540D01*
X134609541Y-83215487D01*
X134609535Y-83215495D01*
X134569982Y-83284004D01*
X134569979Y-83284009D01*
X134558728Y-83326000D01*
X134549500Y-83360438D01*
X132455954Y-83360438D01*
X134470480Y-81345913D01*
X134523206Y-81254588D01*
X134523207Y-81254587D01*
X134550500Y-81152727D01*
X134550500Y-76898332D01*
X134570185Y-76831293D01*
X134570901Y-76830336D01*
X134575368Y-76823382D01*
X134575377Y-76823373D01*
X134635165Y-76692457D01*
X134655647Y-76550000D01*
X134635165Y-76407543D01*
X134575377Y-76276627D01*
X134481128Y-76167857D01*
X134360053Y-76090047D01*
X134360051Y-76090046D01*
X134360049Y-76090045D01*
X134360050Y-76090045D01*
X134221963Y-76049500D01*
X134221961Y-76049500D01*
X134078039Y-76049500D01*
X134078036Y-76049500D01*
X133939949Y-76090045D01*
X133818873Y-76167856D01*
X133724623Y-76276626D01*
X133724622Y-76276628D01*
X133664834Y-76407543D01*
X133644353Y-76550000D01*
X133664834Y-76692456D01*
X133690543Y-76748749D01*
X133724623Y-76823373D01*
X133724627Y-76823378D01*
X133729418Y-76830833D01*
X133726364Y-76832795D01*
X133748235Y-76880663D01*
X133749500Y-76898332D01*
X133749500Y-80882745D01*
X133729815Y-80949784D01*
X133713181Y-80970426D01*
X128109009Y-86574597D01*
X128056263Y-86605893D01*
X127939949Y-86640045D01*
X127818873Y-86717856D01*
X127724623Y-86826626D01*
X127724622Y-86826628D01*
X127664834Y-86957543D01*
X127644353Y-87100000D01*
X124627419Y-87100000D01*
X129027387Y-82700032D01*
X129080132Y-82668738D01*
X129110053Y-82659953D01*
X129231128Y-82582143D01*
X129325377Y-82473373D01*
X129385165Y-82342457D01*
X129405647Y-82200000D01*
X129385165Y-82057543D01*
X129325377Y-81926627D01*
X129231128Y-81817857D01*
X129110053Y-81740047D01*
X129110051Y-81740046D01*
X129110049Y-81740045D01*
X129110050Y-81740045D01*
X128971963Y-81699500D01*
X128971961Y-81699500D01*
X128828039Y-81699500D01*
X128828036Y-81699500D01*
X128689949Y-81740045D01*
X128568873Y-81817856D01*
X128474623Y-81926626D01*
X128474622Y-81926628D01*
X128414834Y-82057543D01*
X128400179Y-82159479D01*
X128371154Y-82223035D01*
X128365122Y-82229513D01*
X109429522Y-101165113D01*
X109429518Y-101165119D01*
X109376792Y-101256441D01*
X109376793Y-101256442D01*
X109349500Y-101358302D01*
X109349500Y-108497726D01*
X109376793Y-108599589D01*
X109388578Y-108620000D01*
X109429520Y-108690913D01*
X109429521Y-108690914D01*
X109429522Y-108690915D01*
X111215716Y-110477108D01*
X111249201Y-110538431D01*
X111244217Y-110608123D01*
X111240419Y-110617190D01*
X111225800Y-110648542D01*
X111225796Y-110648552D01*
X111170867Y-110853554D01*
X111170865Y-110853564D01*
X111152367Y-111064999D01*
X111152367Y-111065000D01*
X111170865Y-111276435D01*
X111170867Y-111276445D01*
X111225796Y-111481447D01*
X111225798Y-111481451D01*
X111225799Y-111481455D01*
X111315499Y-111673817D01*
X111437239Y-111847679D01*
X111587321Y-111997761D01*
X111761183Y-112119501D01*
X111953545Y-112209201D01*
X111953551Y-112209202D01*
X111953552Y-112209203D01*
X112002898Y-112222425D01*
X112158560Y-112264134D01*
X112327712Y-112278933D01*
X112369999Y-112282633D01*
X112370000Y-112282633D01*
X112370001Y-112282633D01*
X112405240Y-112279549D01*
X112581440Y-112264134D01*
X112733026Y-112223517D01*
X112802872Y-112225180D01*
X112852797Y-112255611D01*
X114200159Y-113602972D01*
X114200169Y-113602983D01*
X114204499Y-113607313D01*
X114204500Y-113607314D01*
X114297686Y-113700500D01*
X114297688Y-113700501D01*
X114297689Y-113700502D01*
X114411101Y-113765981D01*
X114411808Y-113766389D01*
X114411810Y-113766389D01*
X114411814Y-113766392D01*
X114539107Y-113800500D01*
X114539108Y-113800500D01*
X114539109Y-113800500D01*
X117265890Y-113800500D01*
X117265892Y-113800500D01*
X117393186Y-113766392D01*
X117507314Y-113700500D01*
X118022626Y-113185188D01*
X119964500Y-113185188D01*
X119964500Y-113404811D01*
X119964501Y-113404828D01*
X119993167Y-113622573D01*
X120050014Y-113834729D01*
X120134063Y-114037641D01*
X120134065Y-114037645D01*
X120243884Y-114227855D01*
X120243889Y-114227861D01*
X120243890Y-114227863D01*
X120377588Y-114402102D01*
X120377594Y-114402109D01*
X120532890Y-114557405D01*
X120532897Y-114557411D01*
X120583264Y-114596059D01*
X120707145Y-114691116D01*
X120897355Y-114800935D01*
X120998814Y-114842960D01*
X121100270Y-114884985D01*
X121100271Y-114884985D01*
X121100273Y-114884986D01*
X121312425Y-114941832D01*
X121530182Y-114970500D01*
X121530189Y-114970500D01*
X121749811Y-114970500D01*
X121749818Y-114970500D01*
X121967575Y-114941832D01*
X122179727Y-114884986D01*
X122382645Y-114800935D01*
X122572855Y-114691116D01*
X122747104Y-114557410D01*
X122902410Y-114402104D01*
X123036116Y-114227855D01*
X123145935Y-114037645D01*
X123229986Y-113834727D01*
X123286832Y-113622575D01*
X123315500Y-113404818D01*
X123315500Y-113185182D01*
X123286832Y-112967425D01*
X123229986Y-112755273D01*
X123193561Y-112667336D01*
X123187960Y-112653814D01*
X123145935Y-112552355D01*
X123036116Y-112362145D01*
X122975104Y-112282633D01*
X122902411Y-112187897D01*
X122902405Y-112187890D01*
X122747109Y-112032594D01*
X122747102Y-112032588D01*
X122572863Y-111898890D01*
X122572861Y-111898889D01*
X122572855Y-111898884D01*
X122382645Y-111789065D01*
X122382641Y-111789063D01*
X122179729Y-111705014D01*
X121967573Y-111648167D01*
X121749828Y-111619501D01*
X121749823Y-111619500D01*
X121749818Y-111619500D01*
X121530182Y-111619500D01*
X121530176Y-111619500D01*
X121530171Y-111619501D01*
X121312426Y-111648167D01*
X121100270Y-111705014D01*
X120897358Y-111789063D01*
X120897354Y-111789065D01*
X120707145Y-111898884D01*
X120707136Y-111898890D01*
X120532897Y-112032588D01*
X120532890Y-112032594D01*
X120377594Y-112187890D01*
X120377588Y-112187897D01*
X120243890Y-112362136D01*
X120243884Y-112362145D01*
X120134065Y-112552354D01*
X120134063Y-112552358D01*
X120050014Y-112755270D01*
X119993167Y-112967426D01*
X119964501Y-113185171D01*
X119964500Y-113185188D01*
X118022626Y-113185188D01*
X119000500Y-112207314D01*
X119066392Y-112093186D01*
X119100500Y-111965892D01*
X119100500Y-111834108D01*
X119100500Y-109182805D01*
X120214500Y-109182805D01*
X120214500Y-109407194D01*
X120249599Y-109628805D01*
X120318938Y-109842206D01*
X120388992Y-109979692D01*
X120406055Y-110013181D01*
X120420805Y-110042128D01*
X120552683Y-110223644D01*
X120552687Y-110223649D01*
X120711350Y-110382312D01*
X120711355Y-110382316D01*
X120841826Y-110477108D01*
X120892875Y-110514197D01*
X120992099Y-110564754D01*
X121092793Y-110616061D01*
X121092795Y-110616061D01*
X121092798Y-110616063D01*
X121192758Y-110648542D01*
X121306194Y-110685400D01*
X121527806Y-110720500D01*
X121527811Y-110720500D01*
X121752194Y-110720500D01*
X121973805Y-110685400D01*
X122187202Y-110616063D01*
X122387125Y-110514197D01*
X122568651Y-110382311D01*
X122727311Y-110223651D01*
X122859197Y-110042125D01*
X122961063Y-109842202D01*
X123030400Y-109628805D01*
X123045678Y-109532342D01*
X123065500Y-109407194D01*
X123065500Y-109182805D01*
X123030400Y-108961194D01*
X122998229Y-108862184D01*
X122961063Y-108747798D01*
X122961061Y-108747795D01*
X122961061Y-108747793D01*
X122921015Y-108669199D01*
X122859197Y-108547875D01*
X122824051Y-108499500D01*
X122727316Y-108366355D01*
X122727312Y-108366350D01*
X122568649Y-108207687D01*
X122568644Y-108207683D01*
X122387128Y-108075805D01*
X122387127Y-108075804D01*
X122387125Y-108075803D01*
X122324692Y-108043992D01*
X122187206Y-107973938D01*
X121973805Y-107904599D01*
X121752194Y-107869500D01*
X121752189Y-107869500D01*
X121527811Y-107869500D01*
X121527806Y-107869500D01*
X121306194Y-107904599D01*
X121092793Y-107973938D01*
X120892871Y-108075805D01*
X120711355Y-108207683D01*
X120711350Y-108207687D01*
X120552687Y-108366350D01*
X120552683Y-108366355D01*
X120420805Y-108547871D01*
X120318938Y-108747793D01*
X120249599Y-108961194D01*
X120214500Y-109182805D01*
X119100500Y-109182805D01*
X119100500Y-108858676D01*
X119120185Y-108791637D01*
X119136819Y-108770995D01*
X120520995Y-107386819D01*
X120582318Y-107353334D01*
X120608676Y-107350500D01*
X130221963Y-107350500D01*
X130221963Y-107350499D01*
X130260226Y-107339263D01*
X130283902Y-107332312D01*
X130286681Y-107331531D01*
X130343186Y-107316392D01*
X130343189Y-107316389D01*
X130349367Y-107313832D01*
X130358996Y-107310434D01*
X130360045Y-107309955D01*
X130360053Y-107309953D01*
X130408087Y-107279082D01*
X130413102Y-107276025D01*
X130457314Y-107250500D01*
X130457321Y-107250492D01*
X130461828Y-107247035D01*
X130477067Y-107234752D01*
X130481128Y-107232143D01*
X130513653Y-107194605D01*
X130519673Y-107188140D01*
X130550500Y-107157314D01*
X130553628Y-107151894D01*
X130567304Y-107132688D01*
X130575377Y-107123373D01*
X130592912Y-107084974D01*
X130598311Y-107074502D01*
X130616392Y-107043186D01*
X130619952Y-107029898D01*
X130626934Y-107010479D01*
X130635164Y-106992459D01*
X130635163Y-106992459D01*
X130635165Y-106992457D01*
X130640111Y-106958053D01*
X130643074Y-106943606D01*
X130644263Y-106939165D01*
X130650500Y-106915892D01*
X130650500Y-106894667D01*
X130651762Y-106877020D01*
X130655647Y-106849999D01*
X130651762Y-106822977D01*
X130650500Y-106805331D01*
X130650500Y-106784110D01*
X130650500Y-106784108D01*
X130643073Y-106756390D01*
X130640111Y-106741946D01*
X130635165Y-106707545D01*
X130635165Y-106707543D01*
X130626928Y-106689509D01*
X130619949Y-106670091D01*
X130616392Y-106656814D01*
X130598316Y-106625506D01*
X130592911Y-106615020D01*
X130575380Y-106576633D01*
X130575379Y-106576631D01*
X130575377Y-106576627D01*
X130575372Y-106576621D01*
X130567306Y-106567312D01*
X130553628Y-106548104D01*
X130550499Y-106542685D01*
X130519677Y-106511863D01*
X130513659Y-106505401D01*
X130481128Y-106467857D01*
X130481125Y-106467854D01*
X130477066Y-106465246D01*
X130461793Y-106452937D01*
X130457318Y-106449504D01*
X130457314Y-106449500D01*
X130428651Y-106432951D01*
X130413121Y-106423984D01*
X130408085Y-106420915D01*
X130403400Y-106417904D01*
X130360053Y-106390047D01*
X130360051Y-106390046D01*
X130360049Y-106390045D01*
X130359004Y-106389567D01*
X130349375Y-106386171D01*
X130343192Y-106383610D01*
X130343187Y-106383608D01*
X130343186Y-106383608D01*
X130286701Y-106368473D01*
X130283862Y-106367675D01*
X130221963Y-106349500D01*
X130221961Y-106349500D01*
X130215892Y-106349500D01*
X120415893Y-106349500D01*
X120284108Y-106349500D01*
X120156812Y-106383608D01*
X120042686Y-106449500D01*
X120042683Y-106449502D01*
X118199502Y-108292683D01*
X118199500Y-108292686D01*
X118133608Y-108406812D01*
X118099500Y-108534108D01*
X118099500Y-111641324D01*
X118079815Y-111708363D01*
X118063181Y-111729005D01*
X117029005Y-112763181D01*
X116967682Y-112796666D01*
X116941324Y-112799500D01*
X114863675Y-112799500D01*
X114796636Y-112779815D01*
X114775994Y-112763181D01*
X113560611Y-111547797D01*
X113527126Y-111486474D01*
X113528516Y-111428026D01*
X113569134Y-111276440D01*
X113587633Y-111065000D01*
X113571623Y-110882009D01*
X113585389Y-110813510D01*
X113634005Y-110763327D01*
X113702033Y-110747393D01*
X113724099Y-110750628D01*
X113902659Y-110793497D01*
X114140000Y-110812176D01*
X114377340Y-110793497D01*
X114555900Y-110750628D01*
X114625683Y-110754119D01*
X114682500Y-110794782D01*
X114708314Y-110859708D01*
X114708376Y-110882009D01*
X114692367Y-111064997D01*
X114692367Y-111065000D01*
X114710865Y-111276435D01*
X114710867Y-111276445D01*
X114765796Y-111481447D01*
X114765798Y-111481451D01*
X114765799Y-111481455D01*
X114855499Y-111673817D01*
X114977239Y-111847679D01*
X115127321Y-111997761D01*
X115301183Y-112119501D01*
X115493545Y-112209201D01*
X115493551Y-112209202D01*
X115493552Y-112209203D01*
X115542898Y-112222425D01*
X115698560Y-112264134D01*
X115867712Y-112278933D01*
X115909999Y-112282633D01*
X115910000Y-112282633D01*
X115910001Y-112282633D01*
X115945240Y-112279549D01*
X116121440Y-112264134D01*
X116326455Y-112209201D01*
X116518817Y-112119501D01*
X116692679Y-111997761D01*
X116842761Y-111847679D01*
X116964501Y-111673817D01*
X117054201Y-111481455D01*
X117109134Y-111276440D01*
X117127633Y-111065000D01*
X117109134Y-110853560D01*
X117054201Y-110648545D01*
X116964501Y-110456184D01*
X116912778Y-110382316D01*
X116842762Y-110282322D01*
X116784084Y-110223644D01*
X116692679Y-110132239D01*
X116603763Y-110069979D01*
X116518823Y-110010503D01*
X116518817Y-110010499D01*
X116475843Y-109990460D01*
X116326455Y-109920799D01*
X116326451Y-109920798D01*
X116326447Y-109920796D01*
X116121445Y-109865867D01*
X116121435Y-109865865D01*
X115910001Y-109847367D01*
X115909998Y-109847367D01*
X115727009Y-109863376D01*
X115658509Y-109849609D01*
X115608326Y-109800994D01*
X115592393Y-109732965D01*
X115595628Y-109710900D01*
X115638497Y-109532340D01*
X115657176Y-109295000D01*
X115638497Y-109057659D01*
X115595628Y-108879099D01*
X115599119Y-108809316D01*
X115639782Y-108752498D01*
X115704709Y-108726685D01*
X115727008Y-108726623D01*
X115827211Y-108735389D01*
X115909999Y-108742633D01*
X115910000Y-108742633D01*
X115910001Y-108742633D01*
X115945240Y-108739549D01*
X116121440Y-108724134D01*
X116326455Y-108669201D01*
X116518817Y-108579501D01*
X116692679Y-108457761D01*
X116842761Y-108307679D01*
X116964501Y-108133817D01*
X117054201Y-107941455D01*
X117109134Y-107736440D01*
X117127633Y-107525000D01*
X117109134Y-107313560D01*
X117054201Y-107108545D01*
X117017093Y-107028969D01*
X117006602Y-106959894D01*
X117035121Y-106896110D01*
X117041782Y-106888899D01*
X117843863Y-106086819D01*
X117905186Y-106053334D01*
X117931544Y-106050500D01*
X137686105Y-106050500D01*
X137753144Y-106070185D01*
X137767312Y-106080790D01*
X137768866Y-106082137D01*
X137768872Y-106082143D01*
X137889947Y-106159953D01*
X137889950Y-106159954D01*
X137889949Y-106159954D01*
X138028036Y-106200499D01*
X138028038Y-106200500D01*
X138028039Y-106200500D01*
X138171962Y-106200500D01*
X138171962Y-106200499D01*
X138310053Y-106159953D01*
X138431128Y-106082143D01*
X138525377Y-105973373D01*
X138585165Y-105842457D01*
X138605647Y-105700000D01*
X138585165Y-105557543D01*
X138578658Y-105543296D01*
X138568715Y-105474141D01*
X138597739Y-105410585D01*
X138656516Y-105372809D01*
X138726386Y-105372808D01*
X138779134Y-105404105D01*
X146763181Y-113388152D01*
X146796666Y-113449475D01*
X146799500Y-113475833D01*
X146799500Y-116460438D01*
X146799500Y-116539562D01*
X146807663Y-116570026D01*
X146819979Y-116615990D01*
X146819980Y-116615991D01*
X146847698Y-116664000D01*
X146864171Y-116731900D01*
X146841318Y-116797927D01*
X146786397Y-116841118D01*
X146740311Y-116850000D01*
X109124000Y-116850000D01*
X109056961Y-116830315D01*
X109011206Y-116777511D01*
X109000000Y-116726000D01*
X109000000Y-96940000D01*
X104784000Y-96940000D01*
X104716961Y-96920315D01*
X104671206Y-96867511D01*
X104660000Y-96816000D01*
X104660000Y-86774286D01*
X104679685Y-86707247D01*
X104732489Y-86661492D01*
X104784284Y-86650286D01*
X109000000Y-86660000D01*
X109000000Y-86659999D01*
X109000000Y-83774000D01*
X109019685Y-83706961D01*
X109072489Y-83661206D01*
X109124000Y-83650000D01*
X118062338Y-83650000D01*
X118129377Y-83669685D01*
X118175132Y-83722489D01*
X118185076Y-83791647D01*
X118175130Y-83825516D01*
X118157088Y-83865018D01*
X118151687Y-83875495D01*
X118133607Y-83906813D01*
X118133606Y-83906816D01*
X118130046Y-83920103D01*
X118123069Y-83939511D01*
X118114835Y-83957541D01*
X118109886Y-83991956D01*
X118106925Y-84006394D01*
X118099500Y-84034105D01*
X118099500Y-84055331D01*
X118098238Y-84072977D01*
X118094353Y-84099999D01*
X118098238Y-84127020D01*
X118099500Y-84144667D01*
X118099500Y-84165894D01*
X118106923Y-84193596D01*
X118109885Y-84208037D01*
X118114835Y-84242456D01*
X118114837Y-84242464D01*
X118123069Y-84260489D01*
X118130050Y-84279907D01*
X118133607Y-84293183D01*
X118133610Y-84293190D01*
X118151681Y-84324491D01*
X118157086Y-84334974D01*
X118174623Y-84373373D01*
X118182694Y-84382687D01*
X118196368Y-84401890D01*
X118199497Y-84407310D01*
X118199501Y-84407315D01*
X118230322Y-84438136D01*
X118236354Y-84444615D01*
X118268870Y-84482141D01*
X118268874Y-84482145D01*
X118272928Y-84484750D01*
X118288211Y-84497066D01*
X118292684Y-84500498D01*
X118292686Y-84500500D01*
X118336887Y-84526019D01*
X118341871Y-84529056D01*
X118389947Y-84559953D01*
X118389950Y-84559954D01*
X118389952Y-84559955D01*
X118390994Y-84560431D01*
X118400621Y-84563827D01*
X118406811Y-84566390D01*
X118406814Y-84566392D01*
X118463246Y-84581512D01*
X118463261Y-84581516D01*
X118466098Y-84582312D01*
X118528039Y-84600500D01*
X121171963Y-84600500D01*
X121171963Y-84600499D01*
X121210226Y-84589263D01*
X121233902Y-84582312D01*
X121236681Y-84581531D01*
X121293186Y-84566392D01*
X121293189Y-84566389D01*
X121299367Y-84563832D01*
X121308996Y-84560434D01*
X121310045Y-84559955D01*
X121310053Y-84559953D01*
X121358087Y-84529082D01*
X121363102Y-84526025D01*
X121407314Y-84500500D01*
X121407321Y-84500492D01*
X121411828Y-84497035D01*
X121427067Y-84484752D01*
X121431128Y-84482143D01*
X121463653Y-84444605D01*
X121469673Y-84438140D01*
X121469677Y-84438136D01*
X121500500Y-84407314D01*
X121503628Y-84401894D01*
X121517306Y-84382687D01*
X121525377Y-84373373D01*
X121542912Y-84334974D01*
X121548311Y-84324502D01*
X121566392Y-84293186D01*
X121569952Y-84279898D01*
X121576934Y-84260479D01*
X121585164Y-84242459D01*
X121585163Y-84242459D01*
X121585165Y-84242457D01*
X121590111Y-84208053D01*
X121593074Y-84193606D01*
X121594263Y-84189165D01*
X121600500Y-84165892D01*
X121600500Y-84144667D01*
X121601762Y-84127020D01*
X121605647Y-84099999D01*
X121601762Y-84072977D01*
X121600500Y-84055331D01*
X121600500Y-84034110D01*
X121600500Y-84034108D01*
X121593073Y-84006390D01*
X121590111Y-83991946D01*
X121585165Y-83957545D01*
X121585165Y-83957543D01*
X121576928Y-83939509D01*
X121569949Y-83920091D01*
X121566431Y-83906961D01*
X121566392Y-83906814D01*
X121548316Y-83875506D01*
X121542911Y-83865020D01*
X121525380Y-83826633D01*
X121525379Y-83826631D01*
X121525377Y-83826627D01*
X121525372Y-83826621D01*
X121517306Y-83817312D01*
X121503628Y-83798104D01*
X121500499Y-83792685D01*
X121469677Y-83761863D01*
X121463659Y-83755401D01*
X121431128Y-83717857D01*
X121431125Y-83717854D01*
X121427066Y-83715246D01*
X121411793Y-83702937D01*
X121407318Y-83699504D01*
X121407314Y-83699500D01*
X121395404Y-83692623D01*
X121363121Y-83673984D01*
X121358085Y-83670915D01*
X121325540Y-83650000D01*
X121310053Y-83640047D01*
X121310051Y-83640046D01*
X121310049Y-83640045D01*
X121309004Y-83639567D01*
X121299375Y-83636171D01*
X121293192Y-83633610D01*
X121293187Y-83633608D01*
X121293186Y-83633608D01*
X121236701Y-83618473D01*
X121233862Y-83617675D01*
X121171963Y-83599500D01*
X121171961Y-83599500D01*
X121165892Y-83599500D01*
X120624000Y-83599500D01*
X120556961Y-83579815D01*
X120511206Y-83527011D01*
X120500000Y-83475500D01*
X120500000Y-80000000D01*
X121232843Y-80000000D01*
X121251426Y-80188681D01*
X121251427Y-80188683D01*
X121306463Y-80370115D01*
X121306464Y-80370118D01*
X121306465Y-80370119D01*
X121306466Y-80370122D01*
X121395834Y-80537318D01*
X121395838Y-80537325D01*
X121516116Y-80683883D01*
X121662674Y-80804161D01*
X121662681Y-80804165D01*
X121829877Y-80893533D01*
X121829878Y-80893533D01*
X121829885Y-80893537D01*
X122011317Y-80948573D01*
X122011316Y-80948573D01*
X122023612Y-80949784D01*
X122200000Y-80967157D01*
X122388683Y-80948573D01*
X122570115Y-80893537D01*
X122737324Y-80804162D01*
X122883883Y-80683883D01*
X123004162Y-80537324D01*
X123093537Y-80370115D01*
X123148573Y-80188683D01*
X123167157Y-80000000D01*
X123148573Y-79811317D01*
X123093537Y-79629885D01*
X123004162Y-79462676D01*
X123004161Y-79462674D01*
X122883883Y-79316116D01*
X122737325Y-79195838D01*
X122737318Y-79195834D01*
X122570122Y-79106466D01*
X122570119Y-79106465D01*
X122570118Y-79106464D01*
X122570115Y-79106463D01*
X122388683Y-79051427D01*
X122388681Y-79051426D01*
X122388683Y-79051426D01*
X122200000Y-79032843D01*
X122011318Y-79051426D01*
X121904194Y-79083921D01*
X121829885Y-79106463D01*
X121829882Y-79106464D01*
X121829880Y-79106465D01*
X121829877Y-79106466D01*
X121662681Y-79195834D01*
X121662674Y-79195838D01*
X121516116Y-79316116D01*
X121395838Y-79462674D01*
X121395834Y-79462681D01*
X121306466Y-79629877D01*
X121306465Y-79629880D01*
X121251426Y-79811318D01*
X121232843Y-80000000D01*
X120500000Y-80000000D01*
X120500000Y-77499999D01*
X120933179Y-77499999D01*
X120933179Y-77500000D01*
X120952424Y-77719976D01*
X120952426Y-77719986D01*
X121009575Y-77933270D01*
X121009580Y-77933284D01*
X121102898Y-78133405D01*
X121102901Y-78133411D01*
X121148258Y-78198187D01*
X121148259Y-78198188D01*
X121676212Y-77670234D01*
X121687482Y-77712292D01*
X121759890Y-77837708D01*
X121862292Y-77940110D01*
X121987708Y-78012518D01*
X122029764Y-78023787D01*
X121501810Y-78551740D01*
X121566590Y-78597099D01*
X121566592Y-78597100D01*
X121766715Y-78690419D01*
X121766729Y-78690424D01*
X121980013Y-78747573D01*
X121980023Y-78747575D01*
X122199999Y-78766821D01*
X122200001Y-78766821D01*
X122419976Y-78747575D01*
X122419986Y-78747573D01*
X122633270Y-78690424D01*
X122633284Y-78690419D01*
X122833407Y-78597100D01*
X122833417Y-78597094D01*
X122898188Y-78551741D01*
X122370235Y-78023787D01*
X122412292Y-78012518D01*
X122537708Y-77940110D01*
X122640110Y-77837708D01*
X122712518Y-77712292D01*
X122723787Y-77670234D01*
X123251741Y-78198188D01*
X123297094Y-78133417D01*
X123297100Y-78133407D01*
X123390419Y-77933284D01*
X123390424Y-77933270D01*
X123447573Y-77719986D01*
X123447575Y-77719976D01*
X123466821Y-77500000D01*
X123466821Y-77499999D01*
X123447575Y-77280023D01*
X123447573Y-77280013D01*
X123390424Y-77066729D01*
X123390420Y-77066720D01*
X123297096Y-76866586D01*
X123251741Y-76801811D01*
X123251740Y-76801810D01*
X122723787Y-77329764D01*
X122712518Y-77287708D01*
X122640110Y-77162292D01*
X122537708Y-77059890D01*
X122412292Y-76987482D01*
X122370235Y-76976212D01*
X122898188Y-76448259D01*
X122898187Y-76448258D01*
X122833411Y-76402901D01*
X122833405Y-76402898D01*
X122633284Y-76309580D01*
X122633270Y-76309575D01*
X122419986Y-76252426D01*
X122419976Y-76252424D01*
X122200001Y-76233179D01*
X122199999Y-76233179D01*
X121980023Y-76252424D01*
X121980013Y-76252426D01*
X121766729Y-76309575D01*
X121766720Y-76309579D01*
X121566590Y-76402901D01*
X121501811Y-76448258D01*
X122029765Y-76976212D01*
X121987708Y-76987482D01*
X121862292Y-77059890D01*
X121759890Y-77162292D01*
X121687482Y-77287708D01*
X121676212Y-77329765D01*
X121148258Y-76801811D01*
X121102901Y-76866590D01*
X121009579Y-77066720D01*
X121009575Y-77066729D01*
X120952426Y-77280013D01*
X120952424Y-77280023D01*
X120933179Y-77499999D01*
X120500000Y-77499999D01*
X120500000Y-73974000D01*
X120519685Y-73906961D01*
X120572489Y-73861206D01*
X120624000Y-73850000D01*
X121839392Y-73850000D01*
X121906431Y-73869685D01*
G37*
%TD.AperFunction*%
%TA.AperFunction,Conductor*%
G36*
X157040000Y-114466988D02*
G01*
X156982993Y-114434075D01*
X156855826Y-114400000D01*
X156724174Y-114400000D01*
X156597007Y-114434075D01*
X156540000Y-114466988D01*
X156540000Y-112793012D01*
X156597007Y-112825925D01*
X156724174Y-112860000D01*
X156855826Y-112860000D01*
X156982993Y-112825925D01*
X157040000Y-112793012D01*
X157040000Y-114466988D01*
G37*
%TD.AperFunction*%
%TD*%
M02*
