M48
; DRILL file {KiCad 8.0.8} date 2025-03-06T23:44:42+0900
; FORMAT={-:-/ absolute / inch / decimal}
; #@! TF.CreationDate,2025-03-06T23:44:42+09:00
; #@! TF.GenerationSoftware,Kicad,Pcbnew,8.0.8
; #@! TF.FileFunction,Plated,1,2,PTH
FMAT,2
INCH
; #@! TA.AperFunction,Plated,PTH,ViaDrill
T1C0.0118
; #@! TA.AperFunction,Plated,PTH,ComponentDrill
T2C0.0394
; #@! TA.AperFunction,Plated,PTH,ComponentDrill
T3C0.0433
; #@! TA.AperFunction,Plated,PTH,ComponentDrill
T4C0.0472
; #@! TA.AperFunction,Plated,PTH,ComponentDrill
T5C0.0709
; #@! TA.AperFunction,Plated,PTH,ComponentDrill
T6C0.1181
; #@! TA.AperFunction,Plated,PTH,ComponentDrill
T7C0.1260
%
G90
G05
T1
X3.4882Y-3.687
X3.6752Y-3.437
X3.6752Y-3.537
X3.6764Y-3.687
X4.2311Y-3.5453
X4.3528Y-3.8185
X4.4311Y-3.5453
X4.5591Y-3.6988
X4.6693Y-3.311
X4.6929Y-3.9508
X4.7677Y-3.311
X4.7697Y-4.1594
X4.7835Y-3.9803
X4.8228Y-3.6654
X4.8976Y-4.1614
X4.9803Y-3.8012
X5.0413Y-3.6516
X5.0453Y-3.4291
X5.0748Y-3.2362
X5.1063Y-3.9193
X5.124Y-4.2067
X5.1949Y-4.2697
X5.3051Y-3.9213
X5.3051Y-4.0472
X5.3189Y-3.0335
X5.3297Y-3.2126
X5.3297Y-3.2874
X5.3297Y-3.3602
X5.3297Y-3.4272
X5.372Y-4.1181
X5.3937Y-3.2126
X5.4173Y-3.4272
X5.4173Y-3.4823
X5.4232Y-3.6181
X5.437Y-4.1614
X5.4449Y-3.7677
X5.4587Y-3.1791
X5.4587Y-3.2126
X5.4724Y-3.7953
X5.4941Y-3.4331
X5.5197Y-3.9075
X5.5217Y-3.6634
X5.5256Y-3.2126
X5.5312Y-4.0587
X5.5472Y-3.6299
X5.5906Y-3.2126
X5.5906Y-3.2894
X5.5906Y-3.3602
X5.5906Y-3.4331
X5.5994Y-4.3947
X5.6161Y-3.1201
X5.6161Y-3.2126
X5.6161Y-3.2894
X5.6161Y-3.3602
X5.6161Y-3.4331
X5.6757Y-3.4768
X5.6831Y-3.0856
X5.6831Y-3.1201
X5.6929Y-4.061
X5.752Y-3.1201
X5.752Y-3.2087
X5.752Y-3.2972
X5.752Y-3.3858
X5.752Y-3.4764
X5.7675Y-4.1612
X5.7736Y-3.7717
X5.7736Y-3.937
X5.7736Y-4.1201
X5.8228Y-3.4488
X6.0531Y-4.1004
X6.2106Y-4.2126
X6.2106Y-4.3366
T2
X5.8157Y-4.4276
X5.8157Y-4.5276
X5.9157Y-4.4276
X5.9157Y-4.5276
X6.0157Y-4.4276
X6.0157Y-4.5276
X6.1157Y-4.4276
X6.1157Y-4.5276
T3
X4.811Y-2.9528
X4.811Y-3.0512
X4.811Y-3.1496
T4
X4.1339Y-3.0197
X4.6063Y-1.878
T5
X3.4902Y-4.158
X3.4902Y-4.3745
X4.3701Y-4.158
X4.3701Y-4.3745
X4.5354Y-4.158
X4.5354Y-4.3745
T6
X3.3661Y-3.0354
X3.7717Y-1.9528
X4.9921Y-1.9528
X6.378Y-4.4724
X6.5157Y-3.0354
T7
X3.313Y-4.5398
X3.6673Y-4.5398
X4.1929Y-4.5398
X4.7126Y-4.5398
M30
