M48
; DRILL file {KiCad 8.0.5} date 2024-10-10T02:04:09+0900
; FORMAT={-:-/ absolute / inch / decimal}
; #@! TF.CreationDate,2024-10-10T02:04:09+09:00
; #@! TF.GenerationSoftware,Kicad,Pcbnew,8.0.5
; #@! TF.FileFunction,Plated,1,2,PTH
FMAT,2
INCH
; #@! TA.AperFunction,Plated,PTH,ViaDrill
T1C0.0118
; #@! TA.AperFunction,Plated,PTH,ComponentDrill
T2C0.0394
; #@! TA.AperFunction,Plated,PTH,ComponentDrill
T3C0.0433
; #@! TA.AperFunction,Plated,PTH,ComponentDrill
T4C0.0472
; #@! TA.AperFunction,Plated,PTH,ComponentDrill
T5C0.0531
; #@! TA.AperFunction,Plated,PTH,ComponentDrill
T6C0.0709
; #@! TA.AperFunction,Plated,PTH,ComponentDrill
T7C0.1181
; #@! TA.AperFunction,Plated,PTH,ComponentDrill
T8C0.1260
%
G90
G05
T1
X3.4803Y-3.687
X3.6752Y-3.437
X3.6752Y-3.537
X3.6764Y-3.687
X4.2311Y-3.5453
X4.3528Y-3.8185
X4.4311Y-3.5453
X4.5591Y-3.6988
X4.6693Y-3.311
X4.6929Y-3.9508
X4.7677Y-3.311
X4.7835Y-3.9803
X4.8228Y-3.6654
X4.9547Y-3.8268
X5.0413Y-3.6516
X5.0453Y-3.4291
X5.0748Y-3.2362
X5.1063Y-3.9193
X5.124Y-4.2067
X5.1772Y-4.252
X5.2815Y-3.0138
X5.3268Y-3.7854
X5.3474Y-3.3091
X5.3474Y-3.3642
X5.3474Y-3.4193
X5.3474Y-3.4705
X5.3504Y-3.2421
X5.3583Y-4.0512
X5.372Y-4.1181
X5.3868Y-3.4705
X5.4085Y-3.3091
X5.4114Y-3.9232
X5.4232Y-3.6102
X5.437Y-3.4705
X5.437Y-4.1614
X5.4449Y-3.7087
X5.4675Y-3.3091
X5.4724Y-3.7323
X5.4882Y-3.4705
X5.502Y-3.8445
X5.5049Y-3.4488
X5.5079Y-3.2618
X5.5079Y-3.3484
X5.5312Y-4.0587
X5.5344Y-3.3091
X5.5492Y-3.627
X5.5502Y-3.4488
X5.5935Y-3.3091
X5.5935Y-3.3799
X5.5935Y-3.4488
X5.5994Y-4.3947
X5.6437Y-4.0925
X5.7008Y-3.3957
X5.7008Y-3.9035
X5.7165Y-3.9547
X5.7598Y-3.9941
X5.7618Y-4.1772
X5.7923Y-3.812
X5.815Y-4.2913
X5.8701Y-3.8031
X5.9134Y-4.1004
X5.9252Y-4.0138
T2
X5.8728Y-4.4236
X5.8728Y-4.5236
X5.9728Y-4.4236
X5.9728Y-4.5236
X6.0728Y-4.4236
X6.0728Y-4.5236
X6.1728Y-4.4236
X6.1728Y-4.5236
T3
X4.811Y-2.9528
X4.811Y-3.0512
X4.811Y-3.1496
T4
X4.1339Y-3.0197
X4.6063Y-1.878
T5
X4.424Y-4.2333
X4.424Y-4.3726
X4.4937Y-4.303
X4.5634Y-4.2333
X4.5634Y-4.3726
T6
X3.4902Y-4.1122
X3.4902Y-4.3287
T7
X3.3661Y-3.0354
X3.7717Y-1.9528
X4.9921Y-1.9528
X6.5157Y-3.0354
X6.5157Y-4.4724
T8
X3.313Y-4.4941
X3.6673Y-4.4941
M30
