%TF.GenerationSoftware,KiCad,Pcbnew,8.0.6*%
%TF.CreationDate,2025-01-24T04:36:41+09:00*%
%TF.ProjectId,fsk-energymeter,66736b2d-656e-4657-9267-796d65746572,v0.0.1*%
%TF.SameCoordinates,Original*%
%TF.FileFunction,Other,Comment*%
%FSLAX46Y46*%
G04 Gerber Fmt 4.6, Leading zero omitted, Abs format (unit mm)*
G04 Created by KiCad (PCBNEW 8.0.6) date 2025-01-24 04:36:41*
%MOMM*%
%LPD*%
G01*
G04 APERTURE LIST*
%ADD10C,0.150000*%
%ADD11C,0.100000*%
G04 APERTURE END LIST*
D10*
X75874820Y-86266665D02*
X75874820Y-85599999D01*
X75874820Y-85599999D02*
X76874820Y-86028570D01*
X76208153Y-84790475D02*
X76874820Y-84790475D01*
X75827201Y-85028570D02*
X76541486Y-85266665D01*
X76541486Y-85266665D02*
X76541486Y-84647618D01*
X76779581Y-84266665D02*
X76827201Y-84219046D01*
X76827201Y-84219046D02*
X76874820Y-84266665D01*
X76874820Y-84266665D02*
X76827201Y-84314284D01*
X76827201Y-84314284D02*
X76779581Y-84266665D01*
X76779581Y-84266665D02*
X76874820Y-84266665D01*
X75874820Y-83599999D02*
X75874820Y-83504761D01*
X75874820Y-83504761D02*
X75922439Y-83409523D01*
X75922439Y-83409523D02*
X75970058Y-83361904D01*
X75970058Y-83361904D02*
X76065296Y-83314285D01*
X76065296Y-83314285D02*
X76255772Y-83266666D01*
X76255772Y-83266666D02*
X76493867Y-83266666D01*
X76493867Y-83266666D02*
X76684343Y-83314285D01*
X76684343Y-83314285D02*
X76779581Y-83361904D01*
X76779581Y-83361904D02*
X76827201Y-83409523D01*
X76827201Y-83409523D02*
X76874820Y-83504761D01*
X76874820Y-83504761D02*
X76874820Y-83599999D01*
X76874820Y-83599999D02*
X76827201Y-83695237D01*
X76827201Y-83695237D02*
X76779581Y-83742856D01*
X76779581Y-83742856D02*
X76684343Y-83790475D01*
X76684343Y-83790475D02*
X76493867Y-83838094D01*
X76493867Y-83838094D02*
X76255772Y-83838094D01*
X76255772Y-83838094D02*
X76065296Y-83790475D01*
X76065296Y-83790475D02*
X75970058Y-83742856D01*
X75970058Y-83742856D02*
X75922439Y-83695237D01*
X75922439Y-83695237D02*
X75874820Y-83599999D01*
X75874820Y-82647618D02*
X75874820Y-82552380D01*
X75874820Y-82552380D02*
X75922439Y-82457142D01*
X75922439Y-82457142D02*
X75970058Y-82409523D01*
X75970058Y-82409523D02*
X76065296Y-82361904D01*
X76065296Y-82361904D02*
X76255772Y-82314285D01*
X76255772Y-82314285D02*
X76493867Y-82314285D01*
X76493867Y-82314285D02*
X76684343Y-82361904D01*
X76684343Y-82361904D02*
X76779581Y-82409523D01*
X76779581Y-82409523D02*
X76827201Y-82457142D01*
X76827201Y-82457142D02*
X76874820Y-82552380D01*
X76874820Y-82552380D02*
X76874820Y-82647618D01*
X76874820Y-82647618D02*
X76827201Y-82742856D01*
X76827201Y-82742856D02*
X76779581Y-82790475D01*
X76779581Y-82790475D02*
X76684343Y-82838094D01*
X76684343Y-82838094D02*
X76493867Y-82885713D01*
X76493867Y-82885713D02*
X76255772Y-82885713D01*
X76255772Y-82885713D02*
X76065296Y-82838094D01*
X76065296Y-82838094D02*
X75970058Y-82790475D01*
X75970058Y-82790475D02*
X75922439Y-82742856D01*
X75922439Y-82742856D02*
X75874820Y-82647618D01*
X75874820Y-81695237D02*
X75874820Y-81599999D01*
X75874820Y-81599999D02*
X75922439Y-81504761D01*
X75922439Y-81504761D02*
X75970058Y-81457142D01*
X75970058Y-81457142D02*
X76065296Y-81409523D01*
X76065296Y-81409523D02*
X76255772Y-81361904D01*
X76255772Y-81361904D02*
X76493867Y-81361904D01*
X76493867Y-81361904D02*
X76684343Y-81409523D01*
X76684343Y-81409523D02*
X76779581Y-81457142D01*
X76779581Y-81457142D02*
X76827201Y-81504761D01*
X76827201Y-81504761D02*
X76874820Y-81599999D01*
X76874820Y-81599999D02*
X76874820Y-81695237D01*
X76874820Y-81695237D02*
X76827201Y-81790475D01*
X76827201Y-81790475D02*
X76779581Y-81838094D01*
X76779581Y-81838094D02*
X76684343Y-81885713D01*
X76684343Y-81885713D02*
X76493867Y-81933332D01*
X76493867Y-81933332D02*
X76255772Y-81933332D01*
X76255772Y-81933332D02*
X76065296Y-81885713D01*
X76065296Y-81885713D02*
X75970058Y-81838094D01*
X75970058Y-81838094D02*
X75922439Y-81790475D01*
X75922439Y-81790475D02*
X75874820Y-81695237D01*
X75874820Y-80742856D02*
X75874820Y-80647618D01*
X75874820Y-80647618D02*
X75922439Y-80552380D01*
X75922439Y-80552380D02*
X75970058Y-80504761D01*
X75970058Y-80504761D02*
X76065296Y-80457142D01*
X76065296Y-80457142D02*
X76255772Y-80409523D01*
X76255772Y-80409523D02*
X76493867Y-80409523D01*
X76493867Y-80409523D02*
X76684343Y-80457142D01*
X76684343Y-80457142D02*
X76779581Y-80504761D01*
X76779581Y-80504761D02*
X76827201Y-80552380D01*
X76827201Y-80552380D02*
X76874820Y-80647618D01*
X76874820Y-80647618D02*
X76874820Y-80742856D01*
X76874820Y-80742856D02*
X76827201Y-80838094D01*
X76827201Y-80838094D02*
X76779581Y-80885713D01*
X76779581Y-80885713D02*
X76684343Y-80933332D01*
X76684343Y-80933332D02*
X76493867Y-80980951D01*
X76493867Y-80980951D02*
X76255772Y-80980951D01*
X76255772Y-80980951D02*
X76065296Y-80933332D01*
X76065296Y-80933332D02*
X75970058Y-80885713D01*
X75970058Y-80885713D02*
X75922439Y-80838094D01*
X75922439Y-80838094D02*
X75874820Y-80742856D01*
X76874820Y-79219046D02*
X76208153Y-79219046D01*
X76303391Y-79219046D02*
X76255772Y-79171427D01*
X76255772Y-79171427D02*
X76208153Y-79076189D01*
X76208153Y-79076189D02*
X76208153Y-78933332D01*
X76208153Y-78933332D02*
X76255772Y-78838094D01*
X76255772Y-78838094D02*
X76351010Y-78790475D01*
X76351010Y-78790475D02*
X76874820Y-78790475D01*
X76351010Y-78790475D02*
X76255772Y-78742856D01*
X76255772Y-78742856D02*
X76208153Y-78647618D01*
X76208153Y-78647618D02*
X76208153Y-78504761D01*
X76208153Y-78504761D02*
X76255772Y-78409522D01*
X76255772Y-78409522D02*
X76351010Y-78361903D01*
X76351010Y-78361903D02*
X76874820Y-78361903D01*
X76874820Y-77885713D02*
X76208153Y-77885713D01*
X76303391Y-77885713D02*
X76255772Y-77838094D01*
X76255772Y-77838094D02*
X76208153Y-77742856D01*
X76208153Y-77742856D02*
X76208153Y-77599999D01*
X76208153Y-77599999D02*
X76255772Y-77504761D01*
X76255772Y-77504761D02*
X76351010Y-77457142D01*
X76351010Y-77457142D02*
X76874820Y-77457142D01*
X76351010Y-77457142D02*
X76255772Y-77409523D01*
X76255772Y-77409523D02*
X76208153Y-77314285D01*
X76208153Y-77314285D02*
X76208153Y-77171428D01*
X76208153Y-77171428D02*
X76255772Y-77076189D01*
X76255772Y-77076189D02*
X76351010Y-77028570D01*
X76351010Y-77028570D02*
X76874820Y-77028570D01*
D11*
X92800000Y-44600000D02*
X76983581Y-44600000D01*
X92800000Y-118600000D02*
X76983581Y-118600000D01*
X77570001Y-44600000D02*
X77570001Y-118600000D01*
X77570001Y-44600000D02*
X77570001Y-118600000D01*
X77570001Y-44600000D02*
X78156422Y-45726504D01*
X77570001Y-44600000D02*
X76983580Y-45726504D01*
X77570001Y-118600000D02*
X76983580Y-117473496D01*
X77570001Y-118600000D02*
X78156422Y-117473496D01*
D10*
X120976191Y-127254819D02*
X121166667Y-127254819D01*
X121166667Y-127254819D02*
X121261905Y-127207200D01*
X121261905Y-127207200D02*
X121309524Y-127159580D01*
X121309524Y-127159580D02*
X121404762Y-127016723D01*
X121404762Y-127016723D02*
X121452381Y-126826247D01*
X121452381Y-126826247D02*
X121452381Y-126445295D01*
X121452381Y-126445295D02*
X121404762Y-126350057D01*
X121404762Y-126350057D02*
X121357143Y-126302438D01*
X121357143Y-126302438D02*
X121261905Y-126254819D01*
X121261905Y-126254819D02*
X121071429Y-126254819D01*
X121071429Y-126254819D02*
X120976191Y-126302438D01*
X120976191Y-126302438D02*
X120928572Y-126350057D01*
X120928572Y-126350057D02*
X120880953Y-126445295D01*
X120880953Y-126445295D02*
X120880953Y-126683390D01*
X120880953Y-126683390D02*
X120928572Y-126778628D01*
X120928572Y-126778628D02*
X120976191Y-126826247D01*
X120976191Y-126826247D02*
X121071429Y-126873866D01*
X121071429Y-126873866D02*
X121261905Y-126873866D01*
X121261905Y-126873866D02*
X121357143Y-126826247D01*
X121357143Y-126826247D02*
X121404762Y-126778628D01*
X121404762Y-126778628D02*
X121452381Y-126683390D01*
X122071429Y-126254819D02*
X122166667Y-126254819D01*
X122166667Y-126254819D02*
X122261905Y-126302438D01*
X122261905Y-126302438D02*
X122309524Y-126350057D01*
X122309524Y-126350057D02*
X122357143Y-126445295D01*
X122357143Y-126445295D02*
X122404762Y-126635771D01*
X122404762Y-126635771D02*
X122404762Y-126873866D01*
X122404762Y-126873866D02*
X122357143Y-127064342D01*
X122357143Y-127064342D02*
X122309524Y-127159580D01*
X122309524Y-127159580D02*
X122261905Y-127207200D01*
X122261905Y-127207200D02*
X122166667Y-127254819D01*
X122166667Y-127254819D02*
X122071429Y-127254819D01*
X122071429Y-127254819D02*
X121976191Y-127207200D01*
X121976191Y-127207200D02*
X121928572Y-127159580D01*
X121928572Y-127159580D02*
X121880953Y-127064342D01*
X121880953Y-127064342D02*
X121833334Y-126873866D01*
X121833334Y-126873866D02*
X121833334Y-126635771D01*
X121833334Y-126635771D02*
X121880953Y-126445295D01*
X121880953Y-126445295D02*
X121928572Y-126350057D01*
X121928572Y-126350057D02*
X121976191Y-126302438D01*
X121976191Y-126302438D02*
X122071429Y-126254819D01*
X122833334Y-127159580D02*
X122880953Y-127207200D01*
X122880953Y-127207200D02*
X122833334Y-127254819D01*
X122833334Y-127254819D02*
X122785715Y-127207200D01*
X122785715Y-127207200D02*
X122833334Y-127159580D01*
X122833334Y-127159580D02*
X122833334Y-127254819D01*
X123500000Y-126254819D02*
X123595238Y-126254819D01*
X123595238Y-126254819D02*
X123690476Y-126302438D01*
X123690476Y-126302438D02*
X123738095Y-126350057D01*
X123738095Y-126350057D02*
X123785714Y-126445295D01*
X123785714Y-126445295D02*
X123833333Y-126635771D01*
X123833333Y-126635771D02*
X123833333Y-126873866D01*
X123833333Y-126873866D02*
X123785714Y-127064342D01*
X123785714Y-127064342D02*
X123738095Y-127159580D01*
X123738095Y-127159580D02*
X123690476Y-127207200D01*
X123690476Y-127207200D02*
X123595238Y-127254819D01*
X123595238Y-127254819D02*
X123500000Y-127254819D01*
X123500000Y-127254819D02*
X123404762Y-127207200D01*
X123404762Y-127207200D02*
X123357143Y-127159580D01*
X123357143Y-127159580D02*
X123309524Y-127064342D01*
X123309524Y-127064342D02*
X123261905Y-126873866D01*
X123261905Y-126873866D02*
X123261905Y-126635771D01*
X123261905Y-126635771D02*
X123309524Y-126445295D01*
X123309524Y-126445295D02*
X123357143Y-126350057D01*
X123357143Y-126350057D02*
X123404762Y-126302438D01*
X123404762Y-126302438D02*
X123500000Y-126254819D01*
X124452381Y-126254819D02*
X124547619Y-126254819D01*
X124547619Y-126254819D02*
X124642857Y-126302438D01*
X124642857Y-126302438D02*
X124690476Y-126350057D01*
X124690476Y-126350057D02*
X124738095Y-126445295D01*
X124738095Y-126445295D02*
X124785714Y-126635771D01*
X124785714Y-126635771D02*
X124785714Y-126873866D01*
X124785714Y-126873866D02*
X124738095Y-127064342D01*
X124738095Y-127064342D02*
X124690476Y-127159580D01*
X124690476Y-127159580D02*
X124642857Y-127207200D01*
X124642857Y-127207200D02*
X124547619Y-127254819D01*
X124547619Y-127254819D02*
X124452381Y-127254819D01*
X124452381Y-127254819D02*
X124357143Y-127207200D01*
X124357143Y-127207200D02*
X124309524Y-127159580D01*
X124309524Y-127159580D02*
X124261905Y-127064342D01*
X124261905Y-127064342D02*
X124214286Y-126873866D01*
X124214286Y-126873866D02*
X124214286Y-126635771D01*
X124214286Y-126635771D02*
X124261905Y-126445295D01*
X124261905Y-126445295D02*
X124309524Y-126350057D01*
X124309524Y-126350057D02*
X124357143Y-126302438D01*
X124357143Y-126302438D02*
X124452381Y-126254819D01*
X125404762Y-126254819D02*
X125500000Y-126254819D01*
X125500000Y-126254819D02*
X125595238Y-126302438D01*
X125595238Y-126302438D02*
X125642857Y-126350057D01*
X125642857Y-126350057D02*
X125690476Y-126445295D01*
X125690476Y-126445295D02*
X125738095Y-126635771D01*
X125738095Y-126635771D02*
X125738095Y-126873866D01*
X125738095Y-126873866D02*
X125690476Y-127064342D01*
X125690476Y-127064342D02*
X125642857Y-127159580D01*
X125642857Y-127159580D02*
X125595238Y-127207200D01*
X125595238Y-127207200D02*
X125500000Y-127254819D01*
X125500000Y-127254819D02*
X125404762Y-127254819D01*
X125404762Y-127254819D02*
X125309524Y-127207200D01*
X125309524Y-127207200D02*
X125261905Y-127159580D01*
X125261905Y-127159580D02*
X125214286Y-127064342D01*
X125214286Y-127064342D02*
X125166667Y-126873866D01*
X125166667Y-126873866D02*
X125166667Y-126635771D01*
X125166667Y-126635771D02*
X125214286Y-126445295D01*
X125214286Y-126445295D02*
X125261905Y-126350057D01*
X125261905Y-126350057D02*
X125309524Y-126302438D01*
X125309524Y-126302438D02*
X125404762Y-126254819D01*
X126357143Y-126254819D02*
X126452381Y-126254819D01*
X126452381Y-126254819D02*
X126547619Y-126302438D01*
X126547619Y-126302438D02*
X126595238Y-126350057D01*
X126595238Y-126350057D02*
X126642857Y-126445295D01*
X126642857Y-126445295D02*
X126690476Y-126635771D01*
X126690476Y-126635771D02*
X126690476Y-126873866D01*
X126690476Y-126873866D02*
X126642857Y-127064342D01*
X126642857Y-127064342D02*
X126595238Y-127159580D01*
X126595238Y-127159580D02*
X126547619Y-127207200D01*
X126547619Y-127207200D02*
X126452381Y-127254819D01*
X126452381Y-127254819D02*
X126357143Y-127254819D01*
X126357143Y-127254819D02*
X126261905Y-127207200D01*
X126261905Y-127207200D02*
X126214286Y-127159580D01*
X126214286Y-127159580D02*
X126166667Y-127064342D01*
X126166667Y-127064342D02*
X126119048Y-126873866D01*
X126119048Y-126873866D02*
X126119048Y-126635771D01*
X126119048Y-126635771D02*
X126166667Y-126445295D01*
X126166667Y-126445295D02*
X126214286Y-126350057D01*
X126214286Y-126350057D02*
X126261905Y-126302438D01*
X126261905Y-126302438D02*
X126357143Y-126254819D01*
X127880953Y-127254819D02*
X127880953Y-126588152D01*
X127880953Y-126683390D02*
X127928572Y-126635771D01*
X127928572Y-126635771D02*
X128023810Y-126588152D01*
X128023810Y-126588152D02*
X128166667Y-126588152D01*
X128166667Y-126588152D02*
X128261905Y-126635771D01*
X128261905Y-126635771D02*
X128309524Y-126731009D01*
X128309524Y-126731009D02*
X128309524Y-127254819D01*
X128309524Y-126731009D02*
X128357143Y-126635771D01*
X128357143Y-126635771D02*
X128452381Y-126588152D01*
X128452381Y-126588152D02*
X128595238Y-126588152D01*
X128595238Y-126588152D02*
X128690477Y-126635771D01*
X128690477Y-126635771D02*
X128738096Y-126731009D01*
X128738096Y-126731009D02*
X128738096Y-127254819D01*
X129214286Y-127254819D02*
X129214286Y-126588152D01*
X129214286Y-126683390D02*
X129261905Y-126635771D01*
X129261905Y-126635771D02*
X129357143Y-126588152D01*
X129357143Y-126588152D02*
X129500000Y-126588152D01*
X129500000Y-126588152D02*
X129595238Y-126635771D01*
X129595238Y-126635771D02*
X129642857Y-126731009D01*
X129642857Y-126731009D02*
X129642857Y-127254819D01*
X129642857Y-126731009D02*
X129690476Y-126635771D01*
X129690476Y-126635771D02*
X129785714Y-126588152D01*
X129785714Y-126588152D02*
X129928571Y-126588152D01*
X129928571Y-126588152D02*
X130023810Y-126635771D01*
X130023810Y-126635771D02*
X130071429Y-126731009D01*
X130071429Y-126731009D02*
X130071429Y-127254819D01*
D11*
X170500000Y-116600000D02*
X170500000Y-128536420D01*
X80500000Y-116600000D02*
X80500000Y-128536420D01*
X170500000Y-127950000D02*
X80500000Y-127950000D01*
X170500000Y-127950000D02*
X80500000Y-127950000D01*
X170500000Y-127950000D02*
X169373496Y-128536421D01*
X170500000Y-127950000D02*
X169373496Y-127363579D01*
X80500000Y-127950000D02*
X81626504Y-127363579D01*
X80500000Y-127950000D02*
X81626504Y-128536421D01*
D10*
X173304819Y-100016665D02*
X173304819Y-99397618D01*
X173304819Y-99397618D02*
X173685771Y-99730951D01*
X173685771Y-99730951D02*
X173685771Y-99588094D01*
X173685771Y-99588094D02*
X173733390Y-99492856D01*
X173733390Y-99492856D02*
X173781009Y-99445237D01*
X173781009Y-99445237D02*
X173876247Y-99397618D01*
X173876247Y-99397618D02*
X174114342Y-99397618D01*
X174114342Y-99397618D02*
X174209580Y-99445237D01*
X174209580Y-99445237D02*
X174257200Y-99492856D01*
X174257200Y-99492856D02*
X174304819Y-99588094D01*
X174304819Y-99588094D02*
X174304819Y-99873808D01*
X174304819Y-99873808D02*
X174257200Y-99969046D01*
X174257200Y-99969046D02*
X174209580Y-100016665D01*
X173304819Y-98540475D02*
X173304819Y-98730951D01*
X173304819Y-98730951D02*
X173352438Y-98826189D01*
X173352438Y-98826189D02*
X173400057Y-98873808D01*
X173400057Y-98873808D02*
X173542914Y-98969046D01*
X173542914Y-98969046D02*
X173733390Y-99016665D01*
X173733390Y-99016665D02*
X174114342Y-99016665D01*
X174114342Y-99016665D02*
X174209580Y-98969046D01*
X174209580Y-98969046D02*
X174257200Y-98921427D01*
X174257200Y-98921427D02*
X174304819Y-98826189D01*
X174304819Y-98826189D02*
X174304819Y-98635713D01*
X174304819Y-98635713D02*
X174257200Y-98540475D01*
X174257200Y-98540475D02*
X174209580Y-98492856D01*
X174209580Y-98492856D02*
X174114342Y-98445237D01*
X174114342Y-98445237D02*
X173876247Y-98445237D01*
X173876247Y-98445237D02*
X173781009Y-98492856D01*
X173781009Y-98492856D02*
X173733390Y-98540475D01*
X173733390Y-98540475D02*
X173685771Y-98635713D01*
X173685771Y-98635713D02*
X173685771Y-98826189D01*
X173685771Y-98826189D02*
X173733390Y-98921427D01*
X173733390Y-98921427D02*
X173781009Y-98969046D01*
X173781009Y-98969046D02*
X173876247Y-99016665D01*
X174209580Y-98016665D02*
X174257200Y-97969046D01*
X174257200Y-97969046D02*
X174304819Y-98016665D01*
X174304819Y-98016665D02*
X174257200Y-98064284D01*
X174257200Y-98064284D02*
X174209580Y-98016665D01*
X174209580Y-98016665D02*
X174304819Y-98016665D01*
X173304819Y-97064285D02*
X173304819Y-97540475D01*
X173304819Y-97540475D02*
X173781009Y-97588094D01*
X173781009Y-97588094D02*
X173733390Y-97540475D01*
X173733390Y-97540475D02*
X173685771Y-97445237D01*
X173685771Y-97445237D02*
X173685771Y-97207142D01*
X173685771Y-97207142D02*
X173733390Y-97111904D01*
X173733390Y-97111904D02*
X173781009Y-97064285D01*
X173781009Y-97064285D02*
X173876247Y-97016666D01*
X173876247Y-97016666D02*
X174114342Y-97016666D01*
X174114342Y-97016666D02*
X174209580Y-97064285D01*
X174209580Y-97064285D02*
X174257200Y-97111904D01*
X174257200Y-97111904D02*
X174304819Y-97207142D01*
X174304819Y-97207142D02*
X174304819Y-97445237D01*
X174304819Y-97445237D02*
X174257200Y-97540475D01*
X174257200Y-97540475D02*
X174209580Y-97588094D01*
X173304819Y-96397618D02*
X173304819Y-96302380D01*
X173304819Y-96302380D02*
X173352438Y-96207142D01*
X173352438Y-96207142D02*
X173400057Y-96159523D01*
X173400057Y-96159523D02*
X173495295Y-96111904D01*
X173495295Y-96111904D02*
X173685771Y-96064285D01*
X173685771Y-96064285D02*
X173923866Y-96064285D01*
X173923866Y-96064285D02*
X174114342Y-96111904D01*
X174114342Y-96111904D02*
X174209580Y-96159523D01*
X174209580Y-96159523D02*
X174257200Y-96207142D01*
X174257200Y-96207142D02*
X174304819Y-96302380D01*
X174304819Y-96302380D02*
X174304819Y-96397618D01*
X174304819Y-96397618D02*
X174257200Y-96492856D01*
X174257200Y-96492856D02*
X174209580Y-96540475D01*
X174209580Y-96540475D02*
X174114342Y-96588094D01*
X174114342Y-96588094D02*
X173923866Y-96635713D01*
X173923866Y-96635713D02*
X173685771Y-96635713D01*
X173685771Y-96635713D02*
X173495295Y-96588094D01*
X173495295Y-96588094D02*
X173400057Y-96540475D01*
X173400057Y-96540475D02*
X173352438Y-96492856D01*
X173352438Y-96492856D02*
X173304819Y-96397618D01*
X173304819Y-95445237D02*
X173304819Y-95349999D01*
X173304819Y-95349999D02*
X173352438Y-95254761D01*
X173352438Y-95254761D02*
X173400057Y-95207142D01*
X173400057Y-95207142D02*
X173495295Y-95159523D01*
X173495295Y-95159523D02*
X173685771Y-95111904D01*
X173685771Y-95111904D02*
X173923866Y-95111904D01*
X173923866Y-95111904D02*
X174114342Y-95159523D01*
X174114342Y-95159523D02*
X174209580Y-95207142D01*
X174209580Y-95207142D02*
X174257200Y-95254761D01*
X174257200Y-95254761D02*
X174304819Y-95349999D01*
X174304819Y-95349999D02*
X174304819Y-95445237D01*
X174304819Y-95445237D02*
X174257200Y-95540475D01*
X174257200Y-95540475D02*
X174209580Y-95588094D01*
X174209580Y-95588094D02*
X174114342Y-95635713D01*
X174114342Y-95635713D02*
X173923866Y-95683332D01*
X173923866Y-95683332D02*
X173685771Y-95683332D01*
X173685771Y-95683332D02*
X173495295Y-95635713D01*
X173495295Y-95635713D02*
X173400057Y-95588094D01*
X173400057Y-95588094D02*
X173352438Y-95540475D01*
X173352438Y-95540475D02*
X173304819Y-95445237D01*
X173304819Y-94492856D02*
X173304819Y-94397618D01*
X173304819Y-94397618D02*
X173352438Y-94302380D01*
X173352438Y-94302380D02*
X173400057Y-94254761D01*
X173400057Y-94254761D02*
X173495295Y-94207142D01*
X173495295Y-94207142D02*
X173685771Y-94159523D01*
X173685771Y-94159523D02*
X173923866Y-94159523D01*
X173923866Y-94159523D02*
X174114342Y-94207142D01*
X174114342Y-94207142D02*
X174209580Y-94254761D01*
X174209580Y-94254761D02*
X174257200Y-94302380D01*
X174257200Y-94302380D02*
X174304819Y-94397618D01*
X174304819Y-94397618D02*
X174304819Y-94492856D01*
X174304819Y-94492856D02*
X174257200Y-94588094D01*
X174257200Y-94588094D02*
X174209580Y-94635713D01*
X174209580Y-94635713D02*
X174114342Y-94683332D01*
X174114342Y-94683332D02*
X173923866Y-94730951D01*
X173923866Y-94730951D02*
X173685771Y-94730951D01*
X173685771Y-94730951D02*
X173495295Y-94683332D01*
X173495295Y-94683332D02*
X173400057Y-94635713D01*
X173400057Y-94635713D02*
X173352438Y-94588094D01*
X173352438Y-94588094D02*
X173304819Y-94492856D01*
X174304819Y-92969046D02*
X173638152Y-92969046D01*
X173733390Y-92969046D02*
X173685771Y-92921427D01*
X173685771Y-92921427D02*
X173638152Y-92826189D01*
X173638152Y-92826189D02*
X173638152Y-92683332D01*
X173638152Y-92683332D02*
X173685771Y-92588094D01*
X173685771Y-92588094D02*
X173781009Y-92540475D01*
X173781009Y-92540475D02*
X174304819Y-92540475D01*
X173781009Y-92540475D02*
X173685771Y-92492856D01*
X173685771Y-92492856D02*
X173638152Y-92397618D01*
X173638152Y-92397618D02*
X173638152Y-92254761D01*
X173638152Y-92254761D02*
X173685771Y-92159522D01*
X173685771Y-92159522D02*
X173781009Y-92111903D01*
X173781009Y-92111903D02*
X174304819Y-92111903D01*
X174304819Y-91635713D02*
X173638152Y-91635713D01*
X173733390Y-91635713D02*
X173685771Y-91588094D01*
X173685771Y-91588094D02*
X173638152Y-91492856D01*
X173638152Y-91492856D02*
X173638152Y-91349999D01*
X173638152Y-91349999D02*
X173685771Y-91254761D01*
X173685771Y-91254761D02*
X173781009Y-91207142D01*
X173781009Y-91207142D02*
X174304819Y-91207142D01*
X173781009Y-91207142D02*
X173685771Y-91159523D01*
X173685771Y-91159523D02*
X173638152Y-91064285D01*
X173638152Y-91064285D02*
X173638152Y-90921428D01*
X173638152Y-90921428D02*
X173685771Y-90826189D01*
X173685771Y-90826189D02*
X173781009Y-90778570D01*
X173781009Y-90778570D02*
X174304819Y-90778570D01*
D11*
X166000000Y-77100000D02*
X175586420Y-77100000D01*
X166000000Y-113600000D02*
X175586420Y-113600000D01*
X175000000Y-77100000D02*
X175000000Y-113600000D01*
X175000000Y-77100000D02*
X175000000Y-113600000D01*
X175000000Y-77100000D02*
X175586421Y-78226504D01*
X175000000Y-77100000D02*
X174413579Y-78226504D01*
X175000000Y-113600000D02*
X174413579Y-112473496D01*
X175000000Y-113600000D02*
X175586421Y-112473496D01*
D10*
X121071429Y-123883390D02*
X120976191Y-123835771D01*
X120976191Y-123835771D02*
X120928572Y-123788152D01*
X120928572Y-123788152D02*
X120880953Y-123692914D01*
X120880953Y-123692914D02*
X120880953Y-123645295D01*
X120880953Y-123645295D02*
X120928572Y-123550057D01*
X120928572Y-123550057D02*
X120976191Y-123502438D01*
X120976191Y-123502438D02*
X121071429Y-123454819D01*
X121071429Y-123454819D02*
X121261905Y-123454819D01*
X121261905Y-123454819D02*
X121357143Y-123502438D01*
X121357143Y-123502438D02*
X121404762Y-123550057D01*
X121404762Y-123550057D02*
X121452381Y-123645295D01*
X121452381Y-123645295D02*
X121452381Y-123692914D01*
X121452381Y-123692914D02*
X121404762Y-123788152D01*
X121404762Y-123788152D02*
X121357143Y-123835771D01*
X121357143Y-123835771D02*
X121261905Y-123883390D01*
X121261905Y-123883390D02*
X121071429Y-123883390D01*
X121071429Y-123883390D02*
X120976191Y-123931009D01*
X120976191Y-123931009D02*
X120928572Y-123978628D01*
X120928572Y-123978628D02*
X120880953Y-124073866D01*
X120880953Y-124073866D02*
X120880953Y-124264342D01*
X120880953Y-124264342D02*
X120928572Y-124359580D01*
X120928572Y-124359580D02*
X120976191Y-124407200D01*
X120976191Y-124407200D02*
X121071429Y-124454819D01*
X121071429Y-124454819D02*
X121261905Y-124454819D01*
X121261905Y-124454819D02*
X121357143Y-124407200D01*
X121357143Y-124407200D02*
X121404762Y-124359580D01*
X121404762Y-124359580D02*
X121452381Y-124264342D01*
X121452381Y-124264342D02*
X121452381Y-124073866D01*
X121452381Y-124073866D02*
X121404762Y-123978628D01*
X121404762Y-123978628D02*
X121357143Y-123931009D01*
X121357143Y-123931009D02*
X121261905Y-123883390D01*
X122071429Y-123454819D02*
X122166667Y-123454819D01*
X122166667Y-123454819D02*
X122261905Y-123502438D01*
X122261905Y-123502438D02*
X122309524Y-123550057D01*
X122309524Y-123550057D02*
X122357143Y-123645295D01*
X122357143Y-123645295D02*
X122404762Y-123835771D01*
X122404762Y-123835771D02*
X122404762Y-124073866D01*
X122404762Y-124073866D02*
X122357143Y-124264342D01*
X122357143Y-124264342D02*
X122309524Y-124359580D01*
X122309524Y-124359580D02*
X122261905Y-124407200D01*
X122261905Y-124407200D02*
X122166667Y-124454819D01*
X122166667Y-124454819D02*
X122071429Y-124454819D01*
X122071429Y-124454819D02*
X121976191Y-124407200D01*
X121976191Y-124407200D02*
X121928572Y-124359580D01*
X121928572Y-124359580D02*
X121880953Y-124264342D01*
X121880953Y-124264342D02*
X121833334Y-124073866D01*
X121833334Y-124073866D02*
X121833334Y-123835771D01*
X121833334Y-123835771D02*
X121880953Y-123645295D01*
X121880953Y-123645295D02*
X121928572Y-123550057D01*
X121928572Y-123550057D02*
X121976191Y-123502438D01*
X121976191Y-123502438D02*
X122071429Y-123454819D01*
X122833334Y-124359580D02*
X122880953Y-124407200D01*
X122880953Y-124407200D02*
X122833334Y-124454819D01*
X122833334Y-124454819D02*
X122785715Y-124407200D01*
X122785715Y-124407200D02*
X122833334Y-124359580D01*
X122833334Y-124359580D02*
X122833334Y-124454819D01*
X123500000Y-123454819D02*
X123595238Y-123454819D01*
X123595238Y-123454819D02*
X123690476Y-123502438D01*
X123690476Y-123502438D02*
X123738095Y-123550057D01*
X123738095Y-123550057D02*
X123785714Y-123645295D01*
X123785714Y-123645295D02*
X123833333Y-123835771D01*
X123833333Y-123835771D02*
X123833333Y-124073866D01*
X123833333Y-124073866D02*
X123785714Y-124264342D01*
X123785714Y-124264342D02*
X123738095Y-124359580D01*
X123738095Y-124359580D02*
X123690476Y-124407200D01*
X123690476Y-124407200D02*
X123595238Y-124454819D01*
X123595238Y-124454819D02*
X123500000Y-124454819D01*
X123500000Y-124454819D02*
X123404762Y-124407200D01*
X123404762Y-124407200D02*
X123357143Y-124359580D01*
X123357143Y-124359580D02*
X123309524Y-124264342D01*
X123309524Y-124264342D02*
X123261905Y-124073866D01*
X123261905Y-124073866D02*
X123261905Y-123835771D01*
X123261905Y-123835771D02*
X123309524Y-123645295D01*
X123309524Y-123645295D02*
X123357143Y-123550057D01*
X123357143Y-123550057D02*
X123404762Y-123502438D01*
X123404762Y-123502438D02*
X123500000Y-123454819D01*
X124452381Y-123454819D02*
X124547619Y-123454819D01*
X124547619Y-123454819D02*
X124642857Y-123502438D01*
X124642857Y-123502438D02*
X124690476Y-123550057D01*
X124690476Y-123550057D02*
X124738095Y-123645295D01*
X124738095Y-123645295D02*
X124785714Y-123835771D01*
X124785714Y-123835771D02*
X124785714Y-124073866D01*
X124785714Y-124073866D02*
X124738095Y-124264342D01*
X124738095Y-124264342D02*
X124690476Y-124359580D01*
X124690476Y-124359580D02*
X124642857Y-124407200D01*
X124642857Y-124407200D02*
X124547619Y-124454819D01*
X124547619Y-124454819D02*
X124452381Y-124454819D01*
X124452381Y-124454819D02*
X124357143Y-124407200D01*
X124357143Y-124407200D02*
X124309524Y-124359580D01*
X124309524Y-124359580D02*
X124261905Y-124264342D01*
X124261905Y-124264342D02*
X124214286Y-124073866D01*
X124214286Y-124073866D02*
X124214286Y-123835771D01*
X124214286Y-123835771D02*
X124261905Y-123645295D01*
X124261905Y-123645295D02*
X124309524Y-123550057D01*
X124309524Y-123550057D02*
X124357143Y-123502438D01*
X124357143Y-123502438D02*
X124452381Y-123454819D01*
X125404762Y-123454819D02*
X125500000Y-123454819D01*
X125500000Y-123454819D02*
X125595238Y-123502438D01*
X125595238Y-123502438D02*
X125642857Y-123550057D01*
X125642857Y-123550057D02*
X125690476Y-123645295D01*
X125690476Y-123645295D02*
X125738095Y-123835771D01*
X125738095Y-123835771D02*
X125738095Y-124073866D01*
X125738095Y-124073866D02*
X125690476Y-124264342D01*
X125690476Y-124264342D02*
X125642857Y-124359580D01*
X125642857Y-124359580D02*
X125595238Y-124407200D01*
X125595238Y-124407200D02*
X125500000Y-124454819D01*
X125500000Y-124454819D02*
X125404762Y-124454819D01*
X125404762Y-124454819D02*
X125309524Y-124407200D01*
X125309524Y-124407200D02*
X125261905Y-124359580D01*
X125261905Y-124359580D02*
X125214286Y-124264342D01*
X125214286Y-124264342D02*
X125166667Y-124073866D01*
X125166667Y-124073866D02*
X125166667Y-123835771D01*
X125166667Y-123835771D02*
X125214286Y-123645295D01*
X125214286Y-123645295D02*
X125261905Y-123550057D01*
X125261905Y-123550057D02*
X125309524Y-123502438D01*
X125309524Y-123502438D02*
X125404762Y-123454819D01*
X126357143Y-123454819D02*
X126452381Y-123454819D01*
X126452381Y-123454819D02*
X126547619Y-123502438D01*
X126547619Y-123502438D02*
X126595238Y-123550057D01*
X126595238Y-123550057D02*
X126642857Y-123645295D01*
X126642857Y-123645295D02*
X126690476Y-123835771D01*
X126690476Y-123835771D02*
X126690476Y-124073866D01*
X126690476Y-124073866D02*
X126642857Y-124264342D01*
X126642857Y-124264342D02*
X126595238Y-124359580D01*
X126595238Y-124359580D02*
X126547619Y-124407200D01*
X126547619Y-124407200D02*
X126452381Y-124454819D01*
X126452381Y-124454819D02*
X126357143Y-124454819D01*
X126357143Y-124454819D02*
X126261905Y-124407200D01*
X126261905Y-124407200D02*
X126214286Y-124359580D01*
X126214286Y-124359580D02*
X126166667Y-124264342D01*
X126166667Y-124264342D02*
X126119048Y-124073866D01*
X126119048Y-124073866D02*
X126119048Y-123835771D01*
X126119048Y-123835771D02*
X126166667Y-123645295D01*
X126166667Y-123645295D02*
X126214286Y-123550057D01*
X126214286Y-123550057D02*
X126261905Y-123502438D01*
X126261905Y-123502438D02*
X126357143Y-123454819D01*
X127880953Y-124454819D02*
X127880953Y-123788152D01*
X127880953Y-123883390D02*
X127928572Y-123835771D01*
X127928572Y-123835771D02*
X128023810Y-123788152D01*
X128023810Y-123788152D02*
X128166667Y-123788152D01*
X128166667Y-123788152D02*
X128261905Y-123835771D01*
X128261905Y-123835771D02*
X128309524Y-123931009D01*
X128309524Y-123931009D02*
X128309524Y-124454819D01*
X128309524Y-123931009D02*
X128357143Y-123835771D01*
X128357143Y-123835771D02*
X128452381Y-123788152D01*
X128452381Y-123788152D02*
X128595238Y-123788152D01*
X128595238Y-123788152D02*
X128690477Y-123835771D01*
X128690477Y-123835771D02*
X128738096Y-123931009D01*
X128738096Y-123931009D02*
X128738096Y-124454819D01*
X129214286Y-124454819D02*
X129214286Y-123788152D01*
X129214286Y-123883390D02*
X129261905Y-123835771D01*
X129261905Y-123835771D02*
X129357143Y-123788152D01*
X129357143Y-123788152D02*
X129500000Y-123788152D01*
X129500000Y-123788152D02*
X129595238Y-123835771D01*
X129595238Y-123835771D02*
X129642857Y-123931009D01*
X129642857Y-123931009D02*
X129642857Y-124454819D01*
X129642857Y-123931009D02*
X129690476Y-123835771D01*
X129690476Y-123835771D02*
X129785714Y-123788152D01*
X129785714Y-123788152D02*
X129928571Y-123788152D01*
X129928571Y-123788152D02*
X130023810Y-123835771D01*
X130023810Y-123835771D02*
X130071429Y-123931009D01*
X130071429Y-123931009D02*
X130071429Y-124454819D01*
D11*
X165500000Y-114100000D02*
X165500000Y-125736420D01*
X85500000Y-114100000D02*
X85500000Y-125736420D01*
X165500000Y-125150000D02*
X85500000Y-125150000D01*
X165500000Y-125150000D02*
X85500000Y-125150000D01*
X165500000Y-125150000D02*
X164373496Y-125736421D01*
X165500000Y-125150000D02*
X164373496Y-124563579D01*
X85500000Y-125150000D02*
X86626504Y-124563579D01*
X85500000Y-125150000D02*
X86626504Y-125736421D01*
D10*
X133600057Y-62969046D02*
X133552438Y-62921427D01*
X133552438Y-62921427D02*
X133504819Y-62826189D01*
X133504819Y-62826189D02*
X133504819Y-62588094D01*
X133504819Y-62588094D02*
X133552438Y-62492856D01*
X133552438Y-62492856D02*
X133600057Y-62445237D01*
X133600057Y-62445237D02*
X133695295Y-62397618D01*
X133695295Y-62397618D02*
X133790533Y-62397618D01*
X133790533Y-62397618D02*
X133933390Y-62445237D01*
X133933390Y-62445237D02*
X134504819Y-63016665D01*
X134504819Y-63016665D02*
X134504819Y-62397618D01*
X133504819Y-62064284D02*
X133504819Y-61397618D01*
X133504819Y-61397618D02*
X134504819Y-61826189D01*
X134409580Y-61016665D02*
X134457200Y-60969046D01*
X134457200Y-60969046D02*
X134504819Y-61016665D01*
X134504819Y-61016665D02*
X134457200Y-61064284D01*
X134457200Y-61064284D02*
X134409580Y-61016665D01*
X134409580Y-61016665D02*
X134504819Y-61016665D01*
X133504819Y-60064285D02*
X133504819Y-60540475D01*
X133504819Y-60540475D02*
X133981009Y-60588094D01*
X133981009Y-60588094D02*
X133933390Y-60540475D01*
X133933390Y-60540475D02*
X133885771Y-60445237D01*
X133885771Y-60445237D02*
X133885771Y-60207142D01*
X133885771Y-60207142D02*
X133933390Y-60111904D01*
X133933390Y-60111904D02*
X133981009Y-60064285D01*
X133981009Y-60064285D02*
X134076247Y-60016666D01*
X134076247Y-60016666D02*
X134314342Y-60016666D01*
X134314342Y-60016666D02*
X134409580Y-60064285D01*
X134409580Y-60064285D02*
X134457200Y-60111904D01*
X134457200Y-60111904D02*
X134504819Y-60207142D01*
X134504819Y-60207142D02*
X134504819Y-60445237D01*
X134504819Y-60445237D02*
X134457200Y-60540475D01*
X134457200Y-60540475D02*
X134409580Y-60588094D01*
X133504819Y-59397618D02*
X133504819Y-59302380D01*
X133504819Y-59302380D02*
X133552438Y-59207142D01*
X133552438Y-59207142D02*
X133600057Y-59159523D01*
X133600057Y-59159523D02*
X133695295Y-59111904D01*
X133695295Y-59111904D02*
X133885771Y-59064285D01*
X133885771Y-59064285D02*
X134123866Y-59064285D01*
X134123866Y-59064285D02*
X134314342Y-59111904D01*
X134314342Y-59111904D02*
X134409580Y-59159523D01*
X134409580Y-59159523D02*
X134457200Y-59207142D01*
X134457200Y-59207142D02*
X134504819Y-59302380D01*
X134504819Y-59302380D02*
X134504819Y-59397618D01*
X134504819Y-59397618D02*
X134457200Y-59492856D01*
X134457200Y-59492856D02*
X134409580Y-59540475D01*
X134409580Y-59540475D02*
X134314342Y-59588094D01*
X134314342Y-59588094D02*
X134123866Y-59635713D01*
X134123866Y-59635713D02*
X133885771Y-59635713D01*
X133885771Y-59635713D02*
X133695295Y-59588094D01*
X133695295Y-59588094D02*
X133600057Y-59540475D01*
X133600057Y-59540475D02*
X133552438Y-59492856D01*
X133552438Y-59492856D02*
X133504819Y-59397618D01*
X133504819Y-58445237D02*
X133504819Y-58349999D01*
X133504819Y-58349999D02*
X133552438Y-58254761D01*
X133552438Y-58254761D02*
X133600057Y-58207142D01*
X133600057Y-58207142D02*
X133695295Y-58159523D01*
X133695295Y-58159523D02*
X133885771Y-58111904D01*
X133885771Y-58111904D02*
X134123866Y-58111904D01*
X134123866Y-58111904D02*
X134314342Y-58159523D01*
X134314342Y-58159523D02*
X134409580Y-58207142D01*
X134409580Y-58207142D02*
X134457200Y-58254761D01*
X134457200Y-58254761D02*
X134504819Y-58349999D01*
X134504819Y-58349999D02*
X134504819Y-58445237D01*
X134504819Y-58445237D02*
X134457200Y-58540475D01*
X134457200Y-58540475D02*
X134409580Y-58588094D01*
X134409580Y-58588094D02*
X134314342Y-58635713D01*
X134314342Y-58635713D02*
X134123866Y-58683332D01*
X134123866Y-58683332D02*
X133885771Y-58683332D01*
X133885771Y-58683332D02*
X133695295Y-58635713D01*
X133695295Y-58635713D02*
X133600057Y-58588094D01*
X133600057Y-58588094D02*
X133552438Y-58540475D01*
X133552438Y-58540475D02*
X133504819Y-58445237D01*
X133504819Y-57492856D02*
X133504819Y-57397618D01*
X133504819Y-57397618D02*
X133552438Y-57302380D01*
X133552438Y-57302380D02*
X133600057Y-57254761D01*
X133600057Y-57254761D02*
X133695295Y-57207142D01*
X133695295Y-57207142D02*
X133885771Y-57159523D01*
X133885771Y-57159523D02*
X134123866Y-57159523D01*
X134123866Y-57159523D02*
X134314342Y-57207142D01*
X134314342Y-57207142D02*
X134409580Y-57254761D01*
X134409580Y-57254761D02*
X134457200Y-57302380D01*
X134457200Y-57302380D02*
X134504819Y-57397618D01*
X134504819Y-57397618D02*
X134504819Y-57492856D01*
X134504819Y-57492856D02*
X134457200Y-57588094D01*
X134457200Y-57588094D02*
X134409580Y-57635713D01*
X134409580Y-57635713D02*
X134314342Y-57683332D01*
X134314342Y-57683332D02*
X134123866Y-57730951D01*
X134123866Y-57730951D02*
X133885771Y-57730951D01*
X133885771Y-57730951D02*
X133695295Y-57683332D01*
X133695295Y-57683332D02*
X133600057Y-57635713D01*
X133600057Y-57635713D02*
X133552438Y-57588094D01*
X133552438Y-57588094D02*
X133504819Y-57492856D01*
X134504819Y-55969046D02*
X133838152Y-55969046D01*
X133933390Y-55969046D02*
X133885771Y-55921427D01*
X133885771Y-55921427D02*
X133838152Y-55826189D01*
X133838152Y-55826189D02*
X133838152Y-55683332D01*
X133838152Y-55683332D02*
X133885771Y-55588094D01*
X133885771Y-55588094D02*
X133981009Y-55540475D01*
X133981009Y-55540475D02*
X134504819Y-55540475D01*
X133981009Y-55540475D02*
X133885771Y-55492856D01*
X133885771Y-55492856D02*
X133838152Y-55397618D01*
X133838152Y-55397618D02*
X133838152Y-55254761D01*
X133838152Y-55254761D02*
X133885771Y-55159522D01*
X133885771Y-55159522D02*
X133981009Y-55111903D01*
X133981009Y-55111903D02*
X134504819Y-55111903D01*
X134504819Y-54635713D02*
X133838152Y-54635713D01*
X133933390Y-54635713D02*
X133885771Y-54588094D01*
X133885771Y-54588094D02*
X133838152Y-54492856D01*
X133838152Y-54492856D02*
X133838152Y-54349999D01*
X133838152Y-54349999D02*
X133885771Y-54254761D01*
X133885771Y-54254761D02*
X133981009Y-54207142D01*
X133981009Y-54207142D02*
X134504819Y-54207142D01*
X133981009Y-54207142D02*
X133885771Y-54159523D01*
X133885771Y-54159523D02*
X133838152Y-54064285D01*
X133838152Y-54064285D02*
X133838152Y-53921428D01*
X133838152Y-53921428D02*
X133885771Y-53826189D01*
X133885771Y-53826189D02*
X133981009Y-53778570D01*
X133981009Y-53778570D02*
X134504819Y-53778570D01*
D11*
X129800000Y-44600000D02*
X135786420Y-44600000D01*
X129800000Y-72100000D02*
X135786420Y-72100000D01*
X135200000Y-44600000D02*
X135200000Y-72100000D01*
X135200000Y-44600000D02*
X135200000Y-72100000D01*
X135200000Y-44600000D02*
X135786421Y-45726504D01*
X135200000Y-44600000D02*
X134613579Y-45726504D01*
X135200000Y-72100000D02*
X134613579Y-70973496D01*
X135200000Y-72100000D02*
X135786421Y-70973496D01*
D10*
X177588152Y-99492856D02*
X178254819Y-99492856D01*
X177207200Y-99730951D02*
X177921485Y-99969046D01*
X177921485Y-99969046D02*
X177921485Y-99349999D01*
X177254819Y-98540475D02*
X177254819Y-98730951D01*
X177254819Y-98730951D02*
X177302438Y-98826189D01*
X177302438Y-98826189D02*
X177350057Y-98873808D01*
X177350057Y-98873808D02*
X177492914Y-98969046D01*
X177492914Y-98969046D02*
X177683390Y-99016665D01*
X177683390Y-99016665D02*
X178064342Y-99016665D01*
X178064342Y-99016665D02*
X178159580Y-98969046D01*
X178159580Y-98969046D02*
X178207200Y-98921427D01*
X178207200Y-98921427D02*
X178254819Y-98826189D01*
X178254819Y-98826189D02*
X178254819Y-98635713D01*
X178254819Y-98635713D02*
X178207200Y-98540475D01*
X178207200Y-98540475D02*
X178159580Y-98492856D01*
X178159580Y-98492856D02*
X178064342Y-98445237D01*
X178064342Y-98445237D02*
X177826247Y-98445237D01*
X177826247Y-98445237D02*
X177731009Y-98492856D01*
X177731009Y-98492856D02*
X177683390Y-98540475D01*
X177683390Y-98540475D02*
X177635771Y-98635713D01*
X177635771Y-98635713D02*
X177635771Y-98826189D01*
X177635771Y-98826189D02*
X177683390Y-98921427D01*
X177683390Y-98921427D02*
X177731009Y-98969046D01*
X177731009Y-98969046D02*
X177826247Y-99016665D01*
X178159580Y-98016665D02*
X178207200Y-97969046D01*
X178207200Y-97969046D02*
X178254819Y-98016665D01*
X178254819Y-98016665D02*
X178207200Y-98064284D01*
X178207200Y-98064284D02*
X178159580Y-98016665D01*
X178159580Y-98016665D02*
X178254819Y-98016665D01*
X177254819Y-97064285D02*
X177254819Y-97540475D01*
X177254819Y-97540475D02*
X177731009Y-97588094D01*
X177731009Y-97588094D02*
X177683390Y-97540475D01*
X177683390Y-97540475D02*
X177635771Y-97445237D01*
X177635771Y-97445237D02*
X177635771Y-97207142D01*
X177635771Y-97207142D02*
X177683390Y-97111904D01*
X177683390Y-97111904D02*
X177731009Y-97064285D01*
X177731009Y-97064285D02*
X177826247Y-97016666D01*
X177826247Y-97016666D02*
X178064342Y-97016666D01*
X178064342Y-97016666D02*
X178159580Y-97064285D01*
X178159580Y-97064285D02*
X178207200Y-97111904D01*
X178207200Y-97111904D02*
X178254819Y-97207142D01*
X178254819Y-97207142D02*
X178254819Y-97445237D01*
X178254819Y-97445237D02*
X178207200Y-97540475D01*
X178207200Y-97540475D02*
X178159580Y-97588094D01*
X177254819Y-96397618D02*
X177254819Y-96302380D01*
X177254819Y-96302380D02*
X177302438Y-96207142D01*
X177302438Y-96207142D02*
X177350057Y-96159523D01*
X177350057Y-96159523D02*
X177445295Y-96111904D01*
X177445295Y-96111904D02*
X177635771Y-96064285D01*
X177635771Y-96064285D02*
X177873866Y-96064285D01*
X177873866Y-96064285D02*
X178064342Y-96111904D01*
X178064342Y-96111904D02*
X178159580Y-96159523D01*
X178159580Y-96159523D02*
X178207200Y-96207142D01*
X178207200Y-96207142D02*
X178254819Y-96302380D01*
X178254819Y-96302380D02*
X178254819Y-96397618D01*
X178254819Y-96397618D02*
X178207200Y-96492856D01*
X178207200Y-96492856D02*
X178159580Y-96540475D01*
X178159580Y-96540475D02*
X178064342Y-96588094D01*
X178064342Y-96588094D02*
X177873866Y-96635713D01*
X177873866Y-96635713D02*
X177635771Y-96635713D01*
X177635771Y-96635713D02*
X177445295Y-96588094D01*
X177445295Y-96588094D02*
X177350057Y-96540475D01*
X177350057Y-96540475D02*
X177302438Y-96492856D01*
X177302438Y-96492856D02*
X177254819Y-96397618D01*
X177254819Y-95445237D02*
X177254819Y-95349999D01*
X177254819Y-95349999D02*
X177302438Y-95254761D01*
X177302438Y-95254761D02*
X177350057Y-95207142D01*
X177350057Y-95207142D02*
X177445295Y-95159523D01*
X177445295Y-95159523D02*
X177635771Y-95111904D01*
X177635771Y-95111904D02*
X177873866Y-95111904D01*
X177873866Y-95111904D02*
X178064342Y-95159523D01*
X178064342Y-95159523D02*
X178159580Y-95207142D01*
X178159580Y-95207142D02*
X178207200Y-95254761D01*
X178207200Y-95254761D02*
X178254819Y-95349999D01*
X178254819Y-95349999D02*
X178254819Y-95445237D01*
X178254819Y-95445237D02*
X178207200Y-95540475D01*
X178207200Y-95540475D02*
X178159580Y-95588094D01*
X178159580Y-95588094D02*
X178064342Y-95635713D01*
X178064342Y-95635713D02*
X177873866Y-95683332D01*
X177873866Y-95683332D02*
X177635771Y-95683332D01*
X177635771Y-95683332D02*
X177445295Y-95635713D01*
X177445295Y-95635713D02*
X177350057Y-95588094D01*
X177350057Y-95588094D02*
X177302438Y-95540475D01*
X177302438Y-95540475D02*
X177254819Y-95445237D01*
X177254819Y-94492856D02*
X177254819Y-94397618D01*
X177254819Y-94397618D02*
X177302438Y-94302380D01*
X177302438Y-94302380D02*
X177350057Y-94254761D01*
X177350057Y-94254761D02*
X177445295Y-94207142D01*
X177445295Y-94207142D02*
X177635771Y-94159523D01*
X177635771Y-94159523D02*
X177873866Y-94159523D01*
X177873866Y-94159523D02*
X178064342Y-94207142D01*
X178064342Y-94207142D02*
X178159580Y-94254761D01*
X178159580Y-94254761D02*
X178207200Y-94302380D01*
X178207200Y-94302380D02*
X178254819Y-94397618D01*
X178254819Y-94397618D02*
X178254819Y-94492856D01*
X178254819Y-94492856D02*
X178207200Y-94588094D01*
X178207200Y-94588094D02*
X178159580Y-94635713D01*
X178159580Y-94635713D02*
X178064342Y-94683332D01*
X178064342Y-94683332D02*
X177873866Y-94730951D01*
X177873866Y-94730951D02*
X177635771Y-94730951D01*
X177635771Y-94730951D02*
X177445295Y-94683332D01*
X177445295Y-94683332D02*
X177350057Y-94635713D01*
X177350057Y-94635713D02*
X177302438Y-94588094D01*
X177302438Y-94588094D02*
X177254819Y-94492856D01*
X178254819Y-92969046D02*
X177588152Y-92969046D01*
X177683390Y-92969046D02*
X177635771Y-92921427D01*
X177635771Y-92921427D02*
X177588152Y-92826189D01*
X177588152Y-92826189D02*
X177588152Y-92683332D01*
X177588152Y-92683332D02*
X177635771Y-92588094D01*
X177635771Y-92588094D02*
X177731009Y-92540475D01*
X177731009Y-92540475D02*
X178254819Y-92540475D01*
X177731009Y-92540475D02*
X177635771Y-92492856D01*
X177635771Y-92492856D02*
X177588152Y-92397618D01*
X177588152Y-92397618D02*
X177588152Y-92254761D01*
X177588152Y-92254761D02*
X177635771Y-92159522D01*
X177635771Y-92159522D02*
X177731009Y-92111903D01*
X177731009Y-92111903D02*
X178254819Y-92111903D01*
X178254819Y-91635713D02*
X177588152Y-91635713D01*
X177683390Y-91635713D02*
X177635771Y-91588094D01*
X177635771Y-91588094D02*
X177588152Y-91492856D01*
X177588152Y-91492856D02*
X177588152Y-91349999D01*
X177588152Y-91349999D02*
X177635771Y-91254761D01*
X177635771Y-91254761D02*
X177731009Y-91207142D01*
X177731009Y-91207142D02*
X178254819Y-91207142D01*
X177731009Y-91207142D02*
X177635771Y-91159523D01*
X177635771Y-91159523D02*
X177588152Y-91064285D01*
X177588152Y-91064285D02*
X177588152Y-90921428D01*
X177588152Y-90921428D02*
X177635771Y-90826189D01*
X177635771Y-90826189D02*
X177731009Y-90778570D01*
X177731009Y-90778570D02*
X178254819Y-90778570D01*
D11*
X168500000Y-72100000D02*
X179536420Y-72100000D01*
X168500000Y-118600000D02*
X179536420Y-118600000D01*
X178950000Y-72100000D02*
X178950000Y-118600000D01*
X178950000Y-72100000D02*
X178950000Y-118600000D01*
X178950000Y-72100000D02*
X179536421Y-73226504D01*
X178950000Y-72100000D02*
X178363579Y-73226504D01*
X178950000Y-118600000D02*
X178363579Y-117473496D01*
X178950000Y-118600000D02*
X179536421Y-117473496D01*
D10*
X106633334Y-41154820D02*
X107252381Y-41154820D01*
X107252381Y-41154820D02*
X106919048Y-41535772D01*
X106919048Y-41535772D02*
X107061905Y-41535772D01*
X107061905Y-41535772D02*
X107157143Y-41583391D01*
X107157143Y-41583391D02*
X107204762Y-41631010D01*
X107204762Y-41631010D02*
X107252381Y-41726248D01*
X107252381Y-41726248D02*
X107252381Y-41964343D01*
X107252381Y-41964343D02*
X107204762Y-42059581D01*
X107204762Y-42059581D02*
X107157143Y-42107201D01*
X107157143Y-42107201D02*
X107061905Y-42154820D01*
X107061905Y-42154820D02*
X106776191Y-42154820D01*
X106776191Y-42154820D02*
X106680953Y-42107201D01*
X106680953Y-42107201D02*
X106633334Y-42059581D01*
X108204762Y-42154820D02*
X107633334Y-42154820D01*
X107919048Y-42154820D02*
X107919048Y-41154820D01*
X107919048Y-41154820D02*
X107823810Y-41297677D01*
X107823810Y-41297677D02*
X107728572Y-41392915D01*
X107728572Y-41392915D02*
X107633334Y-41440534D01*
X108633334Y-42059581D02*
X108680953Y-42107201D01*
X108680953Y-42107201D02*
X108633334Y-42154820D01*
X108633334Y-42154820D02*
X108585715Y-42107201D01*
X108585715Y-42107201D02*
X108633334Y-42059581D01*
X108633334Y-42059581D02*
X108633334Y-42154820D01*
X109300000Y-41154820D02*
X109395238Y-41154820D01*
X109395238Y-41154820D02*
X109490476Y-41202439D01*
X109490476Y-41202439D02*
X109538095Y-41250058D01*
X109538095Y-41250058D02*
X109585714Y-41345296D01*
X109585714Y-41345296D02*
X109633333Y-41535772D01*
X109633333Y-41535772D02*
X109633333Y-41773867D01*
X109633333Y-41773867D02*
X109585714Y-41964343D01*
X109585714Y-41964343D02*
X109538095Y-42059581D01*
X109538095Y-42059581D02*
X109490476Y-42107201D01*
X109490476Y-42107201D02*
X109395238Y-42154820D01*
X109395238Y-42154820D02*
X109300000Y-42154820D01*
X109300000Y-42154820D02*
X109204762Y-42107201D01*
X109204762Y-42107201D02*
X109157143Y-42059581D01*
X109157143Y-42059581D02*
X109109524Y-41964343D01*
X109109524Y-41964343D02*
X109061905Y-41773867D01*
X109061905Y-41773867D02*
X109061905Y-41535772D01*
X109061905Y-41535772D02*
X109109524Y-41345296D01*
X109109524Y-41345296D02*
X109157143Y-41250058D01*
X109157143Y-41250058D02*
X109204762Y-41202439D01*
X109204762Y-41202439D02*
X109300000Y-41154820D01*
X110252381Y-41154820D02*
X110347619Y-41154820D01*
X110347619Y-41154820D02*
X110442857Y-41202439D01*
X110442857Y-41202439D02*
X110490476Y-41250058D01*
X110490476Y-41250058D02*
X110538095Y-41345296D01*
X110538095Y-41345296D02*
X110585714Y-41535772D01*
X110585714Y-41535772D02*
X110585714Y-41773867D01*
X110585714Y-41773867D02*
X110538095Y-41964343D01*
X110538095Y-41964343D02*
X110490476Y-42059581D01*
X110490476Y-42059581D02*
X110442857Y-42107201D01*
X110442857Y-42107201D02*
X110347619Y-42154820D01*
X110347619Y-42154820D02*
X110252381Y-42154820D01*
X110252381Y-42154820D02*
X110157143Y-42107201D01*
X110157143Y-42107201D02*
X110109524Y-42059581D01*
X110109524Y-42059581D02*
X110061905Y-41964343D01*
X110061905Y-41964343D02*
X110014286Y-41773867D01*
X110014286Y-41773867D02*
X110014286Y-41535772D01*
X110014286Y-41535772D02*
X110061905Y-41345296D01*
X110061905Y-41345296D02*
X110109524Y-41250058D01*
X110109524Y-41250058D02*
X110157143Y-41202439D01*
X110157143Y-41202439D02*
X110252381Y-41154820D01*
X111204762Y-41154820D02*
X111300000Y-41154820D01*
X111300000Y-41154820D02*
X111395238Y-41202439D01*
X111395238Y-41202439D02*
X111442857Y-41250058D01*
X111442857Y-41250058D02*
X111490476Y-41345296D01*
X111490476Y-41345296D02*
X111538095Y-41535772D01*
X111538095Y-41535772D02*
X111538095Y-41773867D01*
X111538095Y-41773867D02*
X111490476Y-41964343D01*
X111490476Y-41964343D02*
X111442857Y-42059581D01*
X111442857Y-42059581D02*
X111395238Y-42107201D01*
X111395238Y-42107201D02*
X111300000Y-42154820D01*
X111300000Y-42154820D02*
X111204762Y-42154820D01*
X111204762Y-42154820D02*
X111109524Y-42107201D01*
X111109524Y-42107201D02*
X111061905Y-42059581D01*
X111061905Y-42059581D02*
X111014286Y-41964343D01*
X111014286Y-41964343D02*
X110966667Y-41773867D01*
X110966667Y-41773867D02*
X110966667Y-41535772D01*
X110966667Y-41535772D02*
X111014286Y-41345296D01*
X111014286Y-41345296D02*
X111061905Y-41250058D01*
X111061905Y-41250058D02*
X111109524Y-41202439D01*
X111109524Y-41202439D02*
X111204762Y-41154820D01*
X112157143Y-41154820D02*
X112252381Y-41154820D01*
X112252381Y-41154820D02*
X112347619Y-41202439D01*
X112347619Y-41202439D02*
X112395238Y-41250058D01*
X112395238Y-41250058D02*
X112442857Y-41345296D01*
X112442857Y-41345296D02*
X112490476Y-41535772D01*
X112490476Y-41535772D02*
X112490476Y-41773867D01*
X112490476Y-41773867D02*
X112442857Y-41964343D01*
X112442857Y-41964343D02*
X112395238Y-42059581D01*
X112395238Y-42059581D02*
X112347619Y-42107201D01*
X112347619Y-42107201D02*
X112252381Y-42154820D01*
X112252381Y-42154820D02*
X112157143Y-42154820D01*
X112157143Y-42154820D02*
X112061905Y-42107201D01*
X112061905Y-42107201D02*
X112014286Y-42059581D01*
X112014286Y-42059581D02*
X111966667Y-41964343D01*
X111966667Y-41964343D02*
X111919048Y-41773867D01*
X111919048Y-41773867D02*
X111919048Y-41535772D01*
X111919048Y-41535772D02*
X111966667Y-41345296D01*
X111966667Y-41345296D02*
X112014286Y-41250058D01*
X112014286Y-41250058D02*
X112061905Y-41202439D01*
X112061905Y-41202439D02*
X112157143Y-41154820D01*
X113680953Y-42154820D02*
X113680953Y-41488153D01*
X113680953Y-41583391D02*
X113728572Y-41535772D01*
X113728572Y-41535772D02*
X113823810Y-41488153D01*
X113823810Y-41488153D02*
X113966667Y-41488153D01*
X113966667Y-41488153D02*
X114061905Y-41535772D01*
X114061905Y-41535772D02*
X114109524Y-41631010D01*
X114109524Y-41631010D02*
X114109524Y-42154820D01*
X114109524Y-41631010D02*
X114157143Y-41535772D01*
X114157143Y-41535772D02*
X114252381Y-41488153D01*
X114252381Y-41488153D02*
X114395238Y-41488153D01*
X114395238Y-41488153D02*
X114490477Y-41535772D01*
X114490477Y-41535772D02*
X114538096Y-41631010D01*
X114538096Y-41631010D02*
X114538096Y-42154820D01*
X115014286Y-42154820D02*
X115014286Y-41488153D01*
X115014286Y-41583391D02*
X115061905Y-41535772D01*
X115061905Y-41535772D02*
X115157143Y-41488153D01*
X115157143Y-41488153D02*
X115300000Y-41488153D01*
X115300000Y-41488153D02*
X115395238Y-41535772D01*
X115395238Y-41535772D02*
X115442857Y-41631010D01*
X115442857Y-41631010D02*
X115442857Y-42154820D01*
X115442857Y-41631010D02*
X115490476Y-41535772D01*
X115490476Y-41535772D02*
X115585714Y-41488153D01*
X115585714Y-41488153D02*
X115728571Y-41488153D01*
X115728571Y-41488153D02*
X115823810Y-41535772D01*
X115823810Y-41535772D02*
X115871429Y-41631010D01*
X115871429Y-41631010D02*
X115871429Y-42154820D01*
D11*
X126800000Y-49100000D02*
X126800000Y-42263581D01*
X95800000Y-49100000D02*
X95800000Y-42263581D01*
X126800000Y-42850001D02*
X95800000Y-42850001D01*
X126800000Y-42850001D02*
X95800000Y-42850001D01*
X126800000Y-42850001D02*
X125673496Y-43436422D01*
X126800000Y-42850001D02*
X125673496Y-42263580D01*
X95800000Y-42850001D02*
X96926504Y-42263580D01*
X95800000Y-42850001D02*
X96926504Y-43436422D01*
D10*
X107157143Y-38138152D02*
X107157143Y-38804819D01*
X106919048Y-37757200D02*
X106680953Y-38471485D01*
X106680953Y-38471485D02*
X107300000Y-38471485D01*
X108204762Y-38804819D02*
X107633334Y-38804819D01*
X107919048Y-38804819D02*
X107919048Y-37804819D01*
X107919048Y-37804819D02*
X107823810Y-37947676D01*
X107823810Y-37947676D02*
X107728572Y-38042914D01*
X107728572Y-38042914D02*
X107633334Y-38090533D01*
X108633334Y-38709580D02*
X108680953Y-38757200D01*
X108680953Y-38757200D02*
X108633334Y-38804819D01*
X108633334Y-38804819D02*
X108585715Y-38757200D01*
X108585715Y-38757200D02*
X108633334Y-38709580D01*
X108633334Y-38709580D02*
X108633334Y-38804819D01*
X109300000Y-37804819D02*
X109395238Y-37804819D01*
X109395238Y-37804819D02*
X109490476Y-37852438D01*
X109490476Y-37852438D02*
X109538095Y-37900057D01*
X109538095Y-37900057D02*
X109585714Y-37995295D01*
X109585714Y-37995295D02*
X109633333Y-38185771D01*
X109633333Y-38185771D02*
X109633333Y-38423866D01*
X109633333Y-38423866D02*
X109585714Y-38614342D01*
X109585714Y-38614342D02*
X109538095Y-38709580D01*
X109538095Y-38709580D02*
X109490476Y-38757200D01*
X109490476Y-38757200D02*
X109395238Y-38804819D01*
X109395238Y-38804819D02*
X109300000Y-38804819D01*
X109300000Y-38804819D02*
X109204762Y-38757200D01*
X109204762Y-38757200D02*
X109157143Y-38709580D01*
X109157143Y-38709580D02*
X109109524Y-38614342D01*
X109109524Y-38614342D02*
X109061905Y-38423866D01*
X109061905Y-38423866D02*
X109061905Y-38185771D01*
X109061905Y-38185771D02*
X109109524Y-37995295D01*
X109109524Y-37995295D02*
X109157143Y-37900057D01*
X109157143Y-37900057D02*
X109204762Y-37852438D01*
X109204762Y-37852438D02*
X109300000Y-37804819D01*
X110252381Y-37804819D02*
X110347619Y-37804819D01*
X110347619Y-37804819D02*
X110442857Y-37852438D01*
X110442857Y-37852438D02*
X110490476Y-37900057D01*
X110490476Y-37900057D02*
X110538095Y-37995295D01*
X110538095Y-37995295D02*
X110585714Y-38185771D01*
X110585714Y-38185771D02*
X110585714Y-38423866D01*
X110585714Y-38423866D02*
X110538095Y-38614342D01*
X110538095Y-38614342D02*
X110490476Y-38709580D01*
X110490476Y-38709580D02*
X110442857Y-38757200D01*
X110442857Y-38757200D02*
X110347619Y-38804819D01*
X110347619Y-38804819D02*
X110252381Y-38804819D01*
X110252381Y-38804819D02*
X110157143Y-38757200D01*
X110157143Y-38757200D02*
X110109524Y-38709580D01*
X110109524Y-38709580D02*
X110061905Y-38614342D01*
X110061905Y-38614342D02*
X110014286Y-38423866D01*
X110014286Y-38423866D02*
X110014286Y-38185771D01*
X110014286Y-38185771D02*
X110061905Y-37995295D01*
X110061905Y-37995295D02*
X110109524Y-37900057D01*
X110109524Y-37900057D02*
X110157143Y-37852438D01*
X110157143Y-37852438D02*
X110252381Y-37804819D01*
X111204762Y-37804819D02*
X111300000Y-37804819D01*
X111300000Y-37804819D02*
X111395238Y-37852438D01*
X111395238Y-37852438D02*
X111442857Y-37900057D01*
X111442857Y-37900057D02*
X111490476Y-37995295D01*
X111490476Y-37995295D02*
X111538095Y-38185771D01*
X111538095Y-38185771D02*
X111538095Y-38423866D01*
X111538095Y-38423866D02*
X111490476Y-38614342D01*
X111490476Y-38614342D02*
X111442857Y-38709580D01*
X111442857Y-38709580D02*
X111395238Y-38757200D01*
X111395238Y-38757200D02*
X111300000Y-38804819D01*
X111300000Y-38804819D02*
X111204762Y-38804819D01*
X111204762Y-38804819D02*
X111109524Y-38757200D01*
X111109524Y-38757200D02*
X111061905Y-38709580D01*
X111061905Y-38709580D02*
X111014286Y-38614342D01*
X111014286Y-38614342D02*
X110966667Y-38423866D01*
X110966667Y-38423866D02*
X110966667Y-38185771D01*
X110966667Y-38185771D02*
X111014286Y-37995295D01*
X111014286Y-37995295D02*
X111061905Y-37900057D01*
X111061905Y-37900057D02*
X111109524Y-37852438D01*
X111109524Y-37852438D02*
X111204762Y-37804819D01*
X112157143Y-37804819D02*
X112252381Y-37804819D01*
X112252381Y-37804819D02*
X112347619Y-37852438D01*
X112347619Y-37852438D02*
X112395238Y-37900057D01*
X112395238Y-37900057D02*
X112442857Y-37995295D01*
X112442857Y-37995295D02*
X112490476Y-38185771D01*
X112490476Y-38185771D02*
X112490476Y-38423866D01*
X112490476Y-38423866D02*
X112442857Y-38614342D01*
X112442857Y-38614342D02*
X112395238Y-38709580D01*
X112395238Y-38709580D02*
X112347619Y-38757200D01*
X112347619Y-38757200D02*
X112252381Y-38804819D01*
X112252381Y-38804819D02*
X112157143Y-38804819D01*
X112157143Y-38804819D02*
X112061905Y-38757200D01*
X112061905Y-38757200D02*
X112014286Y-38709580D01*
X112014286Y-38709580D02*
X111966667Y-38614342D01*
X111966667Y-38614342D02*
X111919048Y-38423866D01*
X111919048Y-38423866D02*
X111919048Y-38185771D01*
X111919048Y-38185771D02*
X111966667Y-37995295D01*
X111966667Y-37995295D02*
X112014286Y-37900057D01*
X112014286Y-37900057D02*
X112061905Y-37852438D01*
X112061905Y-37852438D02*
X112157143Y-37804819D01*
X113680953Y-38804819D02*
X113680953Y-38138152D01*
X113680953Y-38233390D02*
X113728572Y-38185771D01*
X113728572Y-38185771D02*
X113823810Y-38138152D01*
X113823810Y-38138152D02*
X113966667Y-38138152D01*
X113966667Y-38138152D02*
X114061905Y-38185771D01*
X114061905Y-38185771D02*
X114109524Y-38281009D01*
X114109524Y-38281009D02*
X114109524Y-38804819D01*
X114109524Y-38281009D02*
X114157143Y-38185771D01*
X114157143Y-38185771D02*
X114252381Y-38138152D01*
X114252381Y-38138152D02*
X114395238Y-38138152D01*
X114395238Y-38138152D02*
X114490477Y-38185771D01*
X114490477Y-38185771D02*
X114538096Y-38281009D01*
X114538096Y-38281009D02*
X114538096Y-38804819D01*
X115014286Y-38804819D02*
X115014286Y-38138152D01*
X115014286Y-38233390D02*
X115061905Y-38185771D01*
X115061905Y-38185771D02*
X115157143Y-38138152D01*
X115157143Y-38138152D02*
X115300000Y-38138152D01*
X115300000Y-38138152D02*
X115395238Y-38185771D01*
X115395238Y-38185771D02*
X115442857Y-38281009D01*
X115442857Y-38281009D02*
X115442857Y-38804819D01*
X115442857Y-38281009D02*
X115490476Y-38185771D01*
X115490476Y-38185771D02*
X115585714Y-38138152D01*
X115585714Y-38138152D02*
X115728571Y-38138152D01*
X115728571Y-38138152D02*
X115823810Y-38185771D01*
X115823810Y-38185771D02*
X115871429Y-38281009D01*
X115871429Y-38281009D02*
X115871429Y-38804819D01*
D11*
X90800000Y-46600000D02*
X90800000Y-38913580D01*
X131800000Y-46600000D02*
X131800000Y-38913580D01*
X90800000Y-39500000D02*
X131800000Y-39500000D01*
X90800000Y-39500000D02*
X131800000Y-39500000D01*
X90800000Y-39500000D02*
X91926504Y-38913579D01*
X90800000Y-39500000D02*
X91926504Y-40086421D01*
X131800000Y-39500000D02*
X130673496Y-40086421D01*
X131800000Y-39500000D02*
X130673496Y-38913579D01*
D10*
%TO.C,H5*%
X168500000Y-113600000D02*
G75*
G02*
X162500000Y-113600000I-3000000J0D01*
G01*
X162500000Y-113600000D02*
G75*
G02*
X168500000Y-113600000I3000000J0D01*
G01*
%TO.C,H2*%
X98800000Y-49600000D02*
G75*
G02*
X92800000Y-49600000I-3000000J0D01*
G01*
X92800000Y-49600000D02*
G75*
G02*
X98800000Y-49600000I3000000J0D01*
G01*
%TO.C,H3*%
X129800000Y-49600000D02*
G75*
G02*
X123800000Y-49600000I-3000000J0D01*
G01*
X123800000Y-49600000D02*
G75*
G02*
X129800000Y-49600000I3000000J0D01*
G01*
%TO.C,H4*%
X168500000Y-77100000D02*
G75*
G02*
X162500000Y-77100000I-3000000J0D01*
G01*
X162500000Y-77100000D02*
G75*
G02*
X168500000Y-77100000I3000000J0D01*
G01*
%TO.C,H1*%
X88500000Y-77100000D02*
G75*
G02*
X82500000Y-77100000I-3000000J0D01*
G01*
X82500000Y-77100000D02*
G75*
G02*
X88500000Y-77100000I3000000J0D01*
G01*
%TD*%
M02*
