%TF.GenerationSoftware,KiCad,Pcbnew,8.0.5*%
%TF.CreationDate,2024-10-07T01:52:40+09:00*%
%TF.ProjectId,fsk-energymeter,66736b2d-656e-4657-9267-796d65746572,v0.0.1*%
%TF.SameCoordinates,Original*%
%TF.FileFunction,Soldermask,Bot*%
%TF.FilePolarity,Negative*%
%FSLAX46Y46*%
G04 Gerber Fmt 4.6, Leading zero omitted, Abs format (unit mm)*
G04 Created by KiCad (PCBNEW 8.0.5) date 2024-10-07 01:52:40*
%MOMM*%
%LPD*%
G01*
G04 APERTURE LIST*
%ADD10C,3.400000*%
%ADD11C,6.000000*%
%ADD12C,1.050000*%
%ADD13C,1.300000*%
%ADD14C,2.900000*%
%ADD15C,5.000000*%
%ADD16C,2.000000*%
%ADD17C,1.524000*%
%ADD18R,1.700000X1.700000*%
%ADD19O,1.700000X1.700000*%
%ADD20C,2.350000*%
%ADD21C,2.850000*%
%ADD22C,2.025000*%
%ADD23C,1.000000*%
%ADD24R,0.700000X1.600000*%
%ADD25R,1.200000X1.500000*%
%ADD26R,1.200000X2.200000*%
%ADD27R,1.600000X1.500000*%
G04 APERTURE END LIST*
D10*
%TO.C,H5*%
X126800000Y-49600000D03*
D11*
X126800000Y-49600000D03*
%TD*%
D12*
%TO.C,BT1*%
X153400000Y-111100000D03*
D13*
X153400000Y-103650000D03*
%TD*%
D10*
%TO.C,H7*%
X165500000Y-113600000D03*
D11*
X165500000Y-113600000D03*
%TD*%
D14*
%TO.C,H1*%
X85500000Y-77100000D03*
D15*
X85500000Y-77100000D03*
%TD*%
D10*
%TO.C,H3*%
X85500000Y-113600000D03*
D11*
X85500000Y-113600000D03*
%TD*%
D10*
%TO.C,H6*%
X165500000Y-77100000D03*
D11*
X165500000Y-77100000D03*
%TD*%
D16*
%TO.C,U1*%
X105000000Y-77700000D03*
X117000000Y-48700000D03*
D17*
X122200000Y-81000000D03*
X122200000Y-78500000D03*
X122200000Y-76000000D03*
%TD*%
D18*
%TO.C,J2*%
X163800000Y-89000000D03*
D19*
X163800000Y-91540000D03*
X163800000Y-94080000D03*
X163800000Y-96620000D03*
X166340000Y-89000000D03*
X166340000Y-91540000D03*
X166340000Y-94080000D03*
X166340000Y-96620000D03*
%TD*%
D20*
%TO.C,J1*%
X127100000Y-108300000D03*
D21*
X127100000Y-112300000D03*
D20*
X142100000Y-108300000D03*
D21*
X142100000Y-112300000D03*
D22*
X132830000Y-106530000D03*
X136370000Y-106530000D03*
X136370000Y-110070000D03*
X132830000Y-110070000D03*
X134600000Y-108300000D03*
%TD*%
D14*
%TO.C,H2*%
X85500000Y-98800000D03*
D15*
X85500000Y-98800000D03*
%TD*%
D10*
%TO.C,H4*%
X95800000Y-49900000D03*
D11*
X95800000Y-49900000D03*
%TD*%
D23*
%TO.C,J3*%
X158700000Y-109000000D03*
X150700000Y-109000000D03*
D24*
X151500000Y-98000000D03*
X152600000Y-98000000D03*
X153700000Y-98000000D03*
X154800000Y-98000000D03*
X155900000Y-98000000D03*
X157000000Y-98000000D03*
X158100000Y-98000000D03*
X159200000Y-98000000D03*
X160300000Y-98000000D03*
D25*
X161500000Y-99000000D03*
D26*
X161500000Y-108600000D03*
X146000000Y-108600000D03*
D27*
X146900000Y-99000000D03*
%TD*%
M02*
